<?xml version="1.0" encoding="UTF-8"?>
<svg version="1.1" xmlns="http://www.w3.org/2000/svg" width="512" height="512">
<path d="M0 0 C0.96988861 0.00182281 1.93977722 0.00364563 2.9390564 0.00552368 C17.29056055 0.05091691 31.25442918 0.5562653 45.375 3.3125 C46.72053955 3.55395752 46.72053955 3.55395752 48.09326172 3.80029297 C107.45170249 14.54114763 164.60219149 48.10059308 201.375 96.3125 C201.89030273 96.97846191 202.40560547 97.64442383 202.93652344 98.33056641 C211.77462111 109.79286821 219.61555943 121.50954969 226.375 134.3125 C226.86210449 135.23208496 227.34920898 136.15166992 227.85107422 137.09912109 C240.18748031 160.73762489 248.92742101 185.99535558 253.375 212.3125 C253.53581055 213.23611328 253.69662109 214.15972656 253.86230469 215.11132812 C258.48016309 242.81847852 258.18891868 272.66382079 253.375 300.3125 C253.14151855 301.69405273 253.14151855 301.69405273 252.90332031 303.10351562 C248.2597146 329.55631146 238.83566766 354.60606849 226.375 378.3125 C225.81449951 379.38588623 225.81449951 379.38588623 225.24267578 380.48095703 C214.55653815 400.69202921 200.17835949 418.88779538 184.375 435.3125 C183.82440918 435.89032227 183.27381836 436.46814453 182.70654297 437.06347656 C175.0295537 445.08892181 167.07894567 452.34545455 158.16796875 458.97705078 C156.33092428 460.34532873 154.50911069 461.73235529 152.6875 463.12109375 C144.26077324 469.48709778 135.56596417 475.11811381 126.375 480.3125 C125.74464844 480.67553223 125.11429687 481.03856445 124.46484375 481.41259766 C98.43468245 496.31420767 69.01621275 505.958635 39.375 510.3125 C38.17037109 510.48982666 36.96574219 510.66715332 35.72460938 510.84985352 C24.06732646 512.448825 12.50313902 512.6709053 0.75 512.625 C-0.70483292 512.62226578 -0.70483292 512.62226578 -2.1890564 512.61947632 C-16.54056055 512.57408309 -30.50442918 512.0687347 -44.625 509.3125 C-45.52202637 509.15152832 -46.41905273 508.99055664 -47.34326172 508.82470703 C-106.70170249 498.08385237 -163.85219149 464.52440692 -200.625 416.3125 C-201.3979541 415.31355713 -201.3979541 415.31355713 -202.18652344 414.29443359 C-211.02462111 402.83213179 -218.86555943 391.11545031 -225.625 378.3125 C-226.11210449 377.39291504 -226.59920898 376.47333008 -227.10107422 375.52587891 C-239.43748031 351.88737511 -248.17742101 326.62964442 -252.625 300.3125 C-252.78581055 299.38888672 -252.94662109 298.46527344 -253.11230469 297.51367188 C-257.73016309 269.80652148 -257.43891868 239.96117921 -252.625 212.3125 C-252.4693457 211.39146484 -252.31369141 210.47042969 -252.15332031 209.52148438 C-247.5097146 183.06868854 -238.08566766 158.01893151 -225.625 134.3125 C-225.25133301 133.59690918 -224.87766602 132.88131836 -224.49267578 132.14404297 C-213.81146794 111.94229469 -199.43865093 93.71713134 -183.625 77.3125 C-183.09084473 76.75643066 -182.55668945 76.20036133 -182.00634766 75.62744141 C-174.93970912 68.30879793 -167.66583546 61.56899276 -159.625 55.3125 C-158.18640625 54.14847656 -158.18640625 54.14847656 -156.71875 52.9609375 C-122.89139182 26.05281168 -81.33193809 8.58553089 -38.625 2.3125 C-37.42037109 2.13517334 -36.21574219 1.95784668 -34.97460938 1.77514648 C-23.31732646 0.176175 -11.75313902 -0.0459053 0 0 Z " fill="#3D3A40" transform="translate(255.625,-0.3125)"/>
<path d="M0 0 C6.68570023 -0.33620619 12.95397041 0.90997373 19.5 2.1875 C21.23624634 2.52370361 21.23624634 2.52370361 23.00756836 2.86669922 C31.6590486 4.60196008 39.74288257 6.91972755 48 10 C49.42215343 10.46537948 50.84542059 10.92736346 52.26953125 11.38671875 C82.68884176 21.46361488 110.89750382 38.87642315 134 61 C133.59224869 65.48250228 130.44243736 67.90677636 127.37866211 70.85083008 C126.79330185 71.42538437 126.20794159 71.99993866 125.60484314 72.59190369 C124.33388555 73.83806485 123.05963768 75.08087708 121.78251457 76.32071877 C119.76184964 78.28458988 117.75243192 80.25932576 115.74598694 82.23771667 C110.04029844 87.86089016 104.31975465 93.46865453 98.57983398 99.05688477 C95.06895091 102.47652488 91.57534918 105.91303891 88.09198189 109.36069298 C86.76159872 110.67061021 85.42467727 111.9739213 84.08119011 113.27039528 C82.2018101 115.08481278 80.34511905 116.91986657 78.49194336 118.76098633 C77.93247009 119.29057953 77.37299683 119.82017273 76.79656982 120.36581421 C73.99941465 123.19234745 73.03104357 124.7391503 72.55519104 128.7375946 C72.76155988 132.02717585 72.76155988 132.02717585 74.625 134.4375 C76.93501548 136.1447433 76.93501548 136.1447433 79.75 136.6875 C89.06865379 134.71624631 97.19295281 122.93471379 103.8125 116.28515625 C105.03395984 115.06182777 106.25564329 113.83872252 107.47753906 112.61582947 C110.6689961 109.42058239 113.85743667 106.22234214 117.04522705 103.0234375 C120.30825862 99.75011567 123.57417744 96.47967726 126.83984375 93.20898438 C133.22936797 86.80878491 139.61570451 80.40541493 146 74 C147.11143847 74.93047279 148.21970391 75.86473639 149.32666016 76.80053711 C149.94417145 77.32038681 150.56168274 77.84023651 151.19790649 78.37583923 C153.93908205 80.8463602 156.1481478 83.63179601 158.375 86.5625 C158.84341309 87.17037354 159.31182617 87.77824707 159.79443359 88.40454102 C186.56246385 123.43716658 205.64306372 164.70848249 209 209 C207.72044434 209.05945801 207.72044434 209.05945801 206.41503906 209.12011719 C164.55679821 211.14750322 123.39179174 216.90432804 85.9375 236.97460938 C83.94191997 238.03073792 81.92794953 239.04174702 79.90625 240.046875 C62.39063487 248.85969904 46.95789219 260.40752181 32 273 C30.85080037 273.95898075 29.70109598 274.9173571 28.55078125 275.875 C27.70902344 276.57625 26.86726563 277.2775 26 278 C22.72803548 276.56741228 20.56796044 274.81174684 18.05761719 272.28466797 C16.91688751 271.1437117 16.91688751 271.1437117 15.75311279 269.97970581 C14.94255432 269.15882477 14.13199585 268.33794373 13.296875 267.4921875 C12.45908508 266.65156769 11.62129517 265.81094788 10.75811768 264.94485474 C8.08401569 262.25955999 5.41695276 259.56739345 2.75 256.875 C0.93795938 255.05292845 -0.87453518 253.23130823 -2.6875 251.41015625 C-7.13028036 246.94532748 -11.56730165 242.47483717 -16 238 C-14.71691121 235.17788066 -13.39100996 233.14916614 -11.177948 230.98454285 C-10.60303619 230.41699783 -10.02812439 229.84945282 -9.43579102 229.26470947 C-8.80713135 228.65423767 -8.17847168 228.04376587 -7.53076172 227.41479492 C-6.86722687 226.76221207 -6.20369202 226.10962921 -5.52005005 225.43727112 C-4.0804669 224.02201971 -2.63877025 222.60891567 -1.19521713 221.19771385 C1.08814882 218.96301257 3.36306424 216.72004233 5.63546753 214.47419739 C12.09625253 208.0897642 18.5634195 201.71204443 25.05712891 195.36108398 C29.02964361 191.47470237 32.9849119 187.57147731 36.92950058 183.65676308 C38.43585062 182.16837479 39.94861248 180.68644693 41.46780777 179.2111721 C43.59140499 177.14775706 45.69237535 175.06360435 47.78955078 172.97338867 C48.42225891 172.36898956 49.05496704 171.76459045 49.70684814 171.14187622 C52.77945114 168.03293599 53.91158542 166.68857454 54.48580933 162.21650696 C54.22052241 158.97929716 54.22052241 158.97929716 52.4375 156.5625 C48.98439355 154.34897022 47.06166011 154.46620428 43 155 C40.22493176 156.77849578 38.05654588 159.0577268 35.77954102 161.42578125 C35.09576889 162.10853119 34.41199677 162.79128113 33.70750427 163.49472046 C31.4559775 165.75111636 29.2302447 168.03127043 27.00390625 170.3125 C25.44602605 171.8834385 23.88659107 173.45283655 22.32566833 175.02075195 C18.2247781 179.14834815 14.14534314 183.29653244 10.07000732 187.44934082 C5.90641965 191.68457994 1.72290437 195.90003181 -2.45898438 200.1171875 C-10.65896098 208.39220093 -18.8364101 216.6890987 -27 225 C-30.23617306 223.45952577 -32.40632246 221.83763539 -34.94238281 219.28466797 C-35.70286926 218.52403046 -36.46335571 217.76339294 -37.24688721 216.97970581 C-38.05744568 216.15882477 -38.86800415 215.33794373 -39.703125 214.4921875 C-40.54091492 213.65156769 -41.37870483 212.81094788 -42.24188232 211.94485474 C-44.91598431 209.25955999 -47.58304724 206.56739345 -50.25 203.875 C-52.06204062 202.05292845 -53.87453518 200.23130823 -55.6875 198.41015625 C-60.13028036 193.94532748 -64.56730165 189.47483717 -69 185 C-67.45792498 180.86511609 -65.79561341 178.4714827 -62.6875 175.3125 C-18.2697324 127.50747818 -2.83361009 63.23424623 0 0 Z " fill="#FDA71E" transform="translate(284,19)"/>
<path d="M0 0 C1.11143847 0.93047279 2.21970391 1.86473639 3.32666016 2.80053711 C3.94417145 3.32038681 4.56168274 3.84023651 5.19790649 4.37583923 C7.93908205 6.8463602 10.1481478 9.63179601 12.375 12.5625 C13.07761963 13.4743103 13.07761963 13.4743103 13.79443359 14.40454102 C40.56246385 49.43716658 59.64306372 90.70848249 63 135 C62.14696289 135.03963867 61.29392578 135.07927734 60.41503906 135.12011719 C18.55679821 137.14750322 -22.60820826 142.90432804 -60.0625 162.97460938 C-62.05808003 164.03073792 -64.07205047 165.04174702 -66.09375 166.046875 C-83.60936513 174.85969904 -99.04210781 186.40752181 -114 199 C-115.14919963 199.95898075 -116.29890402 200.9173571 -117.44921875 201.875 C-118.29097656 202.57625 -119.13273437 203.2775 -120 204 C-123.27196452 202.56741228 -125.43203956 200.81174684 -127.94238281 198.28466797 C-128.70286926 197.52403046 -129.46335571 196.76339294 -130.24688721 195.97970581 C-131.05744568 195.15882477 -131.86800415 194.33794373 -132.703125 193.4921875 C-133.54091492 192.65156769 -134.37870483 191.81094788 -135.24188232 190.94485474 C-137.91598431 188.25955999 -140.58304724 185.56739345 -143.25 182.875 C-145.06204062 181.05292845 -146.87453518 179.23130823 -148.6875 177.41015625 C-153.13028036 172.94532748 -157.56730165 168.47483717 -162 164 C-160.71691121 161.17788066 -159.39100996 159.14916614 -157.177948 156.98454285 C-156.60303619 156.41699783 -156.02812439 155.84945282 -155.43579102 155.26470947 C-154.80713135 154.65423767 -154.17847168 154.04376587 -153.53076172 153.41479492 C-152.86722687 152.76221207 -152.20369202 152.10962921 -151.52005005 151.43727112 C-150.0804669 150.02201971 -148.63877025 148.60891567 -147.19521713 147.19771385 C-144.91185118 144.96301257 -142.63693576 142.72004233 -140.36453247 140.47419739 C-133.90374747 134.0897642 -127.4365805 127.71204443 -120.94287109 121.36108398 C-116.97035639 117.47470237 -113.0150881 113.57147731 -109.07049942 109.65676308 C-107.56414938 108.16837479 -106.05138752 106.68644693 -104.53219223 105.2111721 C-102.40859501 103.14775706 -100.30762465 101.06360435 -98.21044922 98.97338867 C-97.57774109 98.36898956 -96.94503296 97.76459045 -96.29315186 97.14187622 C-93.24728872 94.05999207 -92.07968669 92.75669146 -91.61184692 88.31416321 C-91.73993744 87.22048935 -91.86802795 86.12681549 -92 85 C-92 78.4330699 -86.99658254 75.17790822 -82.5625 70.6875 C-81.68400391 69.74326172 -80.80550781 68.79902344 -79.90039062 67.82617188 C-73.25261094 61.07045776 -73.25261094 61.07045776 -69.61279297 60.86572266 C-68.14988761 61.1658461 -66.69259853 61.49564448 -65.24476624 61.8616333 C-62.98960288 62.21131108 -62.98960288 62.21131108 -61.27662659 60.98098755 C-60.70008835 60.43828217 -60.12355011 59.89557678 -59.52954102 59.33642578 C-58.8334523 58.68650162 -58.13736359 58.03657745 -57.42018127 57.36695862 C-56.62152145 56.58586227 -55.82286163 55.80476593 -55 55 C-54.0650621 54.0881041 -53.13012421 53.17620819 -52.16685486 52.23667908 C-48.81626151 48.94350345 -45.50195139 45.61463402 -42.1875 42.28515625 C-40.96604016 41.06182777 -39.74435671 39.83872252 -38.52246094 38.61582947 C-35.3310039 35.42058239 -32.14256333 32.22234214 -28.95477295 29.0234375 C-25.69174138 25.75011567 -22.42582256 22.47967726 -19.16015625 19.20898438 C-12.77063203 12.80878491 -6.38429549 6.40541493 0 0 Z " fill="#FE8700" transform="translate(430,93)"/>
<path d="M0 0 C3.23617306 1.54047423 5.40632246 3.16236461 7.94238281 5.71533203 C8.70286926 6.47596954 9.46335571 7.23660706 10.24688721 8.02029419 C11.46272491 9.25161575 11.46272491 9.25161575 12.703125 10.5078125 C13.54091492 11.34843231 14.37870483 12.18905212 15.24188232 13.05514526 C17.91598431 15.74044001 20.58304724 18.43260655 23.25 21.125 C25.06204062 22.94707155 26.87453518 24.76869177 28.6875 26.58984375 C33.13028036 31.05467252 37.56730165 35.52516283 42 40 C40.45792498 44.13488391 38.79561341 46.5285173 35.6875 49.6875 C10.43531441 76.86539183 -6.80277192 112.60127626 -17 148 C-17.36867187 149.24265625 -17.73734375 150.4853125 -18.1171875 151.765625 C-24.65345501 175.57993297 -25.85946402 200.45529474 -27 225 C-34.47783154 225.3808585 -41.38696635 223.97156997 -48.6875 222.4375 C-50.61710571 222.03204956 -50.61710571 222.03204956 -52.58569336 221.6184082 C-91.41730791 213.26455348 -129.16950337 193.93377225 -158.1796875 166.64453125 C-159.91084045 164.93301559 -159.91084045 164.93301559 -162 164 C-160.72807839 161.2163815 -159.41812466 159.16864403 -157.25512505 157.00902939 C-156.69379966 156.4437219 -156.13247427 155.87841442 -155.55413902 155.2959764 C-154.93741297 154.68507604 -154.32068693 154.07417568 -153.68527222 153.44476318 C-153.03019499 152.78797711 -152.37511776 152.13119103 -151.70018971 151.45450234 C-149.50000415 149.25101785 -147.29273769 147.05476602 -145.08544922 144.85839844 C-143.50839008 143.28190333 -141.93177098 141.70496792 -140.3555603 140.12762451 C-136.0710266 135.84251596 -131.78034547 131.56361061 -127.48855734 127.28576946 C-123.00598687 122.81568429 -118.52906304 118.33995128 -114.05154419 113.86480713 C-106.53415869 106.35293562 -99.01329099 98.84456838 -91.48974609 91.33886719 C-83.74065799 83.60813862 -75.99367437 75.87531114 -68.24951172 68.13964844 C-67.77211787 67.66278004 -67.29472403 67.18591164 -66.8028637 66.69459268 C-64.40791918 64.30225825 -62.01301597 61.90988245 -59.61813331 59.5174861 C-39.75182381 39.6719082 -19.87820469 19.83366259 0 0 Z " fill="#FD8700" transform="translate(255,268)"/>
<path d="M0 0 C3.27196452 1.43258772 5.43203956 3.18825316 7.94238281 5.71533203 C8.70286926 6.47596954 9.46335571 7.23660706 10.24688721 8.02029419 C11.46272491 9.25161575 11.46272491 9.25161575 12.703125 10.5078125 C13.54091492 11.34843231 14.37870483 12.18905212 15.24188232 13.05514526 C17.91598431 15.74044001 20.58304724 18.43260655 23.25 21.125 C25.06204062 22.94707155 26.87453518 24.76869177 28.6875 26.58984375 C33.13028036 31.05467252 37.56730165 35.52516283 42 40 C40.72807839 42.7836185 39.41812466 44.83135597 37.25512505 46.99097061 C36.69379966 47.5562781 36.13247427 48.12158558 35.55413902 48.7040236 C34.93741297 49.31492396 34.32068693 49.92582432 33.68527222 50.55523682 C33.03019499 51.21202289 32.37511776 51.86880897 31.70018971 52.54549766 C29.50000415 54.74898215 27.29273769 56.94523398 25.08544922 59.14160156 C23.50839008 60.71809667 21.93177098 62.29503208 20.3555603 63.87237549 C16.0710266 68.15748404 11.78034547 72.43638939 7.48855734 76.71423054 C3.00598687 81.18431571 -1.47093696 85.66004872 -5.94845581 90.13519287 C-13.46584131 97.64706438 -20.98670901 105.15543162 -28.51025391 112.66113281 C-36.25934201 120.39186138 -44.00632563 128.12468886 -51.75048828 135.86035156 C-52.22788213 136.33721996 -52.70527597 136.81408836 -53.1971363 137.30540732 C-55.59208082 139.69774175 -57.98698403 142.09011755 -60.38186669 144.4825139 C-80.24817619 164.3280918 -100.12179531 184.16633741 -120 204 C-121.11143847 203.06952721 -122.21970391 202.13526361 -123.32666016 201.19946289 C-123.94417145 200.67961319 -124.56168274 200.15976349 -125.19790649 199.62416077 C-127.93908205 197.1536398 -130.1481478 194.36820399 -132.375 191.4375 C-132.84341309 190.82962646 -133.31182617 190.22175293 -133.79443359 189.59545898 C-150.83332424 167.29583252 -164.64062735 142.87300664 -173 116 C-173.28858887 115.09668945 -173.57717773 114.19337891 -173.87451172 113.26269531 C-178.39339165 99.02810543 -183 84.08545051 -183 69 C-181.60430786 68.93268677 -181.60430786 68.93268677 -180.18041992 68.86401367 C-157.19443949 67.87331713 -157.19443949 67.87331713 -134.42260742 64.81347656 C-130.99172514 64.17126361 -127.55281825 63.61479885 -124.10449219 63.07325745 C-114.23955826 61.47078177 -104.94866067 58.77783769 -95.5 55.5625 C-94.33860504 55.17257874 -94.33860504 55.17257874 -93.15374756 54.77478027 C-78.85153438 49.95029951 -65.33403989 44.10920005 -52 37 C-51.29311035 36.6292334 -50.5862207 36.2584668 -49.85791016 35.87646484 C-33.91613444 27.45234227 -19.77891653 16.532775 -6 5 C-4.84651607 4.03886816 -3.69288219 3.07791624 -2.5390625 2.1171875 C-1.70117188 1.41851562 -0.86328125 0.71984375 0 0 Z " fill="#FEA71E" transform="translate(202,215)"/>
<path d="M0 0 C0.56168415 23.47839748 -1.06260732 46.2227549 -7 69 C-7.33161133 70.27327148 -7.33161133 70.27327148 -7.66992188 71.57226562 C-16.35058728 104.15354295 -31.02616751 133.63503024 -52 160 C-52.76787842 160.96752197 -52.76787842 160.96752197 -53.55126953 161.95458984 C-55.04059508 163.81542382 -56.54632536 165.66100227 -58.0625 167.5 C-58.51560547 168.05856689 -58.96871094 168.61713379 -59.43554688 169.19262695 C-60.55637117 170.5215861 -61.77174926 171.76964248 -63 173 C-66 173 -66 173 -68.05581951 171.3189106 C-68.84948327 170.5250791 -69.64314703 169.7312476 -70.46086121 168.9133606 C-71.37371384 168.00752228 -72.28656647 167.10168396 -73.2270813 166.168396 C-74.23641395 165.15163502 -75.24559463 164.13472317 -76.25463867 163.11767578 C-77.31847764 162.05626371 -78.38296175 160.99549791 -79.44804382 159.93533325 C-82.34316921 157.04963397 -85.22876879 154.15457767 -88.11252379 151.25752115 C-91.12666756 148.23208557 -94.14849446 145.2143417 -97.16926575 142.19552612 C-102.24103359 137.12464191 -107.30677825 132.04780126 -112.36889648 126.96728516 C-118.22871525 121.08629205 -124.09732111 115.21418384 -129.97085398 109.34688962 C-135.61233433 103.7110957 -141.2481394 98.06966108 -146.88115883 92.42541122 C-149.28252937 90.01938571 -151.68578636 87.61526772 -154.09053612 85.21261978 C-156.91950168 82.38553214 -159.74344793 79.55352531 -162.56352425 76.71757126 C-163.60188041 75.67495769 -164.64195719 74.63405461 -165.68383026 73.59495544 C-167.10053462 72.18145245 -168.51051705 70.76122163 -169.92008972 69.34060669 C-171.10888875 68.14872836 -171.10888875 68.14872836 -172.32170391 66.93277168 C-174 65 -174 65 -174 63 C-172.0859375 61.22265625 -172.0859375 61.22265625 -169.375 59.0625 C-168.364375 58.25683594 -167.35375 57.45117188 -166.3125 56.62109375 C-165.49845703 55.97889893 -165.49845703 55.97889893 -164.66796875 55.32373047 C-163.01628054 54.01292053 -161.38207737 52.6827699 -159.75 51.34765625 C-133.42166634 29.97928576 -102.34245571 14.19282339 -69.26757812 6.52636719 C-66.9909866 5.99790774 -64.72238265 5.44183427 -62.453125 4.8828125 C-41.6566998 -0.13089234 -21.27915257 -0.26380792 0 0 Z " fill="#FDA71E" transform="translate(267,17)"/>
<path d="M0 0 C6.04727991 5.01704125 11.60708027 10.43970324 17.17382812 15.98095703 C18.18122574 16.98043742 19.18879902 17.97974079 20.1965332 18.97888184 C23.47846202 22.23482209 26.75514711 25.49601184 30.03125 28.7578125 C31.16270864 29.88390572 32.29417331 31.00999288 33.42564392 32.13607407 C38.12733683 36.8161905 42.82761176 41.49772331 47.52417755 46.18298531 C54.24594689 52.88846386 60.97610803 59.58526384 67.71805239 66.27045929 C72.46656225 70.9803543 77.20552902 75.69971534 81.93741941 80.42630661 C84.76205848 83.2472865 87.59075702 86.06389936 90.42970276 88.87048721 C93.09347828 91.50432377 95.74528847 94.14962948 98.38821411 96.80438232 C99.36147266 97.77786266 100.33904882 98.7470476 101.32112122 99.71163559 C102.65721766 101.02522002 103.97664747 102.35569386 105.29504395 103.68704224 C106.41106365 104.79809672 106.41106365 104.79809672 107.54962921 105.93159676 C109 108 109 108 108.85509491 110.13259697 C98.74655569 132.20817778 54.09712009 150.84639713 33.3125 158.75 C5.85139028 168.843174 -21.56348669 174.26230934 -50.8125 174.0625 C-52.08931641 174.05798828 -53.36613281 174.05347656 -54.68164062 174.04882812 C-57.78781211 174.03719452 -60.89387908 174.02085075 -64 174 C-64.41088077 146.59425285 -64.41088077 146.59425285 -62.31201172 133.05273438 C-61.98130184 130.87698428 -61.69437577 128.69790818 -61.41015625 126.515625 C-55.10683083 80.30252623 -33.15411111 33.15411111 0 0 Z " fill="#FD8700" transform="translate(309,321)"/>
<path d="M0 0 C3.55089918 1.51277873 5.82808345 3.58120101 8.54315186 6.30264282 C9.448965 7.20570663 10.35477814 8.10877045 11.28804016 9.03919983 C12.28424222 10.04247963 13.28034802 11.04585503 14.27636719 12.04931641 C15.33070133 13.1042148 16.38547628 14.15867277 17.44065857 15.21272278 C20.3022641 18.07375435 23.15766007 20.9409117 26.01198864 23.80920076 C28.9966232 26.80633542 31.98692016 29.79780958 34.97662354 32.78988647 C40.63643763 38.45591744 46.29113403 44.1270275 51.94401383 49.79997575 C58.38018203 56.25849646 64.82202826 62.71134098 71.26435995 69.16371274 C84.51590543 82.43616492 97.76029626 95.71573581 111 109 C105.51427843 115.64355889 105.51427843 115.64355889 102.94140625 117.640625 C102.39846924 118.06601563 101.85553223 118.49140625 101.29614258 118.9296875 C100.72404053 119.36539063 100.15193848 119.80109375 99.5625 120.25 C98.94979248 120.72179687 98.33708496 121.19359375 97.70581055 121.6796875 C95.81115991 123.12969254 93.90699094 124.56627689 92 126 C91.43603516 126.42861328 90.87207031 126.85722656 90.29101562 127.29882812 C68.85817552 143.50662082 44.99502865 154.80155258 19.55688477 163.15527344 C17.91502952 163.69769864 16.27703985 164.25205078 14.64428711 164.82128906 C5.96140269 167.83273764 -2.96920519 169.39266054 -12 171 C-13.28680664 171.23299805 -13.28680664 171.23299805 -14.59960938 171.47070312 C-30.75505459 174.30434613 -46.64472562 174.33663484 -63 174 C-63.21766768 159.48156549 -63.10417717 145.37108235 -61 131 C-60.89042969 129.87207031 -60.78085937 128.74414062 -60.66796875 127.58203125 C-57.95048015 101.15370809 -48.48862059 75.30152419 -36 52 C-35.62649414 51.28779297 -35.25298828 50.57558594 -34.86816406 49.84179688 C-26.426828 33.77444113 -16.43510539 19.33953445 -4.3984375 5.7578125 C-1.94354618 3.05340464 -1.94354618 3.05340464 0 0 Z " fill="#FEA71E" transform="translate(80,93)"/>
<path d="M0 0 C0.45479098 29.65237196 -1.64076423 58.90829805 -12 87 C-12.32564941 87.89058105 -12.65129883 88.78116211 -12.98681641 89.69873047 C-24.07127046 119.59166964 -39.45646775 153.5651742 -65 174 C-100.97 138.03 -136.94 102.06 -174 65 C-168.37106665 58.24527997 -168.37106665 58.24527997 -165.94140625 56.359375 C-165.39846924 55.93398438 -164.85553223 55.50859375 -164.29614258 55.0703125 C-163.72404053 54.63460937 -163.15193848 54.19890625 -162.5625 53.75 C-161.94979248 53.27820313 -161.33708496 52.80640625 -160.70581055 52.3203125 C-158.81115991 50.87030746 -156.90699094 49.43372311 -155 48 C-154.43603516 47.57138672 -153.87207031 47.14277344 -153.29101562 46.70117188 C-108.848634 13.09326435 -55.20821817 -1.59154415 0 0 Z " fill="#FE8700" transform="translate(495,245)"/>
</svg>
