<?xml version="1.0" encoding="UTF-8"?>
<svg version="1.1" xmlns="http://www.w3.org/2000/svg" width="512" height="512">
<path d="M0 0 C1.01823853 0.00215515 2.03647705 0.0043103 3.08557129 0.00653076 C17.70747424 0.05622604 32.00633932 0.36188758 46.375 3.3125 C47.89383789 3.61051514 47.89383789 3.61051514 49.44335938 3.91455078 C97.68785355 13.56200431 141.91105134 36.15565116 177.375 70.3125 C178.3640332 71.26068604 178.3640332 71.26068604 179.37304688 72.22802734 C188.86130305 81.37247479 197.6012044 90.66984009 205.375 101.3125 C206.23306152 102.46355017 207.09113451 103.61459177 207.94921875 104.765625 C213.98677396 112.95525981 219.36957302 121.45788276 224.375 130.3125 C224.7771875 131.01971191 225.179375 131.72692383 225.59375 132.45556641 C238.6191741 155.59095836 247.36801461 180.76212409 252.6875 206.75 C252.83485596 207.46889404 252.98221191 208.18778809 253.1340332 208.9284668 C256.10789088 224.57475609 256.74800362 240.04818046 256.6875 255.9375 C256.68534485 256.95540619 256.6831897 257.97331238 256.68096924 259.02206421 C256.63129854 273.63113523 256.38040191 287.96325853 253.375 302.3125 C253.07698486 303.77478027 253.07698486 303.77478027 252.77294922 305.26660156 C240.31286762 364.83232498 208.4226363 421.18616419 159.375 458.3125 C158.83617187 458.72773926 158.29734375 459.14297852 157.7421875 459.57080078 C123.11314585 486.1928471 82.61124453 503.7738241 39.375 510.3125 C38.25254883 510.48910156 37.13009766 510.66570312 35.97363281 510.84765625 C24.36052257 512.5045586 12.84320055 512.71123513 1.125 512.6875 C-0.39302216 512.68668427 -0.39302216 512.68668427 -1.94171143 512.68585205 C-18.47030572 512.64511956 -34.40413999 511.74174222 -50.625 508.3125 C-51.66688477 508.09287598 -52.70876953 507.87325195 -53.78222656 507.64697266 C-113.01577559 494.7267805 -168.58529487 460.48175556 -204.625 411.3125 C-205.26211914 410.45857666 -205.26211914 410.45857666 -205.91210938 409.58740234 C-212.42768015 400.84658179 -218.26088547 391.80163672 -223.625 382.3125 C-224.0271875 381.60528809 -224.429375 380.89807617 -224.84375 380.16943359 C-237.8691741 357.03404164 -246.61801461 331.86287591 -251.9375 305.875 C-252.08485596 305.15610596 -252.23221191 304.43721191 -252.3840332 303.6965332 C-255.35789088 288.05024391 -255.99800362 272.57681954 -255.9375 256.6875 C-255.93534485 255.66959381 -255.9331897 254.65168762 -255.93096924 253.60293579 C-255.88129854 238.99386477 -255.63040191 224.66174147 -252.625 210.3125 C-252.42632324 209.33764648 -252.22764648 208.36279297 -252.02294922 207.35839844 C-241.90232806 158.9765226 -219.9858123 114.98821731 -185.625 79.3125 C-184.99287598 78.65314453 -184.36075195 77.99378906 -183.70947266 77.31445312 C-174.56502521 67.82619695 -165.26765991 59.0862956 -154.625 51.3125 C-153.47394983 50.45443848 -152.32290823 49.59636549 -151.171875 48.73828125 C-142.98224019 42.70072604 -134.47961724 37.31792698 -125.625 32.3125 C-124.91778809 31.9103125 -124.21057617 31.508125 -123.48193359 31.09375 C-100.34654164 18.0683259 -75.17537591 9.31948539 -49.1875 4 C-48.46860596 3.85264404 -47.74971191 3.70528809 -47.0090332 3.5534668 C-31.36274321 0.57960898 -15.88931915 -0.06049808 0 0 Z " fill="#CED7DB" transform="translate(255.625,-0.3125)"/>
<path d="M0 0 C1.12728516 -0.00845947 2.25457031 -0.01691895 3.41601562 -0.02563477 C4.65351563 -0.01956207 5.89101562 -0.01348938 7.16601562 -0.00723267 C8.46861328 -0.01248962 9.77121094 -0.01774658 11.11328125 -0.02316284 C14.68765615 -0.03685258 18.26177162 -0.03153111 21.83615112 -0.02202559 C25.57436835 -0.0144375 29.31256316 -0.02147222 33.05078125 -0.02618408 C39.32881667 -0.03164413 45.60674627 -0.02444353 51.88476562 -0.01016235 C59.14607474 0.00616471 66.40713116 0.00087637 73.66843414 -0.01564157 C79.89950984 -0.02924939 86.1305094 -0.03117957 92.36159515 -0.02332556 C96.08461144 -0.01864514 99.8075089 -0.01803424 103.53051758 -0.02793503 C107.68000285 -0.03819888 111.82905154 -0.02397886 115.97851562 -0.00723267 C117.83476562 -0.01634171 117.83476562 -0.01634171 119.72851562 -0.02563477 C121.41944336 -0.01294556 121.41944336 -0.01294556 123.14453125 0 C124.61678162 0.00169662 124.61678162 0.00169662 126.11877441 0.00342751 C129.01567835 0.4491797 129.84800954 1.0527456 131.57226562 3.38095093 C132.6077691 5.88005443 133.51476193 8.32374863 134.36523438 10.88485718 C134.75983856 12.03983955 134.75983856 12.03983955 135.16241455 13.21815491 C136.03761103 15.79017031 136.89900878 18.36657025 137.75976562 20.94345093 C138.37348592 22.76028183 138.98750585 24.57701153 139.60180664 26.39364624 C145.24357631 43.14674337 150.63523427 59.98167393 155.97729492 76.83236694 C156.29402664 77.8309523 156.61075836 78.82953766 156.93708801 79.85838318 C157.55982874 81.82187258 158.18206251 83.78552286 158.80375671 85.74934387 C160.36301157 90.65541112 161.95454521 95.54801687 163.60009766 100.4258728 C163.9264772 101.39337463 164.25285675 102.36087646 164.58912659 103.35769653 C165.21121161 105.19319446 165.83741382 107.02730384 166.46836853 108.85977173 C166.74507889 109.67468079 167.02178925 110.48958984 167.30688477 111.32919312 C167.67457726 112.3985611 167.67457726 112.3985611 168.04969788 113.48953247 C168.57226562 115.38095093 168.57226562 115.38095093 168.57226562 118.38095093 C169.27754395 118.64037476 169.98282227 118.89979858 170.70947266 119.16708374 C173.79782394 120.47659104 176.51623215 122.05110083 179.37695312 123.80282593 C180.20472008 124.30743347 180.20472008 124.30743347 181.04920959 124.82223511 C182.85076413 125.92158141 184.64900719 127.02622284 186.44726562 128.13095093 C187.70819209 128.901823 188.96934397 129.67232649 190.23071289 130.44247437 C192.79079565 132.00614338 195.34969895 133.57171568 197.90771484 135.13876343 C201.19894418 137.15402532 204.49571798 139.16001435 207.79492188 141.16220093 C208.75180908 141.74316528 209.70869629 142.32412964 210.69458008 142.92269897 C212.56105701 144.05527543 214.42807611 145.18695891 216.2956543 146.31771851 C221.07307101 149.21863994 225.81686316 152.16227662 230.52539062 155.17391968 C231.48840088 155.78525757 232.45141113 156.39659546 233.44360352 157.02645874 C235.27772692 158.19355591 237.10543366 159.37081877 238.92553711 160.55966187 C239.74094971 161.07689819 240.5563623 161.59413452 241.39648438 162.12704468 C242.46515747 162.81818359 242.46515747 162.81818359 243.55541992 163.52328491 C245.52774444 164.54662536 245.52774444 164.54662536 247.64868164 164.21102905 C249.90077553 163.23919009 250.94630421 162.22251569 252.52539062 160.35360718 C253.32420654 159.42040649 253.32420654 159.42040649 254.13916016 158.46835327 C254.97229736 157.46602661 254.97229736 157.46602661 255.82226562 156.44345093 C256.40218262 155.7597644 256.98209961 155.07607788 257.57958984 154.37167358 C261.31788144 149.94516094 264.96749618 145.45184772 268.55273438 140.90048218 C271.44261599 137.29511729 274.44196287 133.78606197 277.43603516 130.2671814 C281.10365005 125.95092442 284.69367362 121.57598132 288.26757812 117.18173218 C291.24332476 113.56544347 294.28814467 110.01019354 297.33032227 106.44979858 C301.32886266 101.73780823 305.13763846 96.88796001 308.86865234 91.96176147 C311.18480851 88.94918462 313.38106159 86.4689313 316.57226562 84.38095093 C317.53287095 90.05603007 317.74718179 95.56833513 317.77539062 101.31845093 C317.78245026 102.26762894 317.78950989 103.21680695 317.79678345 104.19474792 C318.02490826 143.89636607 318.02490826 143.89636607 314.57226562 160.38095093 C314.27425049 161.8432312 314.27425049 161.8432312 313.97021484 163.33505249 C301.51013324 222.90077591 269.61990193 279.25461512 220.57226562 316.38095093 C220.0334375 316.79619019 219.49460937 317.21142944 218.93945312 317.63925171 C184.31041147 344.26129802 143.80851016 361.84227503 100.57226562 368.38095093 C99.44981445 368.55755249 98.32736328 368.73415405 97.17089844 368.91610718 C85.5577882 370.57300953 74.04046617 370.77968606 62.32226562 370.75595093 C60.80424347 370.75513519 60.80424347 370.75513519 59.2555542 370.75430298 C42.7269599 370.71357048 26.79312563 369.81019314 10.57226562 366.38095093 C9.53038086 366.1613269 8.48849609 365.94170288 7.41503906 365.71542358 C-10.82035864 361.73786617 -29.03672718 356.47596102 -45.42773438 347.38095093 C-43.10612011 344.79447031 -40.78054257 343.37246279 -37.67871094 341.82821655 C-36.71209534 341.3434082 -35.74547974 340.85859985 -34.74957275 340.35910034 C-33.69977234 339.84037354 -32.64997192 339.32164673 -31.56835938 338.78720093 C-30.47295837 338.24043701 -29.37755737 337.6936731 -28.2489624 337.13034058 C-25.91671899 335.96758529 -23.58303629 334.80771319 -21.24804688 333.65048218 C-17.75806527 331.92076482 -14.27219218 330.18301363 -10.78710938 328.44345093 C1.02161534 322.55994609 12.86319051 316.75330656 24.78643799 311.10507202 C33.56485448 306.94093821 42.22765899 302.55455691 50.87426758 298.12435913 C52.57226562 297.38095093 52.57226562 297.38095093 54.57226562 297.38095093 C54.88298019 285.61045458 55.0892722 273.84306156 55.16554546 262.06857777 C55.20418666 256.59941449 55.27755558 251.13549749 55.43286133 245.66830444 C55.58169608 240.3824377 55.63594343 235.10297025 55.62711525 229.81509972 C55.63990881 227.80739306 55.68570565 225.79959443 55.76633263 223.79346657 C56.37228125 212.82142537 56.37228125 212.82142537 51.74454117 203.30819321 C47.21910436 199.44541863 42.23241166 196.57856723 37.00521278 193.77869225 C33.07148808 191.5187461 29.60078561 188.71733918 26.07226562 185.88095093 C19.35582595 180.64693631 12.43630225 175.80387178 5.37695312 171.04501343 C0.81748966 167.95803242 -3.59771412 164.78232471 -7.92773438 161.38095093 C-13.09896491 157.32301716 -18.42714741 153.57282383 -23.86523438 149.88095093 C-24.67275146 149.33261597 -25.48026855 148.78428101 -26.31225586 148.21932983 C-27.11091064 147.67711792 -27.90956543 147.13490601 -28.73242188 146.57626343 C-33.01019224 143.67130189 -37.26583482 140.73801152 -41.49023438 137.75595093 C-42.06765381 137.35440796 -42.64507324 136.95286499 -43.23999023 136.53915405 C-45.93551824 134.62489673 -47.56531951 133.17457323 -49.42773438 130.38095093 C-49.10408138 124.13075846 -47.39874133 118.59871468 -45.39599609 112.70223999 C-45.08522629 111.76759415 -44.77445648 110.8329483 -44.45426941 109.86997986 C-43.42916613 106.79306112 -42.39342228 103.71984097 -41.35742188 100.64657593 C-40.63513739 98.48652349 -39.91347843 96.3262618 -39.19241333 94.165802 C-37.2915194 88.47651897 -35.3813951 82.7903753 -33.46954346 77.10476685 C-31.92813792 72.51570496 -30.39329385 67.9244625 -28.85883904 63.33307266 C-27.00648597 57.79097464 -25.15110284 52.24989291 -23.29492188 46.70907593 C-22.94968349 45.67827156 -22.60444511 44.64746719 -22.24874496 43.58542633 C-20.30167167 37.77660597 -18.34431857 31.9714231 -16.37306976 26.17076111 C-15.73066041 24.27492587 -15.0917723 22.37789456 -14.4560318 20.47981262 C-13.52014648 17.68714232 -12.57311037 14.89848335 -11.62353516 12.11044312 C-11.34506681 11.27133015 -11.06659847 10.43221718 -10.7796917 9.56767654 C-10.5142663 8.79584408 -10.2488409 8.02401161 -9.97537231 7.22879028 C-9.7478937 6.5550877 -9.52041508 5.88138512 -9.28604317 5.1872673 C-7.12471043 0.63872866 -4.90497533 0.00565247 0 0 Z " fill="#CED7DB" transform="translate(194.427734375,141.61904907226563)"/>
<path d="M0 0 C1.12728516 -0.00845947 2.25457031 -0.01691895 3.41601562 -0.02563477 C4.65351563 -0.01956207 5.89101562 -0.01348938 7.16601562 -0.00723267 C8.46861328 -0.01248962 9.77121094 -0.01774658 11.11328125 -0.02316284 C14.68765615 -0.03685258 18.26177162 -0.03153111 21.83615112 -0.02202559 C25.57436835 -0.0144375 29.31256316 -0.02147222 33.05078125 -0.02618408 C39.32881667 -0.03164413 45.60674627 -0.02444353 51.88476562 -0.01016235 C59.14607474 0.00616471 66.40713116 0.00087637 73.66843414 -0.01564157 C79.89950984 -0.02924939 86.1305094 -0.03117957 92.36159515 -0.02332556 C96.08461144 -0.01864514 99.8075089 -0.01803424 103.53051758 -0.02793503 C107.68000285 -0.03819888 111.82905154 -0.02397886 115.97851562 -0.00723267 C117.83476562 -0.01634171 117.83476562 -0.01634171 119.72851562 -0.02563477 C121.41944336 -0.01294556 121.41944336 -0.01294556 123.14453125 0 C124.61678162 0.00169662 124.61678162 0.00169662 126.11877441 0.00342751 C129.01567835 0.4491797 129.84800954 1.0527456 131.57226562 3.38095093 C132.6077674 5.88005034 133.51476332 8.3237522 134.36523438 10.88485718 C134.62816788 11.65443756 134.89110138 12.42401794 135.16200256 13.21691895 C136.0373452 15.78934341 136.89887266 18.36615776 137.75976562 20.94345093 C138.37568512 22.76687297 138.99190242 24.59019443 139.60839844 26.41342163 C145.20736188 43.03992273 150.55072547 59.74933626 155.85424805 76.47201538 C158.77415314 85.67367428 161.70102244 94.86889658 164.80664062 104.00985718 C165.04835999 104.72296555 165.29007935 105.43607391 165.53912354 106.17079163 C166.62325625 109.36249807 167.71853691 112.54931063 168.83105469 115.73129272 C169.1994043 116.80677368 169.56775391 117.88225464 169.94726562 118.99032593 C170.264375 119.89750366 170.58148438 120.8046814 170.90820312 121.73934937 C171.66554116 124.75199552 171.8181929 127.28607549 171.57226562 130.38095093 C167.85863778 135.06560721 162.70066615 138.39317059 157.88476562 141.88095093 C157.04824463 142.49188599 156.21172363 143.10282104 155.34985352 143.73226929 C152.76107715 145.62039008 150.16747211 147.50168056 147.57226562 149.38095093 C146.7952832 149.94443237 146.01830078 150.50791382 145.21777344 151.08847046 C139.26888007 155.40058371 133.30634043 159.69366012 127.34277344 163.98544312 C118.8863345 170.07333898 110.45341389 176.18968798 102.07226562 182.38095093 C94.26978938 188.14416184 86.43808617 193.8643587 78.55273438 199.51376343 C76.15593291 201.23132999 73.78983188 202.9714302 71.43554688 204.74813843 C70.57316406 205.39009155 69.71078125 206.03204468 68.82226562 206.69345093 C68.12617188 207.22583374 67.43007813 207.75821655 66.71289062 208.30673218 C63.63987529 209.84884754 61.993029 209.93189118 58.57226562 209.38095093 C55.60458187 207.76772669 52.99266449 205.75333976 50.32226562 203.69345093 C48.71317045 202.49125338 47.10378743 201.28944103 45.49414062 200.08798218 C44.26727539 199.16106567 44.26727539 199.16106567 43.015625 198.21542358 C39.24113213 195.38153675 35.40623287 192.63351041 31.57226562 189.88095093 C30.07193042 188.79808187 28.5719313 187.71474702 27.07226562 186.63095093 C26.32976562 186.09470093 25.58726562 185.55845093 24.82226562 185.00595093 C0.07226562 167.13095093 0.07226562 167.13095093 -2.17822266 165.50546265 C-3.67642336 164.42351914 -5.17479546 163.34181291 -6.67333984 162.26034546 C-10.45231864 159.53268004 -14.22811551 156.80079767 -17.99804688 154.06063843 C-19.51606154 152.95878035 -21.03428922 151.85721569 -22.55273438 150.75595093 C-23.65681641 149.95471802 -23.65681641 149.95471802 -24.78320312 149.13729858 C-30.60002858 144.93497561 -36.50046886 140.86322146 -42.47900391 136.89413452 C-45.45582101 134.88826993 -47.41179363 133.40486204 -49.42773438 130.38095093 C-49.10408138 124.13075846 -47.39874133 118.59871468 -45.39599609 112.70223999 C-45.08522629 111.76759415 -44.77445648 110.8329483 -44.45426941 109.86997986 C-43.42916613 106.79306112 -42.39342228 103.71984097 -41.35742188 100.64657593 C-40.63513739 98.48652349 -39.91347843 96.3262618 -39.19241333 94.165802 C-37.2915194 88.47651897 -35.3813951 82.7903753 -33.46954346 77.10476685 C-31.92813792 72.51570496 -30.39329385 67.9244625 -28.85883904 63.33307266 C-27.00648597 57.79097464 -25.15110284 52.24989291 -23.29492188 46.70907593 C-22.94968349 45.67827156 -22.60444511 44.64746719 -22.24874496 43.58542633 C-20.30167167 37.77660597 -18.34431857 31.9714231 -16.37306976 26.17076111 C-15.73066041 24.27492587 -15.0917723 22.37789456 -14.4560318 20.47981262 C-13.52014648 17.68714232 -12.57311037 14.89848335 -11.62353516 12.11044312 C-11.34506681 11.27133015 -11.06659847 10.43221718 -10.7796917 9.56767654 C-10.5142663 8.79584408 -10.2488409 8.02401161 -9.97537231 7.22879028 C-9.7478937 6.5550877 -9.52041508 5.88138512 -9.28604317 5.1872673 C-7.12471043 0.63872866 -4.90497533 0.00565247 0 0 Z " fill="#546E7A" transform="translate(194.427734375,141.61904907226563)"/>
<path d="M0 0 C0.9585791 0.66878174 0.9585791 0.66878174 1.93652344 1.35107422 C2.89896973 1.95991455 2.89896973 1.95991455 3.88085938 2.58105469 C6.15215225 4.1255121 8.42246173 5.67102249 10.68652344 7.22607422 C11.5319873 7.80542725 12.37745117 8.38478027 13.24853516 8.98168945 C19.28593487 13.14691746 25.18345297 17.46602819 31.0222168 21.90380859 C35.69542672 25.44776106 40.44343274 28.8641589 45.24902344 32.22607422 C51.37769355 36.51473279 57.42736464 40.89652366 63.43652344 45.35107422 C71.49988708 51.32622709 79.65570657 57.15679061 87.8828125 62.90405273 C88.89939941 63.62032837 88.89939941 63.62032837 89.93652344 64.35107422 C90.49880048 64.65408007 91.06107752 64.95708591 91.64039326 65.26927376 C96.54555858 68.17061286 96.54555858 68.17061286 97.57419014 71.27641582 C97.79899859 73.66487986 97.80285582 75.96586247 97.73120117 78.36401367 C97.73222336 79.2620723 97.73324554 80.16013092 97.73429871 81.08540344 C97.72943156 84.04626943 97.67503327 87.00403013 97.62011719 89.96435547 C97.60705785 92.01985489 97.59709526 94.07537614 97.59010315 96.13090515 C97.5634042 101.53525179 97.49466486 106.93827681 97.41717529 112.34210205 C97.34550636 117.85858277 97.31358378 123.37527754 97.27832031 128.89208984 C97.20329661 139.71233128 97.08385941 150.53159276 96.93652344 161.35107422 C92.57673974 163.53721727 88.21625701 165.72195795 83.85516357 167.90548706 C82.37638082 168.64612378 80.89777886 169.38712163 79.41937256 170.12850952 C71.04641489 174.32703781 62.6630686 178.48932714 54.18652344 182.47607422 C40.23161193 189.07719288 26.46522882 196.06171213 12.67578125 203 C11.72795776 203.47602661 10.78013428 203.95205322 9.80358887 204.44250488 C8.00070406 205.34805727 6.19866475 206.25529545 4.39758301 207.16442871 C3.59026733 207.56971802 2.78295166 207.97500732 1.95117188 208.39257812 C1.24555115 208.7480069 0.53993042 209.10343567 -0.18707275 209.46963501 C-4.5632328 211.52533274 -4.5632328 211.52533274 -6.99853516 210.67700195 C-7.7289502 210.30003174 -8.45936523 209.92306152 -9.21191406 209.53466797 C-10.04198975 209.10734375 -10.87206543 208.68001953 -11.72729492 208.23974609 C-13.06932983 207.52141602 -13.06932983 207.52141602 -14.43847656 206.78857422 C-15.36732666 206.29550781 -16.29617676 205.80244141 -17.25317383 205.29443359 C-37.12211714 194.52282025 -56.13111688 181.14924311 -72.16210938 165.14135742 C-74.16062985 163.20636504 -74.16062985 163.20636504 -76.91015625 161.11352539 C-81.28563581 157.51352147 -84.64635174 154.43053798 -85.80737305 148.64257812 C-85.95337715 144.278901 -85.44255474 139.99109443 -84.93847656 135.66357422 C-84.79409459 134.04094393 -84.65554947 132.41778505 -84.52246094 130.79418945 C-84.23463224 127.38192415 -83.91499604 123.9748537 -83.5703125 120.56787109 C-82.97131578 114.56330108 -82.53335934 108.55062567 -82.11070251 102.53147888 C-81.81345287 98.30773111 -81.49959785 94.08742364 -81.13500977 89.86889648 C-80.47170642 82.07635677 -79.98456846 74.40445872 -80.12988281 66.58154297 C-80.33392816 48.33153868 -80.33392816 48.33153868 -76.38964844 43.15380859 C-71.81797385 39.17973853 -66.51452921 36.92471865 -60.96044922 34.63378906 C-56.04074323 32.45545304 -51.60296727 29.53269128 -47.06347656 26.66357422 C-45.15151208 25.49347243 -43.23738377 24.32690024 -41.32128906 23.16357422 C-40.32516602 22.55642578 -39.32904297 21.94927734 -38.30273438 21.32373047 C-32.81055499 17.97908098 -27.31412499 14.64143476 -21.81738281 11.30429077 C-20.57547969 10.55030986 -19.333617 9.79626237 -18.09179688 9.04214478 C-16.35067413 7.98481968 -14.60943902 6.92767989 -12.86816406 5.87060547 C-11.86769043 5.26321533 -10.8672168 4.6558252 -9.83642578 4.0300293 C-8.46381592 3.19894653 -8.46381592 3.19894653 -7.06347656 2.35107422 C-6.20125488 1.74223389 -5.3390332 1.13339355 -4.45068359 0.50610352 C-2.06347656 -0.64892578 -2.06347656 -0.64892578 0 0 Z " fill="#CED7DB" transform="translate(152.0634765625,277.64892578125)"/>
<path d="M0 0 C2.3653172 0.52928146 4.71680482 1.0996476 7.06863403 1.68589783 C7.93273392 1.89695663 8.7968338 2.10801544 9.68711853 2.32546997 C11.50545953 2.77081499 13.32313679 3.21887807 15.14016724 3.66954041 C17.87456233 4.34739567 20.61100369 5.01639547 23.34793091 5.6839447 C32.18300946 7.85015843 40.95628334 10.13172649 49.68899536 12.68125916 C54.08123504 13.93046077 58.51281003 14.96115139 62.96316528 15.97886658 C64.76165265 16.40986552 66.55982436 16.84218355 68.35769653 17.27574158 C71.84547012 18.11275666 75.33901402 18.88605872 78.84988403 19.61949158 C90.12651718 22.12053034 90.12651718 22.12053034 93.88113403 25.48277283 C95.52690917 28.0904219 96.59480485 30.66714384 97.71316528 33.54136658 C98.63974163 35.37635112 99.56677242 37.21111641 100.50027466 39.04258728 C110.00045906 58.14021987 116.26973669 78.73899451 120.71316528 99.54136658 C120.93359497 100.51251404 121.15402466 101.4836615 121.38113403 102.48423767 C124.82171479 118.0320136 124.82171479 118.0320136 122.42410278 123.45933533 C120.35456087 125.78860063 118.14768429 127.60154184 115.71316528 129.54136658 C114.23513458 131.25727202 112.79895444 133.00988021 111.40066528 134.79136658 C108.05260554 138.9173748 104.65487876 142.99369661 101.21316528 147.04136658 C97.09316848 151.88942639 93.04520229 156.78982914 89.02957153 161.72496033 C86.43529262 164.87921849 83.79710263 167.99339638 81.15066528 171.10386658 C77.94577337 174.87225597 74.78628834 178.66382685 71.71316528 182.54136658 C68.48954224 186.58421614 65.25144661 190.6134456 61.96316528 194.60386658 C61.50296997 195.17685486 61.04277466 195.74984314 60.56863403 196.3401947 C57.28187175 200.2929336 57.28187175 200.2929336 54.8442688 201.35777283 C51.88687373 201.61255128 50.59575658 200.64431984 48.09988403 199.06871033 C47.1936731 198.50603455 46.28746216 197.94335876 45.35379028 197.3636322 C44.37925903 196.74165955 43.40472778 196.11968689 42.40066528 195.47886658 C40.31102591 194.17515352 38.22117638 192.87177727 36.13113403 191.56871033 C35.06298462 190.89694763 33.99483521 190.22518494 32.89431763 189.5330658 C28.02986514 186.48746308 23.12128189 183.51588004 18.21316528 180.54136658 C16.31579052 179.38681191 14.41865647 178.23186156 12.52175903 177.07652283 C8.49390583 174.62469664 4.46512015 172.17441036 0.43582153 169.72496033 C-0.59542847 169.09783142 -1.62667847 168.47070251 -2.68917847 167.8245697 C-4.65117594 166.63146313 -6.61339995 165.438729 -8.57589722 164.2464447 C-9.91587769 163.43143494 -9.91587769 163.43143494 -11.28292847 162.59996033 C-12.05821899 162.12872742 -12.83350952 161.65749451 -13.6322937 161.17198181 C-14.50829224 160.63387878 -15.38429077 160.09577576 -16.28683472 159.54136658 C-16.91459808 159.27953583 -17.54236145 159.01770508 -18.18914795 158.74794006 C-23.35779174 156.27646949 -25.10529113 153.46595914 -27.11593628 148.13511658 C-28.02120452 145.45208645 -28.85169164 142.74972952 -29.67745972 140.04136658 C-30.14710615 138.57749017 -30.61935071 137.11444509 -31.09402466 135.65219116 C-32.3498265 131.75999349 -33.57047587 127.85761877 -34.78405762 123.95208359 C-36.03796166 119.93654193 -37.32272933 115.93091538 -38.60519409 111.92442322 C-40.37056167 106.40047686 -42.12598074 100.87357507 -43.86749268 95.34206104 C-46.3406498 87.48811817 -48.87317833 79.6574881 -51.48995972 71.84996033 C-52.06907098 70.11363544 -52.64817311 68.3773075 -53.2272644 66.64097595 C-53.99620436 64.33781488 -54.76755225 62.03565974 -55.54818726 59.73643494 C-56.23244449 57.71521961 -56.90211395 55.68975945 -57.56808472 53.66246033 C-57.92966675 52.58407898 -58.29124878 51.50569763 -58.66378784 50.39463806 C-59.33291147 47.33035598 -59.22218767 45.51448745 -58.28683472 42.54136658 C-56.72042847 40.54917908 -56.72042847 40.54917908 -54.72433472 38.66636658 C-53.76333862 37.74210876 -53.76333862 37.74210876 -52.78292847 36.79917908 C-50.71376693 34.92754313 -48.62315898 33.08997192 -46.51730347 31.26011658 C-42.29867786 27.58138482 -38.22443418 23.76567007 -34.16183472 19.91636658 C-33.42900269 19.23066589 -32.69617065 18.54496521 -31.94113159 17.83848572 C-28.35550723 14.47909718 -24.82080341 11.09275385 -21.38839722 7.57652283 C-20.77883179 6.96824646 -20.16926636 6.35997009 -19.54122925 5.73326111 C-18.40465681 4.59668868 -17.28685064 3.44090515 -16.19259644 2.26353455 C-10.9952661 -2.85581147 -6.54883146 -1.31339312 0 0 Z " fill="#CED7DB" transform="translate(387.2868347167969,105.45863342285156)"/>
<path d="M0 0 C1.86767578 2.12866211 1.86767578 2.12866211 3.4453125 4.77734375 C4.33899536 6.24554565 4.33899536 6.24554565 5.25073242 7.7434082 C5.86924072 8.7974585 6.48774902 9.85150879 7.125 10.9375 C8.45650523 13.13833916 9.78854267 15.33885642 11.12109375 17.5390625 C11.77706543 18.63508789 12.43303711 19.73111328 13.10888672 20.86035156 C15.73524188 25.22065718 18.45399306 29.51887841 21.1875 33.8125 C22.16055649 35.35000718 23.1332149 36.88776639 24.10546875 38.42578125 C24.58161621 39.17811035 25.05776367 39.93043945 25.54833984 40.70556641 C27.53248988 43.84163133 29.51399855 46.97936108 31.49536133 50.1171875 C32.49112188 51.69411805 33.48705035 53.27094258 34.4831543 54.84765625 C37.08488619 58.96596054 39.68452204 63.0855697 42.28125 67.20703125 C42.82007813 68.06167969 43.35890625 68.91632813 43.9140625 69.796875 C44.94073217 71.42538551 45.96681261 73.05426769 46.9921875 74.68359375 C47.45882812 75.42351562 47.92546875 76.1634375 48.40625 76.92578125 C49.06596802 77.97197632 49.06596802 77.97197632 49.73901367 79.03930664 C50.90289359 80.84901034 52.10901646 82.6206351 53.33203125 84.390625 C55 87 55 87 55.1875 89.4375 C52.32386463 95.61692369 46.03643475 99.88399468 40.96875 104.25 C38.49365303 106.4500862 36.19173145 108.79246565 33.87763596 111.15942764 C32.06346501 112.93778776 30.18366455 114.56571087 28.23907471 116.19915771 C25.37723114 118.67314839 22.87479732 121.21894008 20.44207764 124.11383057 C13.84567669 131.68086552 8.10250804 136.72189643 -2.13817978 137.83175278 C-8.03511132 138.1422009 -13.89496155 138.10163972 -19.796875 137.984375 C-22.36461034 137.98499632 -24.93234936 137.99097474 -27.50006104 138.00201416 C-32.85394592 138.00752165 -38.20338763 137.95961151 -43.55615234 137.86621094 C-49.70933087 137.75957434 -55.85647852 137.75286558 -62.01026607 137.79976439 C-67.98216154 137.84315044 -73.95133998 137.81751447 -79.92325592 137.76154327 C-82.44117219 137.74359384 -84.95926483 137.74204275 -87.47719574 137.75780487 C-110.10230672 137.83319272 -110.10230672 137.83319272 -117.87207031 130.14355469 C-119.68294537 128.15665538 -121.32819967 126.11176843 -123 124 C-124.41225316 122.62974042 -125.84395848 121.27850422 -127.3125 119.96875 C-128.54200045 118.81285493 -129.77117283 117.6566108 -131 116.5 C-144.76034577 103.48287097 -144.76034577 103.48287097 -159 91 C-158.42368666 87.00821546 -157.20298272 84.3204034 -155.04296875 80.9296875 C-154.43106689 79.9605542 -153.81916504 78.9914209 -153.1887207 77.99291992 C-152.19811646 76.44954956 -152.19811646 76.44954956 -151.1875 74.875 C-150.50969482 73.80548096 -149.83188965 72.73596191 -149.13354492 71.6340332 C-147.74941324 69.45112019 -146.36213001 67.27020226 -144.97167969 65.09130859 C-142.72366153 61.56674125 -140.49339327 58.03128049 -138.265625 54.49389648 C-135.37158452 49.90048243 -132.46528466 45.31481155 -129.56152344 40.72753906 C-128.59304789 39.19722984 -127.62503548 37.66662742 -126.6574707 36.13574219 C-125.68157764 34.59337408 -124.70356635 33.05234409 -123.72338867 31.51269531 C-120.79048608 26.89219284 -117.93168297 22.23511454 -115.12109375 17.5390625 C-114.45762939 16.44360107 -113.79416504 15.34813965 -113.1105957 14.21948242 C-111.8097556 12.06932953 -110.52256672 9.91084446 -109.25073242 7.7434082 C-108.35704956 6.2752063 -108.35704956 6.2752063 -107.4453125 4.77734375 C-106.92469238 3.90327881 -106.40407227 3.02921387 -105.86767578 2.12866211 C-100.08203262 -4.46545851 -85.36887389 -4.27803443 -77.21728516 -4.87182617 C-19.53931274 -8.20599657 -19.53931274 -8.20599657 0 0 Z " fill="#CED7DB" transform="translate(308,5)"/>
<path d="M0 0 C4.50232334 -0.07417023 9.00429091 -0.1286105 13.50708008 -0.16479492 C15.03871861 -0.17987936 16.57031398 -0.20034978 18.10180664 -0.22631836 C20.30365654 -0.26271847 22.50493533 -0.27972913 24.70703125 -0.29296875 C25.39150833 -0.30845261 26.07598541 -0.32393646 26.78120422 -0.33988953 C29.41823802 -0.34082253 31.47656886 -0.308348 33.78125 1.04931641 C35.63528456 4.01681163 36.69708055 7.20375308 37.79296875 10.50390625 C38.05590225 11.27348663 38.31883575 12.04306702 38.58973694 12.83596802 C39.46507958 15.40839248 40.32660703 17.98520683 41.1875 20.5625 C41.80341949 22.38592204 42.4196368 24.20924351 43.03613281 26.0324707 C48.63509626 42.6589718 53.97845985 59.36838533 59.28198242 76.09106445 C62.20188751 85.29272336 65.12875681 94.48794565 68.234375 103.62890625 C68.47609436 104.34201462 68.71781372 105.05512299 68.96685791 105.7898407 C70.05099062 108.98154714 71.14627128 112.1683597 72.25878906 115.3503418 C72.62713867 116.42582275 72.99548828 117.50130371 73.375 118.609375 C73.69210937 119.51655273 74.00921875 120.42373047 74.3359375 121.35839844 C75.09327554 124.37104459 75.24592728 126.90512456 75 130 C71.28637215 134.68465628 66.12840053 138.01221966 61.3125 141.5 C60.475979 142.11093506 59.63945801 142.72187012 58.77758789 143.35131836 C56.18881152 145.23943916 53.59520648 147.12072963 51 149 C49.83452637 149.84522217 49.83452637 149.84522217 48.64550781 150.70751953 C42.69661444 155.01963279 36.73407481 159.31270919 30.77050781 163.60449219 C22.31406887 169.69238806 13.88114826 175.80873706 5.5 182 C-2.30247624 187.76321091 -10.13417946 193.48340778 -18.01953125 199.1328125 C-20.41633271 200.85037906 -22.78243375 202.59047927 -25.13671875 204.3671875 C-25.99910156 205.00914062 -26.86148438 205.65109375 -27.75 206.3125 C-28.79414063 207.11107422 -28.79414063 207.11107422 -29.859375 207.92578125 C-32.94831939 209.47589021 -34.55856484 209.56740508 -38 209 C-41.06911267 207.29923517 -43.78923653 205.20402646 -46.5625 203.0625 C-48.15413368 201.8713071 -49.74658847 200.6812106 -51.33984375 199.4921875 C-52.12343262 198.90147461 -52.90702148 198.31076172 -53.71435547 197.70214844 C-56.96305227 195.28280278 -60.28295894 192.97535608 -63.625 190.6875 C-64.66914063 189.96949219 -65.71328125 189.25148438 -66.7890625 188.51171875 C-67.51867187 188.01285156 -68.24828125 187.51398438 -69 187 C-67.61366659 183.72597788 -66.15493288 182.07186752 -63.28125 180.00390625 C-62.52320068 179.45210693 -61.76515137 178.90030762 -60.98413086 178.33178711 C-60.16436768 177.74792236 -59.34460449 177.16405762 -58.5 176.5625 C-57.22491577 175.63932983 -57.22491577 175.63932983 -55.92407227 174.69750977 C-53.28789227 172.79104117 -50.64407834 170.89549255 -48 169 C-46.45628733 167.88384066 -44.9132836 166.76669997 -43.37109375 165.6484375 C-37.34726802 161.28385335 -31.31229314 156.93525279 -25.2578125 152.61328125 C-4.37672261 137.68373341 14.83121529 121.59354753 19.55078125 94.8828125 C20.09074988 90.21560541 20.22248661 85.63197285 20.25 80.9375 C20.270625 80.08478516 20.29125 79.23207031 20.3125 78.35351562 C20.39071501 65.14495516 16.1635367 52.71292798 12.0625 40.3125 C11.62765593 38.97610631 11.19340956 37.63951798 10.75976562 36.30273438 C8.57054601 29.58495762 6.26836566 22.91964368 3.82397461 16.28979492 C2.84030087 13.55620202 2.00160736 10.8060008 1.25 8 C1.00765625 7.113125 0.7653125 6.22625 0.515625 5.3125 C0 3 0 3 0 0 Z " fill="#37474F" transform="translate(291,142)"/>
<path d="M0 0 C2.72385103 1.26592121 5.38995809 2.61600766 8.05702209 3.99757385 C9.05939407 4.50419052 10.06176605 5.01080719 11.09451294 5.53277588 C14.30792314 7.15954078 17.51273647 8.8024429 20.71717834 10.4467926 C24.890751 12.57224409 29.06752771 14.6913564 33.24452209 16.81007385 C34.28477539 17.33904266 35.32502869 17.86801147 36.39680481 18.41300964 C46.2423726 23.40467302 56.19635148 28.15538939 66.16752625 32.88951111 C72.18013513 35.75472875 78.16381622 38.6782083 84.13172913 41.63526917 C85.51771992 42.31973384 86.90585866 42.99986131 88.29579163 43.67628479 C90.36555656 44.68406375 92.42863021 45.70446038 94.49061584 46.7280426 C95.11326324 47.02803162 95.73591064 47.32802063 96.37742615 47.63710022 C100.66556765 49.79196052 100.66556765 49.79196052 101.77967834 53.1342926 C79.7107948 62.25389755 57.4437818 69.55553814 33.77967834 73.1342926 C32.65722717 73.31089417 31.534776 73.48749573 30.37831116 73.66944885 C18.76520092 75.32635121 7.24787889 75.53302773 -4.47032166 75.5092926 C-5.98834381 75.50847687 -5.98834381 75.50847687 -7.53703308 75.50764465 C-24.06562738 75.46691216 -39.99946165 74.56353482 -56.22032166 71.1342926 C-57.26220642 70.91466858 -58.30409119 70.69504456 -59.37754822 70.46876526 C-77.61294592 66.49120784 -95.82931446 61.22930269 -112.22032166 52.1342926 C-109.89870739 49.54781199 -107.57312985 48.12580447 -104.47129822 46.58155823 C-103.50468262 46.09674988 -102.53806702 45.61194153 -101.54216003 45.11244202 C-100.49235962 44.59371521 -99.4425592 44.0749884 -98.36094666 43.5405426 C-97.26554565 42.99377869 -96.17014465 42.44701477 -95.04154968 41.88368225 C-92.70930627 40.72092696 -90.37562357 39.56105487 -88.04063416 38.40382385 C-84.55065256 36.67410649 -81.06477946 34.9363553 -77.57969666 33.1967926 C-65.77757682 27.3166878 -53.93430474 21.5350003 -42.02496338 15.87530518 C-36.81143739 13.39225977 -31.63050314 10.86219353 -26.49766541 8.21632385 C-25.42580994 7.66524963 -24.35395447 7.11417542 -23.24961853 6.54640198 C-21.11848874 5.44381493 -18.99108903 4.33399832 -16.86680603 3.21827698 C-15.81686462 2.68138245 -14.76692322 2.14448792 -13.68516541 1.59132385 C-12.77371765 1.11670715 -11.8622699 0.64209045 -10.92320251 0.15309143 C-6.88661717 -1.36842159 -4.08599706 -1.59313759 0 0 Z " fill="#546E7A" transform="translate(261.22032165527344,436.86570739746094)"/>
<path d="M0 0 C0.96060532 5.67507914 1.17491617 11.1873842 1.203125 16.9375 C1.21018463 17.88667801 1.21724426 18.83585602 1.22451782 19.813797 C1.45264263 59.51541514 1.45264263 59.51541514 -2 76 C-2.19867676 76.97485352 -2.39735352 77.94970703 -2.60205078 78.95410156 C-11.78610099 122.85867716 -31.51459933 171.5647259 -65 203 C-65.66 203 -66.32 203 -67 203 C-67.04345047 202.29146881 -67.08690094 201.58293762 -67.13166809 200.85293579 C-67.64350876 192.51410997 -68.1582773 184.17546718 -68.67533875 175.83696365 C-68.76650185 174.36680009 -68.85761746 172.89663358 -68.94868469 171.42646408 C-70.22873205 150.76914926 -71.56575266 130.11867405 -73.13598633 109.48095703 C-73.45045148 105.32206644 -73.73422052 101.16229147 -74 97 C-74.06936768 96.04625488 -74.13873535 95.09250977 -74.21020508 94.10986328 C-74.36981564 90.53385285 -74.18213532 88.325595 -72.41796875 85.171875 C-71.68191406 84.37265625 -70.94585937 83.5734375 -70.1875 82.75 C-68.95773437 81.36748047 -68.95773437 81.36748047 -67.703125 79.95703125 C-67.04280273 79.23894287 -67.04280273 79.23894287 -66.36914062 78.50634766 C-63.98316527 75.88126422 -61.72011735 73.15230774 -59.4375 70.4375 C-58.96916748 69.88610352 -58.50083496 69.33470703 -58.01831055 68.76660156 C-55.28976422 65.55318163 -52.61872739 62.30420204 -50 59 C-46.47116597 54.54746299 -42.81770671 50.21314021 -39.13671875 45.88671875 C-35.468844 41.57037996 -31.87873679 37.1952084 -28.3046875 32.80078125 C-25.77967065 29.73224382 -23.205216 26.70954624 -20.625 23.6875 C-16.14066454 18.4309328 -11.8363107 13.05119883 -7.61572266 7.58081055 C-1.74337224 0 -1.74337224 0 0 0 Z " fill="#384850" transform="translate(511,226)"/>
<path d="M0 0 C7.08377651 6.86240849 13.37358134 14.39584207 19.58203125 22.046875 C22.18689042 25.22825389 24.83660216 28.36767783 27.5 31.5 C31.62118024 36.34945237 35.66991684 41.25161212 39.6875 46.1875 C42.26146392 49.31799666 44.87569086 52.41172461 47.5 55.5 C51.61088023 60.33766569 55.6514695 65.22617353 59.65625 70.15234375 C62.87527199 74.06345547 66.15918943 77.91858408 69.45898438 81.76171875 C75.83545153 89.23313481 74.09756355 96.944824 73.44921875 106.31640625 C73.36150459 107.63311562 73.36150459 107.63311562 73.27201843 108.97642517 C73.08029475 111.83866984 72.88401008 114.70058029 72.6875 117.5625 C72.55213419 119.56770078 72.41688187 121.57290923 72.28173828 123.578125 C71.32158779 137.73018441 70.26834112 151.87430282 69.18157959 166.01712036 C68.23725454 178.33720809 67.43891352 190.64988165 67 203 C62.99333756 201.45112818 60.66786562 198.66427332 58 195.4375 C57.2886792 194.58454346 57.2886792 194.58454346 56.56298828 193.71435547 C46.90672412 181.94173639 38.46301737 169.25966163 31 156 C30.60071289 155.29713867 30.20142578 154.59427734 29.79003906 153.87011719 C16.76042976 130.73010066 8.00825421 105.55657463 2.6875 79.5625 C2.54014404 78.84360596 2.39278809 78.12471191 2.2409668 77.3840332 C1.77425973 74.92855802 1.37655945 72.47102321 1 70 C0.82122314 68.82888672 0.64244629 67.65777344 0.45825195 66.45117188 C-1.13381628 55.11936639 -1.27631286 43.87743049 -1.20581055 32.44873047 C-1.18731917 29.34464444 -1.18530326 26.24085469 -1.18554688 23.13671875 C-1.18063797 21.14062244 -1.17481241 19.14452812 -1.16796875 17.1484375 C-1.16685593 16.23170258 -1.1657431 15.31496765 -1.16459656 14.37045288 C-1.12853163 9.47752046 -0.82414314 4.82483398 0 0 Z " fill="#556F7B" transform="translate(1,226)"/>
<path d="M0 0 C6.11646571 0.61235042 11.78784852 1.8536508 17.6875 3.5625 C18.59886719 3.82643555 19.51023437 4.09037109 20.44921875 4.36230469 C55.03110652 14.63474044 86.57554442 31.56531973 114 55 C115.12341797 55.95519531 115.12341797 55.95519531 116.26953125 56.9296875 C129.76201943 68.74423422 142.44843573 81.4795372 153 96 C153.42716309 96.5770166 153.85432617 97.1540332 154.29443359 97.74853516 C160.32828402 105.89928954 165.81644348 114.2835167 171 123 C167.18052004 124.41666926 164.49561443 123.56378916 160.64453125 122.48828125 C159.3905957 122.14450439 158.13666016 121.80072754 156.84472656 121.4465332 C156.18605591 121.26128082 155.52738525 121.07602844 154.84875488 120.88516235 C151.43684461 119.92562012 148.01673242 118.99611784 144.59765625 118.0625 C143.59464981 117.78718193 143.59464981 117.78718193 142.57138062 117.50630188 C137.65404634 116.16138962 132.7230574 114.93120867 127.75 113.8125 C122.36663375 112.59210284 117.05602445 111.20419428 111.75 109.6875 C102.41946455 107.02043175 92.98934378 104.79087521 83.54003906 102.58666992 C81.18084603 102.02955733 78.82538094 101.45639689 76.47412109 100.86669922 C74.14817543 100.2864387 71.8117926 99.7465924 69.46728516 99.24658203 C63.55239778 97.79850399 59.74117136 96.52998996 56.13671875 91.46484375 C55.06241389 89.66002479 54.01740762 87.83749399 53 86 C51.82633229 84.14248885 50.64515421 82.28970476 49.45703125 80.44140625 C48.23958117 78.48338899 47.02482107 76.52369707 45.8125 74.5625 C44.48995207 72.4346666 43.16703097 70.30706511 41.84375 68.1796875 C41.1940625 67.13393555 40.544375 66.08818359 39.875 65.01074219 C37.20579244 60.72471776 34.51237754 56.45425069 31.8125 52.1875 C31.3280542 51.42163574 30.8436084 50.65577148 30.34448242 49.86669922 C29.37742217 48.33812534 28.41021981 46.80964135 27.44287109 45.28125 C25.98751567 42.98026167 24.53440882 40.67786895 23.08203125 38.375 C22.59468506 37.6025293 22.10733887 36.83005859 21.60522461 36.03417969 C20.62514692 34.48040981 19.64548604 32.92637692 18.66625977 31.37207031 C15.84249417 26.89596824 12.99728056 22.434556 10.1328125 17.984375 C9.48683105 16.97802002 8.84084961 15.97166504 8.17529297 14.93481445 C6.90985952 12.96477559 5.64075836 10.99708693 4.36767578 9.03198242 C3.79774902 8.14357666 3.22782227 7.2551709 2.640625 6.33984375 C2.13047852 5.54956787 1.62033203 4.75929199 1.09472656 3.94506836 C0 2 0 2 0 0 Z " fill="#546E7A" transform="translate(308,5)"/>
<path d="M0 0 C-1.69780698 5.01352413 -4.52980591 9.20594539 -7.375 13.625 C-8.4662559 15.3358673 -9.55739861 17.0468068 -10.6484375 18.7578125 C-11.2062793 19.62954102 -11.76412109 20.50126953 -12.33886719 21.39941406 C-14.90877571 25.42273353 -17.45383389 29.46163082 -20 33.5 C-20.99986507 35.08341854 -21.99986548 36.66675163 -23 38.25 C-23.495 39.03375 -23.99 39.8175 -24.5 40.625 C-26 43 -27.5 45.375 -29 47.75 C-29.4952417 48.53415283 -29.9904834 49.31830566 -30.50073242 50.1262207 C-31.4982175 51.70553146 -32.49577579 53.28479598 -33.4934082 54.86401367 C-36.54950431 59.70195906 -39.60299502 64.54153407 -42.65380859 69.3828125 C-44.1570813 71.76431042 -45.66634707 74.14193556 -47.17578125 76.51953125 C-48.99760616 79.39404848 -50.78533702 82.28505012 -52.54296875 85.19921875 C-52.93911377 85.84463623 -53.33525879 86.49005371 -53.7434082 87.1550293 C-54.79425107 88.86834527 -55.83130775 90.59009602 -56.8671875 92.3125 C-61.31453241 97.9164804 -67.9782151 98.89165808 -74.63671875 100.36328125 C-76.52695461 100.79714487 -78.41675736 101.23289917 -80.30615234 101.67041016 C-81.25939392 101.89053772 -82.2126355 102.11066528 -83.19476318 102.33746338 C-87.42573845 103.33672877 -91.62961382 104.43050231 -95.83203125 105.54296875 C-96.6393721 105.75629852 -97.44671295 105.9696283 -98.27851868 106.18942261 C-99.93723221 106.62857354 -101.59576436 107.06841013 -103.25411987 107.50891113 C-118.07409939 111.43978638 -132.91119145 115.30890422 -147.77426147 119.07363892 C-149.54293772 119.52281527 -151.31087251 119.97492181 -153.07803345 120.43002319 C-155.52794775 121.0602707 -157.98028917 121.67997745 -160.43359375 122.296875 C-161.15970856 122.48584854 -161.88582336 122.67482208 -162.63394165 122.86952209 C-165.95710946 123.69302211 -167.6818612 124.10604627 -171 123 C-164.28187039 111.82293481 -157.06720968 101.24753663 -149 91 C-148.58234375 90.46375 -148.1646875 89.9275 -147.734375 89.375 C-134.96731792 73.12601827 -119.77267529 58.07291549 -103 46 C-101.85335128 45.14823199 -100.70753275 44.29534537 -99.5625 43.44140625 C-91.37089798 37.39396867 -82.86096602 32.00901588 -74 27 C-73.29278809 26.5978125 -72.58557617 26.195625 -71.85693359 25.78125 C-51.67027036 14.41598546 -30.32845524 6.97391411 -8 1 C-6.98425903 0.71189453 -6.98425903 0.71189453 -5.94799805 0.41796875 C-4 0 -4 0 0 0 Z " fill="#556F7B" transform="translate(204,5)"/>
<path d="M0 0 C0.33 0 0.66 0 1 0 C1.11174561 1.29591064 1.22349121 2.59182129 1.33862305 3.92700195 C1.49988349 5.75998169 1.66180571 7.59290328 1.82421875 9.42578125 C1.91104416 10.41218094 1.99786957 11.39858063 2.08732605 12.41487122 C2.65810942 18.72679967 3.35449434 25.01023828 4.13983154 31.29878235 C8.785354 69.46117809 8.785354 69.46117809 2.34765625 79.1484375 C-1.45624878 83.40045777 -5.75666775 86.62580315 -10.63183594 89.56298828 C-13.68797241 91.4174645 -16.10548509 93.60214474 -18.75 96 C-20.48705565 97.35015386 -22.23781582 98.68281182 -24 100 C-25.12115141 100.86190416 -26.24224106 101.72388867 -27.36328125 102.5859375 C-36.8176524 109.7661834 -46.73326914 116.05107345 -57 122 C-57.78358887 122.45810059 -58.56717773 122.91620117 -59.37451172 123.38818359 C-61.67455951 124.72028869 -63.98911152 126.02161626 -66.3125 127.3125 C-67.36123291 127.91795654 -67.36123291 127.91795654 -68.43115234 128.53564453 C-70.42578125 129.61328125 -70.42578125 129.61328125 -74 131 C-78.61573221 129.62104936 -82.95527614 127.09455712 -87.2578125 124.9375 C-88.43511429 124.34956665 -88.43511429 124.34956665 -89.63619995 123.74975586 C-91.28904572 122.92367217 -92.94139015 122.09658471 -94.59326172 121.26855469 C-97.12188603 120.00156029 -99.65262038 118.73885661 -102.18359375 117.4765625 C-103.79179502 116.67213156 -105.39987224 115.86745254 -107.0078125 115.0625 C-107.76409943 114.68536865 -108.52038635 114.3082373 -109.29959106 113.91967773 C-110.00397308 113.56591064 -110.7083551 113.21214355 -111.43408203 112.84765625 C-112.05187531 112.53836182 -112.66966858 112.22906738 -113.30618286 111.91040039 C-114.92775974 111.03882802 -116.46822502 110.02118332 -118 109 C-117.48695313 108.82726562 -116.97390625 108.65453125 -116.4453125 108.4765625 C-85.30490894 97.04792954 -54.09174111 72.47623871 -33 47 C-32.19433594 46.0821875 -31.38867188 45.164375 -30.55859375 44.21875 C-19.99173519 32.13933151 -10.94654669 19.1385356 -3.03295898 5.18066406 C-2.04475742 3.44063726 -1.02573883 1.7181663 0 0 Z " fill="#90A4AE" transform="translate(439,358)"/>
<path d="M0 0 C5.14782706 1.08919745 10.28069335 2.22919722 15.40722656 3.41455078 C17.10876146 3.798758 18.81388437 4.16747176 20.52246094 4.51904297 C34.11335472 7.3162198 34.11335472 7.3162198 38.1796875 10.9453125 C39.81447743 13.55213968 40.88399545 16.13183196 42 19 C42.92657635 20.83498454 43.85360714 22.66974983 44.78710938 24.5012207 C54.28729377 43.59885329 60.55657141 64.19762793 65 85 C65.22042969 85.97114746 65.44085938 86.94229492 65.66796875 87.94287109 C69.10854951 103.49064702 69.10854951 103.49064702 66.7109375 108.91796875 C64.64139559 111.24723405 62.434519 113.06017526 60 115 C58.5219693 116.71590544 57.08578916 118.46851363 55.6875 120.25 C52.33943968 124.37600893 48.94169731 128.45231535 45.5 132.5 C40.03350876 138.93301646 34.68104382 145.45593634 29.3671875 152.015625 C28.26640831 153.36172069 27.13748885 154.68477852 26 156 C25.67 156 25.34 156 25 156 C25.14404122 153.72905229 25.29034286 151.45824793 25.4375 149.1875 C25.51871094 147.92292969 25.59992188 146.65835938 25.68359375 145.35546875 C25.89497366 142.21251601 26.19512505 139.0866755 26.515625 135.953125 C28.57270731 113.48003298 27.12457208 91.14013771 23 69 C22.81276367 67.97696777 22.62552734 66.95393555 22.43261719 65.89990234 C18.11499787 42.89124188 10.47495836 20.94991672 0 0 Z " fill="#90A4AE" transform="translate(443,120)"/>
<path d="M0 0 C0.75335129 0.37915558 1.50670258 0.75831116 2.28288269 1.1489563 C3.07107895 1.53995514 3.85927521 1.93095398 4.6713562 2.33380127 C6.32812446 3.15864677 7.98286549 3.98757535 9.63566589 4.82034302 C12.1724129 6.09568225 14.71821565 7.35145488 17.26530457 8.60598755 C18.87591149 9.41081572 20.48595807 10.21676645 22.09538269 11.0239563 C23.24059135 11.58661697 23.24059135 11.58661697 24.40893555 12.16064453 C29.74234772 14.87500764 29.74234772 14.87500764 30.85710144 18.2192688 C8.7882179 27.33887375 -13.4787951 34.64051434 -37.14289856 38.2192688 C-38.26534973 38.39587036 -39.3878009 38.57247192 -40.54426575 38.75442505 C-52.15737599 40.4113274 -63.67469801 40.61800393 -75.39289856 40.5942688 C-76.91092072 40.59345306 -76.91092072 40.59345306 -78.45960999 40.59262085 C-94.98820428 40.55188836 -110.92203855 39.64851102 -127.14289856 36.2192688 C-128.18478333 35.99964478 -129.22666809 35.78002075 -130.30012512 35.55374146 C-148.53552283 31.57618404 -166.75189136 26.31427889 -183.14289856 17.2192688 C-180.35575039 14.30543207 -179.07719099 13.26214695 -174.90852356 13.0708313 C-171.34330484 13.21136897 -168.34481962 13.73553967 -164.89289856 14.5942688 C-149.10823385 18.14355437 -133.0770468 18.60030835 -116.95539856 18.5317688 C-116.0144635 18.52928131 -115.07352844 18.52679382 -114.1040802 18.52423096 C-79.96149434 18.38499598 -46.12163196 12.14380337 -15.15852356 -2.77682495 C-9.52820152 -4.65116791 -5.07145856 -2.47972796 0 0 Z " fill="#394951" transform="translate(332.1428985595703,471.7807312011719)"/>
<path d="M0 0 C5.52673193 0.38439403 9.7718668 2.62295856 14.5625 5.1875 C15.38387451 5.62457275 16.20524902 6.06164551 17.05151367 6.51196289 C37.12685136 17.44407747 55.55236803 31.15858075 72 47 C72.65935547 47.63212402 73.31871094 48.26424805 73.99804688 48.91552734 C83.48455518 58.05829025 92.2352263 67.35238646 100 78 C100.42861328 78.5784668 100.85722656 79.15693359 101.29882812 79.75292969 C107.33096774 87.90216152 112.81760621 96.28547189 118 105 C114.07532799 106.48965653 111.12175349 105.50126153 107.15234375 104.453125 C106.49923721 104.28125671 105.84613068 104.10938843 105.17323303 103.93231201 C103.79610042 103.56706306 102.42025334 103.19693681 101.0456543 102.82226562 C98.94490248 102.25200943 96.83934385 101.70320862 94.73242188 101.15625 C93.39288657 100.79815412 92.05368147 100.43882026 90.71484375 100.078125 C89.49917725 99.75231445 88.28351074 99.42650391 87.03100586 99.09082031 C82.52000242 97.46736777 80.94662259 95.19920722 78.6875 91.11328125 C78.25775879 90.34798096 77.82801758 89.58268066 77.38525391 88.79418945 C76.92812012 87.97523193 76.47098633 87.15627441 76 86.3125 C64.38233483 65.93615915 50.17734594 47.94427197 34 31 C33.36707031 30.32582031 32.73414063 29.65164062 32.08203125 28.95703125 C24.42834268 21.01246616 15.38634699 14.45935077 6.68334961 7.71777344 C3.972009 5.60676526 1.34006712 3.52392954 -1 1 C-0.67 0.67 -0.34 0.34 0 0 Z " fill="#3A4A52" transform="translate(361,23)"/>
<path d="M0 0 C0.33 0.66 0.66 1.32 1 2 C1.57234375 2.26425781 2.1446875 2.52851562 2.734375 2.80078125 C5.82083389 4.43447587 7.82801363 6.67901411 10.25 9.1875 C13.98724548 13.04896029 17.82957646 16.63572559 21.89404297 20.15014648 C25.49860039 23.31635697 28.9605031 26.6326001 32.4375 29.9375 C34.52239571 31.91863131 36.60874273 33.89574452 38.72200775 35.84661961 C40.18140795 37.22618697 41.60591236 38.64422756 42.98178864 40.10710812 C47.92613551 45.09368429 51.41896409 46.9239177 58.44477844 47.09533691 C59.49231796 47.08071411 60.53985748 47.06609131 61.61914062 47.05102539 C63.31117867 47.07446266 63.31117867 47.07446266 65.03739929 47.09837341 C68.74466713 47.13849219 72.44887304 47.12029003 76.15625 47.09765625 C78.74500276 47.10559112 81.33374957 47.11575219 83.92248535 47.1280365 C89.33953131 47.1443158 94.75542863 47.13197325 100.17236328 47.09790039 C106.41540027 47.05920614 112.65600689 47.08211314 118.89887285 47.13642889 C124.9299922 47.18684842 130.95990504 47.18645211 136.99125671 47.16540337 C139.54605388 47.16192372 142.10090786 47.17200817 144.65559387 47.19609261 C148.23240575 47.22378282 151.80431851 47.19359216 155.38085938 47.14868164 C156.95216866 47.17836533 156.95216866 47.17836533 158.55522156 47.20864868 C164.62668967 47.06094912 167.62453146 45.99509032 171.97302246 41.65208435 C173.32136873 40.10662153 174.66401282 38.55615913 176 37 C177.3282311 35.7815312 178.67519765 34.58271501 180.05078125 33.41796875 C184.21552422 29.83804012 188.20428051 26.09222439 192.1875 22.3125 C198.11115868 16.71230641 204.06123866 11.14417627 210.06518555 5.63012695 C212.07619059 3.78218526 214.06851021 1.93148979 216 0 C216.556875 0.94875 217.11375 1.8975 217.6875 2.875 C220.85962258 7.16165213 223.21512103 7.66323038 228.3125 8.625 C229.199375 8.74875 230.08625 8.8725 231 9 C230.33742188 9.50789063 229.67484375 10.01578125 228.9921875 10.5390625 C225.20526494 13.65363327 221.6783529 16.99891187 218.125 20.375 C216.60180599 21.81536171 215.07836379 23.25546098 213.5546875 24.6953125 C212.79124023 25.41750977 212.02779297 26.13970703 211.24121094 26.88378906 C206.11890067 31.72041057 200.9632746 36.52142937 195.80517578 41.31982422 C194.57613098 42.4637634 193.34797511 43.60865821 192.12060547 44.75439453 C190.3116707 46.44270223 188.49996002 48.12797833 186.6875 49.8125 C185.86910645 50.57771973 185.86910645 50.57771973 185.03417969 51.35839844 C181.22859927 54.88570037 181.22859927 54.88570037 179 56 C178.34 53.69 177.68 51.38 177 49 C159.33698195 48.85988667 141.67410797 48.75405715 124.01065445 48.68912697 C115.80932294 48.65817838 107.60833656 48.61597932 99.40722656 48.54736328 C92.25976069 48.48759121 85.11254473 48.44885813 77.96483588 48.43546903 C74.17943116 48.42764128 70.39474144 48.40922544 66.60956573 48.36561966 C63.04711973 48.32491201 59.48568354 48.3123264 55.92302704 48.32135391 C53.99135972 48.31891444 52.05980259 48.2866155 50.12841797 48.253479 C44.33670244 48.04017333 44.33670244 48.04017333 39.31737518 50.38154221 C38.0181358 52.17219329 38.0181358 52.17219329 37 55 C31.30134492 51.08416439 26.47914266 46.6379607 21.6875 41.66015625 C18.93716149 38.93780084 16.06944316 36.42126338 13.14550781 33.8894043 C8.70741576 29.9810754 4.46230279 25.86202312 0.1796875 21.78515625 C-4.66007394 17.19965764 -9.43816028 12.70789315 -15 9 C-14.40832031 8.91363281 -13.81664062 8.82726562 -13.20703125 8.73828125 C-7.65855945 7.75168512 -4.65250778 6.56563473 -1 2 C-0.67 1.34 -0.34 0.68 0 0 Z " fill="#91A4AE" transform="translate(148,94)"/>
<path d="M0 0 C8.86273766 4.89867682 17.51020917 10.11673263 26.125 15.4375 C29.50582755 17.52544217 29.50582755 17.52544217 32.88671875 19.61328125 C33.4620787 19.96859924 34.03743866 20.32391724 34.63023376 20.69000244 C40.78271999 24.48715738 46.94899634 28.26150661 53.12469482 32.02078247 C54.31332071 32.74479935 55.50137087 33.46976244 56.68878174 34.19577026 C64.01858074 38.67648868 71.41486588 42.96537443 79 47 C78.195625 47.99 77.39125 48.98 76.5625 50 C73.67317108 53.99119164 73.25616233 57.13291572 73 62 C67.97618266 60.2648663 63.63944041 57.50045562 59.125 54.75 C58.25077393 54.22132324 57.37654785 53.69264648 56.47583008 53.14794922 C53.64801741 51.43610861 50.82374062 49.71854804 48 48 C46.12632776 46.86193688 44.25262987 45.72391601 42.37890625 44.5859375 C38.55881953 42.26429788 34.74155701 39.93809211 30.92578125 37.609375 C26.82579242 35.10842975 22.71816962 32.62060798 18.60546875 30.140625 C17.56237549 29.5101123 16.51928223 28.87959961 15.44458008 28.22998047 C13.4474135 27.02307109 11.44863418 25.81882508 9.44799805 24.61767578 C5.07362356 21.96987404 0.88079114 19.35680247 -3 16 C-2.33484375 15.46890625 -1.6696875 14.9378125 -0.984375 14.390625 C1.29206879 12.12961811 1.29206879 12.12961811 1.171875 8.984375 C1.03265625 7.91703125 0.8934375 6.8496875 0.75 5.75 C0.62109375 4.67234375 0.4921875 3.5946875 0.359375 2.484375 C0.24078125 1.66453125 0.1221875 0.8446875 0 0 Z " fill="#90A4AE" transform="translate(364,260)"/>
<path d="M0 0 C1.16515782 3.49547347 0.74739633 5.51562202 0.15625 9.0625 C-0.14481293 11.21800052 -0.14481293 11.21800052 1 14 C1.99 14.33 2.98 14.66 4 15 C4 15.66 4 16.32 4 17 C1.85473633 18.48950195 1.85473633 18.48950195 -1.16796875 20.23828125 C-2.27793213 20.88667969 -3.38789551 21.53507812 -4.53149414 22.203125 C-5.12705109 22.54666016 -5.72260803 22.89019531 -6.33621216 23.24414062 C-9.46492274 25.04968766 -12.57911358 26.8800048 -15.6953125 28.70703125 C-16.32307083 29.07422272 -16.95082916 29.44141418 -17.59761047 29.81973267 C-22.96933691 32.96673573 -28.27949021 36.20615234 -33.5625 39.5 C-34.3764624 40.00660156 -35.1904248 40.51320313 -36.02905273 41.03515625 C-37.73532089 42.09767119 -39.44128577 43.16067328 -41.14697266 44.22412109 C-46.24659712 47.39840386 -51.35526969 50.55797861 -56.46749878 53.71191406 C-58.22496706 54.79704369 -59.98077528 55.88482517 -61.73657227 56.97265625 C-62.79803467 57.6275 -63.85949707 58.28234375 -64.953125 58.95703125 C-65.90348633 59.54460205 -66.85384766 60.13217285 -67.83300781 60.73754883 C-70 62 -70 62 -71 62 C-71.01417969 61.43152344 -71.02835937 60.86304688 -71.04296875 60.27734375 C-71.42934329 54.02225318 -73.00675974 50.81236646 -77 46 C-76.37738281 45.71769531 -75.75476563 45.43539062 -75.11328125 45.14453125 C-66.35356138 40.97847201 -58.25999712 35.91766869 -50.05078125 30.7734375 C-43.90782594 26.92678959 -37.71372695 23.1676914 -31.5123291 19.41638184 C-20.95423188 13.0295417 -10.43128271 6.59244109 0 0 Z " fill="#90A4AE" transform="translate(146,261)"/>
<path d="M0 0 C0 30.36 0 60.72 0 92 C-1.65 91.34 -3.3 90.68 -5 90 C-8.73299456 89.77144931 -11.33380898 90.08345224 -15 91 C-15 61.3 -15 31.6 -15 1 C-13.02 1.99 -13.02 1.99 -11 3 C-7.47981598 3.36668583 -5.68689214 3.44555166 -2.6875 1.5 C-1 0 -1 0 0 0 Z " fill="#8FA3AD" transform="translate(264,347)"/>
<path d="M0 0 C5.68538057 15.2122345 -10.68045969 46.8970377 -17.1640625 61.17578125 C-19.67182155 66.50362245 -22.27978787 71.77744716 -25 77 C-27.34322058 73.48516912 -27.37407459 71.63884395 -27.6328125 67.4609375 C-27.71660156 66.15769531 -27.80039062 64.85445313 -27.88671875 63.51171875 C-27.92587402 62.83157715 -27.9650293 62.15143555 -28.00537109 61.45068359 C-28.1234066 59.40264709 -28.25380178 57.35571276 -28.38671875 55.30859375 C-28.62017291 51.53997654 -28.8159244 47.771305 -29 44 C-29.06195557 43.08154297 -29.12391113 42.16308594 -29.18774414 41.21679688 C-29.34905091 37.61490269 -29.19521751 35.34898143 -27.41796875 32.171875 C-26.68191406 31.37265625 -25.94585937 30.5734375 -25.1875 29.75 C-24.36765625 28.82832031 -23.5478125 27.90664063 -22.703125 26.95703125 C-22.26291016 26.47830566 -21.82269531 25.99958008 -21.36914062 25.50634766 C-18.98316424 22.88126308 -16.72013917 20.15229124 -14.4375 17.4375 C-13.97641846 16.89480469 -13.51533691 16.35210937 -13.0402832 15.79296875 C-9.42740512 11.53906524 -5.92165109 7.20698709 -2.4609375 2.828125 C-1 1 -1 1 0 0 Z " fill="#556F7B" transform="translate(466,279)"/>
<path d="M0 0 C3.399021 0.60053374 6.4215501 1.47696779 9.625 2.75 C17.88105743 5.83892382 26.46471919 7.84185646 35 10 C32.13515318 12.33431963 29.5651816 13.97007318 26 15 C23.58398438 14.28076172 23.58398438 14.28076172 21.09375 12.9296875 C19.73056641 12.20265625 19.73056641 12.20265625 18.33984375 11.4609375 C16.93412109 10.67589844 16.93412109 10.67589844 15.5 9.875 C14.56285156 9.37484375 13.62570313 8.8746875 12.66015625 8.359375 C8.11830625 5.89840096 3.88795903 3.44315016 0 0 Z " fill="#95A7B1" transform="translate(121,474)"/>
<path d="M0 0 C3.1778726 0.49654259 6.20157738 1.30366949 9.25 2.3125 C10.27867187 2.64701172 10.27867187 2.64701172 11.328125 2.98828125 C13 4 13 4 13.734375 6.10546875 C13.82203125 6.73066406 13.9096875 7.35585938 14 8 C9.02790438 6.23570801 4.56561939 3.6060834 0 1 C0 0.67 0 0.34 0 0 Z " fill="#A4B4BC" transform="translate(121,474)"/>
<path d="M0 0 C3.73487777 0.4979837 5.81237635 0.87491756 9 3 C7.02 3.99 7.02 3.99 5 5 C3.35 3.35 1.7 1.7 0 0 Z " fill="#4C5D66" transform="translate(354,20)"/>
</svg>
