<?xml version="1.0" encoding="UTF-8"?>
<svg version="1.1" xmlns="http://www.w3.org/2000/svg" width="512" height="512">
<path d="M0 0 C0.65645508 0.20367187 1.31291016 0.40734375 1.98925781 0.6171875 C19.83852754 6.30088616 35.99675567 15.93947806 51 27 C51.57443848 27.4228125 52.14887695 27.845625 52.74072266 28.28125 C64.5080607 37.01042572 75.55732199 46.56080298 86.296875 56.515625 C88.51844089 58.55741099 90.76819018 60.54144283 93.0625 62.5 C96.87180326 65.79453255 100.38790795 69.36257877 103.92504883 72.94213867 C107.78933681 76.83466749 111.81407283 80.46113409 116 84 C117.2453544 85.06574903 118.49010181 86.13220759 119.734375 87.19921875 C120.35022461 87.72733154 120.96607422 88.25544434 121.60058594 88.79956055 C122.06239258 89.19570557 122.52419922 89.59185059 123 90 C123.60134766 89.64921387 124.20269531 89.29842773 124.82226562 88.93701172 C126.6519339 87.86970523 128.48160545 86.80240435 130.3112793 85.73510742 C132.47162182 84.47489383 134.6319401 83.21463866 136.79223633 81.9543457 C142.16693108 78.81888087 147.54189239 75.68387689 152.91796875 72.55078125 C163.68238343 66.27648274 174.43929517 59.98951983 185.1875 53.6875 C185.79071075 53.33382355 186.39392151 52.98014709 187.01541138 52.61575317 C192.61357223 49.33323039 198.21126393 46.04990853 203.80810547 42.76513672 C204.43786789 42.39554337 205.06763031 42.02595001 205.71647644 41.64515686 C206.98287445 40.90191238 208.24924221 40.15861635 209.51557922 39.41526794 C212.60178481 37.6040163 215.68900574 35.79454059 218.77856445 33.98901367 C224.13340383 30.85899033 229.48096341 27.71929084 234.796875 24.5234375 C236.09987549 23.74782471 236.09987549 23.74782471 237.42919922 22.95654297 C238.99372996 22.02482103 240.5532069 21.08452591 242.10595703 20.13330078 C246.4047322 17.5896648 249.8985149 16.25601088 255 16 C258.22792479 16.94938964 260.19687443 17.82689523 262.12988281 20.65039062 C264.76960026 25.72578939 265.67772288 29.86272451 265.5625 35.5625 C265.55154297 36.3447998 265.54058594 37.12709961 265.52929688 37.93310547 C264.51194022 65.79172196 240.82338725 98.93768914 222.1484375 118.04296875 C218.45077538 121.41120279 215.93276592 121.17307951 211 121 C210.01 120.67 209.02 120.34 208 120 C206.25636574 121.69955362 204.53080768 123.41159296 202.828125 125.15234375 C201.43078714 126.56461044 199.97671621 127.92095541 198.5 129.25 C196.38125283 133.13436981 197.25729013 136.11777174 197.81640625 140.40625 C198 143 198 143 196.875 146 C194.62321958 148.40189911 193.08103472 149.76758611 190 151 C187.23678387 150.94051785 184.74096636 150.48630048 182 150 C176.97544244 150 173.79334867 153.71503997 170.31640625 157.07421875 C167.71310331 160.36237036 167.42403751 161.53617228 167.75 165.625 C168.02070312 166.88183594 168.02070312 166.88183594 168.296875 168.1640625 C167.65089272 174.33489326 161.54367781 178.68145148 156.9765625 182.421875 C155.53336225 183.54075686 154.0825317 184.64985232 152.625 185.75 C151.84261963 186.34852783 151.06023926 186.94705566 150.25415039 187.5637207 C130.4560217 202.60775238 109.77708665 216.00536199 88 228 C87.11103027 228.49113281 86.22206055 228.98226562 85.30615234 229.48828125 C82.56761046 230.98950327 79.81720741 232.46615634 77.0625 233.9375 C76.16683949 234.41886288 75.27117897 234.90022575 74.34837723 235.39617538 C69.2071146 238.07666629 64.20661586 240.35521562 58.66741943 242.08502197 C32.89864252 250.60878691 16.21060046 269.57882552 -2.30390072 288.61313534 C-6.47718628 292.88647934 -10.69115758 297.11919409 -14.9047834 301.35267892 C-23.2318478 309.7214689 -31.52085454 318.12687411 -39.78515625 326.55761719 C-47.79278019 334.72633216 -55.81724805 342.87787442 -63.86523438 351.00683594 C-64.36401111 351.51064438 -64.86278785 352.01445282 -65.37667903 352.53352818 C-68.3763442 355.56315687 -71.37666213 358.59213849 -74.37716955 361.620933 C-78.73964857 366.02476168 -83.10102019 370.42968653 -87.46173096 374.83526611 C-87.93051616 375.30884494 -88.39930137 375.78242377 -88.88229218 376.27035347 C-95.80858366 383.26831351 -102.72038328 390.28036269 -109.62371826 397.30096436 C-111.33718321 399.04250623 -113.05065353 400.78404283 -114.76412964 402.52557373 C-117.94428888 405.75809956 -121.12107736 408.99388929 -124.29598999 412.23156738 C-125.69971133 413.65894965 -127.1035434 415.08622304 -128.50750732 416.5133667 C-129.14267926 417.16304751 -129.7778512 417.81272832 -130.43227077 418.48209643 C-135.62359517 423.74974458 -135.62359517 423.74974458 -140.4375 424.625 C-147.09050057 424.48192472 -151.39836732 419.27776815 -156 415 C-157.2643188 413.8437455 -158.52864193 412.68749573 -159.79296875 411.53125 C-180.23970952 392.6956169 -180.23970952 392.6956169 -180.5625 386.8125 C-180.36764957 380.74290896 -177.20841375 378.03844551 -173 374 C-171.29757701 372.3064574 -169.60227698 370.60594988 -167.90698242 368.90527344 C-166.72907443 367.72849511 -165.54571179 366.55714879 -164.35668945 365.39160156 C-159.82035921 361.06047913 -159.82035921 361.06047913 -158.875 355.0625 C-158.86466325 352.29742066 -159.10297559 350.69107322 -160 348 C-163.8806416 346.7064528 -167.02298295 345.96867185 -171 347 C-175.67407071 350.2538145 -179.51721356 354.38442671 -183.35546875 358.56640625 C-189.80725119 365.4845826 -189.80725119 365.4845826 -194.25 366.25 C-198.4497856 365.97001429 -199.84779007 365.74808045 -203 363 C-207.84009218 357.27494869 -211.98240472 351.18333778 -215.8125 344.75 C-216.32385498 343.89156494 -216.83520996 343.03312988 -217.36206055 342.14868164 C-236.29933857 309.79419687 -247.46780523 274.24861399 -247.375 236.625 C-247.37445618 235.79228577 -247.37391235 234.95957153 -247.37335205 234.10162354 C-247.25435473 194.32319824 -234.32633095 152.92830937 -210 121 C-210.85271484 120.58041016 -210.85271484 120.58041016 -211.72265625 120.15234375 C-220.94537373 115.36392115 -226.58511922 109.93252957 -230 100 C-232.23375662 92.33076893 -231.37760155 84.21192281 -228 77 C-224.10818074 71.12369493 -219.39651493 65.97948372 -214.5625 60.875 C-213.93279297 60.19824219 -213.30308594 59.52148438 -212.65429688 58.82421875 C-204.33625729 49.98469878 -197.39410856 43.8005682 -184.76171875 43.0078125 C-176.40206736 42.98416426 -169.58304835 45.87613834 -163 51 C-160.72529176 53.51438923 -158.79445558 56.12595325 -157 59 C-153.53231671 57.26615836 -151.04186417 55.12966217 -148.375 52.375 C-143.58812411 47.47224071 -138.34589401 43.27401866 -133 39 C-131.85158071 38.05103074 -130.70449954 37.10044036 -129.55859375 36.1484375 C-109.60168667 19.68190836 -87.07933169 5.9045793 -62 -1 C-60.86691406 -1.33773437 -59.73382813 -1.67546875 -58.56640625 -2.0234375 C-39.99655756 -6.70346873 -18.2083435 -5.83820217 0 0 Z " fill="#010001" transform="translate(247,46)"/>
<path d="M0 0 C0.63228516 0.28472168 1.26457031 0.56944336 1.91601562 0.86279297 C27.14977529 12.33210735 48.3544391 30.71552692 69.28662109 48.54101562 C70.44511347 49.52750044 71.6043127 50.51315565 72.76416016 51.49804688 C79.80398785 57.47776386 86.75045347 63.53016475 93.55859375 69.7734375 C95.66154833 71.69133207 97.78669156 73.57376045 99.9375 75.4375 C103.9670615 78.93312374 107.88322417 82.54844412 111.78881836 86.18139648 C114.42396479 88.61789408 117.07851514 90.9132251 120 93 C119.43458996 96.92095794 118.30523607 99.46414895 116.0859375 102.73046875 C115.48910156 103.61669922 114.89226562 104.50292969 114.27734375 105.41601562 C113.64957031 106.33060547 113.02179688 107.24519531 112.375 108.1875 C111.77042969 109.08275391 111.16585938 109.97800781 110.54296875 110.90039062 C108.70815958 113.60957047 106.86148612 116.30905821 105 119 C104.52898141 119.71326793 104.05796282 120.42653585 103.57267094 121.16141796 C99.35154091 127.42391011 94.67943395 132.73547535 89.31079102 138.02978516 C88.47096176 138.87005249 87.63113251 139.71031982 86.76585388 140.5760498 C84.01893002 143.32090224 81.26157214 146.05500616 78.50390625 148.7890625 C76.58427372 150.7014137 74.6669142 152.61603763 72.74949646 154.53060913 C68.23666276 159.03416768 63.71624629 163.5300326 59.19296354 168.02309358 C54.03818129 173.14418964 48.89204962 178.27394195 43.74657929 183.40439153 C33.17389416 193.94583044 22.59054829 204.47650527 12 215 C9.02183282 213.57567584 7.02068318 212.22096735 4.75 209.8125 C2.37938358 207.36686407 -0.02501621 205.07456434 -2.625 202.875 C-10.6265768 195.96525629 -18.23416113 188.33163391 -25.07421875 180.26953125 C-26.68309967 178.37346671 -28.31289487 176.50205317 -29.95703125 174.63671875 C-36.26254005 167.4611952 -42.29110431 160.1899206 -47.9765625 152.51171875 C-49.92971165 149.83022285 -49.92971165 149.83022285 -53 148 C-58.5261784 147.44170401 -58.5261784 147.44170401 -63.5 149.4375 C-65.82624452 153.41150105 -66.11669696 156.52636124 -65 161 C-62.75074822 165.01779276 -59.93430464 168.46315868 -57 172 C-56.27941406 172.91007813 -55.55882813 173.82015625 -54.81640625 174.7578125 C-50.27668705 180.43853065 -45.48823042 185.85870006 -40.5546875 191.19921875 C-38.61229992 193.32871706 -36.72727659 195.48129557 -34.8515625 197.66796875 C-30.30103456 202.88393306 -25.40298037 207.74282435 -20.5 212.625 C-19.58863281 213.54023438 -18.67726562 214.45546875 -17.73828125 215.3984375 C-12.98151735 220.14833738 -8.18100545 224.71570703 -3 229 C-8.80138692 236.10512006 -15.34389677 242.4701862 -21.8359375 248.93359375 C-23.0831151 250.17890345 -24.33007001 251.42443621 -25.57681274 252.67018127 C-28.83948105 255.92905366 -32.10514251 259.18491018 -35.37145996 262.44012451 C-38.71171062 265.77009779 -42.04908931 269.10294673 -45.38671875 272.43554688 C-51.92168893 278.95983139 -58.45982831 285.48092996 -65 292 C-66.11606414 291.04422173 -67.23200757 290.08830251 -68.34790039 289.13232422 C-68.9693544 288.6000119 -69.59080841 288.06769958 -70.23109436 287.51925659 C-72.3105867 285.733247 -74.37679104 283.93263944 -76.4375 282.125 C-77.11683594 281.52945312 -77.79617187 280.93390625 -78.49609375 280.3203125 C-78.99238281 279.88460938 -79.48867187 279.44890625 -80 279 C-79.175 278.030625 -78.35 277.06125 -77.5 276.0625 C-76.68402344 275.09957031 -76.68402344 275.09957031 -75.8515625 274.1171875 C-74.58972177 272.67432321 -73.29060365 271.26342371 -71.9609375 269.8828125 C-65.40577063 262.98392901 -61.89478644 256.63525656 -61.5 247 C-61.82229551 238.35358945 -64.81537038 231.04406986 -71 225 C-78.94132112 218.98537071 -87.10284964 216.94740252 -97 218 C-104.59355178 219.71430184 -109.48995854 223.79711123 -114.96875 229.171875 C-117 231 -117 231 -119 231 C-120.63052714 228.59273781 -122.11341221 226.20247298 -123.5625 223.6875 C-124.00650146 222.91841309 -124.45050293 222.14932617 -124.90795898 221.35693359 C-146.85017536 182.7620378 -158.31071463 137.0626396 -148 93 C-147.81727539 92.19933105 -147.63455078 91.39866211 -147.44628906 90.57373047 C-141.73530707 66.42162188 -130.881191 42.89272611 -116 23 C-115.67 23 -115.34 23 -115 23 C-114.98582031 24.10730469 -114.97164062 25.21460938 -114.95703125 26.35546875 C-114.42122508 47.74878959 -112.25420474 73.77405859 -102 93 C-98.30670342 95.46219772 -95.2850656 95.79198683 -91 95 C-87.83333333 93.16666667 -87.83333333 93.16666667 -86 90 C-85.41844142 83.2327729 -86.97877533 77.48002293 -88.8125 71 C-89.36642224 68.93052567 -89.91720235 66.86020777 -90.46484375 64.7890625 C-90.73022949 63.78907227 -90.99561523 62.78908203 -91.26904297 61.75878906 C-91.51025879 60.84838867 -91.75147461 59.93798828 -92 59 C-92.19094238 58.28811523 -92.38188477 57.57623047 -92.57861328 56.84277344 C-97.29080221 38.66381835 -98.00980588 14.02941763 -92 -4 C-88.81315572 -4.6490968 -85.62541405 -5.29367948 -82.4375 -5.9375 C-81.54224609 -6.11990234 -80.64699219 -6.30230469 -79.72460938 -6.49023438 C-78.84482422 -6.66748047 -77.96503906 -6.84472656 -77.05859375 -7.02734375 C-76.25736084 -7.18968506 -75.45612793 -7.35202637 -74.63061523 -7.51928711 C-50.0205498 -12.01647679 -22.76564451 -10.51223179 0 0 Z " fill="#FE6876" transform="translate(171,154)"/>
<path d="M0 0 C0.99870117 0.33692871 0.99870117 0.33692871 2.01757812 0.68066406 C23.46793958 8.11577926 42.0488448 21.65759073 59.03515625 36.4375 C61.93279897 38.94191847 64.88928772 41.35170737 67.875 43.75 C71.54613487 46.73578553 74.95185737 49.81725679 78.22729492 53.22875977 C79.95079291 54.95083358 81.73611099 56.52231029 83.59375 58.09765625 C88.57836414 62.42792171 93.18212753 67.10983444 97.8125 71.8125 C99.48333301 73.50882246 101.1564097 75.20293873 102.83203125 76.89453125 C103.92608276 78.00598511 103.92608276 78.00598511 105.04223633 79.13989258 C107.06114915 81.16425037 107.06114915 81.16425037 110 83 C109.43240438 86.89048468 108.3237938 89.45022785 106.1484375 92.7109375 C105.55240723 93.61368408 104.95637695 94.51643066 104.34228516 95.4465332 C103.69308105 96.41292725 103.04387695 97.37932129 102.375 98.375 C100.99458077 100.45949577 99.61437827 102.54413508 98.234375 104.62890625 C97.52732422 105.69125488 96.82027344 106.75360352 96.09179688 107.84814453 C92.90526386 112.64951488 89.76664569 117.48169769 86.625 122.3125 C85.39213577 124.20065711 84.15905893 126.08867541 82.92578125 127.9765625 C80.47155797 131.73673158 78.02634266 135.5025153 75.58947754 139.27394104 C74.0436499 141.66490408 72.49396049 144.05335096 70.94378662 146.4414978 C70.19693189 147.59417652 69.45181829 148.74798546 68.70855713 149.90298462 C67.67090435 151.515066 66.62658967 153.12285331 65.58203125 154.73046875 C64.98624268 155.65239014 64.3904541 156.57431152 63.77661133 157.52416992 C62.03447961 159.95195029 60.17300105 161.95603489 58 164 C57.2265625 163.28714844 56.453125 162.57429687 55.65625 161.83984375 C50.50401905 157.09919382 45.340685 152.38364569 40.046875 147.80078125 C37.55925274 145.61224335 35.12646548 143.36760809 32.6875 141.125 C28.17230468 137.00215958 23.51181225 133.12261387 18.75390625 129.28515625 C15.89917867 126.91633975 13.1656079 124.45073583 10.4375 121.9375 C6.33366089 118.16937692 2.14215096 114.60787693 -2.2421875 111.171875 C-4.26729522 109.57703096 -6.26795765 107.96574205 -8.2578125 106.328125 C-23.17954356 94.10222454 -38.81261828 82.82643665 -56 74 C-56.60585937 73.68482422 -57.21171875 73.36964844 -57.8359375 73.04492188 C-65.25454624 69.23213906 -72.80660612 66.23173964 -80.75 63.6875 C-81.50579346 63.44491455 -82.26158691 63.2023291 -83.0402832 62.95239258 C-85.34862337 62.24588015 -87.66368716 61.60743651 -90 61 C-90.74677002 60.79987305 -91.49354004 60.59974609 -92.26293945 60.39355469 C-102.22044578 58.15200388 -112.54559154 58.78491014 -122.6875 58.875 C-124.66080276 58.88504885 -126.63411046 58.89417133 -128.60742188 58.90234375 C-133.40507165 58.92420866 -138.20248036 58.95863384 -143 59 C-142.04109524 57.87702579 -141.081588 56.75456601 -140.12182617 55.63232422 C-139.58756516 55.0071994 -139.05330414 54.38207458 -138.50285339 53.73800659 C-132.37537106 46.65175005 -125.29622464 40.8332994 -118 35 C-116.85158071 34.05103074 -115.70449954 33.10044036 -114.55859375 32.1484375 C-81.84836465 5.16766512 -42.51117833 -14.53720131 0 0 Z " fill="#FD6876" transform="translate(244,67)"/>
<path d="M0 0 C0.99 0.495 0.99 0.495 2 1 C-5.14451198 19.01222033 -14.96962494 35.03416705 -26.9921875 50.203125 C-27.48364258 50.82469482 -27.97509766 51.44626465 -28.48144531 52.08666992 C-29.54646142 53.42855597 -30.6194373 54.76414483 -31.69824219 56.0949707 C-32.24383789 56.78679443 -32.78943359 57.47861816 -33.3515625 58.19140625 C-33.84736816 58.80959229 -34.34317383 59.42777832 -34.85400391 60.06469727 C-36.91749322 63.54941814 -36.65111434 67.10811201 -36 71 C-35.13346586 73.93080674 -35.13346586 73.93080674 -34 76 C-34.45890625 76.44730469 -34.9178125 76.89460938 -35.390625 77.35546875 C-36.66296934 78.60910215 -37.92289088 79.87543519 -39.171875 81.15234375 C-40.56921286 82.56461044 -42.02328379 83.92095541 -43.5 85.25 C-45.61874717 89.13436981 -44.74270987 92.11777174 -44.18359375 96.40625 C-44 99 -44 99 -45.125 102 C-47.37678042 104.40189911 -48.91896528 105.76758611 -52 107 C-54.76321613 106.94051785 -57.25903364 106.48630048 -60 106 C-64.33174693 106 -66.22353653 108.65822583 -69.1875 111.5 C-69.74630859 112.02464844 -70.30511719 112.54929687 -70.88085938 113.08984375 C-72.26015364 114.38661613 -73.63090644 115.69246259 -75 117 C-77 116 -79 115 -81 114 C-87.01534312 113.31643828 -89.96118971 115.634573 -94.59863281 119.24438477 C-96.32481985 120.63126012 -98.03767163 122.03355743 -99.75 123.4375 C-122.96953905 142.18951154 -148.29101853 157.67100129 -174.5625 171.75 C-175.37847656 172.1929541 -176.19445312 172.6359082 -177.03515625 173.09228516 C-178.164375 173.68855713 -178.164375 173.68855713 -179.31640625 174.296875 C-179.98099854 174.65104492 -180.64559082 175.00521484 -181.33032227 175.37011719 C-181.88131592 175.57797852 -182.43230957 175.78583984 -183 176 C-183.66 175.67 -184.32 175.34 -185 175 C-184.25447876 173.86292603 -184.25447876 173.86292603 -183.49389648 172.70288086 C-174.50396229 158.99000021 -165.51860959 145.27426237 -156.56616211 131.53686523 C-151.17360909 123.26289451 -145.76952364 114.99649513 -140.36181641 106.73242188 C-136.82253786 101.3223702 -133.2884421 95.90906922 -129.765625 90.48828125 C-129.08951172 89.44865234 -128.41339844 88.40902344 -127.71679688 87.33789062 C-126.44594236 85.38302107 -125.1763237 83.42734728 -123.90820312 81.47070312 C-122.78166126 79.73843909 -121.64733311 78.01120444 -120.50390625 76.29003906 C-119.5845922 74.89017449 -118.68978418 73.47331203 -117.83984375 72.03027344 C-114.31663318 66.36885998 -109.24139256 63.77410784 -103.5 60.625 C-101.32631055 59.39543661 -99.15315637 58.16492656 -96.98046875 56.93359375 C-95.83884277 56.29276855 -94.6972168 55.65194336 -93.52099609 54.99169922 C-88.180667 51.9833268 -82.90501644 48.8644157 -77.62387085 45.75375366 C-74.56672668 43.95418227 -71.5057409 42.16116571 -68.4453125 40.3671875 C-67.2060285 39.64034412 -65.96677074 38.91345602 -64.72753906 38.18652344 C-64.11269653 37.82586792 -63.497854 37.4652124 -62.86437988 37.09362793 C-61.94151184 36.5522821 -61.94151184 36.5522821 -61 36 C-56.67217147 33.46133596 -52.34425011 30.92283046 -48.01605225 28.38479614 C-46.80170152 27.67267889 -45.58738646 26.96050082 -44.37310791 26.2482605 C-37.96245304 22.48825044 -31.54845718 18.73419921 -25.125 14.99609375 C-24.03807861 14.36340576 -22.95115723 13.73071777 -21.83129883 13.07885742 C-19.80838512 11.90205796 -17.78483546 10.72635066 -15.76049805 9.55200195 C-14.85340088 9.02437256 -13.94630371 8.49674316 -13.01171875 7.953125 C-12.1614209 7.45876953 -11.31112305 6.96441406 -10.43505859 6.45507812 C-7.41897519 4.65280651 -4.48406544 2.73820677 -1.56958008 0.77636719 C-1.05161865 0.52016602 -0.53365723 0.26396484 0 0 Z " fill="#FCEACF" transform="translate(489,90)"/>
<path d="M0 0 C4.00079356 2.4449294 5.65936873 3.95918222 7.125 8.4375 C6.86841981 15.75003531 0.9668391 20.38801014 -3.75390625 25.52734375 C-6.13866417 28.15265116 -8.39733736 30.85673376 -10.61328125 33.625 C-13.31270969 36.30161636 -15.68901112 36.96607394 -19.4375 37.375 C-23.58155564 36.93878362 -25.09130272 35.90869728 -28 33 C-29.70142317 29.59715366 -29.92655802 26.62144898 -29 23 C-26.38432355 19.29093455 -23.19529027 16.20977044 -20 13 C-18.38718898 11.19518767 -16.78268055 9.38291368 -15.1875 7.5625 C-10.43815896 2.17299277 -7.56540764 -1.0435045 0 0 Z " fill="#FAE7CD" transform="translate(66,110)"/>
<path d="M0 0 C5.40838611 2.0801485 5.40838611 2.0801485 7.17578125 4.828125 C8.61331848 8.6161378 8.08154679 12.15450031 7 16 C4.32782273 19.14373796 2.47459631 19.87287599 -1.5 20.9375 C-5.45288943 21.00808731 -6.94731599 20.4421472 -10 18 C-12.6790573 13.98141405 -12.69610694 10.72358279 -12 6 C-8.66382379 0.66211807 -6.19958624 -0.47689125 0 0 Z " fill="#030302" transform="translate(437,176)"/>
<path d="M0 0 C4.99503071 0.4913145 6.31841769 1.88091769 9.8125 5.375 C11.26397903 8.27795805 11.18489025 10.14761779 10.8125 13.375 C8.99939858 16.30437654 6.93954101 18.81147949 3.8125 20.375 C-0.36894011 20.76947548 -2.49696048 20.82535186 -6.0625 18.5 C-8.97460658 15.58789342 -9.14818305 14.7747223 -9.5625 10.5625 C-9.54261166 6.91630475 -9.25358692 6.45464321 -6.75 3.4375 C-5.904375 2.756875 -5.05875 2.07625 -4.1875 1.375 C-3.1875 0.375 -3.1875 0.375 0 0 Z " fill="#080303" transform="translate(92.1875,266.625)"/>
</svg>
