<?xml version="1.0" encoding="UTF-8"?>
<svg version="1.1" xmlns="http://www.w3.org/2000/svg" width="512" height="512">
<path d="M0 0 C5.49004817 0.0444997 10.9758597 0.01204353 16.46549606 -0.06303 C50.77996995 -0.52110566 83.04279523 0.95269104 116.35612106 9.78023171 C117.04121183 9.96168945 117.7263026 10.14314718 118.4321537 10.33010364 C122.93303368 11.5317118 127.41507815 12.79044835 131.88932419 14.08833718 C133.0079837 14.41180501 134.12664322 14.73527284 135.27920151 15.06854272 C142.38380574 17.24111492 147.0011095 19.81287267 151.82487106 25.53804421 C154.49465186 28.65856723 157.19826234 31.7392234 159.94987106 34.78804421 C161.09069138 36.05261453 161.09069138 36.05261453 162.25455856 37.34273171 C163.02026169 38.19093484 163.78596481 39.03913796 164.57487106 39.91304421 C166.82284084 42.40992413 169.06995113 44.90757572 171.31705856 47.40523171 C172.84195351 49.09897316 174.36802508 50.7916559 175.89518356 52.48335671 C179.27399814 56.22868677 182.64383071 59.97822629 185.94987106 63.78804421 C188.93403792 67.21636614 191.9967559 70.56925222 195.07487106 73.91304421 C198.71898822 77.8716907 202.31400761 81.8648111 205.84049606 85.92866921 C209.3698782 89.96679112 212.98121332 93.93219103 216.57487106 97.91304421 C218.07515785 99.57945273 219.57515979 101.24611774 221.07487106 102.91304421 C221.81737106 103.73804421 222.55987106 104.56304421 223.32487106 105.41304421 C230.07487106 112.91304421 230.07487106 112.91304421 232.31705856 115.40523171 C233.84195351 117.09897316 235.36802508 118.7916559 236.89518356 120.48335671 C240.27399814 124.22868677 243.64383071 127.97822629 246.94987106 131.78804421 C250.49547705 135.86757675 254.16055017 139.83449248 257.84391403 143.78950906 C262.17444532 148.47054129 264.13618734 151.22744249 263.98063278 157.58589578 C263.27656011 161.62393473 260.93111572 163.93066264 258.13737106 166.78804421 C257.02165832 168.00445718 255.90708386 169.22191514 254.79362106 170.44038796 C254.24190231 171.03061746 253.69018356 171.62084695 253.12174606 172.22896218 C251.01862022 174.51863423 249.07733083 176.92197518 247.13737106 179.35054421 C242.99426115 184.45611886 238.69256656 189.41104475 234.3719902 194.36592507 C231.21021269 198.00042272 228.106369 201.66825264 225.07487106 205.41304421 C221.00220104 210.44047937 216.77996911 215.3245763 212.53214645 220.20357156 C208.83019127 224.45780611 205.15522598 228.73307833 201.51237106 233.03804421 C201.07167282 233.5580198 200.63097458 234.07799539 200.17692184 234.61372781 C198.20667227 236.94677769 196.27168461 239.29715232 194.37955856 241.69429421 C192.45880893 244.05573532 191.49030486 245.08006313 188.57487106 245.91304421 C181.53500019 246.04842635 178.36562819 242.49306867 173.57487106 237.91304421 C171.84268453 236.1528054 170.12192429 234.38127267 168.41080856 232.60054421 C167.51619919 231.67113015 166.62158981 230.74171609 165.69987106 229.78413796 C164.31382266 228.33705618 162.92799321 226.88962123 161.56022263 225.42525125 C160.21448341 223.98881472 158.84417918 222.5755164 157.47330856 221.16304421 C156.67586227 220.32257546 155.87841599 219.48210671 155.05680466 218.61616921 C152.63026132 216.59008391 152.63026132 216.59008391 149.33121872 217.02241921 C148.42162399 217.31632546 147.51202927 217.61023171 146.57487106 217.91304421 C145.41594694 220.23089245 145.44999739 221.54781066 145.45017242 224.12760282 C145.44778147 225.01676729 145.44539052 225.90593176 145.44292712 226.82204062 C145.44535961 227.80499615 145.44779211 228.78795169 145.45029831 229.80069375 C145.44888816 230.84018062 145.44747801 231.8796675 145.44602513 232.95065397 C145.44235599 236.4567668 145.44571558 239.9628396 145.4488945 243.46895242 C145.44750051 245.97341848 145.44560171 248.4778843 145.44323349 250.98234963 C145.43931297 255.68582592 145.43690379 260.3892945 145.4368175 265.09277227 C145.43661495 274.33547297 145.42416611 283.57812109 145.40720749 292.82080483 C145.40460165 294.2750551 145.40200284 295.72930537 145.39941096 297.18355566 C145.39547245 299.38767346 145.39152595 301.59179123 145.38754974 303.79590896 C145.37259759 312.10961018 145.35897609 320.42331301 145.34684372 328.73701882 C145.34573016 329.49718304 145.3446166 330.25734725 145.34346929 331.04054674 C145.32589432 343.35901539 145.32302514 355.6774512 145.32469413 367.99593029 C145.32597269 380.63752295 145.30824943 393.27899321 145.27367616 405.92053884 C145.25300974 413.72095377 145.24770097 421.52107575 145.26200446 429.32150628 C145.27145521 435.29838016 145.2548724 441.27488918 145.22851753 447.25172448 C145.22185574 449.70554261 145.22377974 452.15940094 145.2348156 454.61320329 C145.24861098 457.9574842 145.23187965 461.3002565 145.20737839 464.64444375 C145.21873377 465.62070712 145.23008914 466.59697049 145.24178863 467.6028176 C145.17612008 472.19680942 145.06719322 474.25983367 142.22991943 478.02431417 C138.96817295 480.34463295 137.22037594 480.44301701 133.26237106 480.22554421 C131.65942184 480.15786843 131.65942184 480.15786843 130.02408981 480.08882546 C129.21584763 480.03081765 128.40760544 479.97280984 127.57487106 479.91304421 C127.60105515 480.76535623 127.62723923 481.61766824 127.65421677 482.49580789 C127.73968599 485.67331548 127.80223895 488.85023532 127.84952927 492.02852273 C127.87459723 493.40111523 127.90866189 494.77357523 127.95206833 496.14571023 C128.01304638 498.12355118 128.03848115 500.10238605 128.06315231 502.08101296 C128.0893364 503.26977029 128.11552048 504.45852761 128.14249802 505.68330789 C127.37938307 510.02534987 126.06017842 511.23781262 122.57487106 513.91304421 C119.47361323 514.63854885 116.44929153 514.58832834 113.27555466 514.54796243 C111.86561265 514.55966236 111.86561265 514.55966236 110.42718697 514.57159865 C107.27549623 514.59155261 104.1250084 514.57574033 100.97330856 514.56001687 C98.71469543 514.56679145 96.45608781 514.57569367 94.19749069 514.58656716 C88.06114569 514.60938574 81.92522041 514.60051329 75.78886795 514.58467174 C69.37165813 514.57202616 62.95448461 514.58374912 56.53727341 514.59160256 C45.06939329 514.60128618 33.60174594 514.58573322 22.13390517 514.56030588 C11.73717929 514.53796713 1.34073254 514.5418473 -9.05598831 514.56489968 C-21.13086849 514.59166049 -33.20553782 514.60161576 -45.28045845 514.58683836 C-51.67178806 514.5790371 -58.0629254 514.57802104 -64.45424271 514.59452081 C-70.46259863 514.60894802 -76.47042664 514.59897508 -82.47872543 514.57004952 C-84.68582405 514.56342946 -86.89296698 514.56535198 -89.10004807 514.57636285 C-92.1092391 514.58999298 -95.11673032 514.57293228 -98.12581253 514.54796243 C-99.00275583 514.55911604 -99.87969913 514.57026964 -100.78321648 514.58176124 C-105.14374707 514.51139973 -106.90361948 514.31334136 -110.47085953 511.57522035 C-112.96069486 508.18347704 -113.00542329 506.25840793 -112.91341019 502.08101296 C-112.89729691 500.78872781 -112.88118362 499.49644265 -112.86458206 498.16499734 C-112.82281168 496.81016265 -112.78048702 495.45534494 -112.73762894 494.10054421 C-112.71252963 492.72623555 -112.6897193 491.35188305 -112.66926956 489.97749734 C-112.61039355 486.62156446 -112.52819314 483.26786331 -112.42512894 479.91304421 C-113.23337112 479.97105203 -114.04161331 480.02905984 -114.87434769 480.08882546 C-115.9429805 480.13394265 -117.01161331 480.17905984 -118.11262894 480.22554421 C-119.16837112 480.28355203 -120.22411331 480.34155984 -121.31184769 480.40132546 C-125.63648254 479.72305776 -126.79665665 478.40126775 -129.42512894 474.91304421 C-130.15872144 471.49379004 -130.089629 468.13721608 -130.04417801 464.65117288 C-130.05041699 463.6077116 -130.05665597 462.56425032 -130.06308401 461.489169 C-130.07802418 457.98733572 -130.05734127 454.48661413 -130.03694534 450.98482156 C-130.04048551 448.47666425 -130.04626189 445.96850924 -130.05411148 443.46036172 C-130.06630228 438.05716601 -130.06342921 432.65430853 -130.04727936 427.25112939 C-130.02420818 419.43585497 -130.03152123 411.62083459 -130.04681055 403.80555172 C-130.07107902 391.12130879 -130.07528847 378.43714718 -130.06477737 365.75288796 C-130.06384164 364.61439947 -130.06384164 364.61439947 -130.062887 363.45291121 C-130.06161567 361.91671822 -130.06034143 360.38052524 -130.05906429 358.84433226 C-130.05843191 358.0826731 -130.05779953 357.32101394 -130.05714798 356.53627419 C-130.05619076 355.39274493 -130.05619076 355.39274493 -130.0552142 354.22611406 C-130.04840555 345.75489592 -130.0464172 337.28367893 -130.04622269 328.81245828 C-130.04619986 328.05378423 -130.04617702 327.29511019 -130.0461535 326.51344602 C-130.04622268 313.87406927 -130.05823809 301.23472344 -130.07718217 288.59536159 C-130.0881579 280.79708083 -130.0872967 272.99896166 -130.07124244 265.20068873 C-130.05956213 259.23151716 -130.06252782 253.2624497 -130.07087135 247.29326844 C-130.07168462 244.84020815 -130.06729412 242.38714002 -130.05742836 239.93409944 C-130.04464905 236.59621001 -130.05003999 233.25883535 -130.06004715 229.92094827 C-130.05178898 228.94090557 -130.0435308 227.96086288 -130.03502238 226.95112193 C-130.04139542 226.0599664 -130.04776847 225.16881088 -130.05433464 224.25065064 C-130.05352288 223.47987069 -130.05271112 222.70909075 -130.05187476 221.91495383 C-130.52658328 219.3689045 -131.38389162 218.46383726 -133.42512894 216.91304421 C-137.13825872 216.84123794 -138.48139687 217.96109126 -141.31599808 220.38155007 C-142.37416636 221.45381508 -143.42172796 222.5366175 -144.46028519 223.62788796 C-145.02082092 224.19882684 -145.58135666 224.76976571 -146.15887833 225.35800576 C-147.94491709 227.17959207 -149.71699828 229.0139871 -151.48762894 230.85054421 C-153.26349772 232.681751 -155.04223698 234.50991994 -156.82709122 236.332371 C-157.93573307 237.46541457 -159.03898533 238.60376349 -160.1360817 239.74798989 C-165.00731891 244.7454469 -165.00731891 244.7454469 -168.42512894 245.91304421 C-172.64057277 245.83639978 -174.7162294 245.56714958 -177.85091019 242.67476296 C-178.70040237 241.76339578 -179.54989456 240.85202859 -180.42512894 239.91304421 C-181.59301956 238.67167703 -181.59301956 238.67167703 -182.78450394 237.40523171 C-187.68518492 232.04010711 -192.38727599 226.57300501 -196.95247269 220.92085671 C-199.84193273 217.4060317 -202.81194719 213.96893571 -205.80012894 210.53804421 C-211.28379117 204.24030761 -216.70218865 197.89206392 -222.0823555 191.50581765 C-223.90129692 189.34822241 -225.72435273 187.19412424 -227.54768753 185.04024148 C-228.45973249 183.96282573 -229.37152 182.885192 -230.28303909 181.80733132 C-232.67064169 178.98410048 -235.06134049 176.16356458 -237.45637894 173.34663796 C-237.95331253 172.76140359 -238.45024612 172.17616921 -238.96223831 171.57320046 C-239.91052675 170.45652436 -240.85969175 169.3405918 -241.80989456 168.22554421 C-243.02358998 166.79531243 -244.22487045 165.35457087 -245.42512894 163.91304421 C-246.00778519 163.2156614 -246.59044144 162.51827859 -247.19075394 161.79976296 C-249.06027899 158.94222942 -249.20875075 156.76627893 -249.09309769 153.40132546 C-247.67568272 148.1212475 -243.20633555 144.64820874 -239.42512894 140.91304421 C-237.91360215 139.25682426 -236.4133457 137.59024088 -234.92512894 135.91304421 C-232.65341604 133.38803929 -230.3807748 130.86391118 -228.10481644 128.34273171 C-224.72600186 124.59740166 -221.35616929 120.84786214 -218.05012894 117.03804421 C-214.59729074 113.07129522 -211.03635513 109.20621752 -207.47468948 105.33760476 C-204.33995842 101.92705615 -201.26786592 98.47145306 -198.23372269 94.97163796 C-195.14733414 91.45862119 -191.97884116 88.02004603 -188.82747269 84.56538796 C-186.85571049 82.38843426 -184.91147556 80.19465747 -182.98762894 77.97554421 C-180.02629383 74.56615841 -176.98360407 71.23510112 -173.92512894 67.91304421 C-170.28098565 63.95442236 -166.68599176 59.96127662 -163.15950394 55.89741921 C-159.6301218 51.85929731 -156.01878668 47.8938974 -152.42512894 43.91304421 C-150.18084974 41.42026351 -147.93742513 38.92671861 -145.69466019 36.43257546 C-144.13240693 34.69823235 -142.56712471 32.96661443 -140.99934769 31.23726296 C-140.2117305 30.36714578 -139.42411331 29.49702859 -138.61262894 28.60054421 C-137.90493362 27.8206614 -137.19723831 27.04077859 -136.46809769 26.23726296 C-134.36091054 23.96459692 -134.36091054 23.96459692 -132.78841019 21.30757546 C-130.28225563 18.76828168 -129.26051123 18.38140136 -125.93111038 17.46898293 C-125.03375168 17.21538632 -124.13639297 16.96178971 -123.21184158 16.70050836 C-122.29222641 16.44064519 -121.37261124 16.18078202 -120.42512894 15.91304421 C-118.74532664 15.38722808 -117.06744418 14.85523857 -115.3915596 14.31706643 C-76.60085619 2.09134237 -40.38027918 -0.37687635 0 0 Z " fill="#118DEF" transform="translate(248.42512893676758,-1.9130442142486572)"/>
<path d="M0 0 C0.66 0 1.32 0 2 0 C3.42292786 1.44787598 3.42292786 1.44787598 5.08520508 3.46289062 C9.03167682 8.10102124 13.28255687 12.34096165 17.63671875 16.59375 C19.28234233 18.21700067 20.92751117 19.84071245 22.57226562 21.46484375 C25.13515308 23.99059504 27.70093162 26.51312361 30.2746582 29.02783203 C32.77958035 31.47811781 35.27148563 33.94104869 37.76171875 36.40625 C38.52844406 37.14919312 39.29516937 37.89213623 40.08512878 38.65759277 C48.72473234 47.25471493 52.20255424 56.28232738 52.25816262 68.47123671 C52.24942409 69.87204253 52.24942409 69.87204253 52.24050903 71.30114746 C52.24221788 72.31253674 52.24392673 73.32392602 52.24568737 74.36596346 C52.24897065 77.74079347 52.23799761 81.11542281 52.22705078 84.49023438 C52.22648642 86.91502884 52.22680372 89.33982365 52.22793579 91.76461792 C52.22839061 96.97777735 52.22273315 102.19089176 52.21146011 107.40403748 C52.19517207 114.94126843 52.18999373 122.47847521 52.18748413 130.01572186 C52.1831122 142.24584656 52.16981675 154.4759445 52.15087891 166.70605469 C52.13250709 178.58300648 52.11837991 190.45995095 52.10986328 202.33691406 C52.10932729 203.07707583 52.10879129 203.81723759 52.10823905 204.5798285 C52.10361305 211.01866659 52.0993076 217.4575049 52.09503365 223.89634323 C52.07623093 251.59758734 52.03638517 279.29876048 52 307 C108.1 307 164.2 307 222 307 C221.94199219 289.23671875 221.88398438 271.4734375 221.82421875 253.171875 C221.79867381 241.92447554 221.77439731 230.67709708 221.75585938 219.4296875 C221.74607071 213.52050711 221.7359685 207.61132738 221.7253418 201.70214844 C221.72336368 200.5912921 221.72336368 200.5912921 221.7213456 199.45799422 C221.69962711 187.51796274 221.66022364 175.57805223 221.61423602 163.63809237 C221.56739998 151.3751474 221.53968954 139.11226556 221.52955753 126.84923482 C221.52271311 119.28845025 221.50113336 111.72800755 221.46041767 104.16732827 C221.43074507 98.35978353 221.42774384 92.55245554 221.43446159 86.74485016 C221.43309011 84.36973472 221.42319872 81.99460589 221.40397263 79.61956787 C221.28809673 64.56204162 221.21821123 52.30014622 232.1796875 40.79296875 C233.08074219 39.90544922 233.08074219 39.90544922 234 39 C234.58007812 38.41863281 235.16015625 37.83726562 235.7578125 37.23828125 C236.89223631 36.10640099 238.03095243 34.97880118 239.17456055 33.85620117 C240.8548695 32.14757619 242.40285208 30.391821 243.94921875 28.5625 C248.62102726 23.19146717 253.64048945 18.17345107 258.67211914 13.14257812 C260.33183598 11.48063812 261.98334457 9.8108039 263.63476562 8.140625 C264.68961614 7.08284643 265.7449371 6.02553675 266.80078125 4.96875 C267.29347 4.46887573 267.78615875 3.96900146 268.29377747 3.45397949 C271.77112877 0 271.77112877 0 274 0 C274.11439413 38.38786957 274.2025228 76.77571351 274.25532665 115.16371898 C274.26158033 119.6937003 274.26805193 124.22368129 274.2746582 128.75366211 C274.27596976 129.65551622 274.27728131 130.55737033 274.2786326 131.48655335 C274.3004011 146.09757746 274.33983056 160.7085034 274.38576398 175.31946924 C274.43248848 190.30684172 274.46028691 205.29416273 274.47044247 220.28160506 C274.47730997 229.53293792 274.49901568 238.78399334 274.53958233 248.03524081 C274.56597128 254.37544819 274.57400976 260.71551172 274.56750689 267.05577006 C274.56429794 270.71623656 274.56928576 274.37621759 274.59602737 278.03659821 C274.62478966 282.00245966 274.61496388 285.96768495 274.60127258 289.93363953 C274.61583679 291.0941417 274.630401 292.25464388 274.64540654 293.45031279 C274.57264285 301.21212588 274.57264285 301.21212588 271.65700054 305.22362995 C268.39651193 307.4034693 266.5723782 307.52595485 262.6875 307.3125 C261.08455078 307.24482422 261.08455078 307.24482422 259.44921875 307.17578125 C258.64097656 307.11777344 257.83273437 307.05976563 257 307 C257.02618408 307.85231201 257.05236816 308.70462402 257.0793457 309.58276367 C257.16481492 312.76027127 257.22736789 315.9371911 257.2746582 319.11547852 C257.29972617 320.48807102 257.33379082 321.86053102 257.37719727 323.23266602 C257.43817531 325.21050696 257.46361009 327.18934184 257.48828125 329.16796875 C257.51446533 330.35672607 257.54064941 331.5454834 257.56762695 332.77026367 C256.80451201 337.11230565 255.48530735 338.3247684 252 341 C248.89874217 341.72550463 245.87442047 341.67528413 242.70068359 341.63491821 C241.29074159 341.64661814 241.29074159 341.64661814 239.8523159 341.65855443 C236.70062517 341.6785084 233.55013733 341.66269611 230.3984375 341.64697266 C228.13982436 341.65374723 225.88121675 341.66264946 223.62261963 341.67352295 C217.48627462 341.69634152 211.35034935 341.68746907 205.21399689 341.67162752 C198.79678707 341.65898194 192.37961355 341.67070491 185.96240234 341.67855835 C174.49452222 341.68824197 163.02687488 341.67268901 151.55903411 341.64726166 C141.16230822 341.62492291 130.76586147 341.62880309 120.36914062 341.65185547 C108.29426045 341.67861627 96.21959112 341.68857155 84.14467049 341.67379415 C77.75334088 341.66599289 71.36220354 341.66497683 64.97088623 341.68147659 C58.96253031 341.69590381 52.9547023 341.68593087 46.9464035 341.65700531 C44.73930488 341.65038525 42.53216195 341.65230777 40.32508087 341.66331863 C37.31588984 341.67694876 34.30839862 341.65988807 31.29931641 341.63491821 C30.4223731 341.64607182 29.5454298 341.65722543 28.64191246 341.66871703 C24.28138187 341.59835552 22.52150945 341.40029714 18.95426941 338.66217613 C16.46443408 335.27043282 16.41970565 333.34536372 16.51171875 329.16796875 C16.52783203 327.87568359 16.54394531 326.58339844 16.56054688 325.25195312 C16.60231726 323.89711843 16.64464191 322.54230072 16.6875 321.1875 C16.71259931 319.81319134 16.73540964 318.43883884 16.75585938 317.06445312 C16.81473539 313.70852024 16.8969358 310.3548191 17 307 C16.19175781 307.05800781 15.38351563 307.11601562 14.55078125 307.17578125 C13.48214844 307.22089844 12.41351563 307.26601563 11.3125 307.3125 C10.25675781 307.37050781 9.20101562 307.42851562 8.11328125 307.48828125 C5 307 5 307 2.34299946 305.22362995 C-1.21286422 300.33127344 -0.67537798 295.83849076 -0.60127258 289.93363953 C-0.60554471 288.69613459 -0.60981683 287.45862965 -0.61421841 286.18362457 C-0.62103186 282.7511137 -0.60540371 279.32002758 -0.58032811 275.88768899 C-0.55873902 272.1856295 -0.56604242 268.48361413 -0.56983948 264.7815094 C-0.57246146 258.36829384 -0.55677191 251.9553326 -0.52865028 245.54218102 C-0.48801777 236.26988133 -0.47499334 226.99770463 -0.46871033 217.72532556 C-0.45776674 202.68164147 -0.42449082 187.63809292 -0.37719727 172.59448242 C-0.33130333 157.98088255 -0.29591061 143.36731949 -0.2746582 128.75366211 C-0.27334459 127.85290306 -0.27203097 126.95214402 -0.27067754 126.02408924 C-0.26415236 121.50525312 -0.25783382 116.98641675 -0.25161803 112.4675802 C-0.19978302 74.97829109 -0.111716 37.4891561 0 0 Z " fill="#CEE1EC" transform="translate(119,171)"/>
<path d="M0 0 C0.11439413 38.38786957 0.2025228 76.77571351 0.25532665 115.16371898 C0.26158033 119.6937003 0.26805193 124.22368129 0.2746582 128.75366211 C0.27596976 129.65551622 0.27728131 130.55737033 0.2786326 131.48655335 C0.3004011 146.09757746 0.33983056 160.7085034 0.38576398 175.31946924 C0.43248848 190.30684172 0.46028691 205.29416273 0.47044247 220.28160506 C0.47730997 229.53293792 0.49901568 238.78399334 0.53958233 248.03524081 C0.56597128 254.37544819 0.57400976 260.71551172 0.56750689 267.05577006 C0.56429794 270.71623656 0.56928576 274.37621759 0.59602737 278.03659821 C0.62478966 282.00245966 0.61496388 285.96768495 0.60127258 289.93363953 C0.61583679 291.0941417 0.630401 292.25464388 0.64540654 293.45031279 C0.57264285 301.21212588 0.57264285 301.21212588 -2.34299946 305.22362995 C-5.60348807 307.4034693 -7.4276218 307.52595485 -11.3125 307.3125 C-12.91544922 307.24482422 -12.91544922 307.24482422 -14.55078125 307.17578125 C-15.35902344 307.11777344 -16.16726563 307.05976563 -17 307 C-16.97381592 307.85231201 -16.94763184 308.70462402 -16.9206543 309.58276367 C-16.83518508 312.76027127 -16.77263211 315.9371911 -16.7253418 319.11547852 C-16.70027383 320.48807102 -16.66620918 321.86053102 -16.62280273 323.23266602 C-16.56182469 325.21050696 -16.53638991 327.18934184 -16.51171875 329.16796875 C-16.48553467 330.35672607 -16.45935059 331.5454834 -16.43237305 332.77026367 C-17.17935754 337.02052512 -18.56063506 338.45416079 -22 341 C-24.86254883 341.56762695 -24.86254883 341.56762695 -27.95703125 341.48828125 C-29.06884766 341.47216797 -30.18066406 341.45605469 -31.32617188 341.43945312 C-32.47666016 341.39755859 -33.62714844 341.35566406 -34.8125 341.3125 C-35.98232422 341.28994141 -37.15214844 341.26738281 -38.35742188 341.24414062 C-41.23958769 341.18532091 -44.11913681 341.10317141 -47 341 C-46.19175781 340.30648438 -45.38351562 339.61296875 -44.55078125 338.8984375 C-40.28766389 333.78269667 -41.21600405 326.94023083 -41.1875 320.625 C-41.16236328 319.31660156 -41.13722656 318.00820313 -41.11132812 316.66015625 C-41.05256253 313.43980177 -41.0162025 310.22080358 -41 307 C-39.2421875 306.34895833 -37.484375 305.69791667 -35.7265625 305.046875 C-33.45584852 303.670062 -32.99280323 302.4468558 -32 300 C-31.73899604 297.77027822 -31.73899604 297.77027822 -31.8377037 295.37491798 C-31.85948201 293.97994793 -31.85948201 293.97994793 -31.88170028 292.55679667 C-31.90798955 291.53835559 -31.93427883 290.51991451 -31.96136475 289.47061157 C-31.98082287 288.38580171 -32.000281 287.30099185 -32.02032876 286.18330896 C-32.06417583 283.80064061 -32.11273657 281.41805561 -32.16533661 279.03556442 C-32.26563132 274.48294417 -32.34867625 269.93010715 -32.43056276 265.37712412 C-32.44273418 264.70064182 -32.4549056 264.02415952 -32.46744585 263.32717776 C-32.47973838 262.64248907 -32.49203092 261.95780037 -32.50469595 261.25236353 C-32.5434299 259.12182041 -32.58351088 256.99130605 -32.62388182 254.86079335 C-32.81921483 244.46555646 -32.96578119 234.0703102 -33.08355713 223.67391968 C-33.09215192 222.92059674 -33.10074671 222.1672738 -33.10960194 221.39112289 C-33.18910331 214.39190072 -33.26533021 207.39264451 -33.33925581 200.39336133 C-33.39011483 195.59213622 -33.44273366 190.79093311 -33.49707031 185.98974609 C-33.50607063 185.19241142 -33.51507094 184.39507675 -33.524344 183.57358043 C-33.67250431 170.71718732 -33.92122504 157.86458078 -34.20631287 145.01058169 C-34.49738691 131.77369676 -34.67099429 118.53877928 -34.74131417 105.2988714 C-34.78410596 97.87940844 -34.8792435 90.46871685 -35.11077118 83.05253983 C-36.6446737 32.59724238 -36.6446737 32.59724238 -23.20947003 17.2328099 C-6.79639522 0 -6.79639522 0 0 0 Z " fill="#AABFCF" transform="translate(393,171)"/>
<path d="M0 0 C44.88 0 89.76 0 136 0 C136 19.4440055 129.5151538 34.97073494 116.3125 49.25 C100.74845023 63.82781295 82.37615526 68.68340221 61.44140625 68.3359375 C44.16698664 67.60496888 28.70851091 58.3901708 17 46 C5.42178288 32.09798579 0 18.04092896 0 0 Z " fill="#CEE0EC" transform="translate(188,0)"/>
<path d="M0 0 C4.25572748 1.60478506 6.85906756 4.82147595 9.8125 8.125 C10.34294922 8.70958984 10.87339844 9.29417969 11.41992188 9.89648438 C12.9537695 11.59139536 14.47864497 13.29387555 16 15 C16.72574219 15.81210938 17.45148438 16.62421875 18.19921875 17.4609375 C19.34362849 18.75677673 20.4777401 20.06184104 21.59765625 21.37890625 C22.81610193 22.78741588 24.12058898 24.12058898 25.4375 25.4375 C27.74617264 29.22372313 27.72228862 32.66581659 27 37 C25.57905546 39.6916679 23.68103916 41.70820399 21.5625 43.875 C20.44678726 45.09141297 19.3322128 46.30887092 18.21875 47.52734375 C17.66703125 48.11757324 17.1153125 48.70780273 16.546875 49.31591797 C14.44374916 51.60559001 12.50245976 54.00893097 10.5625 56.4375 C6.41939009 61.54307465 2.1176955 66.49800053 -2.20288086 71.45288086 C-5.36465838 75.08737851 -8.46850206 78.75520843 -11.5 82.5 C-15.57267002 87.52743516 -19.79490195 92.41153209 -24.04272461 97.29052734 C-27.7446798 101.5447619 -31.41964509 105.82003412 -35.0625 110.125 C-35.50319824 110.64497559 -35.94389648 111.16495117 -36.39794922 111.70068359 C-38.36819879 114.03373347 -40.30318645 116.38410811 -42.1953125 118.78125 C-44.11606213 121.14269111 -45.0845662 122.16701892 -48 123 C-55.04498752 123.13548053 -58.17786566 119.53764727 -63 115 C-66.20626015 111.89271921 -69.35957355 108.73617201 -72.5 105.5625 C-73.32242187 104.73556641 -74.14484375 103.90863281 -74.9921875 103.05664062 C-76.99712113 101.04005041 -78.99966253 99.02114764 -81 97 C-77.28087385 91.93588375 -73.43918141 87.04941156 -69.3125 82.3125 C-68.2574489 81.09145991 -67.20276966 79.87009843 -66.1484375 78.6484375 C-65.62217773 78.03967773 -65.09591797 77.43091797 -64.55371094 76.80371094 C-62.164184 74.02969695 -59.79952411 71.23493593 -57.4375 68.4375 C-56.98802002 67.90552002 -56.53854004 67.37354004 -56.07543945 66.82543945 C-55.16978181 65.75337352 -54.26426378 64.68118962 -53.35888672 63.60888672 C-50.61595208 60.36132307 -47.86884646 57.11728651 -45.12255859 53.87255859 C-42.84208075 51.17788967 -40.56254784 48.48243423 -38.28515625 45.78515625 C-34.0139228 40.72869066 -29.73233026 35.68228374 -25.41503906 30.66503906 C-19.84324087 24.18875112 -14.38183686 17.63566982 -9 11 C-7.31442253 8.93592067 -5.62586409 6.87430288 -3.9375 4.8125 C-3.18339844 3.89082031 -2.42929687 2.96914062 -1.65234375 2.01953125 C-1.10707031 1.35308594 -0.56179688 0.68664062 0 0 Z " fill="#AABFCF" transform="translate(485,121)"/>
<path d="M0 0 C1.3327188 1.46690559 2.58913869 3.00322501 3.8125 4.5625 C7.60452546 9.30711157 11.50211674 13.92775166 15.5 18.5 C19.2346636 22.78159208 22.92461352 27.08334611 26.5 31.5 C30.57757127 36.53348541 34.80505915 41.42333309 39.05810547 46.30810547 C43.9787765 51.96264879 48.82781099 57.67472086 53.65722656 63.40722656 C55.47616799 65.56482181 57.29922379 67.71891997 59.12255859 69.87280273 C60.03460355 70.95021848 60.94639106 72.02785221 61.85791016 73.10571289 C64.24551276 75.92894374 66.63621155 78.74947963 69.03125 81.56640625 C69.52818359 82.15164062 70.02511719 82.736875 70.53710938 83.33984375 C71.48539782 84.45651986 72.43456281 85.57245241 73.38476562 86.6875 C74.59846105 88.11773179 75.79974152 89.55847334 77 91 C77.61875 91.69996094 78.2375 92.39992188 78.875 93.12109375 C80 95 80 95 79.8684082 96.79663086 C78.62663638 99.94731703 76.62361914 101.74766885 74.23046875 104.1328125 C73.51435173 104.84967728 73.51435173 104.84967728 72.7837677 105.58102417 C71.77439258 106.58806327 70.76133358 107.59142166 69.74487305 108.59130859 C68.19466377 110.11794517 66.65818171 111.65744044 65.12304688 113.19921875 C56.58500097 121.68887692 56.58500097 121.68887692 53 123 C48.78455616 122.92335557 46.70889953 122.65410537 43.57421875 119.76171875 C42.72472656 118.85035156 41.87523438 117.93898438 41 117 C39.83210938 115.75863281 39.83210938 115.75863281 38.640625 114.4921875 C33.73994402 109.1270629 29.03785295 103.65996079 24.47265625 98.0078125 C21.5831962 94.49298748 18.61318174 91.05589149 15.625 87.625 C10.14133777 81.3272634 4.72294029 74.9790197 -0.65722656 68.59277344 C-2.47616799 66.43517819 -4.29922379 64.28108003 -6.12255859 62.12719727 C-7.03460355 61.04978152 -7.94639106 59.97214779 -8.85791016 58.89428711 C-11.24551276 56.07105626 -13.63621155 53.25052037 -16.03125 50.43359375 C-16.52818359 49.84835938 -17.02511719 49.263125 -17.53710938 48.66015625 C-18.48539782 47.54348014 -19.43456281 46.42754759 -20.38476562 45.3125 C-21.59846105 43.88226821 -22.79974152 42.44152666 -24 41 C-24.58265625 40.30261719 -25.1653125 39.60523438 -25.765625 38.88671875 C-27.63515005 36.0291852 -27.78362182 33.85323471 -27.66796875 30.48828125 C-26.25058334 25.20831339 -21.78102181 21.7351217 -18 18 C-16.44659579 16.30233271 -14.90459571 14.59414974 -13.375 12.875 C-12.63894531 12.0603125 -11.90289062 11.245625 -11.14453125 10.40625 C-8.51036929 7.45061473 -5.94937761 4.43589851 -3.41015625 1.3984375 C-2 0 -2 0 0 0 Z " fill="#CFE1ED" transform="translate(27,121)"/>
<path d="M0 0 C0.8075473 -0.00845947 1.6150946 -0.01691895 2.44711304 -0.02563477 C3.32928497 -0.01956207 4.21145691 -0.01348938 5.12036133 -0.00723267 C6.51830429 -0.0151181 6.51830429 -0.0151181 7.94448853 -0.02316284 C11.03062613 -0.03638602 14.11624956 -0.02761646 17.20239258 -0.01748657 C19.34326273 -0.01950664 21.48413221 -0.02241751 23.625 -0.02618408 C28.11408025 -0.03061058 32.60298155 -0.02416581 37.09204102 -0.01016235 C42.85263818 0.0069296 48.61281606 -0.00290983 54.37339783 -0.02087975 C58.79483207 -0.03170871 63.21616655 -0.0282753 67.63760376 -0.02049637 C69.76193287 -0.01849191 71.88627098 -0.02096221 74.0105896 -0.02793503 C76.97711256 -0.03553482 79.94295192 -0.02396577 82.90942383 -0.00723267 C84.23268173 -0.01634171 84.23268173 -0.01634171 85.58267212 -0.02563477 C86.79399307 -0.01294556 86.79399307 -0.01294556 88.02978516 0 C88.73106033 0.00113108 89.43233551 0.00226215 90.15486145 0.00342751 C92.6089839 0.50153138 93.50197014 1.41724157 95.01489258 3.38095093 C95.40307617 6.24423218 95.40307617 6.24423218 95.41333008 9.69345093 C95.41719727 10.93352905 95.42106445 12.17360718 95.42504883 13.45126343 C95.41344727 14.7480603 95.4018457 16.04485718 95.38989258 17.38095093 C95.40149414 18.6777478 95.4130957 19.97454468 95.42504883 21.31063843 C95.42118164 22.55071655 95.41731445 23.79079468 95.41333008 25.06845093 C95.40994629 26.20669312 95.4065625 27.3449353 95.40307617 28.51766968 C94.96299372 31.76376216 94.53219701 32.4181769 92.01489258 34.38095093 C90.15486145 34.75847435 90.15486145 34.75847435 88.02978516 34.76190186 C87.22223785 34.77036133 86.41469055 34.7788208 85.58267212 34.78753662 C84.70050018 34.78146393 83.81832825 34.77539124 82.90942383 34.76913452 C81.51148087 34.77701996 81.51148087 34.77701996 80.08529663 34.7850647 C76.99915903 34.79828788 73.91353559 34.78951832 70.82739258 34.77938843 C68.68652243 34.78140849 66.54565295 34.78431937 64.40478516 34.78808594 C59.91570491 34.79251244 55.42680361 34.78606766 50.93774414 34.77206421 C45.17714698 34.75497226 39.4169691 34.76481168 33.65638733 34.7827816 C29.23495308 34.79361057 24.81361861 34.79017715 20.3921814 34.78239822 C18.26785228 34.78039377 16.14351417 34.78286407 14.01919556 34.78983688 C11.0526726 34.79743668 8.08683323 34.78586763 5.12036133 34.76913452 C3.79710342 34.77824356 3.79710342 34.77824356 2.44711304 34.78753662 C1.23579208 34.77484741 1.23579208 34.77484741 0 34.76190186 C-0.70127518 34.76077078 -1.40255035 34.7596397 -2.12507629 34.75847435 C-4.57919874 34.26037048 -5.47218499 33.34466029 -6.98510742 31.38095093 C-7.37329102 28.51766968 -7.37329102 28.51766968 -7.38354492 25.06845093 C-7.38741211 23.8283728 -7.3912793 22.58829468 -7.39526367 21.31063843 C-7.38366211 20.01384155 -7.37206055 18.71704468 -7.36010742 17.38095093 C-7.37170898 16.08415405 -7.38331055 14.78735718 -7.39526367 13.45126343 C-7.39139648 12.2111853 -7.3875293 10.97110718 -7.38354492 9.69345093 C-7.38016113 8.55520874 -7.37677734 7.41696655 -7.37329102 6.24423218 C-6.74308417 1.59576305 -4.59180437 0.00740606 0 0 Z " fill="#82E75A" transform="translate(211.985107421875,221.61904907226563)"/>
<path d="M0 0 C28.38 0 56.76 0 86 0 C84.45923221 13.86691008 80.27938811 25.36046123 69.26953125 34.43359375 C59.56839281 41.12921598 48.68094987 44.04410725 37 43 C25.79764908 40.85344174 15.27060709 34.90169565 8.30859375 25.78515625 C3.2933352 18.02973137 0 9.26696027 0 0 Z " fill="#3A4E5D" transform="translate(213,0)"/>
<path d="M0 0 C6.74066448 0.66842909 13.13381965 2.1227155 19.6875 3.8125 C20.70650391 4.06064453 21.72550781 4.30878906 22.77539062 4.56445312 C30.03797468 6.43116047 34.38674565 8.8529557 39.25 14.625 C41.9197808 17.74552301 44.62339128 20.82617919 47.375 23.875 C48.13554687 24.71804687 48.89609375 25.56109375 49.6796875 26.4296875 C50.82824219 27.70199219 50.82824219 27.70199219 52 29 C54.24796977 31.49687992 56.49508007 33.99453151 58.7421875 36.4921875 C60.26708244 38.18592894 61.79315402 39.87861169 63.3203125 41.5703125 C66.69912708 45.31564256 70.06895965 49.06518207 73.375 52.875 C76.35916686 56.30332192 79.42188484 59.65620801 82.5 63 C86.14411716 66.95864649 89.73913655 70.95176688 93.265625 75.015625 C96.79500714 79.05374691 100.40634226 83.01914681 104 87 C106.24370103 89.49213851 108.48654891 91.98501501 110.7265625 94.48046875 C112.29616055 96.21997175 113.87488703 97.95126606 115.4609375 99.67578125 C116.25757813 100.54589844 117.05421875 101.41601562 117.875 102.3125 C118.59429687 103.09238281 119.31359375 103.87226562 120.0546875 104.67578125 C122 107 122 107 125 112 C121.37 116.29 117.74 120.58 114 125 C110.40609034 123.20304517 109.27526157 122.46331863 106.875 119.5625 C103.9826969 116.14263089 101.02404616 112.80439086 98 109.5 C95.15475772 106.38092989 92.3280042 103.25244609 89.5625 100.0625 C86.60116544 96.65311482 83.55849695 93.32203624 80.5 90 C76.87912455 86.0671272 73.31041136 82.09786058 69.80859375 78.05859375 C67.5698875 75.5104335 65.28589788 73.00589407 63 70.5 C59.56735239 66.73649479 56.1844499 62.93870649 52.84375 59.09375 C49.74239765 55.5718753 46.56486667 52.11922978 43.40234375 48.65234375 C41.43058156 46.47539004 39.48634663 44.28161326 37.5625 42.0625 C34.6011649 38.6531142 31.55847514 35.3220569 28.5 32 C24.86208376 28.04814256 21.27120073 24.06362687 17.75390625 20.00390625 C14.91661579 16.76219131 12.01186217 13.58142572 9.11328125 10.39453125 C6.99128308 7.99012298 4.99622632 5.50905729 3 3 C2.01769502 1.9826127 1.02530403 0.97403883 0 0 Z " fill="#1079F0" transform="translate(361,9)"/>
<path d="M0 0 C4.2809777 3.26706193 6.74349714 5.18737981 7.52734375 10.7265625 C7.37807942 16.12721733 4.28124851 18.79263244 0.5625 22.375 C-0.73503186 23.69075882 -2.03190734 25.00716524 -3.328125 26.32421875 C-3.96169922 26.95505371 -4.59527344 27.58588867 -5.24804688 28.23583984 C-7.47810643 30.48143772 -9.58995461 32.81819234 -11.6875 35.1875 C-16.2785147 40.32162919 -20.93319849 45.39601771 -25.59277344 50.46777344 C-28.35363842 53.47387834 -31.11056337 56.48359719 -33.86791992 59.49291992 C-36.19505384 62.03232759 -38.52376909 64.57025218 -40.85546875 67.10546875 C-41.55978027 67.87250122 -41.55978027 67.87250122 -42.27832031 68.6550293 C-43.20927796 69.66743768 -44.14218781 70.67805479 -45.07714844 71.68676758 C-47.19552334 73.98167373 -49.24554756 76.30035344 -51.22265625 78.71875 C-56.13624125 84.70215215 -56.13624125 84.70215215 -60.625 86.25 C-64.41881862 85.9689764 -66.77032221 84.96931573 -70 83 C-64.90494294 75.92353186 -59.25072569 69.39382782 -53.55371094 62.80371094 C-51.164184 60.02969695 -48.79952411 57.23493593 -46.4375 54.4375 C-45.98802002 53.90552002 -45.53854004 53.37354004 -45.07543945 52.82543945 C-44.16978181 51.75337352 -43.26426378 50.68118962 -42.35888672 49.60888672 C-39.61595208 46.36132307 -36.86884646 43.11728651 -34.12255859 39.87255859 C-31.84208075 37.17788967 -29.56254784 34.48243423 -27.28515625 31.78515625 C-18.27518264 21.11774852 -9.23656284 10.47244096 0 0 Z " fill="#CDE0EC" transform="translate(474,135)"/>
<path d="M0 0 C4.55253858 1.9793646 7.71803915 5.22324295 11.31640625 8.5703125 C13.93755304 11.00580984 13.93755304 11.00580984 16.65234375 13.0546875 C17.46832031 13.69664063 18.28429687 14.33859375 19.125 15 C20.24261719 15.8353125 20.24261719 15.8353125 21.3828125 16.6875 C23.5165299 19.7386128 23.74327045 21.91865043 23.57421875 25.6015625 C22.4589836 30.25975558 19.24261306 33.19800203 15.9375 36.5 C14.95233398 37.57121094 14.95233398 37.57121094 13.94726562 38.6640625 C10.7966141 41.92956536 8.68042621 43.78467525 4.296875 45.171875 C0.42267612 44.96990255 -0.81338971 44.29807684 -3.6875 41.75 C-4.52410156 41.02296875 -5.36070313 40.2959375 -6.22265625 39.546875 C-7.13917969 38.70640625 -8.05570313 37.8659375 -9 37 C-10.10249469 36.00479841 -11.20537395 35.01002272 -12.30859375 34.015625 C-15.22924772 31.36847566 -18.12033452 28.69164608 -21 26 C-19.70176525 22.18437605 -18.25033142 19.92909121 -15.3125 17.1875 C-9.74910464 11.83613967 -4.75201067 6.08257366 0 0 Z " fill="#CEE1ED" transform="translate(82,57)"/>
<path d="M0 0 C2.95003821 2.21284195 3.90241746 3.3787084 4.48101807 7.06256104 C4.47213562 8.26169128 4.46325317 9.46082153 4.45410156 10.69628906 C4.45468567 11.36011597 4.45526978 12.02394287 4.45587158 12.70788574 C4.45309265 14.89433738 4.42201328 17.07941262 4.390625 19.265625 C4.38316184 20.78447729 4.37746926 22.30333922 4.37347412 23.82220459 C4.35822341 27.81403325 4.31894723 31.80527697 4.2746582 35.796875 C4.23369289 39.87231534 4.21546046 43.94785048 4.1953125 48.0234375 C4.15245175 56.01589302 4.08420804 64.00787368 4 72 C3.08927734 71.25169922 3.08927734 71.25169922 2.16015625 70.48828125 C0.08340339 68.72514131 0.08340339 68.72514131 -2.5625 69.1875 C-5.21378289 69.95249269 -5.21378289 69.95249269 -8 72 C-10.6939105 68.13619198 -11.38321954 65.50767421 -11.41992188 60.8203125 C-11.43583374 59.59554199 -11.45174561 58.37077148 -11.46813965 57.10888672 C-11.46834106 55.7942041 -11.46854248 54.47952148 -11.46875 53.125 C-11.47585631 51.75406586 -11.483556 50.38313468 -11.49182129 49.01220703 C-11.50524306 46.14412152 -11.5068449 43.27631119 -11.50097656 40.40820312 C-11.49507534 36.73927143 -11.52569724 33.07166073 -11.56609344 29.40298462 C-11.59198419 26.57357719 -11.59484688 23.74448759 -11.59120178 20.91497803 C-11.59371009 18.9069492 -11.61839264 16.89898755 -11.64343262 14.89111328 C-11.56651842 4.76774043 -11.56651842 4.76774043 -8.65429688 1.66796875 C-5.39489074 -0.38025262 -3.77912933 -0.72366306 0 0 Z " fill="#1179EF" transform="translate(115,146)"/>
<path d="M0 0 C3.1359157 1.77984405 3.84102736 2.52308207 5 6 C5.10372328 7.95689225 5.14856849 9.91711006 5.16113281 11.87670898 C5.17074036 13.08483749 5.1803479 14.292966 5.19024658 15.53770447 C5.19449646 16.84397293 5.19874634 18.15024139 5.203125 19.49609375 C5.2088787 20.84985862 5.2146364 22.20362347 5.22039795 23.55738831 C5.23089646 26.3944639 5.23674693 29.23151124 5.24023438 32.06860352 C5.24572299 35.70145745 5.26976317 39.33393732 5.29820633 42.96667385 C5.31684011 45.76252837 5.32203864 48.55829281 5.32357025 51.35420418 C5.32806373 53.34396323 5.34670403 55.33367403 5.36553955 57.323349 C5.36253845 58.53462967 5.35953735 59.74591034 5.35644531 60.99389648 C5.36009094 62.05962387 5.36373657 63.12535126 5.36749268 64.22337341 C4.95537045 67.33720288 4.08858609 68.70379322 2 71 C1.46375 70.649375 0.9275 70.29875 0.375 69.9375 C-2.78390245 68.69056482 -4.75318971 69.15300601 -8 70 C-8.99 70.99 -8.99 70.99 -10 72 C-10.09268792 63.20305508 -10.16375846 54.40627829 -10.20724869 45.60895157 C-10.22812211 41.5239563 -10.25643463 37.43929515 -10.30175781 33.35449219 C-10.3452253 29.41225655 -10.36913895 25.47034223 -10.37950897 21.52788544 C-10.38689882 20.02395316 -10.40132967 18.52003843 -10.42292023 17.01624298 C-10.45196812 14.90920541 -10.45595571 12.80349471 -10.45410156 10.69628906 C-10.46298401 9.49715881 -10.47186646 8.29802856 -10.48101807 7.06256104 C-9.51551014 0.91533465 -5.88064262 -0.85759372 0 0 Z " fill="#1179EF" transform="translate(403,146)"/>
<path d="M0 0 C5.01791684 2.41935276 8.49958655 5.9991731 11 11 C11.56088092 16.99711135 11.45741843 21.87348302 8 27 C3.72483021 32.0839857 0.11793961 33.59582264 -6.375 34.4375 C-11.19016217 33.85635974 -14.30178925 32.08720201 -18 29 C-21.72074351 24.22981602 -23.43397674 20.31554618 -23.34375 14.19140625 C-22.51238657 8.89146441 -19.16861616 5.14011333 -15.4375 1.5 C-10.29517977 -0.74392156 -5.52295971 -0.75106183 0 0 Z " fill="#CCE0ED" transform="translate(330,137)"/>
<path d="M0 0 C3.93736123 -0.08696177 7.87447628 -0.14037835 11.8125 -0.1875 C13.49182617 -0.22520508 13.49182617 -0.22520508 15.20507812 -0.26367188 C16.27822266 -0.27333984 17.35136719 -0.28300781 18.45703125 -0.29296875 C19.9416687 -0.31653442 19.9416687 -0.31653442 21.45629883 -0.34057617 C24 0 24 0 25.8215332 1.1237793 C27.54783919 3.8722072 27.38884385 6.08537746 27.3984375 9.3125 C27.40423828 11.17261719 27.40423828 11.17261719 27.41015625 13.0703125 C27.39855469 14.36710938 27.38695312 15.66390625 27.375 17 C27.38660156 18.29679687 27.39820313 19.59359375 27.41015625 20.9296875 C27.40628906 22.16976562 27.40242188 23.40984375 27.3984375 24.6875 C27.39505371 25.82574219 27.39166992 26.96398437 27.38818359 28.13671875 C27 31 27 31 25.8215332 32.8762207 C23.28092979 34.4436242 21.42972986 34.34015444 18.45703125 34.29296875 C16.84731445 34.2784668 16.84731445 34.2784668 15.20507812 34.26367188 C14.08552734 34.23853516 12.96597656 34.21339844 11.8125 34.1875 C10.68134766 34.17396484 9.55019531 34.16042969 8.38476562 34.14648438 C5.58936683 34.11109958 2.79492108 34.06172948 0 34 C0.48678223 33.46246094 0.97356445 32.92492187 1.47509766 32.37109375 C3.38466653 29.40187619 3.38704316 27.57412758 3.3984375 24.0625 C3.40230469 22.92039063 3.40617187 21.77828125 3.41015625 20.6015625 C3.39855469 19.41304687 3.38695312 18.22453125 3.375 17 C3.38660156 15.81148437 3.39820313 14.62296875 3.41015625 13.3984375 C3.40628906 12.25632813 3.40242188 11.11421875 3.3984375 9.9375 C3.39505371 8.89464844 3.39166992 7.85179687 3.38818359 6.77734375 C2.95434459 3.67334849 2.07913205 2.29592338 0 0 Z " fill="#4ADF48" transform="translate(280,222)"/>
<path d="M0 0 C3.0625 0.5625 3.0625 0.5625 5.9375 2.1875 C9.37422331 7.64582526 8.98916752 13.30002111 8.0625 19.5625 C5.9375 22.9375 5.9375 22.9375 3.0625 24.5625 C0 25.125 0 25.125 -2.9375 24.5625 C-5.08984375 23.02734375 -5.08984375 23.02734375 -6.9375 20.5625 C-7.33850915 17.73184716 -7.49872899 15.37903341 -7.4375 12.5625 C-7.45296875 11.8509375 -7.4684375 11.139375 -7.484375 10.40625 C-7.45832346 6.91534325 -7.20527323 4.91971968 -5.08984375 2.09765625 C-2.9375 0.5625 -2.9375 0.5625 0 0 Z " fill="#F8BC43" transform="translate(323.9375,85.4375)"/>
</svg>
