<?xml version="1.0" encoding="UTF-8"?>
<svg version="1.1" xmlns="http://www.w3.org/2000/svg" width="512" height="512">
<path d="M0 0 C9.92195163 4.87161917 18.44294221 5.38401084 29.3687439 5.25756836 C31.08314911 5.26121194 32.79755024 5.2679291 34.51193237 5.27754211 C38.98136642 5.29643821 43.45001381 5.28272219 47.91940308 5.2590332 C55.09821602 5.2243731 62.27684487 5.2304911 69.45567322 5.25516701 C71.94971548 5.2575267 74.4430304 5.23979569 76.9369812 5.21989441 C78.46827193 5.21964626 79.99956295 5.22004393 81.53085327 5.22119141 C82.21664459 5.21033005 82.90243591 5.19946869 83.60900879 5.1882782 C90.80617969 5.2314754 95.19529786 8.2273605 100.15470886 13.1955719 C100.62057126 13.65816546 101.08643366 14.12075902 101.5664131 14.59737056 C103.11424754 16.13796438 104.6511822 17.6889774 106.18832397 19.24023438 C107.30023641 20.3513554 108.41280251 21.4618226 109.52597046 22.57168579 C112.53863369 25.57922661 115.54190042 28.59599223 118.5434134 31.61465573 C121.6862143 34.77251367 124.83714002 37.92224476 127.98707581 41.07298279 C133.27192327 46.36151917 138.55110676 51.65565445 143.82650757 56.95361328 C150.60337153 63.75939601 157.38951412 70.55584787 164.17862415 77.34941196 C170.01253872 83.18730215 175.84218598 89.02944823 181.67114806 94.87228274 C183.54718556 96.75242209 185.42381175 98.63197234 187.30051613 100.511446 C190.2439102 103.45972529 193.18463585 106.41064117 196.12328339 109.36365128 C197.20402907 110.44892719 198.28562545 111.53335671 199.36811638 112.61689186 C200.84114559 114.09166148 202.31107052 115.56945516 203.78019714 117.04811096 C204.6047833 117.87567178 205.42936945 118.70323259 206.27894306 119.55587101 C209.15797554 122.63713466 209.67371259 125.11442161 209.6250658 129.35777092 C209.02841305 132.12152374 207.9619975 133.32639437 206.04884338 135.39260864 C205.4108399 136.08701176 204.77283642 136.78141487 204.1154995 137.4968605 C201.19660743 140.55829375 198.26063182 143.59525422 195.2684021 146.58520508 C194.29627274 147.56237236 194.29627274 147.56237236 193.30450439 148.5592804 C191.18920179 150.68398316 189.07024232 152.80498919 186.95077515 154.92553711 C185.46813331 156.41139621 183.98556513 157.89732881 182.50306702 159.3833313 C179.409201 162.48315901 176.31330157 165.58093941 173.21615601 168.67749023 C169.24656597 172.64697814 165.28393006 176.62333175 161.32297993 180.60143852 C158.26980899 183.66571263 155.21211949 186.72544657 152.15312767 189.78390884 C150.68947959 191.24873705 149.22745297 192.71518728 147.76708412 194.18328476 C145.73056428 196.2295819 143.68783082 198.26947003 141.6434021 200.30786133 C140.7417205 201.21797218 140.7417205 201.21797218 139.82182312 202.14646912 C139.26269226 202.70140549 138.7035614 203.25634186 138.12748718 203.82809448 C137.40553398 204.55086484 137.40553398 204.55086484 136.66899586 205.28823662 C134.09513281 207.44037136 131.67387059 208.45119301 128.3999939 209.12084961 C119.9055869 207.65066378 112.47982351 197.00575756 106.6499939 191.12084961 C105.7321814 190.19852539 104.8143689 189.27620117 103.8687439 188.32592773 C101.62684335 186.07235062 99.3873279 183.81645886 97.1499939 181.55834961 C97.14852868 182.41246942 97.14852868 182.41246942 97.14703387 183.28384417 C97.08878192 217.02002587 97.01500041 250.75613507 96.92100761 284.49223594 C96.90973924 288.54153589 96.89860082 292.59083619 96.88754272 296.64013672 C96.88533904 297.44629115 96.88313536 298.25244559 96.8808649 299.08302895 C96.84547719 312.14202452 96.82062138 325.20102003 96.79964688 338.26004579 C96.77789655 351.65640537 96.74485346 365.05270264 96.70129234 378.44900924 C96.67476235 386.71753066 96.65707692 394.98597442 96.65064786 403.25453631 C96.64539808 408.92196971 96.62919498 414.58930533 96.60432824 420.25668635 C96.590299 423.52816967 96.58276929 426.79944273 96.58498573 430.070961 C96.5866298 433.61645808 96.57001255 437.16141032 96.54872131 440.70683289 C96.55599268 442.26082063 96.55599268 442.26082063 96.56341094 443.84620208 C96.47425854 452.8068631 96.47425854 452.8068631 93.1499939 456.55834961 C90.14684872 458.3915617 87.90327907 458.80915352 84.40822697 458.8128252 C83.45237927 458.8186574 82.49653158 458.82448959 81.51171881 458.83049852 C80.46455189 458.82671919 79.41738497 458.82293987 78.33848572 458.81904602 C76.66643622 458.82478434 76.66643622 458.82478434 74.96060795 458.83063859 C71.21192155 458.84098719 67.46338778 458.83697286 63.71469116 458.83300781 C61.03258757 458.83735324 58.35049532 458.84247106 55.668396 458.84849548 C49.13135092 458.8612543 42.59434689 458.86303471 36.05729146 458.86069522 C30.7446862 458.85891326 25.43209343 458.86065908 20.11948967 458.86491966 C18.9859576 458.86581245 18.9859576 458.86581245 17.8295259 458.86672327 C16.29441969 458.867935 14.75931348 458.86914913 13.22420727 458.87036564 C-1.17670731 458.88124569 -15.57759848 458.87907646 -29.97851438 458.8729808 C-43.15692594 458.86781094 -56.3352636 458.87906804 -69.51366054 458.89807902 C-83.04119677 458.91744425 -96.56869802 458.92571575 -110.09624821 458.92195576 C-117.69256685 458.92004175 -125.28882258 458.9225507 -132.88512993 458.9366703 C-139.35175505 458.94856834 -145.81827853 458.95000678 -152.28490501 458.93788014 C-155.58478819 458.93198032 -158.88444637 458.9325416 -162.18432426 458.94288254 C-165.76022845 458.95328253 -169.33562866 458.94530324 -172.91151428 458.93257141 C-173.95645048 458.9399457 -175.00138668 458.94731998 -176.07798761 458.95491773 C-184.94370351 458.88825718 -184.94370351 458.88825718 -188.8500061 455.55834961 C-190.04065763 453.17704655 -189.98011251 451.72244435 -189.9886713 449.06432915 C-189.99414575 448.11286345 -189.99962019 447.16139776 -190.00526053 446.18109977 C-190.00623863 445.12858752 -190.00721674 444.07607527 -190.00822449 442.9916687 C-190.01316246 441.87923361 -190.01810044 440.76679852 -190.02318805 439.62065327 C-190.03862852 435.86795337 -190.04694135 432.11527065 -190.05532837 428.36254883 C-190.06490175 425.68248236 -190.07486772 423.00242005 -190.08532715 420.32235718 C-190.10710912 414.53944492 -190.1252473 408.75653036 -190.14093208 402.97359848 C-190.16361506 394.61238236 -190.19176005 386.25119169 -190.22125136 377.88999714 C-190.26894658 364.32552039 -190.31220552 350.76103324 -190.35269165 337.1965332 C-190.39203677 324.01748851 -190.43346062 310.83845307 -190.47769165 297.65942383 C-190.48041592 296.84748648 -190.48314019 296.03554913 -190.48594702 295.19900762 C-190.49962634 291.12588139 -190.51334664 287.0527553 -190.52708733 282.97962928 C-190.64108242 249.17255513 -190.74788506 215.3654617 -190.8500061 181.55834961 C-191.62714966 182.34072998 -192.40429321 183.12311035 -193.20498657 183.92919922 C-196.08364212 186.82592848 -198.96558433 189.71936857 -201.84854126 192.61181641 C-203.09683981 193.86514973 -204.34424018 195.11937829 -205.59072876 196.37451172 C-207.38053874 198.17642463 -209.17353355 199.97511388 -210.9671936 201.77319336 C-211.52558929 202.33675034 -212.08398499 202.90030731 -212.65930176 203.48094177 C-217.59317134 208.41552748 -217.59317134 208.41552748 -221.6000061 208.87084961 C-228.5712983 208.20053305 -233.32881883 202.36371163 -238.03286743 197.6184082 C-238.72464081 196.92853317 -239.41641418 196.23865814 -240.12915039 195.52787781 C-242.40168679 193.25902959 -244.66697117 190.9830912 -246.93203735 188.70678711 C-248.51253885 187.12509296 -250.09341079 185.54376889 -251.67463684 183.96279907 C-254.98026148 180.65561313 -258.28250693 177.34510242 -261.58218384 174.03198242 C-265.81861889 169.7785094 -270.0616558 165.53169771 -274.30699635 161.2871151 C-277.56797753 158.02586255 -280.82635035 154.76201472 -284.08383751 151.49727249 C-285.64819843 149.92972346 -287.213171 148.36278459 -288.7787571 146.7964592 C-290.95974336 144.61331365 -293.1374102 142.42691283 -295.31411743 140.23950195 C-295.96499832 139.58907425 -296.61587921 138.93864655 -297.28648376 138.26850891 C-297.87659241 137.67413528 -298.46670105 137.07976166 -299.07469177 136.46737671 C-299.58955548 135.95083715 -300.10441919 135.4342976 -300.63488483 134.90210533 C-303.11001683 132.16495237 -303.3761359 129.37899786 -303.31043816 125.74422646 C-302.74698573 123.06926584 -301.82954049 121.96212484 -299.98309326 119.95932007 C-299.34323612 119.26305889 -298.70337898 118.56679771 -298.04413223 117.84943771 C-293.81967531 113.43829522 -289.53708584 109.0887474 -285.22061157 104.76782227 C-284.16347712 103.7060492 -283.10653679 102.64408284 -282.04977417 101.5819397 C-279.20120866 98.72036206 -276.34940938 95.86202988 -273.49656439 93.00471926 C-271.71223082 91.21744113 -269.92848001 89.42958335 -268.14490128 87.64155197 C-262.55742347 82.04043847 -256.96797636 76.44130148 -251.375615 70.84506381 C-244.93080095 64.39575666 -238.49260411 57.93993767 -232.06000221 51.47845042 C-227.0757328 46.47257957 -222.08572811 41.47247372 -217.09131539 36.47672307 C-214.11252986 33.49688987 -211.1362213 30.51467928 -208.16585922 27.5264473 C-205.37674707 24.72087772 -202.58058864 21.92252921 -199.77884674 19.12957382 C-198.75272354 18.10422182 -197.72915846 17.07630236 -196.70837021 16.04563904 C-195.31396315 14.63853677 -193.90935579 13.24156472 -192.50427246 11.84512329 C-191.72154402 11.06092829 -190.93881557 10.27673328 -190.13236809 9.4687748 C-185.52088201 5.60878273 -181.17882383 5.27582841 -175.36026001 5.35058594 C-174.62284576 5.35178436 -173.88543152 5.35298279 -173.12567139 5.35421753 C-171.52861896 5.35735995 -169.93157043 5.3646546 -168.33455276 5.37565041 C-165.79269489 5.39057981 -163.25136018 5.3888796 -160.70947266 5.38200378 C-153.48352776 5.36324358 -146.25798174 5.35636206 -139.03213501 5.40380859 C-134.60392781 5.431676 -130.17685921 5.42483751 -125.74866867 5.39679527 C-124.07523332 5.39258103 -122.40171196 5.4007769 -120.72841263 5.42252541 C-110.18017847 5.55385242 -102.30631967 4.28855461 -92.96559143 -0.77294922 C-89.02133145 -2.88548685 -85.10478679 -4.16201778 -80.7875061 -5.25415039 C-80.03276001 -5.45226318 -79.27801392 -5.65037598 -78.50039673 -5.85449219 C-53.85463615 -12.11749453 -23.18239647 -11.7266103 0 0 Z " fill="#F4F4F4" transform="translate(302.8500061035156,31.441650390625)"/>
<path d="M0 0 C9.92195163 4.87161917 18.44294221 5.38401084 29.3687439 5.25756836 C31.08314911 5.26121194 32.79755024 5.2679291 34.51193237 5.27754211 C38.98136642 5.29643821 43.45001381 5.28272219 47.91940308 5.2590332 C55.09821602 5.2243731 62.27684487 5.2304911 69.45567322 5.25516701 C71.94971548 5.2575267 74.4430304 5.23979569 76.9369812 5.21989441 C78.46827193 5.21964626 79.99956295 5.22004393 81.53085327 5.22119141 C82.21664459 5.21033005 82.90243591 5.19946869 83.60900879 5.1882782 C90.80617969 5.2314754 95.19529786 8.2273605 100.15470886 13.1955719 C100.62057126 13.65816546 101.08643366 14.12075902 101.5664131 14.59737056 C103.11424754 16.13796438 104.6511822 17.6889774 106.18832397 19.24023438 C107.30023641 20.3513554 108.41280251 21.4618226 109.52597046 22.57168579 C112.53863369 25.57922661 115.54190042 28.59599223 118.5434134 31.61465573 C121.6862143 34.77251367 124.83714002 37.92224476 127.98707581 41.07298279 C133.27192327 46.36151917 138.55110676 51.65565445 143.82650757 56.95361328 C150.60337153 63.75939601 157.38951412 70.55584787 164.17862415 77.34941196 C170.01253872 83.18730215 175.84218598 89.02944823 181.67114806 94.87228274 C183.54718556 96.75242209 185.42381175 98.63197234 187.30051613 100.511446 C190.2439102 103.45972529 193.18463585 106.41064117 196.12328339 109.36365128 C197.20402907 110.44892719 198.28562545 111.53335671 199.36811638 112.61689186 C200.84114559 114.09166148 202.31107052 115.56945516 203.78019714 117.04811096 C204.6047833 117.87567178 205.42936945 118.70323259 206.27894306 119.55587101 C209.15797554 122.63713466 209.67371259 125.11442161 209.6250658 129.35777092 C209.02841305 132.12152374 207.9619975 133.32639437 206.04884338 135.39260864 C205.4108399 136.08701176 204.77283642 136.78141487 204.1154995 137.4968605 C201.19660743 140.55829375 198.26063182 143.59525422 195.2684021 146.58520508 C194.29627274 147.56237236 194.29627274 147.56237236 193.30450439 148.5592804 C191.18920179 150.68398316 189.07024232 152.80498919 186.95077515 154.92553711 C185.46813331 156.41139621 183.98556513 157.89732881 182.50306702 159.3833313 C179.409201 162.48315901 176.31330157 165.58093941 173.21615601 168.67749023 C169.24656597 172.64697814 165.28393006 176.62333175 161.32297993 180.60143852 C158.26980899 183.66571263 155.21211949 186.72544657 152.15312767 189.78390884 C150.68947959 191.24873705 149.22745297 192.71518728 147.76708412 194.18328476 C145.73056428 196.2295819 143.68783082 198.26947003 141.6434021 200.30786133 C140.7417205 201.21797218 140.7417205 201.21797218 139.82182312 202.14646912 C139.26269226 202.70140549 138.7035614 203.25634186 138.12748718 203.82809448 C137.40553398 204.55086484 137.40553398 204.55086484 136.66899586 205.28823662 C134.09513281 207.44037136 131.67387059 208.45119301 128.3999939 209.12084961 C119.9055869 207.65066378 112.47982351 197.00575756 106.6499939 191.12084961 C105.7321814 190.19852539 104.8143689 189.27620117 103.8687439 188.32592773 C101.62684335 186.07235062 99.3873279 183.81645886 97.1499939 181.55834961 C97.14852868 182.41246942 97.14852868 182.41246942 97.14703387 183.28384417 C97.08878192 217.02002587 97.01500041 250.75613507 96.92100761 284.49223594 C96.90973924 288.54153589 96.89860082 292.59083619 96.88754272 296.64013672 C96.88533904 297.44629115 96.88313536 298.25244559 96.8808649 299.08302895 C96.84547719 312.14202452 96.82062138 325.20102003 96.79964688 338.26004579 C96.77789655 351.65640537 96.74485346 365.05270264 96.70129234 378.44900924 C96.67476235 386.71753066 96.65707692 394.98597442 96.65064786 403.25453631 C96.64539808 408.92196971 96.62919498 414.58930533 96.60432824 420.25668635 C96.590299 423.52816967 96.58276929 426.79944273 96.58498573 430.070961 C96.5866298 433.61645808 96.57001255 437.16141032 96.54872131 440.70683289 C96.55599268 442.26082063 96.55599268 442.26082063 96.56341094 443.84620208 C96.47425854 452.8068631 96.47425854 452.8068631 93.1499939 456.55834961 C90.14684872 458.3915617 87.90327907 458.80915352 84.40822697 458.8128252 C83.45237927 458.8186574 82.49653158 458.82448959 81.51171881 458.83049852 C80.46455189 458.82671919 79.41738497 458.82293987 78.33848572 458.81904602 C76.66643622 458.82478434 76.66643622 458.82478434 74.96060795 458.83063859 C71.21192155 458.84098719 67.46338778 458.83697286 63.71469116 458.83300781 C61.03258757 458.83735324 58.35049532 458.84247106 55.668396 458.84849548 C49.13135092 458.8612543 42.59434689 458.86303471 36.05729146 458.86069522 C30.7446862 458.85891326 25.43209343 458.86065908 20.11948967 458.86491966 C18.9859576 458.86581245 18.9859576 458.86581245 17.8295259 458.86672327 C16.29441969 458.867935 14.75931348 458.86914913 13.22420727 458.87036564 C-1.17670731 458.88124569 -15.57759848 458.87907646 -29.97851438 458.8729808 C-43.15692594 458.86781094 -56.3352636 458.87906804 -69.51366054 458.89807902 C-83.04119677 458.91744425 -96.56869802 458.92571575 -110.09624821 458.92195576 C-117.69256685 458.92004175 -125.28882258 458.9225507 -132.88512993 458.9366703 C-139.35175505 458.94856834 -145.81827853 458.95000678 -152.28490501 458.93788014 C-155.58478819 458.93198032 -158.88444637 458.9325416 -162.18432426 458.94288254 C-165.76022845 458.95328253 -169.33562866 458.94530324 -172.91151428 458.93257141 C-173.95645048 458.9399457 -175.00138668 458.94731998 -176.07798761 458.95491773 C-184.94370351 458.88825718 -184.94370351 458.88825718 -188.8500061 455.55834961 C-190.04065763 453.17704655 -189.98011251 451.72244435 -189.9886713 449.06432915 C-189.99414575 448.11286345 -189.99962019 447.16139776 -190.00526053 446.18109977 C-190.00623863 445.12858752 -190.00721674 444.07607527 -190.00822449 442.9916687 C-190.01316246 441.87923361 -190.01810044 440.76679852 -190.02318805 439.62065327 C-190.03862852 435.86795337 -190.04694135 432.11527065 -190.05532837 428.36254883 C-190.06490175 425.68248236 -190.07486772 423.00242005 -190.08532715 420.32235718 C-190.10710912 414.53944492 -190.1252473 408.75653036 -190.14093208 402.97359848 C-190.16361506 394.61238236 -190.19176005 386.25119169 -190.22125136 377.88999714 C-190.26894658 364.32552039 -190.31220552 350.76103324 -190.35269165 337.1965332 C-190.39203677 324.01748851 -190.43346062 310.83845307 -190.47769165 297.65942383 C-190.48041592 296.84748648 -190.48314019 296.03554913 -190.48594702 295.19900762 C-190.49962634 291.12588139 -190.51334664 287.0527553 -190.52708733 282.97962928 C-190.64108242 249.17255513 -190.74788506 215.3654617 -190.8500061 181.55834961 C-191.62714966 182.34072998 -192.40429321 183.12311035 -193.20498657 183.92919922 C-196.08364212 186.82592848 -198.96558433 189.71936857 -201.84854126 192.61181641 C-203.09683981 193.86514973 -204.34424018 195.11937829 -205.59072876 196.37451172 C-207.38053874 198.17642463 -209.17353355 199.97511388 -210.9671936 201.77319336 C-211.52558929 202.33675034 -212.08398499 202.90030731 -212.65930176 203.48094177 C-217.59317134 208.41552748 -217.59317134 208.41552748 -221.6000061 208.87084961 C-228.5712983 208.20053305 -233.32881883 202.36371163 -238.03286743 197.6184082 C-238.72464081 196.92853317 -239.41641418 196.23865814 -240.12915039 195.52787781 C-242.40168679 193.25902959 -244.66697117 190.9830912 -246.93203735 188.70678711 C-248.51253885 187.12509296 -250.09341079 185.54376889 -251.67463684 183.96279907 C-254.98026148 180.65561313 -258.28250693 177.34510242 -261.58218384 174.03198242 C-265.81861889 169.7785094 -270.0616558 165.53169771 -274.30699635 161.2871151 C-277.56797753 158.02586255 -280.82635035 154.76201472 -284.08383751 151.49727249 C-285.64819843 149.92972346 -287.213171 148.36278459 -288.7787571 146.7964592 C-290.95974336 144.61331365 -293.1374102 142.42691283 -295.31411743 140.23950195 C-295.96499832 139.58907425 -296.61587921 138.93864655 -297.28648376 138.26850891 C-297.87659241 137.67413528 -298.46670105 137.07976166 -299.07469177 136.46737671 C-299.58955548 135.95083715 -300.10441919 135.4342976 -300.63488483 134.90210533 C-303.11001683 132.16495237 -303.3761359 129.37899786 -303.31043816 125.74422646 C-302.74698573 123.06926584 -301.82954049 121.96212484 -299.98309326 119.95932007 C-299.34323612 119.26305889 -298.70337898 118.56679771 -298.04413223 117.84943771 C-293.81967531 113.43829522 -289.53708584 109.0887474 -285.22061157 104.76782227 C-284.16347712 103.7060492 -283.10653679 102.64408284 -282.04977417 101.5819397 C-279.20120866 98.72036206 -276.34940938 95.86202988 -273.49656439 93.00471926 C-271.71223082 91.21744113 -269.92848001 89.42958335 -268.14490128 87.64155197 C-262.55742347 82.04043847 -256.96797636 76.44130148 -251.375615 70.84506381 C-244.93080095 64.39575666 -238.49260411 57.93993767 -232.06000221 51.47845042 C-227.0757328 46.47257957 -222.08572811 41.47247372 -217.09131539 36.47672307 C-214.11252986 33.49688987 -211.1362213 30.51467928 -208.16585922 27.5264473 C-205.37674707 24.72087772 -202.58058864 21.92252921 -199.77884674 19.12957382 C-198.75272354 18.10422182 -197.72915846 17.07630236 -196.70837021 16.04563904 C-195.31396315 14.63853677 -193.90935579 13.24156472 -192.50427246 11.84512329 C-191.72154402 11.06092829 -190.93881557 10.27673328 -190.13236809 9.4687748 C-185.52088201 5.60878273 -181.17882383 5.27582841 -175.36026001 5.35058594 C-174.62284576 5.35178436 -173.88543152 5.35298279 -173.12567139 5.35421753 C-171.52861896 5.35735995 -169.93157043 5.3646546 -168.33455276 5.37565041 C-165.79269489 5.39057981 -163.25136018 5.3888796 -160.70947266 5.38200378 C-153.48352776 5.36324358 -146.25798174 5.35636206 -139.03213501 5.40380859 C-134.60392781 5.431676 -130.17685921 5.42483751 -125.74866867 5.39679527 C-124.07523332 5.39258103 -122.40171196 5.4007769 -120.72841263 5.42252541 C-110.18017847 5.55385242 -102.30631967 4.28855461 -92.96559143 -0.77294922 C-89.02133145 -2.88548685 -85.10478679 -4.16201778 -80.7875061 -5.25415039 C-80.03276001 -5.45226318 -79.27801392 -5.65037598 -78.50039673 -5.85449219 C-53.85463615 -12.11749453 -23.18239647 -11.7266103 0 0 Z M-227.0375061 67.55834961 C-227.54671695 68.09598403 -228.05592779 68.63361845 -228.58056927 69.18754482 C-241.99228787 83.36057829 -255.06840385 97.81345223 -267.8500061 112.55834961 C-264.16116235 116.9561016 -260.37059598 121.16101473 -256.30361938 125.21826172 C-255.52689629 125.99520386 -255.52689629 125.99520386 -254.73448181 126.7878418 C-253.04879076 128.47284483 -251.35960279 130.15429331 -249.6703186 131.83569336 C-248.49040164 133.01374219 -247.31070752 134.19201427 -246.13122559 135.37049866 C-243.04610919 138.45182103 -239.95800021 141.53012677 -236.86923218 144.60778809 C-233.70994877 147.75678995 -230.55354094 150.90867132 -227.3968811 154.06030273 C-221.21738083 160.22912071 -215.03471221 166.3947509 -208.8500061 172.55834961 C-205.55844914 170.99721804 -203.40072806 169.33322366 -200.84609985 166.71459961 C-200.10553345 165.96307617 -199.36496704 165.21155273 -198.60195923 164.43725586 C-197.8381897 163.6522168 -197.07442017 162.86717773 -196.2875061 162.05834961 C-194.76764795 160.50403623 -193.24560364 158.95185672 -191.72109985 157.40209961 C-191.05006226 156.7130957 -190.37902466 156.0240918 -189.68765259 155.31420898 C-187.18602988 152.92392461 -185.42914845 151.64647997 -181.9750061 151.12084961 C-178.8500061 151.55834961 -178.8500061 151.55834961 -176.19464588 153.42882824 C-172.82752028 157.92311842 -173.15232658 161.5872077 -173.21076965 167.06819153 C-173.20241398 168.13827082 -173.1940583 169.20835011 -173.18544942 170.31085604 C-173.16347291 173.90255388 -173.17714171 177.49323386 -173.19058228 181.08496094 C-173.18213202 183.65710224 -173.17148928 186.22923714 -173.15881348 188.80136108 C-173.13497405 194.34201217 -173.12936451 199.88244081 -173.1361599 205.42313576 C-173.14595842 213.43398377 -173.12822787 221.44458507 -173.10379259 229.45539316 C-173.06489452 242.45252666 -173.04823955 255.44958963 -173.04556274 268.44677734 C-173.04291497 281.07181415 -173.02979769 293.69676853 -173.00259399 306.32177734 C-173.00092062 307.10006957 -172.99924724 307.8783618 -172.99752315 308.68023864 C-172.98906364 312.58472846 -172.98039823 316.48921778 -172.97163045 320.39370692 C-172.89916704 352.78191204 -172.86279783 385.17006403 -172.8500061 417.55834961 C-171.53360453 417.55916676 -171.53360453 417.55916676 -170.19060898 417.56000042 C-148.85041752 417.57495858 -127.5104352 417.61736628 -106.17036057 417.69044018 C-95.85049824 417.72511399 -85.53076983 417.75044883 -75.21084595 417.75390625 C-66.2174523 417.75694282 -57.22429698 417.77739186 -48.23099542 417.81887418 C-43.46770975 417.84023383 -38.70476316 417.85278962 -33.94142914 417.8445034 C-29.45970921 417.83698195 -24.97867739 417.85270782 -20.49708366 417.88640976 C-18.85075089 417.89466614 -17.20434998 417.89436583 -15.55802345 417.88494682 C-13.31214794 417.87336789 -11.06854389 417.89237211 -8.82284546 417.91911316 C-6.93685701 417.92326123 -6.93685701 417.92326123 -5.01276779 417.9274931 C-1.8500061 418.55834961 -1.8500061 418.55834961 0.52329636 420.97330189 C2.1499939 423.55834961 2.1499939 423.55834961 3.1499939 425.55834961 C12.3899939 425.55834961 21.6299939 425.55834961 31.1499939 425.55834961 C32.1399939 423.57834961 33.1299939 421.59834961 34.1499939 419.55834961 C36.4331183 418.41678741 37.78478695 418.40500589 40.3243103 418.35302734 C41.18505157 418.33308212 42.04579285 418.3131369 42.93261719 418.29258728 C44.3279921 418.26751854 44.3279921 418.26751854 45.7515564 418.24194336 C46.70315643 418.22116226 47.65475647 418.20038116 48.63519287 418.17897034 C51.68171822 418.11346828 54.72833133 418.05458681 57.7749939 417.99584961 C59.83750305 417.95266502 61.90000326 417.90905075 63.9624939 417.86499023 C69.02490344 417.75778621 74.08740145 417.65652059 79.1499939 417.55834961 C79.15145911 416.72530832 79.15145911 416.72530832 79.15295392 415.87543792 C79.2111869 382.98277495 79.28495394 350.09018803 79.37898018 317.19760851 C79.39024876 313.25087995 79.40138714 309.30415103 79.41244507 305.35742188 C79.41464875 304.57167712 79.41685244 303.78593237 79.4191229 302.97637717 C79.4545251 290.24259032 79.47937271 277.50880355 79.50034092 264.77498569 C79.52207973 251.7153784 79.55511178 238.65583515 79.59869546 225.5962823 C79.62524538 217.53350813 79.6429161 209.4708138 79.64933994 201.40799806 C79.65520225 195.23234699 79.67675329 189.05684273 79.70426941 182.88125229 C79.71309621 180.34274748 79.7167627 177.80421893 79.71500206 175.26569939 C79.71336208 171.81145624 79.72993955 168.35777645 79.75126648 164.90361023 C79.74399512 163.38173891 79.74399512 163.38173891 79.73657686 161.82912272 C79.7460334 160.90701654 79.75548994 159.98491036 79.76523304 159.03486156 C79.76713164 158.23706915 79.76903024 157.43927674 79.77098638 156.6173088 C80.25268513 154.00047923 81.03370095 153.13701807 83.1499939 151.55834961 C86.52579347 150.84765496 87.93739074 150.6311127 91.1499939 151.55834961 C94.8889781 154.15673015 97.97113065 157.3127636 101.1499939 160.55834961 C102.54798218 161.9215332 102.54798218 161.9215332 103.97421265 163.31225586 C110.94055334 170.13946849 110.94055334 170.13946849 112.1499939 172.55834961 C116.16570645 170.94975457 118.85479003 168.12194596 121.83651733 165.09887695 C122.39305496 164.54263138 122.94959259 163.9863858 123.522995 163.4132843 C125.35656832 161.57832056 127.18296061 159.7363803 129.0093689 157.89428711 C130.28116914 156.61875572 131.55341243 155.34366594 132.82608032 154.06900024 C136.17105647 150.71639566 139.50998241 147.35782788 142.84768677 143.99798584 C146.2560222 140.56917505 149.67004135 137.14603388 153.08358765 133.72241211 C159.77796687 127.00659689 166.46596856 120.28446867 173.1499939 113.55834961 C171.74937656 110.39378188 170.10034132 108.25934617 167.65805054 105.81916809 C166.93457428 105.09149734 166.21109802 104.3638266 165.46569824 103.61410522 C164.67186737 102.82589386 163.8780365 102.0376825 163.06015015 101.22558594 C162.22426361 100.38780106 161.38837708 99.55001617 160.52716064 98.68684387 C158.23750037 96.39411537 155.94343331 94.10591272 153.64716721 91.81980348 C151.24516286 89.42659011 148.84843954 87.02809868 146.45101929 84.6302948 C142.42601959 80.60623106 138.39716866 76.5860563 134.36581421 72.56835938 C129.70227309 67.92055904 125.04399464 63.26753732 120.38868427 58.61149389 C115.91139813 54.1335979 111.43126357 49.65856379 106.94952393 45.18512535 C105.04128828 43.28042378 103.13390738 41.37487223 101.22717285 39.46866798 C98.5672373 36.81089105 95.90404068 34.15642789 93.23983765 31.50292969 C92.44600677 30.70864563 91.6521759 29.91436157 90.83428955 29.0960083 C90.11081329 28.37679703 89.38733704 27.65758575 88.64193726 26.9165802 C87.69730873 25.97446544 87.69730873 25.97446544 86.7335968 25.01331806 C83.57335523 22.1097797 81.04927178 22.43686809 76.86434937 22.44482422 C75.8983078 22.44460518 75.8983078 22.44460518 74.91275024 22.44438171 C72.78085987 22.44507921 70.64905653 22.45286395 68.5171814 22.46069336 C67.04030403 22.46255812 65.56342605 22.46398175 64.08654785 22.46498108 C60.19687191 22.46880169 56.30723323 22.47862809 52.41757202 22.48968506 C48.44947819 22.49990897 44.48137835 22.5044808 40.51327515 22.50952148 C32.72549773 22.52025076 24.93775103 22.53732172 17.1499939 22.55834961 C17.14779406 23.42002857 17.14779406 23.42002857 17.14554977 24.29911518 C17.10851472 38.27018189 17.04929078 52.24100233 16.96609116 66.21187305 C16.92626411 72.96807573 16.8938904 79.72416131 16.8789978 86.48046875 C16.86461308 92.99691109 16.82954398 99.51304938 16.78168488 106.02933311 C16.76681215 108.51926209 16.75894953 111.00924283 16.75811005 113.49921608 C16.7557564 116.97871513 16.72880493 120.45719843 16.69589233 123.93652344 C16.7009227 124.97302032 16.70595306 126.00951721 16.71113586 127.0774231 C16.69722305 128.02393234 16.68331024 128.97044159 16.66897583 129.94563293 C16.66528866 130.76879407 16.66160149 131.5919552 16.65780258 132.44006062 C16.1499939 134.55834961 16.1499939 134.55834961 14.29944229 136.31905651 C11.32574923 138.03357885 9.53735377 138.04225816 6.1499939 137.55834961 C3.40390015 135.83569336 3.40390015 135.83569336 0.7124939 133.49584961 C-0.23754517 132.67729492 -1.18758423 131.85874023 -2.16641235 131.01538086 C-4.95896658 128.45858813 -7.64972445 125.84870722 -10.2171936 123.06616211 C-12.24162976 121.19670671 -14.47824506 119.9487589 -16.8500061 118.55834961 C-16.85143112 119.42421188 -16.85285614 120.29007416 -16.85432434 121.18217468 C-16.8721653 129.34834641 -16.91381099 137.51397683 -16.98209667 145.67988873 C-17.01636529 149.87797353 -17.04147638 154.07569449 -17.04556274 158.27392578 C-17.0498461 162.32671713 -17.07831057 166.37868775 -17.12343788 170.43122292 C-17.13641193 171.97609486 -17.14072084 173.52106503 -17.1361599 175.06598473 C-17.1312526 177.23320123 -17.15734449 179.39802002 -17.19058228 181.56494141 C-17.19724411 182.79738083 -17.20390594 184.02982025 -17.21076965 185.29960632 C-18.03545674 189.50375255 -19.47161288 190.98810663 -22.8500061 193.55834961 C-25.23989868 194.19326782 -25.23989868 194.19326782 -27.74453735 194.20532227 C-28.68901733 194.22108307 -29.63349731 194.23684387 -30.6065979 194.25308228 C-31.61504761 194.24296112 -32.62349731 194.23283997 -33.6625061 194.22241211 C-35.23222168 194.22958755 -35.23222168 194.22958755 -36.83364868 194.23690796 C-39.042567 194.24030509 -41.25153572 194.23111586 -43.46035767 194.21020508 C-46.8387782 194.18343857 -50.21387624 194.20996104 -53.5921936 194.24194336 C-55.74063843 194.23863923 -57.88908119 194.23223294 -60.0375061 194.22241211 C-61.04595581 194.23253326 -62.05440552 194.24265442 -63.09341431 194.25308228 C-64.51013428 194.22944107 -64.51013428 194.22944107 -65.95547485 194.20532227 C-66.78200562 194.2013443 -67.60853638 194.19736633 -68.46011353 194.19326782 C-72.08532102 193.23016585 -73.58238593 191.49687688 -75.8500061 188.55834961 C-76.48924255 185.29960632 -76.48924255 185.29960632 -76.50942993 181.56494141 C-76.51991364 180.88146133 -76.53039734 180.19798126 -76.54119873 179.49378967 C-76.5698651 177.24791597 -76.56366811 175.0035916 -76.55703735 172.75756836 C-76.57015769 171.19527767 -76.58546295 169.63300393 -76.6028595 168.070755 C-76.64268404 163.96897419 -76.65289822 159.86763737 -76.65689087 155.76568604 C-76.66622723 151.5759944 -76.70364384 147.3865631 -76.73867798 143.19702148 C-76.80322776 134.98412604 -76.83648909 126.77148686 -76.8500061 118.55834961 C-78.11084705 119.49007529 -79.36974084 120.4244362 -80.62783813 121.35986328 C-81.32909821 121.87989426 -82.03035828 122.39992523 -82.75286865 122.93571472 C-85.92572261 125.39067232 -88.82100631 128.10792089 -91.7250061 130.87084961 C-98.70159908 137.4748291 -98.70159908 137.4748291 -103.2875061 137.80834961 C-106.8500061 137.55834961 -106.8500061 137.55834961 -108.54774189 136.3310194 C-110.21564218 134.06063799 -110.23303519 132.74935486 -110.24873352 129.94563293 C-110.26127167 128.99912369 -110.27380981 128.05261444 -110.28672791 127.0774231 C-110.28529282 126.04092621 -110.28385773 125.00442932 -110.28237915 123.93652344 C-110.29766663 122.29726646 -110.29766663 122.29726646 -110.31326294 120.62489319 C-110.34350851 117.00500438 -110.35267673 113.38537968 -110.36172485 109.76538086 C-110.37856292 107.25859184 -110.39671197 104.75181131 -110.41612244 102.24504089 C-110.45885513 96.31653221 -110.48834402 90.38805092 -110.51144582 84.45944184 C-110.54113621 77.04765805 -110.59133707 69.6360373 -110.64102173 62.22436523 C-110.72716929 49.00242444 -110.79503367 35.78045488 -110.8500061 22.55834961 C-120.11442705 19.90108548 -129.13946047 17.95317183 -138.7250061 16.93334961 C-139.44374027 16.85630798 -140.16247444 16.77926636 -140.90298843 16.69989014 C-179.09211153 13.10712884 -203.02237793 42.16293097 -227.0375061 67.55834961 Z " fill="#3D3A41" transform="translate(302.8500061035156,31.441650390625)"/>
<path d="M0 0 C3.91364928 0.93726628 7.81088562 1.93083657 11.703125 2.953125 C11.70551335 3.52757764 11.70790171 4.10203028 11.71036243 4.69389057 C11.76947185 18.66493073 11.84518532 32.63579567 11.93883991 46.60664845 C11.98382542 53.36283116 12.02323358 60.11896083 12.04956055 66.87524414 C12.07496839 73.39164898 12.11585445 79.90784877 12.16631126 86.42410851 C12.1830361 88.91403977 12.19451525 91.40401181 12.20073891 93.89399147 C12.21031888 97.37334693 12.23830537 100.8520922 12.27075195 104.33129883 C12.26931686 105.36779572 12.26788177 106.4042926 12.2664032 107.47219849 C12.27894135 108.41870773 12.29147949 109.36521698 12.30439758 110.34040833 C12.30900655 111.16356946 12.31361551 111.98673059 12.31836414 112.83483601 C12.79957297 115.4841163 13.55075725 116.36920976 15.703125 117.953125 C19.81541543 118.49598577 21.97240163 118.39577473 25.546875 116.23046875 C26.4234375 115.45832031 27.3 114.68617188 28.203125 113.890625 C29.61464844 112.66279297 29.61464844 112.66279297 31.0546875 111.41015625 C33.82179588 108.84303062 36.51056879 106.23511 39.0703125 103.4609375 C41.09474866 101.5914821 43.33136396 100.34353429 45.703125 98.953125 C45.70455002 99.81898727 45.70597504 100.68484955 45.70744324 101.57695007 C45.7252842 109.7431218 45.76692989 117.90875222 45.83521557 126.07466412 C45.86948418 130.27274892 45.89459527 134.47046988 45.89868164 138.66870117 C45.90296499 142.72149252 45.93142946 146.77346314 45.97655678 150.82599831 C45.98953083 152.37087025 45.99383974 153.91584043 45.98927879 155.46076012 C45.9843715 157.62797662 46.01046339 159.79279541 46.04370117 161.9597168 C46.05369392 163.80837593 46.05369392 163.80837593 46.06388855 165.69438171 C46.53861324 169.71823075 46.53861324 169.71823075 51.703125 173.953125 C63.088125 174.448125 63.088125 174.448125 74.703125 174.953125 C74.703125 248.213125 74.703125 321.473125 74.703125 396.953125 C33.453125 396.953125 -7.796875 396.953125 -50.296875 396.953125 C-50.31105469 378.24238281 -50.32523437 359.53164063 -50.33984375 340.25390625 C-50.35989136 328.42772156 -50.38116416 316.60155833 -50.40820312 304.77539062 C-50.42233785 298.56486083 -50.43616089 292.35433046 -50.44946289 286.14379883 C-50.45114308 285.36539448 -50.45282327 284.58699012 -50.45455438 283.78499776 C-50.48123622 271.21315274 -50.49031722 258.64135333 -50.49291643 246.0694829 C-50.49597433 233.17030336 -50.51790207 220.27125577 -50.55739957 207.37213582 C-50.58118157 199.41064391 -50.59019026 191.44941527 -50.58038811 183.48789271 C-50.5744511 177.38612906 -50.59474953 171.2847425 -50.62493515 165.18303871 C-50.63319786 162.67762588 -50.63288401 160.17216827 -50.62347221 157.66675949 C-50.61191256 154.25230179 -50.63087566 150.8393437 -50.65763855 147.42500305 C-50.64696529 146.4279207 -50.63629203 145.43083835 -50.62529534 144.40354139 C-50.69343183 139.76107946 -50.78354294 137.63443725 -53.64786243 133.83281231 C-56.18178714 131.75314202 -56.18178714 131.75314202 -59.3203125 131.40625 C-62.94828497 132.07280662 -64.28559361 133.14837808 -66.921875 135.703125 C-67.7675 136.51136719 -68.613125 137.31960937 -69.484375 138.15234375 C-70.4125 139.07660156 -71.340625 140.00085938 -72.296875 140.953125 C-73.4010135 142.04299729 -74.50518121 143.13283998 -75.609375 144.22265625 C-78.52501177 147.11356255 -81.41594864 150.02764823 -84.296875 152.953125 C-88.31258755 151.34452996 -91.00167114 148.51672135 -93.98339844 145.49365234 C-94.53993607 144.93740677 -95.09647369 144.38116119 -95.6698761 143.80805969 C-97.50344942 141.97309595 -99.32984172 140.13115569 -101.15625 138.2890625 C-102.42805025 137.01353111 -103.70029353 135.73844133 -104.97296143 134.46377563 C-108.31793758 131.11117105 -111.65686351 127.75260327 -114.99456787 124.39276123 C-118.40290331 120.96395044 -121.81692245 117.54080927 -125.23046875 114.1171875 C-131.92484797 107.40137228 -138.61284966 100.67924406 -145.296875 93.953125 C-143.2979576 91.61885686 -141.29793838 89.28555276 -139.296875 86.953125 C-138.73451456 86.29719423 -138.17215412 85.64126347 -137.59275246 84.96545601 C-125.75263205 71.18588566 -113.58357552 57.72238609 -101.109375 44.515625 C-100.64331282 44.02121729 -100.17725063 43.52680958 -99.69706535 43.01741982 C-69.90103746 11.45525713 -45.10602009 -9.21758761 0 0 Z " fill="#FEFEFE" transform="translate(180.296875,51.046875)"/>
<path d="M0 0 C4.06239558 2.8180582 6.47330922 6.47412831 7.734375 11.203125 C8.68833834 19.55753122 6.71982135 24.93820164 1.984375 31.703125 C1.571875 32.198125 1.159375 32.693125 0.734375 33.203125 C1.29125 33.409375 1.848125 33.615625 2.421875 33.828125 C5.82004349 35.84865761 8.13008497 37.58237557 9.734375 41.203125 C10.69137801 48.4256349 11.00572421 56.16938193 7.06640625 62.55859375 C2.99953943 67.57956422 -0.96099362 70.54834645 -7.265625 72.203125 C-16.97275241 73.1143672 -26.17860551 73.4015591 -34.265625 67.203125 C-37.71150568 63.99018264 -40.02174707 60.83419262 -40.46875 56.01171875 C-40.48421875 55.22925781 -40.4996875 54.44679687 -40.515625 53.640625 C-40.54140625 52.85558594 -40.5671875 52.07054687 -40.59375 51.26171875 C-40.48546875 50.58238281 -40.3771875 49.90304688 -40.265625 49.203125 C-36.22467077 46.50915552 -33.00646436 46.66205094 -28.265625 47.203125 C-25.828125 48.328125 -25.828125 48.328125 -24.265625 50.203125 C-23.55154166 52.18668983 -22.87944758 54.18627937 -22.265625 56.203125 C-18.80817369 57.93185065 -15.05226483 57.54614211 -11.265625 57.203125 C-8.56966209 56.49475412 -8.56966209 56.49475412 -7.265625 54.203125 C-6.5936408 49.59523332 -6.50288726 45.12415341 -9.265625 41.203125 C-11.37397643 40.36322703 -11.37397643 40.36322703 -13.765625 40.078125 C-18.07643581 39.39231419 -18.07643581 39.39231419 -20.265625 37.203125 C-20.53125 35.328125 -20.53125 35.328125 -20.515625 33.203125 C-20.52078125 32.501875 -20.5259375 31.800625 -20.53125 31.078125 C-20.265625 29.203125 -20.265625 29.203125 -18.265625 27.203125 C-15.93229167 26.53645833 -13.59895833 25.86979167 -11.265625 25.203125 C-8.84040293 22.77790293 -8.96933246 22.0310571 -8.953125 18.703125 C-8.93636719 17.9090625 -8.91960937 17.115 -8.90234375 16.296875 C-9.02222656 15.6059375 -9.14210938 14.915 -9.265625 14.203125 C-12.93427741 11.75735673 -14.93762843 11.96705246 -19.265625 12.203125 C-22.48239086 13.81150793 -22.91233354 16.98905779 -24.265625 20.203125 C-26.67012678 22.60762678 -27.34796442 22.49921639 -30.640625 22.515625 C-33.46028828 22.43389563 -35.19863235 22.23090244 -37.828125 21.140625 C-40.11865093 18.0533944 -39.75877304 15.96337881 -39.265625 12.203125 C-36.85613382 5.29677594 -33.38247256 1.81926818 -26.890625 -1.546875 C-18.43658333 -4.45044529 -7.92630637 -4.23133649 0 0 Z " fill="#3E3C43" transform="translate(354.265625,191.796875)"/>
<path d="M0 0 C5.08689803 2.44421478 8.65346839 5.48595785 11.67234802 10.28404236 C12.89708338 16.06964439 12.7262655 21.68310748 12.55125427 27.56919861 C12.53444226 29.23781889 12.52164334 30.90648398 12.51266479 32.57516479 C12.47850183 36.94110956 12.39028091 41.30430623 12.29032898 45.66917419 C12.19781796 50.13351776 12.15706317 54.59831091 12.11180115 59.06333923 C12.01563306 67.8049678 11.85750157 76.54384534 11.67234802 85.28404236 C3.09234802 85.28404236 -5.48765198 85.28404236 -14.32765198 85.28404236 C-14.55429047 75.67805709 -14.73743279 66.0738691 -14.8457737 56.46580696 C-14.89779374 52.00348605 -14.96824806 47.54310079 -15.08204651 43.08189392 C-15.19134061 38.76989352 -15.25062217 34.45974466 -15.27642441 30.1464653 C-15.29479084 28.50769285 -15.33065989 26.86901296 -15.38495255 25.23103714 C-15.79191749 12.43498015 -15.79191749 12.43498015 -12.10517883 7.01933289 C-3.99385369 -1.22846117 -3.99385369 -1.22846117 0 0 Z " fill="#FE3100" transform="translate(257.32765197753906,123.71595764160156)"/>
<path d="M0 0 C0.33 0.66 0.66 1.32 1 2 C10.24 2 19.48 2 29 2 C29.99 3.98 30.98 5.96 32 8 C33.54230977 9.54230977 35.0040971 9.16247487 37.15258789 9.20532227 C38.03342545 9.22526749 38.914263 9.24521271 39.8217926 9.26576233 C40.77907761 9.28247482 41.73636261 9.29918732 42.72265625 9.31640625 C43.69786728 9.33718735 44.67307831 9.35796844 45.67784119 9.37937927 C48.8059863 9.44498412 51.93421822 9.50381028 55.0625 9.5625 C57.1777435 9.60567483 59.29297809 9.64928877 61.40820312 9.69335938 C66.60537587 9.80067655 71.80263577 9.9024222 77 10 C77 12.64 77 15.28 77 18 C-6.16 18 -89.32 18 -175 18 C-175 15.69 -175 13.38 -175 11 C-174.13878194 10.99668985 -173.27756388 10.99337971 -172.3902483 10.98996925 C-151.44198117 10.90877477 -130.49378662 10.81669396 -109.54562092 10.71247292 C-99.41527633 10.66233552 -89.28493989 10.6158927 -79.15454102 10.578125 C-70.32564286 10.54520015 -61.49680765 10.50536616 -52.66797894 10.45720994 C-47.99251047 10.4319499 -43.31708373 10.41016711 -38.64156532 10.39665604 C-34.24129653 10.38383125 -29.84117088 10.36177225 -25.44098091 10.33261681 C-23.82570187 10.32354432 -22.21039978 10.31785156 -20.59509659 10.31578636 C-18.38963584 10.31246149 -16.18458037 10.29697829 -13.97920227 10.2784729 C-12.12778106 10.27017676 -12.12778106 10.27017676 -10.23895741 10.26171303 C-7.04806051 10.00388337 -4.83005832 9.47284904 -2 8 C-0.97839563 6.07507643 -0.97839563 6.07507643 -0.6875 3.875 C-0.3471875 1.956875 -0.3471875 1.956875 0 0 Z " fill="#F43204" transform="translate(305,455)"/>
<path d="M0 0 C0.33 0 0.66 0 1 0 C1 24.42 1 48.84 1 74 C-6.87191945 67.25264047 -14.55887027 60.33117357 -22.1875 53.3125 C-26.38502918 49.45079986 -30.63438468 45.67108561 -35 42 C-33.73063053 39.26637247 -32.37591334 37.07719578 -30.3828125 34.8203125 C-29.86420654 34.22814941 -29.34560059 33.63598633 -28.8112793 33.02587891 C-28.25480713 32.39858887 -27.69833496 31.77129883 -27.125 31.125 C-25.94620042 29.78161331 -24.76782479 28.43785451 -23.58984375 27.09375 C-22.69241455 26.0728125 -22.69241455 26.0728125 -21.77685547 25.03125 C-19.05388054 21.91842348 -16.37143377 18.77147209 -13.6875 15.625 C-2.7571621 2.85536239 -2.7571621 2.85536239 0 0 Z " fill="#FB3101" transform="translate(303,69)"/>
<path d="M0 0 C4.20995518 3.50829598 7.01629296 5.99029824 10.25 10.125 C13.38126742 14.04433809 16.59814431 17.81289554 20 21.5 C32.91440175 35.56459066 32.91440175 35.56459066 36 42 C20.94986853 56.13595357 20.94986853 56.13595357 15.046875 61.203125 C11.61692759 64.21414753 8.28268245 67.33166719 4.9465332 70.44604492 C1.10870993 74 1.10870993 74 0 74 C0 49.58 0 25.16 0 0 Z " fill="#FB3101" transform="translate(208,69)"/>
<path d="M0 0 C1.09497803 0.00128906 2.18995605 0.00257812 3.31811523 0.00390625 C11.82235617 0.10424388 19.66927249 1.07093541 27.875 3.3125 C26.37493609 6.76029086 24.37090738 9.13610533 21.8125 11.875 C16.15298882 18.04569284 10.79085566 24.45845312 5.73828125 31.13671875 C5.12339844 31.85472656 4.50851562 32.57273438 3.875 33.3125 C3.215 33.3125 2.555 33.3125 1.875 33.3125 C0.48174046 31.76009659 -0.83880128 30.14220015 -2.125 28.5 C-5.42384082 24.37112827 -8.79934353 20.39682321 -12.375 16.5 C-13.20128906 15.59636719 -14.02757812 14.69273438 -14.87890625 13.76171875 C-16.21671666 12.30292375 -17.55696913 10.8463531 -18.90234375 9.39453125 C-20.3125 7.8125 -20.3125 7.8125 -22.125 5.3125 C-21.795 4.3225 -21.465 3.3325 -21.125 2.3125 C-14.1054838 0.15763825 -7.30240358 -0.0356242 0 0 Z " fill="#5C5C5C" transform="translate(253.125,64.6875)"/>
<path d="M0 0 C-1.5 3 -1.5 3 -3 6 C-8.38914088 5.49057872 -13.51720954 4.72057176 -18.78369141 3.48852539 C-36.72782467 -0.62481087 -54.08608569 0.25652148 -72 4 C-73.54107422 4.31904297 -73.54107422 4.31904297 -75.11328125 4.64453125 C-77.08140571 5.06998895 -79.0423442 5.52871249 -81 6 C-82.32 4.02 -83.64 2.04 -85 0 C-57.53646224 -12.31963662 -27.52710251 -12.25659309 0 0 Z " fill="#5B5B5B" transform="translate(298,48)"/>
<path d="M0 0 C0.99 0.66 1.98 1.32 3 2 C1.39140496 6.01571255 -1.43640365 8.70479614 -4.45947266 11.68652344 C-5.01571823 12.24306107 -5.57196381 12.79959869 -6.14506531 13.3730011 C-7.98002905 15.20657442 -9.82196931 17.03296672 -11.6640625 18.859375 C-12.93959389 20.13117525 -14.21468367 21.40341853 -15.48934937 22.67608643 C-18.84195395 26.02106258 -22.20052173 29.35998851 -25.56036377 32.69769287 C-28.98917456 36.10602831 -32.41231573 39.52004745 -35.8359375 42.93359375 C-42.55175272 49.62797297 -49.27388094 56.31597466 -56 63 C-56.99 62.34 -57.98 61.68 -59 61 C-57.39140496 56.98428745 -54.56359635 54.29520386 -51.54052734 51.31347656 C-50.98428177 50.75693893 -50.42803619 50.20040131 -49.85493469 49.6269989 C-48.01997095 47.79342558 -46.17803069 45.96703328 -44.3359375 44.140625 C-43.06040611 42.86882475 -41.78531633 41.59658147 -40.51065063 40.32391357 C-37.15804605 36.97893742 -33.79947827 33.64001149 -30.43963623 30.30230713 C-27.01082544 26.89397169 -23.58768427 23.47995255 -20.1640625 20.06640625 C-13.44824728 13.37202703 -6.72611906 6.68402534 0 0 Z " fill="#FE3100" transform="translate(488,156)"/>
<path d="M0 0 C4.01571255 1.60859504 6.70479614 4.43640365 9.68652344 7.45947266 C10.24306107 8.01571823 10.79959869 8.57196381 11.3730011 9.14506531 C13.20657442 10.98002905 15.03296672 12.82196931 16.859375 14.6640625 C18.13117525 15.93959389 19.40341853 17.21468367 20.67608643 18.48934937 C24.02106258 21.84195395 27.35998851 25.20052173 30.69769287 28.56036377 C34.10602831 31.98917456 37.52004745 35.41231573 40.93359375 38.8359375 C47.62797297 45.55175272 54.31597466 52.27388094 61 59 C60.01 59.99 59.02 60.98 58 62 C38.53 42.53 19.06 23.06 -1 3 C-0.67 2.01 -0.34 1.02 0 0 Z " fill="#FD3100" transform="translate(22,157)"/>
</svg>
