<?xml version="1.0" encoding="UTF-8"?>
<svg version="1.1" xmlns="http://www.w3.org/2000/svg" width="512" height="512">
<path d="M0 0 C0.8358211 -0.00953239 1.67164219 -0.01906477 2.5327912 -0.02888602 C3.45105907 -0.02919941 4.36932694 -0.02951281 5.3154211 -0.0298357 C6.29098129 -0.03789464 7.26654147 -0.04595358 8.27166408 -0.05425674 C11.55570891 -0.07871392 14.83963681 -0.08871049 18.12375546 -0.09863758 C20.47247928 -0.11280089 22.82119867 -0.12771646 25.16991329 -0.14333057 C32.22992463 -0.18654217 39.28993047 -0.212313 46.35003677 -0.23411843 C49.67654445 -0.24469427 53.00304599 -0.25697944 56.32954884 -0.26896572 C67.39142684 -0.30781166 78.45330349 -0.34099204 89.5152359 -0.35933685 C92.38571908 -0.3641763 95.25620218 -0.36905831 98.12668514 -0.37402821 C98.84011308 -0.375258 99.55354102 -0.37648779 100.28858798 -0.37775484 C111.83757198 -0.39869467 123.38604491 -0.45723233 134.93479718 -0.53141072 C146.79781712 -0.60698286 158.66057666 -0.64848934 170.52383751 -0.65690166 C177.18217516 -0.66247304 183.83984095 -0.68388785 190.49799442 -0.74146557 C196.76508611 -0.79483995 203.03081147 -0.80536877 209.29807758 -0.78332043 C211.59504832 -0.78260438 213.89208427 -0.79722803 216.18884182 -0.82853031 C235.70204793 -1.07976328 235.70204793 -1.07976328 242.06258297 4.55192089 C243.38659089 6.09040324 244.67143192 7.66364841 245.91062069 9.27123547 C247.45479951 10.81066784 249.0151753 12.33419414 250.59812069 13.83373547 C253.15125168 16.37695139 255.54309508 19.00401232 257.88037777 21.74318981 C262.57709743 27.11883677 267.63673094 32.12175678 272.69528866 37.15355968 C273.76880041 38.22514848 274.84208193 39.29696798 275.91515255 40.36899853 C278.21083939 42.66154413 280.50806516 44.952532 282.80652142 47.24230099 C286.43946336 50.86164894 290.06852364 54.48487249 293.69702816 58.10866833 C301.39025607 65.79083527 309.08773103 73.46874026 316.78562069 81.14623547 C325.11807019 89.45665247 333.44977371 97.76780962 341.77663243 106.08382905 C345.38605273 109.68826111 348.99789826 113.29024 352.61160636 116.89037299 C354.85189829 119.12322717 357.09013584 121.35813184 359.32780933 123.59360981 C360.36822523 124.63214778 361.40950807 125.66981803 362.45170307 126.70657063 C363.86989258 128.11758412 365.28474759 129.53194676 366.69940853 130.94649792 C367.49319849 131.73806726 368.28698845 132.52963661 369.10483265 133.34519291 C371.95438393 136.384507 372.45950394 138.91145444 372.35634518 143.09995556 C370.54634986 151.91707594 356.77593853 161.54937451 350.51608944 167.79857922 C349.1182638 169.19707934 347.72058656 170.59572782 346.3230505 171.99451733 C343.40895581 174.91007925 340.49307755 177.8238422 337.57590389 180.73632336 C333.83204947 184.47444916 330.09274526 188.21708955 326.35473824 191.96106148 C323.4767385 194.8426661 320.5963721 197.72189552 317.71527195 200.60039997 C316.33458981 201.98041429 314.95465217 203.36117387 313.57546711 204.74268436 C311.6559789 206.66470132 309.73333348 208.58350219 307.80979061 210.50146008 C307.23888195 211.07439297 306.66797329 211.64732586 306.07976437 212.23762035 C301.28135702 217.01014283 301.28135702 217.01014283 297.28562069 217.77123547 C288.78688602 216.51216366 281.31982851 205.81068385 275.50437069 199.96264172 C274.52953424 198.98593536 273.5544732 198.00945313 272.57919979 197.0331831 C270.03875768 194.48896086 267.5013356 191.94174811 264.96457577 189.39385509 C262.36510942 186.78407664 259.76273575 184.17720064 257.16062069 181.57006359 C252.07447151 176.47325675 246.99151599 171.37328038 241.91062069 166.27123547 C241.91007592 167.2716043 241.90953115 168.27197313 241.90896988 169.30265617 C241.8945819 193.63076602 241.85159618 217.95869679 241.77853012 242.28670311 C241.74385984 254.05150652 241.71852192 265.81619252 241.71506405 277.58104992 C241.712027 287.83391878 241.69157135 298.08657863 241.65009612 308.33936673 C241.62874101 313.76945621 241.61617847 319.19924836 241.6244669 324.62938023 C241.63199103 329.7389633 241.61625076 334.84794312 241.58256054 339.95741558 C241.57430752 341.83392655 241.57460048 343.71049729 241.58402348 345.58700275 C241.59561059 348.14771924 241.5765823 350.70644718 241.54985714 353.26700878 C241.5605304 354.01117949 241.57120366 354.7553502 241.58220035 355.52207154 C241.50601308 359.4294311 241.02038098 361.13292719 238.56079388 364.23223782 C235.2812121 366.75549161 233.54655104 366.89884834 229.43967342 366.90233898 C228.15161297 366.91487209 226.86355251 366.9274052 225.53645992 366.94031811 C224.13903444 366.92805072 222.74161866 366.91463083 221.34421444 366.90014172 C219.90362526 366.90097088 218.46303617 366.90343204 217.02245235 366.90745068 C214.00872858 366.91030447 210.99574976 366.89564829 207.98215389 366.86815929 C204.12265705 366.83404501 200.26448904 366.840108 196.40492821 366.85882187 C193.43226227 366.86939789 190.45990476 366.86044941 187.48726749 366.84543705 C186.06433751 366.84026116 184.64137525 366.84072988 183.21844959 366.846982 C181.22964838 366.85244154 179.24083109 366.82919269 177.25217342 366.80468273 C175.5560416 366.79538486 175.5560416 366.79538486 173.82564449 366.78589916 C170.25855402 366.15610946 169.10144593 365.10374078 166.91062069 362.27123547 C166.58062069 361.28123547 166.25062069 360.29123547 165.91062069 359.27123547 C154.69062069 358.94123547 143.47062069 358.61123547 131.91062069 358.27123547 C131.58062069 359.92123547 131.25062069 361.57123547 130.91062069 363.27123547 C128.77107066 365.49039829 127.43766598 366.19124009 124.38652039 366.65434551 C123.4306626 366.65807423 122.47480482 366.66180294 121.48998165 366.66564465 C120.38945461 366.67699444 119.28892757 366.68834423 118.15505123 366.70003796 C116.95234081 366.69710735 115.74963039 366.69417675 114.51047421 366.69115734 C113.24020382 366.69962688 111.96993343 366.70809643 110.66117001 366.71682262 C107.17971871 366.73903638 103.6985041 366.74196943 100.21699166 366.74007511 C97.30940683 366.73995541 94.40187214 366.74851945 91.49430126 366.75685263 C84.63426107 366.77608603 77.77434256 366.77897071 70.9142828 366.77221203 C63.83975414 366.76557027 56.76574675 366.7884406 49.69132382 366.82552576 C43.61475163 366.85622295 37.53834713 366.86758283 31.46169895 366.86368895 C27.83353152 366.8616215 24.20576976 366.86709927 20.57767582 366.89158154 C16.53148672 366.91798338 12.48639834 366.90412095 8.44016171 366.88646984 C7.23947552 366.89973309 6.03878933 366.91299633 4.80171871 366.92666149 C3.69837185 366.91545269 2.59502499 366.90424389 1.45824337 366.89269543 C0.02389116 366.89376419 0.02389116 366.89376419 -1.43943787 366.89485455 C-5.30369728 365.98546619 -6.74238168 364.4402901 -9.08937931 361.27123547 C-9.58356325 358.40366935 -9.76966531 356.12910319 -9.72861576 353.26700878 C-9.73697144 352.46644395 -9.74532711 351.66587911 -9.75393599 350.84105474 C-9.77586492 348.16133174 -9.76225974 345.48297934 -9.74880314 342.80321789 C-9.7572558 340.88131196 -9.76789966 338.95941459 -9.78057194 337.03753185 C-9.80875186 331.82093299 -9.80624067 326.60474485 -9.79827809 321.38809276 C-9.79515618 315.9360993 -9.82017817 310.48423736 -9.8422327 305.03229809 C-9.879709 294.70868666 -9.89182283 284.38520696 -9.89485711 274.06153423 C-9.89954404 262.30825303 -9.93245565 250.55510412 -9.96775496 238.80188119 C-10.03973388 214.62501532 -10.07621335 190.44819983 -10.08937931 166.27123547 C-10.7113419 166.89541866 -11.33330448 167.51960186 -11.97411442 168.1626997 C-17.82802401 174.03662329 -23.6843194 179.90815537 -29.54332638 185.77699471 C-32.55561201 188.79450512 -35.56695782 191.81294127 -38.57619572 194.83349133 C-41.47879071 197.74692952 -44.3838019 200.65793795 -47.29052448 203.56725788 C-48.40060807 204.67919312 -49.50980927 205.79200998 -50.61812305 206.90570927 C-52.16726973 208.46208534 -53.71948752 210.01533381 -55.27248478 211.56786633 C-56.15628819 212.45389034 -57.04009159 213.33991436 -57.95067692 214.25278759 C-60.35415601 216.52112435 -61.48757917 217.15660687 -64.71437931 217.77123547 C-74.31257938 216.3492799 -83.91894821 202.58588751 -90.61672306 195.87670422 C-92.01522319 194.47887857 -93.41387166 193.08120133 -94.81266117 191.68366528 C-97.7282231 188.76957058 -100.64198605 185.85369233 -103.5544672 182.93651867 C-107.29259301 179.19266425 -111.03523339 175.45336004 -114.77920532 171.71535301 C-117.66080994 168.83735328 -120.54003936 165.95698688 -123.41854382 163.07588673 C-124.79855813 161.69520459 -126.17931772 160.31526695 -127.56082821 158.93608189 C-129.48284516 157.01659367 -131.40164603 155.09394825 -133.31960392 153.17040539 C-133.89253681 152.59949673 -134.4654697 152.02858807 -135.0557642 151.44037914 C-138.44330796 148.03446226 -139.92515859 146.46183572 -140.58937931 141.64623547 C-140.52335058 137.98229251 -139.68726276 136.34439035 -137.22048283 133.666255 C-136.5806345 132.97002026 -135.94078617 132.27378551 -135.2815485 131.55645275 C-131.07531968 127.17168772 -126.79958528 122.8605623 -122.49172306 118.57592297 C-121.43779838 117.52392149 -120.38410413 116.47168913 -119.33062077 115.41924572 C-117.07587167 113.16763834 -114.81958341 110.91758927 -112.56206608 108.66875744 C-108.98627421 105.10658084 -105.41438269 101.54051005 -101.84304142 97.97387218 C-93.61783616 89.76066797 -85.38760843 81.55250271 -77.1573267 73.3443861 C-69.60909765 65.81638111 -62.06195505 58.28729522 -54.51886559 50.7541399 C-50.97468721 47.21491826 -47.42809137 43.6781432 -43.87957096 40.14327526 C-41.66626868 37.93747637 -39.45507978 35.72956799 -37.24443531 33.52110577 C-36.22589996 32.50442905 -35.20650738 31.48861022 -34.18615437 30.47375774 C-29.12684379 25.44084538 -24.16845482 20.38411163 -19.53949833 14.94964123 C-17.25657769 12.30732904 -14.81212921 9.8620002 -12.33937931 7.39623547 C-11.41641056 6.47068859 -10.49344181 5.54514172 -9.54250431 4.59154797 C-6.34121834 1.56358003 -4.38007895 0.02497218 0 0 Z " fill="#FE3100" transform="translate(140.0893793106079,72.72876453399658)"/>
<path d="M0 0 C0.8358211 -0.00953239 1.67164219 -0.01906477 2.5327912 -0.02888602 C3.45105907 -0.02919941 4.36932694 -0.02951281 5.3154211 -0.0298357 C6.29098129 -0.03789464 7.26654147 -0.04595358 8.27166408 -0.05425674 C11.55570891 -0.07871392 14.83963681 -0.08871049 18.12375546 -0.09863758 C20.47247928 -0.11280089 22.82119867 -0.12771646 25.16991329 -0.14333057 C32.22992463 -0.18654217 39.28993047 -0.212313 46.35003677 -0.23411843 C49.67654445 -0.24469427 53.00304599 -0.25697944 56.32954884 -0.26896572 C67.39142684 -0.30781166 78.45330349 -0.34099204 89.5152359 -0.35933685 C92.38571908 -0.3641763 95.25620218 -0.36905831 98.12668514 -0.37402821 C98.84011308 -0.375258 99.55354102 -0.37648779 100.28858798 -0.37775484 C111.83757198 -0.39869467 123.38604491 -0.45723233 134.93479718 -0.53141072 C146.79781712 -0.60698286 158.66057666 -0.64848934 170.52383751 -0.65690166 C177.18217516 -0.66247304 183.83984095 -0.68388785 190.49799442 -0.74146557 C196.76508611 -0.79483995 203.03081147 -0.80536877 209.29807758 -0.78332043 C211.59504832 -0.78260438 213.89208427 -0.79722803 216.18884182 -0.82853031 C235.70204793 -1.07976328 235.70204793 -1.07976328 242.06258297 4.55192089 C243.38659089 6.09040324 244.67143192 7.66364841 245.91062069 9.27123547 C247.45479951 10.81066784 249.0151753 12.33419414 250.59812069 13.83373547 C253.15125168 16.37695139 255.54309508 19.00401232 257.88037777 21.74318981 C262.57709743 27.11883677 267.63673094 32.12175678 272.69528866 37.15355968 C273.76880041 38.22514848 274.84208193 39.29696798 275.91515255 40.36899853 C278.21083939 42.66154413 280.50806516 44.952532 282.80652142 47.24230099 C286.43946336 50.86164894 290.06852364 54.48487249 293.69702816 58.10866833 C301.39025607 65.79083527 309.08773103 73.46874026 316.78562069 81.14623547 C325.11807019 89.45665247 333.44977371 97.76780962 341.77663243 106.08382905 C345.38605273 109.68826111 348.99789826 113.29024 352.61160636 116.89037299 C354.85189829 119.12322717 357.09013584 121.35813184 359.32780933 123.59360981 C360.36822523 124.63214778 361.40950807 125.66981803 362.45170307 126.70657063 C363.86989258 128.11758412 365.28474759 129.53194676 366.69940853 130.94649792 C367.49319849 131.73806726 368.28698845 132.52963661 369.10483265 133.34519291 C371.95438393 136.384507 372.45950394 138.91145444 372.35634518 143.09995556 C370.54634986 151.91707594 356.77593853 161.54937451 350.51608944 167.79857922 C349.1182638 169.19707934 347.72058656 170.59572782 346.3230505 171.99451733 C343.40895581 174.91007925 340.49307755 177.8238422 337.57590389 180.73632336 C333.83204947 184.47444916 330.09274526 188.21708955 326.35473824 191.96106148 C323.4767385 194.8426661 320.5963721 197.72189552 317.71527195 200.60039997 C316.33458981 201.98041429 314.95465217 203.36117387 313.57546711 204.74268436 C311.6559789 206.66470132 309.73333348 208.58350219 307.80979061 210.50146008 C307.23888195 211.07439297 306.66797329 211.64732586 306.07976437 212.23762035 C301.28135702 217.01014283 301.28135702 217.01014283 297.28562069 217.77123547 C288.78688602 216.51216366 281.31982851 205.81068385 275.50437069 199.96264172 C274.52953424 198.98593536 273.5544732 198.00945313 272.57919979 197.0331831 C270.03875768 194.48896086 267.5013356 191.94174811 264.96457577 189.39385509 C262.36510942 186.78407664 259.76273575 184.17720064 257.16062069 181.57006359 C252.07447151 176.47325675 246.99151599 171.37328038 241.91062069 166.27123547 C241.91007592 167.2716043 241.90953115 168.27197313 241.90896988 169.30265617 C241.8945819 193.63076602 241.85159618 217.95869679 241.77853012 242.28670311 C241.74385984 254.05150652 241.71852192 265.81619252 241.71506405 277.58104992 C241.712027 287.83391878 241.69157135 298.08657863 241.65009612 308.33936673 C241.62874101 313.76945621 241.61617847 319.19924836 241.6244669 324.62938023 C241.63199103 329.7389633 241.61625076 334.84794312 241.58256054 339.95741558 C241.57430752 341.83392655 241.57460048 343.71049729 241.58402348 345.58700275 C241.59561059 348.14771924 241.5765823 350.70644718 241.54985714 353.26700878 C241.5605304 354.01117949 241.57120366 354.7553502 241.58220035 355.52207154 C241.50601308 359.4294311 241.02038098 361.13292719 238.56079388 364.23223782 C235.2812121 366.75549161 233.54655104 366.89884834 229.43967342 366.90233898 C228.15161297 366.91487209 226.86355251 366.9274052 225.53645992 366.94031811 C224.13903444 366.92805072 222.74161866 366.91463083 221.34421444 366.90014172 C219.90362526 366.90097088 218.46303617 366.90343204 217.02245235 366.90745068 C214.00872858 366.91030447 210.99574976 366.89564829 207.98215389 366.86815929 C204.12265705 366.83404501 200.26448904 366.840108 196.40492821 366.85882187 C193.43226227 366.86939789 190.45990476 366.86044941 187.48726749 366.84543705 C186.06433751 366.84026116 184.64137525 366.84072988 183.21844959 366.846982 C181.22964838 366.85244154 179.24083109 366.82919269 177.25217342 366.80468273 C175.5560416 366.79538486 175.5560416 366.79538486 173.82564449 366.78589916 C170.2798305 366.15986594 169.12733632 365.04497372 166.91062069 362.27123547 C165.97312069 360.45873547 165.97312069 360.45873547 165.91062069 358.27123547 C168.14942666 351.77869815 168.14942666 351.77869815 171.91062069 349.27123547 C174.24550533 349.03072643 174.24550533 349.03072643 177.02463436 349.04418468 C178.06548687 349.04433575 179.10633938 349.04448681 180.17873287 349.04464245 C181.86166187 349.0601263 181.86166187 349.0601263 183.57858944 349.07592297 C184.72853893 349.07875286 185.87848843 349.08158276 187.06328487 349.08449841 C190.74166865 349.09570714 194.41981031 349.12081323 198.09812069 349.14623547 C200.58965364 349.15626436 203.08119039 349.16539037 205.57273006 349.17357922 C211.6854431 349.19564874 217.7980146 349.22913322 223.91062069 349.27123547 C223.90601172 348.19871438 223.90140276 347.12619329 223.89665413 346.02117157 C223.78572322 319.94071547 223.70352377 293.86028991 223.65155983 267.77964783 C223.62576339 255.16730211 223.59058511 242.55511211 223.53342342 229.94286633 C223.48363284 218.95176504 223.45134017 207.9607765 223.44017822 196.96956557 C223.43365216 191.14817963 223.41828374 185.3271163 223.38197041 179.50583363 C223.34807986 174.02866054 223.33755382 168.55194354 223.34508228 163.07467556 C223.34370464 161.06266649 223.33373108 159.05064247 223.31459332 157.03872395 C223.28976374 154.29423824 223.29567843 151.55148088 223.30934811 148.80695629 C223.2947839 148.0083123 223.28021969 147.20966832 223.26521415 146.386823 C223.31969803 142.34791744 223.73929318 140.48945929 226.26460648 137.27290916 C228.91062069 135.27123547 228.91062069 135.27123547 231.84812069 134.70873547 C238.4208874 135.91597833 242.01969796 140.2359237 245.91062069 145.27123547 C249.73456989 143.69246114 252.14704168 141.27621834 255.04636288 138.36254406 C255.54437908 137.86481991 256.04239529 137.36709576 256.55550289 136.85428905 C258.19428802 135.21411476 259.82588203 133.56697886 261.45749569 131.91967297 C262.59477416 130.7786629 263.73249609 129.63809469 264.87064266 128.49795055 C267.86052048 125.50044785 270.8443426 122.49698696 273.82694149 119.49224377 C276.8733339 116.42536834 279.92541772 113.36416852 282.97702694 110.30248547 C288.96047503 104.29760764 294.93753732 98.28642315 300.91062069 92.27123547 C299.16524087 88.0273178 296.19776138 84.83134207 293.24167538 81.39135265 C292.36463247 80.36671697 292.36463247 80.36671697 291.46987152 79.32138157 C256.8878026 35.53849052 256.8878026 35.53849052 208.77250957 12.85859203 C203.94024931 12.50763352 199.18051203 12.62408952 194.34812069 12.89623547 C192.39283443 12.97931957 192.39283443 12.97931957 190.39804745 13.06408215 C178.98740686 13.79171195 168.49047879 15.25093904 160.60301876 24.13949108 C158.54809762 26.81184026 156.72328707 29.55228746 155.01013851 32.4542799 C153.52431388 34.90960829 151.75264692 37.07578997 149.91062069 39.27123547 C149.30218319 40.03436047 148.69374569 40.79748547 148.06687069 41.58373547 C144.63473837 45.8614656 141.16945148 50.11223541 137.70554256 54.36425304 C134.57787428 58.20662097 131.48009927 62.06956658 128.41062069 65.95873547 C121.28552483 74.81293409 121.28552483 74.81293409 116.91062069 76.27123547 C113.24057424 76.27123547 111.89659331 75.34943555 108.91062069 73.27123547 C107.12937069 71.35326672 107.12937069 71.35326672 105.41062069 69.08373547 C101.8717659 64.50521713 98.26129713 60.00017704 94.59812069 55.52123547 C90.95501641 51.04960437 87.32486037 46.56973265 83.77501583 42.02350903 C82.87792365 40.88255682 81.97320337 39.74752009 81.05770016 38.62128735 C78.69134185 35.68520468 76.576973 32.78456114 74.71262264 29.50365734 C69.99031443 21.73084472 64.93191006 17.49215086 56.10015011 15.00074291 C49.97301972 13.6903079 43.91213234 13.13846588 37.66062069 12.83373547 C37.00254169 12.79294872 36.3444627 12.75216198 35.66644192 12.71013927 C16.31170755 11.6091164 2.49763395 17.03430843 -12.11318302 29.72214794 C-32.69360256 48.26873019 -51.19848085 69.15772646 -69.08937931 90.27123547 C-67.51060498 94.09518467 -65.09436218 96.50765645 -62.1806879 99.40697765 C-61.68296375 99.90499386 -61.1852396 100.40301006 -60.6724329 100.91611767 C-59.03225861 102.5549028 -57.3851227 104.18649681 -55.73781681 105.81811047 C-54.59680675 106.95538893 -53.45623854 108.09311086 -52.3160944 109.23125744 C-49.31859169 112.22113525 -46.31513081 115.20495738 -43.31038761 118.18755627 C-40.24351219 121.23394868 -37.18231237 124.28603249 -34.12062931 127.33764172 C-28.11575148 133.32108981 -22.10456699 139.29815209 -16.08937931 145.27123547 C-11.93631938 143.43718777 -9.94252515 140.78279957 -7.08937931 137.27123547 C-3.33890449 134.77091892 -1.53081665 134.73519992 2.91062069 135.27123547 C6.63595099 138.03354064 7.7918023 139.52204944 8.52585983 144.15050507 C8.54679616 145.70252125 8.54019397 147.25505693 8.51189327 148.80695629 C8.51830146 150.09355814 8.51830146 150.09355814 8.5248391 151.40615195 C8.53307311 154.27943615 8.5055776 157.15125966 8.47824764 160.02440929 C8.47683726 162.08423357 8.47762896 164.14406036 8.48046017 166.20388317 C8.4818961 171.79660376 8.45247716 177.38878934 8.41759038 182.98138547 C8.38635667 188.82567055 8.38339848 194.66996757 8.37746334 200.51432323 C8.36191617 211.58176493 8.32087566 222.64896 8.27071589 233.71629304 C8.21484979 246.3158926 8.18734277 258.91550388 8.16223872 271.51519644 C8.10996076 297.43401291 8.02200128 323.35261038 7.91062069 349.27123547 C8.51415214 349.26754829 9.11768358 349.26386112 9.73950386 349.26006222 C24.42874953 349.17170218 39.1179795 349.10552151 53.80742836 349.06398678 C60.91117748 349.04336665 68.01474915 349.01525684 75.11838436 348.96947765 C81.97185927 348.92533169 88.82514955 348.9021075 95.67875767 348.89172649 C98.29548516 348.8843271 100.9122024 348.86987814 103.52885151 348.84831524 C107.18977834 348.81934253 110.84993973 348.81527707 114.51096249 348.8171339 C115.59637325 348.8027528 116.68178402 348.7883717 117.80008602 348.7735548 C125.15303355 348.81399651 125.15303355 348.81399651 129.06792355 351.17681408 C130.94979232 353.3157582 131.69205801 354.41036204 132.03562069 357.20873547 C132.14132381 357.8571339 132.24702694 358.50553234 132.35593319 359.17357922 C131.80199925 361.78289963 130.6949794 363.35585794 128.7749548 365.18880367 C124.51673423 367.66112519 119.17266135 366.95851762 114.39694881 366.91820812 C113.1265324 366.92696972 111.85611599 366.93573132 110.54720211 366.94475842 C107.06975716 366.96751796 103.59305537 366.95873012 100.11559772 366.94286299 C96.47307391 366.93018625 92.83061287 366.941949 89.18808651 366.94979382 C83.07155614 366.95888529 76.95532783 366.94691595 70.83884335 366.92309093 C63.77164106 366.89588022 56.70516003 366.90469477 49.63797522 366.93222296 C43.56559697 366.95492764 37.4934356 366.9581076 31.42102861 366.94502962 C27.79626903 366.93724241 24.17184825 366.93617291 20.54711056 366.95271206 C16.50573815 366.96986484 12.46560511 366.94607957 8.42429256 366.91820812 C7.22517742 366.92832928 6.02606228 366.93845043 4.79061031 366.94887829 C3.68870861 366.93477917 2.58680691 366.92068005 1.45151424 366.90615368 C0.49657825 366.90426855 -0.45835773 366.90238342 -1.44223118 366.90044117 C-5.30116819 365.98320305 -6.74337618 364.43744038 -9.08937931 361.27123547 C-9.58356325 358.40366935 -9.76966531 356.12910319 -9.72861576 353.26700878 C-9.73697144 352.46644395 -9.74532711 351.66587911 -9.75393599 350.84105474 C-9.77586492 348.16133174 -9.76225974 345.48297934 -9.74880314 342.80321789 C-9.7572558 340.88131196 -9.76789966 338.95941459 -9.78057194 337.03753185 C-9.80875186 331.82093299 -9.80624067 326.60474485 -9.79827809 321.38809276 C-9.79515618 315.9360993 -9.82017817 310.48423736 -9.8422327 305.03229809 C-9.879709 294.70868666 -9.89182283 284.38520696 -9.89485711 274.06153423 C-9.89954404 262.30825303 -9.93245565 250.55510412 -9.96775496 238.80188119 C-10.03973388 214.62501532 -10.07621335 190.44819983 -10.08937931 166.27123547 C-10.7113419 166.89541866 -11.33330448 167.51960186 -11.97411442 168.1626997 C-17.82802401 174.03662329 -23.6843194 179.90815537 -29.54332638 185.77699471 C-32.55561201 188.79450512 -35.56695782 191.81294127 -38.57619572 194.83349133 C-41.47879071 197.74692952 -44.3838019 200.65793795 -47.29052448 203.56725788 C-48.40060807 204.67919312 -49.50980927 205.79200998 -50.61812305 206.90570927 C-52.16726973 208.46208534 -53.71948752 210.01533381 -55.27248478 211.56786633 C-56.15628819 212.45389034 -57.04009159 213.33991436 -57.95067692 214.25278759 C-60.35415601 216.52112435 -61.48757917 217.15660687 -64.71437931 217.77123547 C-74.31257938 216.3492799 -83.91894821 202.58588751 -90.61672306 195.87670422 C-92.01522319 194.47887857 -93.41387166 193.08120133 -94.81266117 191.68366528 C-97.7282231 188.76957058 -100.64198605 185.85369233 -103.5544672 182.93651867 C-107.29259301 179.19266425 -111.03523339 175.45336004 -114.77920532 171.71535301 C-117.66080994 168.83735328 -120.54003936 165.95698688 -123.41854382 163.07588673 C-124.79855813 161.69520459 -126.17931772 160.31526695 -127.56082821 158.93608189 C-129.48284516 157.01659367 -131.40164603 155.09394825 -133.31960392 153.17040539 C-133.89253681 152.59949673 -134.4654697 152.02858807 -135.0557642 151.44037914 C-138.44330796 148.03446226 -139.92515859 146.46183572 -140.58937931 141.64623547 C-140.52335058 137.98229251 -139.68726276 136.34439035 -137.22048283 133.666255 C-136.5806345 132.97002026 -135.94078617 132.27378551 -135.2815485 131.55645275 C-131.07531968 127.17168772 -126.79958528 122.8605623 -122.49172306 118.57592297 C-121.43779838 117.52392149 -120.38410413 116.47168913 -119.33062077 115.41924572 C-117.07587167 113.16763834 -114.81958341 110.91758927 -112.56206608 108.66875744 C-108.98627421 105.10658084 -105.41438269 101.54051005 -101.84304142 97.97387218 C-93.61783616 89.76066797 -85.38760843 81.55250271 -77.1573267 73.3443861 C-69.60909765 65.81638111 -62.06195505 58.28729522 -54.51886559 50.7541399 C-50.97468721 47.21491826 -47.42809137 43.6781432 -43.87957096 40.14327526 C-41.66626868 37.93747637 -39.45507978 35.72956799 -37.24443531 33.52110577 C-36.22589996 32.50442905 -35.20650738 31.48861022 -34.18615437 30.47375774 C-29.12684379 25.44084538 -24.16845482 20.38411163 -19.53949833 14.94964123 C-17.25657769 12.30732904 -14.81212921 9.8620002 -12.33937931 7.39623547 C-11.41641056 6.47068859 -10.49344181 5.54514172 -9.54250431 4.59154797 C-6.34121834 1.56358003 -4.38007895 0.02497218 0 0 Z " fill="#433F40" transform="translate(140.0893793106079,72.72876453399658)"/>
<path d="M0 0 C1.94622253 0.07933777 1.94622253 0.07933777 3.9317627 0.16027832 C15.71139133 0.89634073 25.96954635 2.63793869 34.09971619 11.73193359 C36.33227433 14.58097786 38.34226817 17.50440572 40.23898315 20.58605957 C41.79959881 23.07824431 43.61238206 25.31185891 45.5 27.5625 C46.40105469 28.69558594 46.40105469 28.69558594 47.3203125 29.8515625 C50.15327557 33.39537977 53.01375538 36.91650238 55.875 40.4375 C56.7098291 41.46653442 56.7098291 41.46653442 57.56152344 42.51635742 C60.1147134 45.65992577 62.67580704 48.79535586 65.2734375 51.90234375 C66.09070313 52.88332031 66.90796875 53.86429688 67.75 54.875 C68.46800781 55.72835937 69.18601563 56.58171875 69.92578125 57.4609375 C71.4375 59.5 71.4375 59.5 71.4375 61.5 C72.22125 61.809375 73.005 62.11875 73.8125 62.4375 C76.4375 63.5 76.4375 63.5 78.4375 64.5 C78.4375 154.59 78.4375 244.68 78.4375 337.5 C42.7975 337.5 7.1575 337.5 -29.5625 337.5 C-29.58828125 322.45921875 -29.6140625 307.4184375 -29.640625 291.921875 C-29.66577978 282.41535141 -29.69193801 272.90884829 -29.72265625 263.40234375 C-29.77126736 248.30029423 -29.8156829 233.19831285 -29.83349609 218.09619141 C-29.84648652 207.09880295 -29.87338432 196.10155241 -29.91711307 185.10424161 C-29.9397866 179.2790763 -29.95540715 173.45408146 -29.95438385 167.6288681 C-29.95364072 162.14919775 -29.97145166 156.66990509 -30.00366783 151.19033241 C-30.01220642 149.17633345 -30.01389011 147.16229232 -30.00830269 145.148283 C-30.00170072 142.40356491 -30.01949148 139.66006196 -30.04351807 136.91546631 C-30.03187744 135.71313107 -30.03187744 135.71313107 -30.02000165 134.48650622 C-30.07482639 130.96168766 -30.27729108 128.89146035 -32.38009262 126.00528336 C-35.60028646 123.78420207 -37.7400665 123.96351811 -41.5625 124.5 C-45.73600728 127.08359974 -48.53797007 130.69773381 -51.5625 134.5 C-55.42716333 132.91219641 -57.86309155 130.44066771 -60.79003906 127.49951172 C-61.29780884 126.992034 -61.80557861 126.48455627 -62.32873535 125.96170044 C-63.99998509 124.28906131 -65.66404556 122.60945783 -67.328125 120.9296875 C-68.48782377 119.76625722 -69.64796592 118.60326874 -70.80853271 117.44070435 C-73.85759352 114.384018 -76.90059963 111.32137256 -79.94238281 108.25744629 C-83.04909913 105.13024835 -86.16150545 102.00872493 -89.2734375 98.88671875 C-95.37537417 92.7633512 -101.47092598 86.6336764 -107.5625 80.5 C-106.30428613 77.80988193 -104.96386453 75.58607255 -103.04376221 73.32354736 C-102.53334601 72.72061607 -102.02292982 72.11768478 -101.49704647 71.49648285 C-100.65787858 70.52224239 -100.65787858 70.52224239 -99.80175781 69.52832031 C-99.20730897 68.83548195 -98.61286013 68.14264359 -98.00039768 67.42881012 C-37.9108424 -2.11150542 -37.9108424 -2.11150542 0 0 Z " fill="#FE623E" transform="translate(177.5625,84.5)"/>
<path d="M0 0 C5.81707145 3.93161183 9.53291808 9.10656675 11.74609375 15.74609375 C12.50250124 25.26602234 12.75150148 33.77016161 6.74609375 41.74609375 C4.05735665 44.63648613 1.54079044 46.48119485 -2.25390625 47.74609375 C-1.66222656 48.10960937 -1.07054687 48.473125 -0.4609375 48.84765625 C7.84220583 54.13024336 13.49083622 59.9532108 15.74609375 69.74609375 C17.10281907 81.75382691 16.22505681 92.25106607 8.68359375 102.05859375 C1.89705762 109.26746796 -8.79762756 112.56223396 -18.515625 113.08203125 C-31.63943402 113.34929468 -43.97979677 111.7090721 -54.25390625 102.74609375 C-61.23419571 95.29226707 -62.74542348 87.10237806 -62.67553711 77.18066406 C-62.38378741 68.39543553 -60.09860038 60.76031955 -53.98046875 54.25 C-50.99937872 51.65334918 -47.70877846 49.64890408 -44.25390625 47.74609375 C-45.14078125 47.20984375 -46.02765625 46.67359375 -46.94140625 46.12109375 C-52.38877756 42.4595352 -56.78463719 37.23348175 -58.25390625 30.74609375 C-59.19391317 21.23138957 -58.65953999 13.47570032 -52.74609375 5.78515625 C-40.77385879 -7.41214461 -14.93965434 -8.3113155 0 0 Z " fill="#443E3F" transform="translate(320.25390625,194.25390625)"/>
<path d="M0 0 C0.75539062 0.3403125 1.51078125 0.680625 2.2890625 1.03125 C10.15724571 4.92586911 16.06142305 11.1171646 19.33984375 19.3203125 C21.66267706 28.74909149 20.89387161 38.58137561 16 47 C8.75522605 58.37901995 -2.01822696 66.16788326 -12.91772461 73.73608398 C-23.23240285 80.54560023 -23.23240285 80.54560023 -29 91 C-27.72358643 90.97381592 -26.44717285 90.94763184 -25.13208008 90.9206543 C-20.3892576 90.83004584 -15.64651138 90.77271173 -10.90307617 90.7253418 C-8.85151294 90.70022194 -6.80003899 90.66611964 -4.7487793 90.62280273 C-1.79713909 90.56203998 1.1533165 90.53376508 4.10546875 90.51171875 C5.02023483 90.48591232 5.93500092 90.4601059 6.87748718 90.43351746 C11.49243285 90.43149209 13.35052504 90.47546997 17.0559082 93.46801758 C17.6974585 94.30357178 18.33900879 95.13912598 19 96 C19.33 96.33 19.66 96.66 20 97 C20.61676323 101.8026645 20.43376712 105.19030137 18.125 109.5 C16 112 16 112 14 113 C12.06679907 113.12191149 10.12945718 113.18015839 8.19262695 113.20874023 C6.97408524 113.22803085 5.75554352 113.24732147 4.50007629 113.26719666 C3.16282209 113.28200641 1.82555606 113.29577943 0.48828125 113.30859375 C-0.18516642 113.31516558 -0.85861408 113.3217374 -1.55246925 113.32850838 C-5.12016321 113.36110733 -8.68782733 113.38555174 -12.25561523 113.4050293 C-15.20169872 113.42281152 -18.14681935 113.45757728 -21.0925293 113.50756836 C-24.65463757 113.56794608 -28.21585634 113.5985288 -31.77845192 113.60820198 C-33.78763733 113.62086323 -35.796569 113.66287561 -37.80534363 113.70542908 C-48.01725034 113.68247442 -48.01725034 113.68247442 -52.33227539 110.27880859 C-54.83025819 107.62029547 -55.88102378 105.64841376 -55.859375 101.91796875 C-55.859375 100.98533203 -55.859375 100.05269531 -55.859375 99.09179688 C-55.82328125 98.13337891 -55.7871875 97.17496094 -55.75 96.1875 C-55.7603125 95.24068359 -55.770625 94.29386719 -55.78125 93.31835938 C-55.63299602 84.34281604 -52.04031876 77.55806037 -46 71 C-40.09814156 65.51646209 -33.74318283 60.65255457 -27.3125 55.8125 C-25.47486785 54.42369636 -23.63761586 53.03438955 -21.80078125 51.64453125 C-20.99809814 51.03971924 -20.19541504 50.43490723 -19.3684082 49.81176758 C-10.22704579 42.82310815 -10.22704579 42.82310815 -5.48046875 32.58984375 C-5.29995747 28.5851675 -5.71166505 26.47724406 -7.8125 23 C-11.25628615 19.85139552 -14.42528616 19.68257668 -19.00390625 19.80859375 C-22.29292391 20.12397901 -23.62881897 20.62881897 -26 23 C-26.90859982 25.75151454 -27.56810698 28.46592159 -28.12890625 31.30859375 C-29.53710189 35.65947624 -32.28376085 37.52250723 -36 40 C-39.74039076 40.60216817 -43.2597516 40.60697014 -47 40 C-50.95090718 36.9182924 -52.15704044 34.57609287 -52.9375 29.6875 C-53.41233801 20.82880339 -50.89631553 13.66222868 -45 7 C-32.88934955 -3.60967 -14.89680351 -7.30120014 0 0 Z " fill="#443F3F" transform="translate(230,193)"/>
<path d="M0 0 C3.04332765 1.3584202 5.12309151 2.88463024 7.453125 5.2578125 C8.38125 6.19560547 8.38125 6.19560547 9.328125 7.15234375 C9.96234375 7.80332031 10.5965625 8.45429688 11.25 9.125 C12.22453125 10.11306641 12.22453125 10.11306641 13.21875 11.12109375 C14.81711727 12.74296643 16.41061897 14.3693281 18 16 C16.72494758 18.80428566 15.42022876 20.81604371 13.20703125 22.953125 C12.65853516 23.49066406 12.11003906 24.02820313 11.54492188 24.58203125 C10.97322266 25.13246094 10.40152344 25.68289062 9.8125 26.25 C6.31395437 29.63832308 2.91829647 33.04207467 -0.24951172 36.74511719 C-3.8270566 40.85630748 -7.59695942 44.72571311 -11.46484375 48.5625 C-12.14301651 49.23925781 -12.82118927 49.91601562 -13.51991272 50.61328125 C-15.65674305 52.74457675 -17.79704823 54.87234218 -19.9375 57 C-21.39932123 58.45679779 -22.86091187 59.91382701 -24.32226562 61.37109375 C-27.878854 64.91673973 -31.43856016 68.45922739 -35 72 C-38.01409306 70.55695686 -40.10472016 69.13408132 -42.453125 66.7421875 C-43.071875 66.11699219 -43.690625 65.49179687 -44.328125 64.84765625 C-44.96234375 64.19667969 -45.5965625 63.54570312 -46.25 62.875 C-46.8996875 62.21628906 -47.549375 61.55757813 -48.21875 60.87890625 C-49.81711727 59.25703357 -51.41061897 57.6306719 -53 56 C-51.44234073 52.24689118 -49.1220056 49.90582087 -46.23828125 47.078125 C-45.76939987 46.61444519 -45.30051849 46.15076538 -44.81742859 45.67303467 C-43.32048402 44.19382975 -41.81704251 42.72147299 -40.3125 41.25 C-38.34678763 39.32120694 -36.38436014 37.38916162 -34.42578125 35.453125 C-33.94626511 34.97915283 -33.46674896 34.50518066 -32.97270203 34.0168457 C-29.77874854 30.83627369 -26.80407469 27.53359835 -23.87915039 24.10839844 C-19.657017 19.37118342 -15.06751617 14.96641215 -10.5625 10.5 C-9.5342702 9.47679861 -8.50627374 8.45336267 -7.47851562 7.4296875 C-4.98835662 4.95042001 -2.49507167 2.47432462 0 0 Z " fill="#FB3101" transform="translate(473,197)"/>
<path d="M0 0 C4.01199602 1.84756626 6.75705689 4.49579142 9.8125 7.625 C10.5559668 8.36943359 10.5559668 8.36943359 11.31445312 9.12890625 C14.05949601 11.905745 16.67525519 14.75878565 19.21777344 17.72216797 C22.87571134 21.91578514 26.73462402 25.86298346 30.68359375 29.78125 C31.38396255 30.48020386 32.08433136 31.17915771 32.80592346 31.89929199 C35.01408458 34.10191539 37.22572037 36.30101081 39.4375 38.5 C40.94749814 40.00497508 42.4572659 41.51018135 43.96679688 43.015625 C47.64187641 46.67975829 51.32007356 50.3407348 55 54 C53.55695686 57.01409306 52.13408132 59.10472016 49.7421875 61.453125 C49.11699219 62.071875 48.49179688 62.690625 47.84765625 63.328125 C47.19667969 63.96234375 46.54570313 64.5965625 45.875 65.25 C45.21628906 65.8996875 44.55757812 66.549375 43.87890625 67.21875 C42.25703357 68.81711727 40.6306719 70.41061897 39 72 C35.8794002 70.6137057 33.75854373 69.00708912 31.35229492 66.59521484 C30.30551826 65.55305313 30.30551826 65.55305313 29.2375946 64.48983765 C28.49274307 63.7378006 27.74789154 62.98576355 26.98046875 62.2109375 C26.20367264 61.43368317 25.42687653 60.65642883 24.62654114 59.85562134 C22.98262367 58.20868327 21.34113687 56.55931595 19.7019043 54.90771484 C17.21252907 52.40021134 14.71537425 49.9006744 12.21679688 47.40234375 C10.61671739 45.79734353 9.01709352 44.19188894 7.41796875 42.5859375 C6.67918991 41.84604584 5.94041107 41.10615417 5.179245 40.34384155 C1.12232357 36.25032705 -2.7734569 32.0693474 -6.52703857 27.69534302 C-8.40540083 25.53339344 -10.3950277 23.50663945 -12.4375 21.5 C-13.11683594 20.8296875 -13.79617187 20.159375 -14.49609375 19.46875 C-14.99238281 18.9840625 -15.48867188 18.499375 -16 18 C-14.6415798 14.95667235 -13.11536976 12.87690849 -10.7421875 10.546875 C-10.11699219 9.928125 -9.49179687 9.309375 -8.84765625 8.671875 C-8.19667969 8.03765625 -7.54570312 7.4034375 -6.875 6.75 C-6.21628906 6.1003125 -5.55757812 5.450625 -4.87890625 4.78125 C-3.25703357 3.18288273 -1.6306719 1.58938103 0 0 Z " fill="#FC623E" transform="translate(37,197)"/>
<path d="M0 0 C19.8 0 39.6 0 60 0 C53.28191489 8.95744681 53.28191489 8.95744681 49.9375 13 C49.18339844 13.91652344 48.42929687 14.83304688 47.65234375 15.77734375 C47.23839355 16.27991699 46.82444336 16.78249023 46.39794922 17.30029297 C43.59018108 20.71413889 40.79389877 24.13730047 38 27.5625 C37.4237085 28.26568359 36.84741699 28.96886719 36.25366211 29.69335938 C35.71620361 30.35271484 35.17874512 31.01207031 34.625 31.69140625 C33.90183594 32.57614624 33.90183594 32.57614624 33.1640625 33.47875977 C31.91629764 35.01041949 31.91629764 35.01041949 31 37 C30.34 37 29.68 37 29 37 C27.33698273 35.05673353 25.7873256 33.10242858 24.25 31.0625 C19.23929312 24.53471206 14.0573206 18.17119136 8.77246094 11.86352539 C8.20946289 11.18668701 7.64646484 10.50984863 7.06640625 9.8125 C6.57084229 9.22082031 6.07527832 8.62914063 5.56469727 8.01953125 C3.57192603 5.44749137 1.80482485 2.70723727 0 0 Z " fill="#FCFCFC" transform="translate(226,90)"/>
<path d="M0 0 C1.34107971 1.36108398 1.34107971 1.36108398 2.93969727 3.30859375 C7.65606159 8.85023256 12.81005759 13.93508514 17.96484375 19.0625 C19.00881066 20.1045974 20.05255372 21.14691909 21.09608459 22.18945312 C23.81785922 24.90744446 26.54262523 27.6224169 29.26806641 30.33673096 C32.05881073 33.11717018 34.84665871 35.90051029 37.63476562 38.68359375 C43.08704358 44.12520842 48.54249109 49.56363103 54 55 C53.06725891 56.12894876 52.12859878 57.25300876 51.1875 58.375 C50.66542969 59.00148437 50.14335938 59.62796875 49.60546875 60.2734375 C48 62 48 62 45 64 C37.92737632 57.04307324 30.86819822 50.07281383 23.8260107 43.08507156 C20.55583068 39.84101863 17.28114911 36.60179288 13.99584961 33.37304688 C10.82729497 30.25869949 7.67100458 27.13240165 4.52295113 23.99733734 C3.31797284 22.80161913 2.1085924 21.61032083 0.89484978 20.42350006 C-0.80069572 18.7640935 -2.48009921 17.0898523 -4.15649414 15.41113281 C-4.91929688 14.67529465 -4.91929688 14.67529465 -5.69750977 13.92459106 C-7.07020569 12.53106689 -7.07020569 12.53106689 -9 10 C-8.82943213 6.64732474 -7.42792114 5.0402366 -5.0625 2.75 C-4.53785156 2.22921875 -4.01320313 1.7084375 -3.47265625 1.171875 C-2 0 -2 0 0 0 Z " fill="#FBFBFB" transform="translate(59,176)"/>
<path d="M0 0 C2.92697734 1.50881711 4.77127396 3.4086391 6.83758545 5.94725037 C6.6973037 10.12360192 3.81516523 12.36366284 1.01409912 15.19065857 C0.5131926 15.70003464 0.01228607 16.20941071 -0.50379944 16.73422241 C-2.1595855 18.41338331 -3.82631976 20.08113502 -5.4944458 21.74803162 C-6.64958339 22.91026855 -7.80442044 24.07280426 -8.95896912 25.23562622 C-11.379116 27.66921765 -13.80511971 30.09678958 -16.23492432 32.52073669 C-19.35251949 35.63242444 -22.4514493 38.76200122 -25.54582691 41.89675617 C-27.9246494 44.30138137 -30.31479938 46.69449002 -32.70837975 49.08441734 C-33.85622918 50.23396382 -35.00008209 51.38751501 -36.1398716 52.54505348 C-37.73188633 54.15911913 -39.3388726 55.75661356 -40.95074463 57.35081482 C-41.86262039 58.26474503 -42.77449615 59.17867523 -43.71400452 60.12030029 C-46.16241455 61.94725037 -46.16241455 61.94725037 -48.28501892 61.95718384 C-50.5555474 60.73576696 -51.80421197 59.39500359 -53.41241455 57.38475037 C-53.9331958 56.7440863 -54.45397705 56.10342224 -54.99053955 55.44334412 C-55.3772583 54.94963318 -55.76397705 54.45592224 -56.16241455 53.94725037 C-49.20548779 46.87462669 -42.23522838 39.81544859 -35.24748611 32.77326107 C-32.00343318 29.50308105 -28.76420743 26.22839948 -25.53546143 22.94309998 C-22.42111404 19.77454533 -19.2948162 16.61825495 -16.15975189 13.47020149 C-14.96403368 12.26522321 -13.77273538 11.05584277 -12.58591461 9.84210014 C-10.92650805 8.14655465 -9.25226686 6.46715115 -7.57354736 4.79075623 C-7.08298859 4.28222107 -6.59242981 3.77368591 -6.08700562 3.2497406 C-2.72058341 -0.06636553 -2.72058341 -0.06636553 0 0 Z " fill="#FBFBFB" transform="translate(455.16241455078125,177.05274963378906)"/>
<path d="M0 0 C3.14024707 1.17083782 5.18537977 2.82898341 7.125 5.6171875 C8.42461792 9.15632558 8.36860559 12.65345219 8.375 16.375 C8.39949219 17.1175 8.42398437 17.86 8.44921875 18.625 C8.47706144 23.8779871 7.46290424 26.83694573 4 31 C-0.73321086 34.30224014 -5.39118588 34.8945958 -11 34 C-16.03299688 31.57670521 -17.89512125 29.0867903 -20 24 C-20.85143656 16.72939956 -21.05212858 9.28778573 -17 3 C-11.6350694 -0.94425211 -6.42667281 -0.79137649 0 0 Z " fill="#FC3100" transform="translate(303,253)"/>
<path d="M0 0 C1.29550781 -0.02126953 1.29550781 -0.02126953 2.6171875 -0.04296875 C5.31611813 0.20506382 6.86285306 0.71367699 9.125 2.1875 C12.25200418 6.87800627 11.80496054 11.7034704 11.125 17.1875 C9.3125 20.4375 9.3125 20.4375 6.125 22.1875 C0.82870974 22.90046215 -4.23581797 23.12738614 -8.875 20.1875 C-11.44282557 15.9505878 -11.60744311 11.00069757 -10.875 6.1875 C-7.79047842 1.25226548 -5.66522869 0.04202692 0 0 Z " fill="#FB3101" transform="translate(296.875,209.8125)"/>
</svg>
