<?xml version="1.0" encoding="UTF-8"?>
<svg version="1.1" xmlns="http://www.w3.org/2000/svg" width="512" height="512">
<path d="M0 0 C2.95800781 1.95800781 2.95800781 1.95800781 5.703125 4.703125 C6.45846527 5.44215057 6.45846527 5.44215057 7.22906494 6.19610596 C8.83846206 7.77941583 10.41890093 9.38848125 12 11 C13.05615331 12.04803031 14.11409251 13.09426402 15.17382812 14.13867188 C18.38947317 17.31929724 21.57223759 20.53158391 24.75 23.75 C31.31465733 30.39752947 37.8740936 36.94619966 45 43 C46.30981361 44.16122406 47.6170842 45.32532248 48.921875 46.4921875 C50.19776666 47.61996139 51.4738077 48.74756631 52.75 49.875 C53.39582031 50.45507812 54.04164063 51.03515625 54.70703125 51.6328125 C55.64869141 52.46039063 55.64869141 52.46039063 56.609375 53.3046875 C57.16592773 53.79952637 57.72248047 54.29436523 58.29589844 54.80419922 C60.22789263 56.15991663 61.67224091 56.65469844 64 57 C64.969375 56.79375 65.93875 56.5875 66.9375 56.375 C70.72840031 55.91080813 71.99837254 56.74877941 75 59 C77 61 77 61 77.1953125 63.1640625 C77.16050781 64.38222656 77.16050781 64.38222656 77.125 65.625 C77.10695313 66.44226563 77.08890625 67.25953125 77.0703125 68.1015625 C77.03550781 69.04128906 77.03550781 69.04128906 77 70 C77.51046875 70.22429687 78.0209375 70.44859375 78.546875 70.6796875 C80.64476214 71.8088051 82.46164886 72.99787947 84.390625 74.3828125 C85.01839844 74.82753906 85.64617187 75.27226562 86.29296875 75.73046875 C87.59104626 76.65544614 88.88032282 77.59290835 90.16015625 78.54296875 C95.05134415 81.9598271 98.0680167 82.3896006 104 82 C106.75 83 106.75 83 109 85 C109.53271597 86.2364315 110.03610151 87.48566657 110.51953125 88.7421875 C113.19787898 94.2585609 117.66066719 96.38241066 122.9375 99.125 C123.83146484 99.6303125 124.72542969 100.135625 125.64648438 100.65625 C129.20686516 102.61431533 129.20686516 102.61431533 133 104 C135.62120808 103.23748 135.62120808 103.23748 138 102 C141.63782597 101.01475547 143.28298251 100.67408296 146.75 102.25 C149 104 149 104 151 107 C151.07905064 109.33199388 151.08798769 111.66832622 151 114 C151.81682251 114.26067261 151.81682251 114.26067261 152.65014648 114.52661133 C157.41074443 116.07547261 162.05465163 117.78621442 166.67919922 119.70141602 C197.54317141 132.47129757 229.60728015 140.79782361 262.90625 143.70654297 C279.73140876 145.20471693 292.91261526 149.14552169 304.17578125 162.46484375 C312.66373515 174.26073685 314.06828382 185.87355344 313 200 C311.05245648 211.69766584 304.91129298 221.2142336 295.87109375 228.79296875 C294 230 294 230 291.59765625 230.80078125 C288.60534157 231.8738546 287.07854789 232.55412253 285 235 C284.11034251 238.88834949 284.10356483 242.82040633 284.16064453 246.79370117 C284.25689677 253.58083937 283.2850688 258.85359706 279.23828125 264.42578125 C272.90276244 270.63279055 268.00656175 273.04570017 259.125 273.5 C252.02346062 273.29376843 246.46911785 271.08773492 241.15234375 266.35546875 C236.6888126 261.49712895 233.84791535 256.26780579 233.8125 249.5625 C233.874375 248.386875 233.93625 247.21125 234 246 C229.71 246 225.42 246 221 246 C221.0825 247.629375 221.165 249.25875 221.25 250.9375 C221.22010353 258.70061557 218.96613065 264.19214989 213.6875 269.875 C206.99350774 275.93615685 201.26118973 276.55891314 192.3828125 276.3515625 C185.2317219 275.60837756 180.64626003 272.4206367 176 267 C170.93637228 259.96718372 170.90016622 255.48587114 171 247 C167.04 247 163.08 247 159 247 C158.85304688 247.99 158.70609375 248.98 158.5546875 250 C157.10182764 258.88821623 155.43733773 265.91169872 147.9375 271.55078125 C140.81510634 276.19866682 134.44224455 276.84518489 126 276 C119.3905962 273.93622923 114.84364944 270.70723704 111 265 C110.13375 263.7315625 110.13375 263.7315625 109.25 262.4375 C108 259 108 259 107 246 C65.75 246 24.5 246 -18 246 C-18 249.96 -18 253.92 -18 258 C-20.8023886 266.05686723 -26.0374137 270.68226084 -33.3125 274.9375 C-40.96914568 277.14365215 -47.87297224 276.84400798 -55 273.19140625 C-62.14066389 268.93769045 -65.4070499 263.77885029 -68 256 C-68.13143471 252.66155835 -68.04340976 249.34255132 -68 246 C-73.94 246 -79.88 246 -86 246 C-86.0825 247.815 -86.165 249.63 -86.25 251.5 C-86.94624669 259.40007911 -88.93695343 264.31396942 -94.6875 269.8125 C-99.83559183 274.00369743 -104.96041467 275.67433014 -111.5 276.375 C-118.31623057 275.64468958 -124.77158921 273.53128935 -130 269 C-134.50564794 262.66459363 -137.16528946 257.56199887 -137.0625 249.75 C-137.05347656 248.85796875 -137.04445312 247.9659375 -137.03515625 247.046875 C-137.02355469 246.37140625 -137.01195312 245.6959375 -137 245 C-138.15886719 244.89816406 -139.31773437 244.79632813 -140.51171875 244.69140625 C-144.97573684 244.12689989 -148.72868473 242.77957637 -152.8125 240.9375 C-153.504646 240.62949463 -154.19679199 240.32148926 -154.90991211 240.00415039 C-161.20959241 237.09351549 -166.62130596 233.3809599 -172 229 C-172.94552734 228.29810547 -172.94552734 228.29810547 -173.91015625 227.58203125 C-187.35744679 217.13664156 -196.70118699 198.66639434 -199 182 C-200.38861857 169.1053279 -199.1438398 157.0543043 -196.02734375 144.5078125 C-195.7187442 143.22802017 -195.41014465 141.94822784 -195.0921936 140.62965393 C-194.25132079 137.14584531 -193.3956349 133.66582685 -192.53734207 130.18627548 C-191.80831228 127.22008311 -191.08985058 124.25136876 -190.37112331 121.28266621 C-188.49187623 113.52315893 -186.58270684 105.77156285 -184.6441412 98.02666187 C-183.64686687 94.04145788 -182.65693452 90.05472535 -181.68310547 86.0637207 C-180.71795906 82.10888619 -179.73572521 78.15867129 -178.74109268 74.21115303 C-178.3707047 72.72914684 -178.00627842 71.24563623 -177.64822006 69.76060295 C-177.15151093 67.70560146 -176.63295997 65.65729829 -176.10888672 63.60913086 C-175.82133514 62.44941269 -175.53378357 61.28969452 -175.23751831 60.09483337 C-173.74806392 56.36994857 -172.14586199 54.47610756 -169 52 C-166.42028809 51.36508179 -166.42028809 51.36508179 -163.64648438 51.35302734 C-162.60190063 51.33726654 -161.55731689 51.32150574 -160.4810791 51.30526733 C-158.8043512 51.32044907 -158.8043512 51.32044907 -157.09375 51.3359375 C-155.93629272 51.33115387 -154.77883545 51.32637024 -153.58630371 51.32144165 C-151.14199462 51.318043 -148.69764005 51.32724275 -146.25341797 51.34814453 C-142.51296592 51.37490723 -138.77551501 51.34839195 -135.03515625 51.31640625 C-132.65884755 51.31971035 -130.28254071 51.32611658 -127.90625 51.3359375 C-126.22952209 51.32075577 -126.22952209 51.32075577 -124.5189209 51.30526733 C-116.80074864 51.42172003 -116.80074864 51.42172003 -112.89624023 54.24145508 C-111.17002468 56.75265755 -109.85698296 58.9690489 -108.75390625 61.80078125 C-108.39103516 62.69603516 -108.02816406 63.59128906 -107.65429688 64.51367188 C-107.29400391 65.43728516 -106.93371094 66.36089844 -106.5625 67.3125 C-101.960346 79.08835518 -95.55728209 89.65139376 -83.89453125 95.578125 C-71.52323557 100.82198724 -59.4392779 102.10211933 -46.640625 97.19140625 C-36.70918367 92.71050447 -29.01634955 85.56380279 -22.0390625 77.296875 C-17.6053459 72.30257354 -12.75563842 67.68535805 -8 63 C-13.45143336 56.40736481 -19.47421589 50.51424449 -25.63085938 44.58398438 C-34.84621043 35.53716011 -34.84621043 35.53716011 -35.125 29.125 C-32.26980101 21.19389171 -24.05893921 14.90338532 -18.1875 9.0625 C-17.42501953 8.29615234 -16.66253906 7.52980469 -15.87695312 6.74023438 C-15.14798828 6.01255859 -14.41902344 5.28488281 -13.66796875 4.53515625 C-13.01078857 3.879104 -12.3536084 3.22305176 -11.67651367 2.54711914 C-8.24971299 -0.6151986 -4.46202412 -0.69764461 0 0 Z " fill="#3D3A41" transform="translate(199,118)"/>
<path d="M0 0 C2.76794668 1.28365269 4.98297674 2.67311204 7.27734375 4.6796875 C7.87353516 5.19660156 8.46972656 5.71351563 9.08398438 6.24609375 C9.69564453 6.78363281 10.30730469 7.32117188 10.9375 7.875 C12.1542861 8.93565554 13.37172235 9.99556576 14.58984375 11.0546875 C15.16718262 11.55709961 15.74452148 12.05951172 16.33935547 12.57714844 C18.51525564 14.44147455 20.74695957 16.23005932 23 18 C21.42923465 21.84659015 18.9676316 24.20270385 16 27.0625 C11.18560631 31.28438166 11.18560631 31.28438166 8.69921875 36.9375 C8.65038934 41.1295959 8.65038934 41.1295959 10.0625 45 C13.36118714 46.7025482 15.32756921 46.60203783 19 46 C22.96935323 43.40496459 26.12479221 39.9257561 29.3671875 36.49609375 C30.15351563 35.67238281 30.93984375 34.84867188 31.75 34 C32.46671875 33.21625 33.1834375 32.4325 33.921875 31.625 C34.60765625 31.08875 35.2934375 30.5525 36 30 C40.97945368 30.62437884 44.76907514 34.05600346 48.75 36.875 C49.54277344 37.41769531 50.33554687 37.96039063 51.15234375 38.51953125 C51.90128906 39.04675781 52.65023437 39.57398438 53.421875 40.1171875 C54.10862305 40.59784668 54.79537109 41.07850586 55.50292969 41.57373047 C55.99696289 42.04439941 56.49099609 42.51506836 57 43 C57 46 57 46 55.73071289 47.59399414 C55.1505542 48.15207764 54.57039551 48.71016113 53.97265625 49.28515625 C53.34552734 49.89810547 52.71839844 50.51105469 52.07226562 51.14257812 C51.40904297 51.77615234 50.74582031 52.40972656 50.0625 53.0625 C48.7596333 54.32206517 47.45875274 55.583689 46.16015625 56.84765625 C45.57886963 57.40461182 44.99758301 57.96156738 44.39868164 58.53540039 C42.34919754 60.6814739 42.01219923 61.88776708 41.6875 64.875 C41.75946005 68.03418055 41.75946005 68.03418055 43.5625 70.375 C47.12353939 72.74902626 48.75106217 72.72439518 53 72 C56.40658567 69.32184016 59.23026654 66.15147024 62.125 62.9375 C63.67569187 61.22511858 65.24024643 59.52515874 66.8203125 57.83984375 C67.84535889 56.70083618 67.84535889 56.70083618 68.89111328 55.53881836 C71 54 71 54 73.47094727 54.10351562 C76.06726862 55.023845 78.27460609 56.10129748 80.64453125 57.50390625 C81.90620117 58.24350586 81.90620117 58.24350586 83.19335938 58.99804688 C84.05767578 59.51431641 84.92199219 60.03058594 85.8125 60.5625 C86.69615234 61.08263672 87.57980469 61.60277344 88.49023438 62.13867188 C90.66401428 63.4194395 92.83367087 64.7066834 95 66 C94.06031928 67.12233352 93.11687476 68.24151641 92.171875 69.359375 C91.38441895 70.29475098 91.38441895 70.29475098 90.58105469 71.24902344 C88.5939334 73.4497081 86.33610026 75.18303313 84 77 C81.51961093 80.7205836 81.53662797 82.59796571 82 87 C83.33333333 89.66666667 83.33333333 89.66666667 86 91 C90.11242979 91.07858146 92.66325782 91.0303638 95.95996094 88.48925781 C97.92696156 86.51007134 99.78968768 84.47685146 101.625 82.375 C102.87060369 80.95072365 104.13311017 79.54100808 105.4140625 78.1484375 C105.9601416 77.52114746 106.5062207 76.89385742 107.06884766 76.24755859 C109 75 109 75 111.87060547 75.1550293 C114.97797652 75.99405342 117.72957657 77.03548897 120.65625 78.37109375 C122.28989502 79.10162964 122.28989502 79.10162964 123.95654297 79.84692383 C125.12588379 80.37181396 126.29522461 80.8967041 127.5 81.4375 C161.30244105 96.28924161 197.13258194 106.16177343 234 108.9375 C243.71549505 109.68227231 253.9223737 110.51793791 261 118 C267 126.0625 267 126.0625 267 129 C253.15074085 132.71946028 239.29893435 135.64165848 225.125 137.75 C223.18101318 138.04716919 223.18101318 138.04716919 221.19775391 138.3503418 C196.30023766 141.99914403 171.33144821 142.28786016 146.22865486 142.27439499 C140.54190812 142.27151025 134.85528036 142.28609325 129.16856384 142.30337524 C113.02311872 142.34994727 96.87768735 142.37438949 80.73217773 142.38085938 C71.76170368 142.38460518 62.79137 142.40256882 53.82095617 142.43595374 C48.16778927 142.45614187 42.51498472 142.45855474 36.8617965 142.44767356 C33.3630945 142.44507273 29.86460596 142.45903418 26.36595917 142.47775459 C24.74377913 142.48308735 23.12156007 142.48156131 21.49939537 142.47271919 C19.28811063 142.46163403 17.07827629 142.47498295 14.86708069 142.49447632 C13.63007447 142.49556585 12.39306826 142.49665539 11.118577 142.49777794 C7.39715842 143.09708285 6.20103418 143.98238804 4 147 C3.39097771 151.71234476 3.39097771 151.71234476 5.3125 155.875 C8.94394443 158.29596296 12.28731575 158.12777173 16.51904297 158.13371277 C17.51724233 158.1371111 17.51724233 158.1371111 18.53560734 158.14057809 C20.77115159 158.14692003 23.00663523 158.14608851 25.2421875 158.14526367 C26.8441221 158.14825568 28.44605597 158.1516583 30.04798889 158.15544128 C34.41105908 158.16429694 38.77410965 158.1666205 43.13718796 158.16725707 C45.87402296 158.1679685 48.610853 158.17010493 51.34768677 158.17275429 C60.92954828 158.18202389 70.51139587 158.18608854 80.09326172 158.18530273 C88.96271421 158.18470656 97.83210497 158.19516279 106.7015419 158.2110464 C114.35207015 158.22424827 122.00257862 158.22948117 129.65311813 158.22884732 C134.20518913 158.22859533 138.75720568 158.23127551 143.30926514 158.24202538 C163.6388613 158.28670449 183.74438536 157.97212554 204 156 C204.82492415 155.92036074 205.64984831 155.84072147 206.49977016 155.7586689 C210.96758494 155.32023192 215.42147352 154.81535423 219.875 154.25 C221.18364014 154.08661133 222.49228027 153.92322266 223.84057617 153.75488281 C236.88096947 152.06557717 249.68502452 149.39639 262.50512695 146.48730469 C265 146 265 146 268 146 C267.0994914 153.42919599 263.06473611 158.7722695 257.4140625 163.375 C246.42734133 170.77059224 231.79093928 172.67465265 219 175 C218.05969153 175.17761808 217.11938307 175.35523617 216.15058041 175.53823662 C203.19881776 177.6236354 190.14769973 177.27146131 177.06520474 177.23213124 C173.419218 177.22340846 169.77323729 177.22642308 166.12724304 177.22793579 C159.82669932 177.22897912 153.52619736 177.22276067 147.22566414 177.21146011 C138.11641301 177.1951326 129.00718186 177.18998973 119.89791768 177.18748413 C105.11495779 177.18311834 90.33202011 177.16983969 75.54907227 177.15087891 C61.19783641 177.13249111 46.8466066 177.11834883 32.49536133 177.10986328 C31.6091775 177.10933783 30.72299367 177.10881239 29.80995578 177.10827102 C25.3637621 177.10566074 20.91756838 177.10313337 16.47137463 177.10064721 C-20.35243258 177.07994951 -57.17621455 177.04475457 -94 177 C-95.17094005 174.2100561 -96.33690927 171.41821403 -97.5 168.625 C-97.83386719 167.8309375 -98.16773437 167.036875 -98.51171875 166.21875 C-98.82753906 165.45820313 -99.14335938 164.69765625 -99.46875 163.9140625 C-99.76201172 163.2123291 -100.05527344 162.5105957 -100.35742188 161.78759766 C-101 160 -101 160 -101 158 C-100.15697327 157.99635437 -99.31394653 157.99270874 -98.44537354 157.98895264 C-90.49966595 157.95108216 -82.55436921 157.89424051 -74.60895157 157.81609726 C-70.52411545 157.7765918 -66.43949589 157.74441863 -62.35449219 157.72900391 C-58.41200324 157.71385714 -54.47010951 157.67944794 -50.52788544 157.63169098 C-49.02405725 157.61685653 -47.5201441 157.6089578 -46.01624298 157.60811615 C-43.9089466 157.60575073 -41.80330091 157.57871062 -39.69628906 157.54589844 C-38.49715881 157.53701599 -37.29802856 157.52813354 -36.06256104 157.51898193 C-32.39883721 156.89812689 -31.19300115 155.95496266 -29 153 C-28.64542635 149.52517825 -28.8945914 147.31622581 -30 144 C-33.51300224 142.82899925 -36.57498928 142.95387442 -40.21850586 143.06445312 C-41.73630408 143.10053799 -43.2541226 143.13577628 -44.7719574 143.17028809 C-45.97903256 143.1991938 -45.97903256 143.1991938 -47.21049309 143.22868347 C-52.38741476 143.33734749 -57.56547752 143.36754362 -62.74330807 143.40752411 C-67.28487134 143.44695019 -71.82185472 143.51680511 -76.36157227 143.65478516 C-108.28208203 144.58788236 -108.28208203 144.58788236 -114.94848633 138.30883789 C-117.72350994 134.82527067 -119.53091988 131.16326214 -121.11585999 127.01953125 C-122.4811748 123.90091215 -124.45401468 121.87502672 -126.8125 119.4375 C-129.39148178 116.70681341 -131.86653451 113.96461691 -134.25 111.0625 C-141.7716266 102.4414245 -151.40105813 95.13746491 -161 89 C-161.57637207 88.63052246 -162.15274414 88.26104492 -162.74658203 87.88037109 C-174.28221276 80.57162624 -186.34829546 75.0934708 -199 70 C-197.49744863 60.25391188 -195.04146717 50.74144772 -192.6315918 41.19018555 C-191.93150232 38.4137139 -191.23784157 35.6356906 -190.54492188 32.85742188 C-190.10193725 31.09105181 -189.65859124 29.32477232 -189.21484375 27.55859375 C-189.00754135 26.72847275 -188.80023895 25.89835175 -188.58665466 25.04307556 C-187.11557102 19.23114205 -187.11557102 19.23114205 -186 17 C-174.78 17 -163.56 17 -152 17 C-147.4375 26.9375 -147.4375 26.9375 -146.04858398 30.01147461 C-138.46161154 46.22208026 -126.46097745 56.4482454 -110 63 C-95.51726417 67.58295467 -77.58318364 67.09022484 -63.97119141 60.09155273 C-63.32069824 59.73134033 -62.67020508 59.37112793 -62 59 C-61.19353027 58.55793213 -60.38706055 58.11586426 -59.55615234 57.66040039 C-51.25774847 52.76468619 -44.91444986 46.40834315 -38.25 39.5625 C-37.15583412 38.45680462 -36.06078541 37.35198216 -34.96484375 36.24804688 C-30.06346863 31.29026699 -25.28939963 26.26484835 -20.75244141 20.96850586 C-17.04274537 16.80142879 -13.02559792 12.92391901 -9.0625 9 C-8.18787109 8.12988281 -7.31324219 7.25976562 -6.41210938 6.36328125 C-4.27702551 4.23986451 -2.13962795 2.11883622 0 0 Z " fill="#FE623E" transform="translate(226,170)"/>
<path d="M0 0 C-0.9005086 7.42919599 -4.93526389 12.7722695 -10.5859375 17.375 C-21.57265867 24.77059224 -36.20906072 26.67465265 -49 29 C-50.4104627 29.26642713 -50.4104627 29.26642713 -51.84941959 29.53823662 C-64.80118224 31.6236354 -77.85230027 31.27146131 -90.93479526 31.23213124 C-94.580782 31.22340846 -98.22676271 31.22642308 -101.87275696 31.22793579 C-108.17330068 31.22897912 -114.47380264 31.22276067 -120.77433586 31.21146011 C-129.88358699 31.1951326 -138.99281814 31.18998973 -148.10208232 31.18748413 C-162.88504221 31.18311834 -177.66797989 31.16983969 -192.45092773 31.15087891 C-206.80216359 31.13249111 -221.1533934 31.11834883 -235.50463867 31.10986328 C-236.3908225 31.10933783 -237.27700633 31.10881239 -238.19004422 31.10827102 C-242.6362379 31.10566074 -247.08243162 31.10313337 -251.52862537 31.10064721 C-288.35243258 31.07994951 -325.17621455 31.04475457 -362 31 C-363.17094005 28.2100561 -364.33690927 25.41821403 -365.5 22.625 C-365.83386719 21.8309375 -366.16773438 21.036875 -366.51171875 20.21875 C-366.82753906 19.45820313 -367.14335937 18.69765625 -367.46875 17.9140625 C-367.76201172 17.2123291 -368.05527344 16.5105957 -368.35742188 15.78759766 C-369 14 -369 14 -369 12 C-368.15697327 11.99635437 -367.31394653 11.99270874 -366.44537354 11.98895264 C-358.49966595 11.95108216 -350.55436921 11.89424051 -342.60895157 11.81609726 C-338.52411545 11.7765918 -334.43949589 11.74441863 -330.35449219 11.72900391 C-326.41200324 11.71385714 -322.47010951 11.67944794 -318.52788544 11.63169098 C-317.02405725 11.61685653 -315.5201441 11.6089578 -314.01624298 11.60811615 C-311.9089466 11.60575073 -309.80330091 11.57871062 -307.69628906 11.54589844 C-305.89759369 11.53257477 -305.89759369 11.53257477 -304.06256104 11.51898193 C-300.39163631 10.89690662 -299.23307072 9.92500345 -297 7 C-296.67 6.01 -296.34 5.02 -296 4 C-285.77 4 -275.54 4 -265 4 C-264.01 6.475 -264.01 6.475 -263 9 C-259.1708312 12.11042972 -256.08576659 12.37490374 -251.240448 12.3742218 C-250.57327291 12.37819621 -249.90609782 12.38217061 -249.2187053 12.38626546 C-246.98917209 12.39586756 -244.76027685 12.3840823 -242.53076172 12.37231445 C-240.92853052 12.37474362 -239.32630083 12.37846416 -237.72407532 12.38337708 C-233.36931084 12.39278922 -229.01477113 12.38334895 -224.66002417 12.37004495 C-220.07755868 12.35869308 -215.49510369 12.36284195 -210.91262817 12.36479187 C-203.19366825 12.36567563 -195.47479598 12.35459372 -187.75585938 12.33618164 C-178.9011232 12.31517765 -170.0465169 12.31146829 -161.1917609 12.3177436 C-152.62161962 12.32350128 -144.05152295 12.31770674 -135.48138809 12.30657005 C-131.86411823 12.30199084 -128.24687626 12.30102081 -124.62960434 12.3031559 C-104.32478488 12.31029816 -84.23059961 11.96001511 -64 10 C-63.17497388 9.9204627 -62.34994776 9.84092541 -61.49992085 9.75897789 C-57.03221824 9.32047883 -52.57841936 8.81534063 -48.125 8.25 C-46.81635986 8.08661133 -45.50771973 7.92322266 -44.15942383 7.75488281 C-31.11903053 6.06557717 -18.31497548 3.39639 -5.49487305 0.48730469 C-3 0 -3 0 0 0 Z " fill="#FDFCFC" transform="translate(494,316)"/>
<path d="M0 0 C40.65775111 14.82040605 70.56418985 44.01813105 88.89160156 82.89111328 C90.18161116 85.76911716 91 87.811239 91 91 C84.13578482 91.12802255 77.27188356 91.21485729 70.40673828 91.2746582 C68.07719417 91.29961875 65.74772688 91.33359955 63.41845703 91.37719727 C42.82792377 91.75261454 26.86028782 89.49158715 11.25 74.75 C-1.90606386 60.86565403 -6.61936307 45.00793925 -6.36328125 26.30859375 C-6.06559261 19.52762657 -4.97443302 4.97443302 0 0 Z " fill="#FD3100" transform="translate(23,256)"/>
<path d="M0 0 C1.33984375 1.3984375 1.33984375 1.3984375 2.9375 3.375 C7.50146519 8.77053511 12.70969752 13.33152331 18 18 C17.45015228 21.87511727 15.72444669 23.59576506 12.9375 26.25 C12.20402344 26.95640625 11.47054687 27.6628125 10.71484375 28.390625 C10.14894531 28.92171875 9.58304688 29.4528125 9 30 C1.84198775 24.17371096 -4.52591766 17.5617015 -11 11 C-9.60249952 7.84164893 -7.94801766 5.67727175 -5.5 3.25 C-4.8915625 2.63640625 -4.283125 2.0228125 -3.65625 1.390625 C-2 0 -2 0 0 0 Z " fill="#FA623E" transform="translate(196,138)"/>
<path d="M0 0 C0.7752545 9.83711825 0.7752545 9.83711825 -2.125 14.1875 C-5.54984225 16.34663968 -7.03371841 16.82630866 -11 16 C-13.875 14.0625 -13.875 14.0625 -16 11 C-16.40276286 7.95123812 -16.29949079 5.05480604 -16 2 C-14.27192682 1.66104344 -12.54248026 1.32908475 -10.8125 1 C-9.84957031 0.814375 -8.88664062 0.62875 -7.89453125 0.4375 C-5.2065794 0.03122388 -2.71228981 -0.07933572 0 0 Z " fill="#76757E" transform="translate(466,358)"/>
<path d="M0 0 C5.28 0 10.56 0 16 0 C16 8 16 8 13.9375 11 C10.24192952 13.51613309 8.38462729 13.79720496 4 13 C1.5625 11 1.5625 11 0 8 C0 5.36 0 2.72 0 0 Z " fill="#76757E" transform="translate(387,364)"/>
<path d="M0 0 C5.28 0 10.56 0 16 0 C15.51870324 8.18204489 15.51870324 8.18204489 13.375 11.5625 C10.02280766 13.59145852 7.84748569 13.54964081 4 13 C1.5625 11.5625 1.5625 11.5625 0 9 C-0.32358779 5.91795892 -0.1832683 3.11556103 0 0 Z " fill="#76757E" transform="translate(324,364)"/>
<path d="M0 0 C5.28 0 10.56 0 16 0 C16 8 16 8 14.4375 10.4375 C11.18257152 12.52399261 8.86021246 13 5 13 C2.625 11.625 2.625 11.625 1 9 C0.38469368 5.96518407 0.18284822 3.10841979 0 0 Z " fill="#76757E" transform="translate(148,364)"/>
<path d="M0 0 C4.95 0 9.9 0 15 0 C15.48 7.2 15.48 7.2 13.5 10.5 C9.74351164 12.75389302 7.35420619 12.48380069 3 12 C1.265625 10.765625 1.265625 10.765625 0 9 C-0.39500857 5.95053384 -0.13430156 3.08893588 0 0 Z " fill="#77767F" transform="translate(80,364)"/>
</svg>
