<?xml version="1.0" encoding="UTF-8"?>
<svg version="1.1" xmlns="http://www.w3.org/2000/svg" width="512" height="512">
<path d="M0 0 C0.9091892 -0.00843994 1.8183784 -0.01687988 2.75511879 -0.02557558 C4.25538812 -0.01656051 4.25538812 -0.01656051 5.78596592 -0.00736332 C6.84743054 -0.01274886 7.90889517 -0.01813439 9.00252539 -0.02368313 C12.57706666 -0.0380476 16.15124204 -0.03083798 19.72580051 -0.023736 C22.28129978 -0.02943512 24.83679649 -0.03639758 27.39228916 -0.04453373 C33.6236937 -0.06065965 39.854962 -0.0625555 46.08638113 -0.05732083 C51.15016878 -0.05328343 56.21392661 -0.05471755 61.27771282 -0.06006908 C62.35776166 -0.06119172 62.35776166 -0.06119172 63.45962967 -0.06233703 C64.92226215 -0.06386847 66.38489463 -0.06540682 67.84752709 -0.066952 C81.57170784 -0.08068802 95.29583162 -0.07523167 109.02001107 -0.06376678 C121.58163566 -0.05383363 134.14311296 -0.06677448 146.70471483 -0.09070098 C159.59602594 -0.1150709 172.48726839 -0.12470503 185.37860209 -0.11804825 C192.61889462 -0.11455127 199.85907386 -0.11681948 207.09934902 -0.13429928 C213.9062017 -0.15052849 220.71272745 -0.14587254 227.51958752 -0.12699413 C230.02221083 -0.12329337 232.52485479 -0.12645965 235.02745914 -0.13687992 C238.4353284 -0.14998942 241.84224967 -0.13863079 245.25007725 -0.12088871 C246.24802608 -0.13049372 247.24597491 -0.14009872 248.27416462 -0.14999479 C254.96042435 -0.07802603 254.96042435 -0.07802603 258.16472816 2.28664207 C260.23019979 5.33892232 260.70740634 7.00973571 260.71573448 10.65455151 C260.72019233 11.55703286 260.72465017 12.45951422 260.7292431 13.3893435 C260.72896656 14.88609931 260.72896656 14.88609931 260.72868443 16.41309261 C260.73236111 17.46820813 260.7360378 18.52332365 260.7398259 19.61041236 C260.75089749 23.16946083 260.75471245 26.72848015 260.75851536 30.2875433 C260.76477735 32.82979584 260.77142391 35.37204745 260.77842808 37.91429806 C260.79768132 45.56057248 260.80826008 53.20684179 260.81715587 60.85313427 C260.82153738 64.45261702 260.82690456 68.05209828 260.83214474 71.65157986 C260.84915827 83.61502559 260.86365272 95.57847041 260.87089348 107.54192638 C260.87280342 110.64739896 260.87472375 113.75287153 260.87667942 116.85834408 C260.87716316 117.63020844 260.8776469 118.4020728 260.8781453 119.19732699 C260.88644664 131.70268767 260.91178473 144.20795273 260.9442601 156.71327165 C260.97731967 169.54804672 260.99534125 182.38277317 260.99853772 195.21759105 C261.00070389 202.42556196 261.00946798 209.63339345 261.03499889 216.8413229 C261.0589574 223.62105842 261.06253852 230.40049943 261.05223751 237.18028355 C261.05174049 239.67078707 261.05810944 242.1613027 261.07179356 244.65176868 C261.08941267 248.04801849 261.0824547 251.44335681 261.0692606 254.83960629 C261.08571447 256.32297777 261.08571447 256.32297777 261.10250074 257.83631635 C261.02582195 265.9940934 258.04531748 270.17949152 252.3158884 275.87641048 C251.50764622 276.68271908 250.69940403 277.48902767 249.86666965 278.31976986 C249.03006809 279.14412533 248.19346653 279.9684808 247.3315134 280.81781673 C246.51038059 281.63830502 245.68924778 282.4587933 244.84323215 283.30414486 C238.75959098 289.34440032 232.48571173 295.08918955 225.78664112 300.44375896 C204.50696463 317.38350875 204.50696463 317.38350875 194.39778495 341.64641309 C193.53745361 350.63154277 193.85102865 359.63815814 194.26670456 368.63850403 C194.45724137 373.55605045 194.45623025 378.4739931 194.47708225 383.39466 C194.54345912 392.66257007 194.76842147 401.91888636 195.05768895 411.18224311 C195.44418602 423.80318594 195.60277657 436.42670149 195.76598692 449.05216074 C195.80530344 452.09008358 195.84537951 455.12799479 195.8860178 458.16590023 C195.8990303 459.15016294 195.91204279 460.13442565 195.92544961 461.14851451 C196.00774761 466.98275755 196.13007994 472.81446444 196.29000616 478.64708948 C196.38802892 482.25365168 196.47205822 485.86047836 196.55495739 489.46741581 C196.59760336 491.13980186 196.64747725 492.8120213 196.70504665 494.48396015 C196.78319915 496.76228737 196.83688814 499.03997265 196.88516331 501.31909847 C196.92303833 502.59385666 196.96091335 503.86861485 196.9999361 505.18200207 C196.5815134 508.38031673 196.5815134 508.38031673 195.05597401 510.78989697 C191.64917076 512.97956498 188.60845511 512.93502097 184.68649387 512.8882513 C183.88552217 512.89449127 183.08455048 512.90073123 182.25930691 512.90716028 C179.57213987 512.92313057 176.88587487 512.91047057 174.1987009 512.89789486 C172.27358565 512.90331419 170.34847454 512.91043579 168.42337132 512.91913509 C163.19199835 512.93739379 157.96094039 512.93029036 152.72956181 512.91761875 C147.25946791 512.9075043 141.78940131 512.9168801 136.31930637 512.92316341 C127.13257082 512.93044435 117.94596382 512.92084039 108.75924778 512.90180111 C98.13229858 512.88003157 87.50565632 512.88708262 76.87871456 512.90910673 C67.76099803 512.92724799 58.643374 512.92982528 49.52564526 512.91935205 C44.0772368 512.91311013 38.6289727 512.91230072 33.18057346 512.92549801 C28.05872037 512.93703732 22.93726371 512.92906582 17.81545353 512.90592098 C15.93367007 512.90062363 14.05185335 512.90216514 12.17008305 512.91097164 C9.60511316 512.92187038 7.04142096 512.90823304 4.47653294 512.8882513 C3.72828691 512.89717419 2.98004089 512.90609708 2.20912075 512.91529036 C-1.17260036 512.86403709 -3.08948453 512.62145736 -5.84942532 510.59857082 C-8.88413839 506.30825739 -8.47810302 502.76958048 -8.18641567 497.60794735 C-8.11157574 496.19121273 -8.03680094 494.77447467 -7.96208096 493.35773373 C-7.91997557 492.60146191 -7.87787018 491.84519009 -7.83448887 491.06600094 C-6.8627844 473.456701 -6.29965195 455.84459396 -5.88666344 438.2142458 C-5.63989498 428.03958115 -5.28760897 417.8908514 -4.67068386 407.73139095 C-0.65697995 355.41286473 -0.65697995 355.41286473 -22.54397488 309.86957455 C-35.17062942 295.80525367 -49.80633478 283.63064025 -65.00341034 272.44836521 C-67.42569422 270.37414479 -68.49889926 269.39143854 -69.4184866 266.38031673 C-69.60758182 263.81507453 -69.68842196 261.35995431 -69.67245388 258.79573727 C-69.67557386 258.02813955 -69.67869384 257.26054184 -69.68190837 256.46968359 C-69.68989049 253.89562725 -69.68356389 251.32180651 -69.67727566 248.74774837 C-69.67998545 246.90307635 -69.68354631 245.05840542 -69.68789577 243.21373653 C-69.69702411 238.20137392 -69.69347351 233.18909352 -69.6871376 228.17672944 C-69.68207917 222.93399694 -69.68676869 217.69127155 -69.68990993 212.44853878 C-69.69355035 203.64266348 -69.68874882 194.83682171 -69.67922878 186.0309515 C-69.66834747 175.84830476 -69.67186717 165.66573812 -69.68288159 155.48309332 C-69.69195633 146.74414638 -69.69323873 138.00522357 -69.68800426 129.26627344 C-69.68488515 124.04534876 -69.68447353 118.82446173 -69.69107723 113.60353947 C-69.69685263 108.69437249 -69.69285017 103.78530881 -69.68128872 98.87615299 C-69.67864304 97.07379992 -69.67940566 95.27143817 -69.68381405 93.46908855 C-69.68927462 91.00990142 -69.68242915 88.55104583 -69.67245388 86.09187984 C-69.67691532 85.37767425 -69.68137677 84.66346866 -69.68597341 83.92762047 C-69.65495065 79.98773691 -69.32238503 76.86274431 -67.4184866 73.38031673 C-64.05200734 71.13599723 -62.96226013 71.13526514 -59.0290823 71.15326595 C-57.92816753 71.15341702 -56.82725277 71.15356808 -55.69297695 71.15372372 C-53.91161594 71.16920757 -53.91161594 71.16920757 -52.09426785 71.18500423 C-50.87773022 71.18783413 -49.66119259 71.19066402 -48.40779018 71.19357967 C-44.51542301 71.20479071 -40.62328443 71.22989725 -36.7309866 71.25531673 C-34.09492221 71.26534533 -31.45885422 71.27447139 -28.82278347 71.28266048 C-22.35460628 71.30473307 -15.88656277 71.33821985 -9.4184866 71.38031673 C-9.42292782 70.60215099 -9.42736904 69.82398525 -9.43194485 69.02223873 C-9.47205752 61.68044761 -9.50248924 54.33870981 -9.52211094 46.99683762 C-9.53253783 43.22251673 -9.54667697 39.44828658 -9.5693655 35.67401791 C-9.59113303 32.03005935 -9.60306345 28.38618795 -9.60824108 24.74216938 C-9.61192983 23.35353569 -9.61913306 21.96490664 -9.62994671 20.57631016 C-9.64451274 18.62796989 -9.64530395 16.67954151 -9.64553738 14.73114681 C-9.6499786 13.62306164 -9.65441982 12.51497646 -9.65899563 11.37331295 C-9.35232517 7.55697598 -8.52891962 4.76657789 -6.12131017 1.76092571 C-3.94436741 -0.00408786 -2.7812318 0.00363917 0 0 Z " fill="#3D3B42" transform="translate(160.4184865951538,-0.38031673431396484)"/>
<path d="M0 0 C14.19 0 28.38 0 43 0 C43.495 3.96 43.495 3.96 44 8 C45.45997987 10.62716577 45.45997987 10.62716577 48 12 C51.54230809 12.58342353 51.54230809 12.58342353 55 12 C58.93314074 8.60373476 58.93314074 8.60373476 60 0 C75.51 0 91.02 0 107 0 C107.99 4.95 107.99 4.95 109 10 C112.49124017 12.32749345 113.89222251 12.50299316 118 12 C120.47722993 10.60720318 120.47722993 10.60720318 122 8 C122.33 5.36 122.66 2.72 123 0 C138.84 0 154.68 0 171 0 C171.99 4.455 171.99 4.455 173 9 C175.70822005 12.36315059 175.70822005 12.36315059 179.5 12.25 C182.97089837 12.14738568 182.97089837 12.14738568 186 11 C186.66 7.37 187.32 3.74 188 0 C203.51 0 219.02 0 235 0 C236.04868414 21.50188282 236.89115704 42.98235589 237.38335991 64.50353432 C237.61823443 74.50209119 237.93767778 84.48322336 238.47021484 94.47070312 C242.23934743 166.53249718 242.23934743 166.53249718 223.07388234 188.52910781 C213.21222926 199.40064033 201.44636395 209.24041036 189 217 C188.67 217 188.34 217 188 217 C187.99413376 215.69565506 187.98826752 214.39131012 187.98222351 213.04743958 C187.9250341 200.76089382 187.8522921 188.4745257 187.76428509 176.1881609 C187.7195396 169.87146592 187.68029251 163.55483606 187.65356445 157.23803711 C187.62757345 151.14305552 187.58720042 145.04832397 187.53681374 138.95349693 C187.52011664 136.62710363 187.50862012 134.30066705 187.50238609 131.97422218 C187.49277615 128.71798046 187.46475311 125.4623826 187.43237305 122.20629883 C187.43380814 121.24244766 187.43524323 120.2785965 187.4367218 119.28553772 C187.36854512 114.44417168 187.31239301 110.83929061 184 107 C180.95288476 105.98429492 178.88889076 105.86947368 175.69961548 105.85955811 C174.6004631 105.85384796 173.50131073 105.84813782 172.36885071 105.84225464 C171.16254501 105.84113678 169.95623932 105.84001892 168.71337891 105.83886719 C167.44325455 105.83390228 166.17313019 105.82893738 164.86451721 105.82382202 C161.37893363 105.8107067 157.89336931 105.80425488 154.40776491 105.79981136 C152.2299133 105.79687951 150.05206695 105.79277451 147.87421799 105.78830719 C141.05959333 105.77463515 134.24498069 105.7649668 127.43034327 105.7611053 C119.56483725 105.75662375 111.69950493 105.73907024 103.83405173 105.7101047 C97.75328039 105.68848896 91.67255794 105.67840109 85.5917486 105.67706418 C81.96030459 105.67601616 78.32902394 105.67010903 74.69762039 105.65224457 C70.64677636 105.63270401 66.59629608 105.63705239 62.54541016 105.64355469 C61.34315292 105.6343399 60.14089569 105.62512512 58.90220642 105.6156311 C57.7974144 105.62120026 56.69262238 105.62676941 55.55435181 105.63250732 C54.59681818 105.63104076 53.63928455 105.6295742 52.65273476 105.6280632 C49.47515003 106.07358859 47.58593666 107.12998087 45 109 C43.78473604 111.43052792 43.86197276 113.00309475 43.84178162 115.72024536 C43.82709839 117.21367462 43.82709839 117.21367462 43.81211853 118.73727417 C43.80636307 119.83347076 43.8006076 120.92966736 43.79467773 122.05908203 C43.78477814 123.21029541 43.77487854 124.36150879 43.76467896 125.54760742 C43.73299267 129.36765458 43.70827835 133.1877142 43.68359375 137.0078125 C43.66303038 139.65054657 43.64203408 142.29327731 43.62062073 144.93600464 C43.57067591 151.19037258 43.52574374 157.44476616 43.48259836 163.6991843 C43.43324126 170.81883547 43.37831748 177.93844026 43.32291877 185.05804658 C43.20907127 199.70532171 43.10297318 214.35264427 43 229 C28.81 229 14.62 229 0 229 C0 153.43 0 77.86 0 0 Z " fill="#A1D7F1" transform="translate(169,88)"/>
<path d="M0 0 C56.1 0 112.2 0 170 0 C170 41.25 170 82.5 170 125 C156.8 125.33 143.6 125.66 130 126 C125.9254644 129.47825081 125.9254644 129.47825081 125 133 C112.13 133 99.26 133 86 133 C85.01 131.02 84.02 129.04 83 127 C79.93203358 125.46601679 76.70593836 125.82053756 73.33740234 125.79467773 C72.53427423 125.78464501 71.73114613 125.77461229 70.9036808 125.76427555 C68.29779594 125.73283348 65.6918959 125.70809592 63.0859375 125.68359375 C61.47956845 125.66519557 59.87320436 125.64635918 58.2668457 125.6270752 C52.30295585 125.5585655 46.33897085 125.49855247 40.375 125.4375 C20.389375 125.2209375 20.389375 125.2209375 0 125 C0 83.75 0 42.5 0 0 Z " fill="#1D9ADF" transform="translate(170,333)"/>
<path d="M0 0 C36.63 0 73.26 0 111 0 C111 34.98 111 69.96 111 106 C74.37 106 37.74 106 0 106 C0 71.02 0 36.04 0 0 Z " fill="#F9341F" transform="translate(229,210)"/>
<path d="M0 0 C14.52 0 29.04 0 44 0 C44 70.95 44 141.9 44 215 C41.69 213.02 39.38 211.04 37 209 C35.64206401 208.06751967 34.26125838 207.16596934 32.84553528 206.32380676 C18.47955954 197.32266425 2.92003038 184.91741651 -1.1553421 167.65001678 C-5.8808297 143.34682676 -3.70157863 117.30102921 -2.66499126 92.72928536 C-2.24533616 82.60065242 -2.04649072 72.47092494 -1.8619734 62.33571565 C-1.47873011 41.54526599 -0.80255937 20.77877938 0 0 Z " fill="#7EC4F2" transform="translate(108,88)"/>
<path d="M0 0 C12.87 0 25.74 0 39 0 C39.99 2.97 39.99 2.97 41 6 C43.65696758 6.88565586 45.28190083 7.1450262 48.01245117 7.20532227 C48.81305466 7.22526749 49.61365814 7.24521271 50.43852234 7.26576233 C51.29798965 7.28247482 52.15745697 7.29918732 53.04296875 7.31640625 C53.9265657 7.33718735 54.81016266 7.35796844 55.72053528 7.37937927 C58.54277785 7.44475754 61.36511335 7.50370528 64.1875 7.5625 C66.10092106 7.60569637 68.01433273 7.64931102 69.92773438 7.69335938 C74.61839572 7.80121406 79.30912773 7.90037461 84 8 C84 14.93 84 21.86 84 29 C27.9 29 -28.2 29 -86 29 C-86 22.07 -86 15.14 -86 8 C-83.56197998 7.97494385 -81.12395996 7.9498877 -78.61206055 7.92407227 C-70.56538037 7.84067205 -62.51876488 7.75197665 -54.47217083 7.66066074 C-49.59255425 7.60544824 -44.71293167 7.55203085 -39.83325195 7.50268555 C-35.12590583 7.45501741 -30.418633 7.4026736 -25.71137428 7.34705925 C-23.91362134 7.32664682 -22.11584831 7.3079319 -20.31805992 7.29092598 C-17.80400697 7.26685742 -15.29009252 7.23680614 -12.77612305 7.20532227 C-12.02949905 7.1995668 -11.28287506 7.19381134 -10.5136261 7.18788147 C-7.41287071 7.14361424 -4.96427994 6.98809331 -2 6 C-1.34 4.02 -0.68 2.04 0 0 Z " fill="#F8341F" transform="translate(256,466)"/>
<path d="M0 0 C15.84 0 31.68 0 48 0 C48 17.82 48 35.64 48 54 C32.16 54 16.32 54 0 54 C0 36.18 0 18.36 0 0 Z " fill="#7EC5F2" transform="translate(292,17)"/>
<path d="M0 0 C15.51 0 31.02 0 47 0 C47 17.82 47 35.64 47 54 C31.49 54 15.98 54 0 54 C0 36.18 0 18.36 0 0 Z " fill="#7EC4F2" transform="translate(357,17)"/>
<path d="M0 0 C15.18 0 30.36 0 46 0 C46 17.82 46 35.64 46 54 C30.82 54 15.64 54 0 54 C0 36.18 0 18.36 0 0 Z " fill="#7FC6F4" transform="translate(229,17)"/>
<path d="M0 0 C14.19 0 28.38 0 43 0 C43 17.82 43 35.64 43 54 C28.81 54 14.62 54 0 54 C0 36.18 0 18.36 0 0 Z " fill="#7FC6F4" transform="translate(169,17)"/>
</svg>
