<?xml version="1.0" encoding="UTF-8"?>
<svg version="1.1" xmlns="http://www.w3.org/2000/svg" width="512" height="512">
<path d="M0 0 C0.68340311 -0.00709439 1.36680621 -0.01418877 2.0709185 -0.02149814 C4.3544915 -0.03906145 6.63635849 -0.0209845 8.91990662 -0.00291443 C10.5594612 -0.0080539 12.19901027 -0.01533539 13.83854675 -0.02459717 C18.28693253 -0.0431146 22.73471911 -0.03017123 27.18307996 -0.01050687 C31.83770781 0.00587543 36.4922976 -0.00293255 41.14694214 -0.00802612 C48.96247433 -0.0125471 56.77776719 0.00332411 64.59324646 0.03126526 C73.63144517 0.06332842 82.66921248 0.06329713 91.70744187 0.04605049 C100.40050519 0.030193 109.09341021 0.03691321 117.7864666 0.0539875 C121.48697557 0.06086343 125.18735786 0.05982005 128.88786507 0.05244255 C133.24399297 0.04478754 137.59962919 0.05687985 141.95567322 0.08429146 C143.55525185 0.09118424 145.15487633 0.09126368 146.75445366 0.08407593 C148.93629967 0.07540063 151.11662145 0.09130153 153.29833984 0.11352539 C154.51967401 0.11633231 155.74100817 0.11913923 156.99935246 0.12203121 C160.67762446 0.72526838 161.82015344 1.73409707 164.0856781 4.62818909 C165.77735638 8.01154564 165.21438578 11.85506919 165.19920349 15.57594299 C165.19934952 16.50282425 165.19949554 17.42970551 165.199646 18.38467407 C165.19894756 21.45805679 165.19115838 24.53137941 165.18333435 27.60475159 C165.18146993 29.73181627 165.18004614 31.85888139 165.17904663 33.98594666 C165.17522338 39.59194621 165.16539472 45.19791996 165.15434265 50.8039093 C165.1441244 56.52137401 165.13954812 62.23884288 165.13450623 67.95631409 C165.1237723 79.18028377 165.10669817 90.40423429 165.0856781 101.62818909 C166.25825165 102.08797653 166.25825165 102.08797653 167.45451355 102.55705261 C169.89677892 103.55128899 172.03051047 104.67427084 174.2888031 106.02662659 C230.7436059 139.3391009 293.77246441 155.154957 356.94094849 170.20573425 C367.4464497 172.71031433 377.94693662 175.23385995 388.43260193 177.82035828 C390.24110398 178.26487486 392.05047499 178.70587567 393.86082458 179.14280701 C415.07843639 184.26733555 437.34138171 189.71903095 453.0856781 205.62818909 C453.71087341 206.21986877 454.33606873 206.81154846 454.98020935 207.42115784 C471.46928508 224.28244747 474.41463267 250.04059969 474.3513031 272.37037659 C474.35265444 274.06846675 474.35459886 275.76655653 474.35710144 277.46464539 C474.36003226 281.00633972 474.35582245 284.54793245 474.34642029 288.08961487 C474.33504459 292.58992068 474.3415864 297.08998734 474.35356522 301.59028435 C474.36085438 305.09253177 474.35846353 308.59472418 474.35330963 312.09697342 C474.35199164 313.7544724 474.35355455 315.41197665 474.35826874 317.06946945 C474.39991558 335.82580094 472.64531756 352.08031823 461.0856781 367.62818909 C460.0028656 369.14412659 460.0028656 369.14412659 458.8981781 370.69068909 C450.36803201 380.50171973 436.63263155 387.65561506 423.68699646 388.84938049 C408.61707582 389.53577091 395.99395372 388.0198023 383.0856781 379.62818909 C382.42181091 379.21053284 381.75794373 378.79287659 381.07395935 378.36256409 C370.65291796 371.23776565 362.37016223 359.67783636 359.27708435 347.42506409 C358.79656893 344.84022253 358.42865939 342.23484687 358.0856781 339.62818909 C352.4756781 339.62818909 346.8656781 339.62818909 341.0856781 339.62818909 C340.7763031 341.97943909 340.7763031 341.97943909 340.4606781 344.37818909 C337.96487013 357.65520833 329.81285679 369.54848316 319.24583435 377.86256409 C303.79912119 388.00150064 287.46840784 391.07413192 269.2497406 387.97584534 C253.99948359 383.67401739 241.504983 374.2129791 233.1481781 360.75318909 C229.78429832 354.57529449 226.0856781 346.79917826 226.0856781 339.62818909 C220.8056781 339.95818909 215.5256781 340.28818909 210.0856781 340.62818909 C209.5081781 342.60818909 208.9306781 344.58818909 208.3356781 346.62818909 C203.81330955 361.1880098 195.40771997 373.36951376 182.12864685 381.42115784 C172.33760351 386.51149488 163.26075066 389.18785362 152.2106781 389.06568909 C150.76277893 389.05432922 150.76277893 389.05432922 149.28562927 389.04273987 C141.94819919 388.87343832 135.74614024 387.84774783 129.0856781 384.62818909 C128.17044373 384.21568909 127.25520935 383.80318909 126.3122406 383.37818909 C111.74859225 376.19835125 101.91491 364.31063469 96.5856781 349.06568909 C95.49333412 345.5956136 95.0856781 343.32440152 95.0856781 339.62818909 C89.1456781 339.62818909 83.2056781 339.62818909 77.0856781 339.62818909 C76.7556781 342.26818909 76.4256781 344.90818909 76.0856781 347.62818909 C73.53990027 355.85462819 69.44850965 362.93341244 64.0856781 369.62818909 C63.58681091 370.2533844 63.08794373 370.87857971 62.57395935 371.52272034 C57.2441263 377.4701159 50.14709356 381.11638343 43.0856781 384.62818909 C41.69929138 385.31848206 41.69929138 385.31848206 40.28489685 386.02272034 C27.96683438 391.06759976 11.23157796 390.50985132 -1.16822815 385.88209534 C-16.55110164 378.85805211 -28.47933013 367.3505626 -34.9143219 351.62818909 C-37.62919082 343.71163131 -39.68165315 334.9388539 -37.9143219 326.62818909 C-35.48122528 322.68037056 -32.28177943 319.78488114 -28.9143219 316.62818909 C-26.9841367 314.59681104 -25.10848932 312.5169579 -23.2268219 310.44068909 C-19.87373849 306.78492728 -16.48345832 303.17122221 -13.03541565 299.60475159 C-12.3911261 298.93210266 -11.74683655 298.25945374 -11.08302307 297.56642151 C-9.82442617 296.25401514 -8.55788063 294.94917587 -7.2827301 293.65284729 C-6.71256165 293.05560852 -6.14239319 292.45836975 -5.5549469 291.84303284 C-5.04480042 291.31830383 -4.53465393 290.79357483 -4.00904846 290.25294495 C-2.54180385 288.40183503 -2.54180385 288.40183503 -2.9143219 284.62818909 C-4.16644109 282.89543376 -4.16644109 282.89543376 -5.9143219 281.25318909 C-22.801563 262.79345185 -25.87656763 239.00247528 -25.1096344 215.01344299 C-24.36844459 202.16677056 -20.53788513 186.96638884 -13.84417439 175.85115719 C-12.55408366 172.76697925 -12.6668762 170.14262907 -12.66949463 166.80288696 C-12.66723006 166.1169603 -12.66496548 165.43103363 -12.66263229 164.72432131 C-12.65733659 162.42663927 -12.6661671 160.12922687 -12.67481995 157.83155823 C-12.67370705 156.18392856 -12.67164923 154.53629931 -12.66871643 152.88867188 C-12.66399346 149.34081885 -12.66511511 145.793032 -12.67049217 142.24518013 C-12.67809512 136.63561345 -12.6674544 131.02617457 -12.65328979 125.41662598 C-12.61552975 109.46541348 -12.59736875 93.51425872 -12.60890198 77.56300354 C-12.61511492 68.75307901 -12.60355606 59.94336051 -12.57245666 51.13348669 C-12.55378153 45.55663017 -12.55714037 39.98035629 -12.57662427 34.40350926 C-12.58350059 30.9342128 -12.5695598 27.4652331 -12.54967499 23.99599648 C-12.54462299 22.38715219 -12.54812488 20.77825489 -12.56080818 19.16945267 C-12.57689836 16.97234455 -12.56229284 14.77748172 -12.5401001 12.58047485 C-12.53984848 10.73684656 -12.53984848 10.73684656 -12.53959179 8.85597324 C-11.15699096 1.71867603 -6.74652646 0.00323771 0 0 Z " fill="#3D3B41" transform="translate(37.91432189941406,61.37181091308594)"/>
<path d="M0 0 C5.13094998 1.77288922 9.59825885 4.63033784 14.25 7.375 C26.15483273 14.30695492 38.51335082 20.20035162 51 26 C49.44346929 29.74886556 47.12681671 32.08955008 44.24609375 34.9140625 C43.30958984 35.83960938 42.37308594 36.76515625 41.40820312 37.71875 C40.41831227 38.68785102 39.42807386 39.65659713 38.4375 40.625 C36.49549092 42.53065371 34.55765812 44.44035631 32.62109375 46.3515625 C31.7592749 47.19541504 30.89745605 48.03926758 30.00952148 48.90869141 C27.58300628 51.43396528 27.06641545 52.38897788 26.6875 55.875 C26.75946005 59.03418055 26.75946005 59.03418055 28.5625 61.375 C30.97522655 63.17565105 30.97522655 63.17565105 34.125 63.8125 C41.99019245 62.16334674 47.72273714 54.35426837 53.140625 48.7109375 C53.98367187 47.83308594 54.82671875 46.95523438 55.6953125 46.05078125 C57.42543263 44.23865237 59.14389704 42.41533576 60.8515625 40.58203125 C61.68945312 39.71707031 62.52734375 38.85210937 63.390625 37.9609375 C64.13344727 37.17509277 64.87626953 36.38924805 65.64160156 35.57958984 C68 34 68 34 71.08740234 34.19165039 C74.22107832 35.06135711 77.29983762 36.0032774 80.375 37.0625 C81.43460938 37.42472656 82.49421875 37.78695312 83.5859375 38.16015625 C84.38257813 38.43730469 85.17921875 38.71445313 86 39 C84.44346929 42.74886556 82.12681671 45.08955008 79.24609375 47.9140625 C78.30958984 48.83960938 77.37308594 49.76515625 76.40820312 50.71875 C75.41831227 51.68785102 74.42807386 52.65659713 73.4375 53.625 C71.49549092 55.53065371 69.55765812 57.44035631 67.62109375 59.3515625 C66.7592749 60.19541504 65.89745605 61.03926758 65.00952148 61.90869141 C62.58300628 64.43396528 62.06641545 65.38897788 61.6875 68.875 C61.75946005 72.03418055 61.75946005 72.03418055 63.5625 74.375 C67.01094095 76.67396064 68.90301622 76.55928088 73 76 C75.69539292 74.14242513 77.75641057 71.79984206 79.9296875 69.3671875 C81.23257144 67.99041068 82.53597278 66.61412335 83.83984375 65.23828125 C85.86603892 63.05664115 87.88237731 60.86690696 89.88818359 58.66650391 C91.83655269 56.54295772 93.81771834 54.45456293 95.8046875 52.3671875 C96.39248993 51.70065155 96.98029236 51.0341156 97.58590698 50.34738159 C99.33478969 48.52754176 100.75848209 47.16503204 103 46 C106.25714392 46.02282662 108.96213355 46.89097665 112 48 C113.35193794 48.38295715 114.70595412 48.75870006 116.0625 49.125 C117.031875 49.41375 118.00125 49.7025 119 50 C117.49287699 53.55038072 115.42833908 55.79113387 112.68359375 58.4765625 C111.83732422 59.311875 110.99105469 60.1471875 110.11914062 61.0078125 C109.23419922 61.87148437 108.34925781 62.73515625 107.4375 63.625 C105.68402618 65.34414185 103.93261425 67.06539013 102.18359375 68.7890625 C101.40556396 69.54912598 100.62753418 70.30918945 99.82592773 71.09228516 C96.78370044 74.27078015 96.70561158 76.71404381 96.79296875 81.08984375 C96.890437 83.09245913 96.890437 83.09245913 98.0625 85 C100.36173816 86.18670357 102.33329433 86.78412211 104.93554688 86.66235352 C111.7445553 84.4777698 117.47671015 76.56486996 122.18359375 71.45703125 C123.04919922 70.52955078 123.91480469 69.60207031 124.80664062 68.64648438 C126.58029827 66.73588509 128.33003031 64.80282925 130.05664062 62.84960938 C136.44224939 56.12216877 136.44224939 56.12216877 140.88574219 55.77368164 C143.73659501 56.26907177 146.28485296 57.00894317 149 58 C150.12148438 58.29519531 151.24296875 58.59039062 152.3984375 58.89453125 C153.38070313 59.19746094 154.36296875 59.50039062 155.375 59.8125 C164.81764537 62.60524668 174.41035011 64.77623349 184 67 C175.5066348 85.06245606 158.6509969 100.90753327 145.3125 115.6875 C144.83947716 116.21360697 144.36645432 116.73971395 143.87909746 117.28176355 C118.65484504 145.26222587 95.43378983 164.03926752 56.77560687 166.16716409 C45.89722876 166.68801961 35.06081298 166.45448868 24.1875 165.9375 C23.47036976 165.90395275 22.75323953 165.87040549 22.01437807 165.83584166 C5.81089401 165.05692797 -10.34533568 163.81622002 -26.43194103 161.6770277 C-27.37723329 161.55934693 -28.32252554 161.44166616 -29.29646301 161.32041931 C-30.11372266 161.21035522 -30.9309823 161.10029112 -31.77300739 160.98689175 C-34.39947666 161.00235135 -35.8076821 161.58059351 -38 163 C-39.50934217 166.01868434 -39.17510672 168.67297229 -39 172 C-37.27773504 175.24849977 -37.27773504 175.24849977 -34 176 C-32.1453624 176.09659266 -30.28741693 176.13377981 -28.4302721 176.1386652 C-27.26432823 176.14413964 -26.09838436 176.14961409 -24.89710885 176.15525442 C-23.61016159 176.15623253 -22.32321434 176.15721064 -20.99726868 176.15821838 C-19.62111952 176.16278289 -18.24497175 176.16778275 -16.86882561 176.17318195 C-13.07888261 176.18678516 -9.2889486 176.19418772 -5.49898756 176.20060861 C-1.41514681 176.20860298 2.66867517 176.22230406 6.75250244 176.23532104 C13.83080649 176.25709748 20.90911242 176.2752377 27.98743248 176.29092598 C38.2215642 176.31361398 48.45567515 176.34175829 58.68978927 176.37124526 C75.29293955 176.41893429 91.8960983 176.46219492 108.49926758 176.50268555 C124.63013367 176.5420338 140.76099222 176.58345842 156.8918457 176.62768555 C157.88572706 176.63040982 158.87960842 176.63313409 159.90360739 176.63594092 C164.88949131 176.64962028 169.87537511 176.66334058 174.86125886 176.67708123 C216.24082369 176.79106661 257.62040502 176.89759916 299 177 C299 186.24 299 195.48 299 205 C144.89 205 -9.22 205 -168 205 C-161.2983871 196.06451613 -161.2983871 196.06451613 -157.5625 192.5 C-154.02158692 189.04865471 -150.71355558 185.48982612 -147.5078125 181.7265625 C-147.01023437 181.15679687 -146.51265625 180.58703125 -146 180 C-145.38130287 179.21598816 -145.38130287 179.21598816 -144.75010681 178.4161377 C-142.30074744 176.4341843 -140.61757107 176.62169842 -137.49047852 176.61523438 C-136.36243301 176.60512329 -135.23438751 176.59501221 -134.07215881 176.58459473 C-132.24399879 176.58912659 -132.24399879 176.58912659 -130.37890625 176.59375 C-129.12746323 176.58291382 -127.8760202 176.57207764 -126.58665466 176.56091309 C-122.5785434 176.52656057 -118.57072461 176.51042498 -114.5625 176.5 C-109.29270304 176.48628068 -104.02355158 176.45184473 -98.75390625 176.40625 C-97.53715714 176.40927124 -96.32040802 176.41229248 -95.06678772 176.41540527 C-93.93559006 176.40529419 -92.8043924 176.39518311 -91.63891602 176.38476562 C-90.6442482 176.38271118 -89.64958038 176.38065674 -88.62477112 176.37854004 C-85.54154038 175.93388173 -84.16818863 175.22401767 -82 173 C-81.41487445 168.9132388 -81.41487445 168.9132388 -82 165 C-84.10130447 162.37116158 -85.25807946 161.12779274 -88.62236023 160.54830933 C-89.61669571 160.56958893 -90.61103119 160.59086853 -91.63549805 160.61279297 C-92.76735031 160.62535126 -93.89920258 160.63790955 -95.06535339 160.65084839 C-96.28515396 160.6809903 -97.50495453 160.7111322 -98.76171875 160.7421875 C-101.35090218 160.75693844 -103.94009629 160.76990277 -106.52929688 160.78125 C-110.60703515 160.81596586 -114.68359919 160.87190413 -118.76049805 160.96191406 C-122.69860086 161.04630197 -126.63520197 161.0502037 -130.57421875 161.0546875 C-131.78389816 161.09697479 -132.99357758 161.13926208 -134.23991394 161.18283081 C-139.32881492 161.15465205 -142.66626338 161.05346643 -146.7459259 157.83110046 C-149.0411505 155.31829969 -151.06100621 152.79422515 -153 150 C-153.45165527 149.35864609 -153.90331055 148.71729218 -154.36865234 148.0565033 C-165.68228058 130.78894252 -168.8273346 111.26790335 -165.24609375 90.9921875 C-163.63468187 83.40378246 -161.25549137 76.04779249 -158 69 C-153.07883961 69.53685386 -148.36877309 70.2970588 -143.56640625 71.5 C-124.47118113 75.22022651 -103.67423407 74.24302586 -85 69 C-83.90751953 68.69449219 -83.90751953 68.69449219 -82.79296875 68.3828125 C-46.88995718 57.90301453 -20.04813324 30.44518839 0 0 Z " fill="#73CB26" transform="translate(196,179)"/>
<path d="M0 0 C46.86 0 93.72 0 142 0 C142 4.62 142 9.24 142 14 C139.74897461 14.0093457 137.49794922 14.01869141 135.17871094 14.02832031 C127.74260449 14.0620825 120.30677579 14.11762699 112.87089157 14.18390274 C108.36231781 14.22341776 103.85394054 14.25558636 99.34521484 14.27099609 C94.99426964 14.28613637 90.64386447 14.32053453 86.29315948 14.36830902 C84.63302554 14.38315008 82.97281451 14.39104258 81.31261444 14.39188385 C78.98744587 14.39424719 76.66377745 14.42127256 74.33886719 14.45410156 C73.6519429 14.4490712 72.96501862 14.44404083 72.25727844 14.43885803 C69.00808485 14.50987318 67.23156114 14.83229249 64.57366943 16.75726318 C62.82091644 19.25522342 62.49503339 20.41505588 62.48242188 23.4296875 C62.46981323 24.2973877 62.45720459 25.16508789 62.44421387 26.05908203 C62.45231079 26.98833496 62.46040771 27.91758789 62.46875 28.875 C62.4649231 29.83647949 62.46109619 30.79795898 62.45715332 31.78857422 C62.45443398 33.8193466 62.46179671 35.85015399 62.47851562 37.88085938 C62.49992475 40.9890757 62.47871454 44.09498056 62.453125 47.203125 C62.45576827 49.17708843 62.46089324 51.15105043 62.46875 53.125 C62.46065308 54.05425293 62.45255615 54.98350586 62.44421387 55.94091797 C62.45682251 56.80861816 62.46943115 57.67631836 62.48242188 58.5703125 C62.48560425 59.33102051 62.48878662 60.09172852 62.49206543 60.87548828 C63.23993943 64.00358229 64.40143987 65.12243972 67 67 C69.61489622 67.40314149 71.81655668 67.56478453 74.43066406 67.54589844 C75.17251953 67.55623611 75.914375 67.56657379 76.67871094 67.57722473 C79.12457026 67.60666265 81.56960242 67.60815204 84.015625 67.609375 C85.71386291 67.62435606 87.41208624 67.64108306 89.11029053 67.65948486 C93.57532417 67.70317925 98.04016128 67.723162 102.50537109 67.73822021 C107.06359489 67.75778384 111.62160619 67.79975466 116.1796875 67.83984375 C125.11972616 67.91516838 134.05971731 67.96544615 143 68 C143.11747233 70.83976595 143.20241007 73.67457874 143.26953125 76.515625 C143.30566528 77.3092041 143.34179932 78.1027832 143.37902832 78.92041016 C143.51315718 86.51715797 140.6791271 91.65693589 135.89453125 97.42578125 C134.01505608 99.73825738 132.1975369 102.06709609 130.44921875 104.48046875 C111.6088293 130.07639072 85.30246226 150.98339131 53.3125 156.1875 C52.33925781 156.32542969 51.36601563 156.46335938 50.36328125 156.60546875 C47.98958176 156.88278009 47.98958176 156.88278009 46 158 C30.56306097 158.66578574 15.9375113 157.11016427 1 153 C0 152 0 152 -0.12304783 149.50311184 C-0.12212604 148.38313336 -0.12120424 147.26315489 -0.12025452 146.10923767 C-0.12162918 144.82891159 -0.12300385 143.54858551 -0.12442017 142.22946167 C-0.12088055 140.79742409 -0.11724573 139.36538674 -0.11352539 137.93334961 C-0.11324353 136.43568422 -0.11340124 134.9380187 -0.1139679 133.44035339 C-0.11425591 129.36201828 -0.10835864 125.28371233 -0.10139394 121.20538402 C-0.09516095 116.94792372 -0.09455665 112.69046282 -0.09336853 108.43299866 C-0.09025505 100.36526813 -0.08204144 92.29755109 -0.07201904 84.22982651 C-0.05877333 73.33187557 -0.05335813 62.43392097 -0.04751682 51.53596401 C-0.03810156 34.35729924 -0.01818276 17.17866291 0 0 Z " fill="#C9C9C9" transform="translate(43,79)"/>
<path d="M0 0 C13.53 0 27.06 0 41 0 C41.99 1.98 42.98 3.96 44 6 C47.12252306 7.04084102 49.29365831 7.1300472 52.5697279 7.1386652 C53.73567177 7.14413964 54.90161564 7.14961409 56.10289115 7.15525442 C57.38983841 7.15623253 58.67678566 7.15721064 60.00273132 7.15821838 C61.37888048 7.16278289 62.75502825 7.16778275 64.13117439 7.17318195 C67.92111739 7.18678516 71.7110514 7.19418772 75.50101244 7.20060861 C79.58485319 7.20860298 83.66867517 7.22230406 87.75250244 7.23532104 C94.83080649 7.25709748 101.90911242 7.2752377 108.98743248 7.29092598 C119.2215642 7.31361398 129.45567515 7.34175829 139.68978927 7.37124526 C156.29293955 7.41893429 172.8960983 7.46219492 189.49926758 7.50268555 C205.63013367 7.5420338 221.76099222 7.58345842 237.8918457 7.62768555 C238.88572706 7.63040982 239.87960842 7.63313409 240.90360739 7.63594092 C245.88949131 7.64962028 250.87537511 7.66334058 255.86125886 7.67708123 C297.24082369 7.79106661 338.62040502 7.89759916 380 8 C380 17.24 380 26.48 380 36 C225.89 36 71.78 36 -87 36 C-80.2983871 27.06451613 -80.2983871 27.06451613 -76.5625 23.5 C-73.02158692 20.04865471 -69.71355558 16.48982612 -66.5078125 12.7265625 C-66.01023437 12.15679687 -65.51265625 11.58703125 -65 11 C-64.38130287 10.21598816 -64.38130287 10.21598816 -63.75010681 9.4161377 C-61.30074744 7.4341843 -59.61757107 7.62169842 -56.49047852 7.61523438 C-54.79841026 7.60006775 -54.79841026 7.60006775 -53.07215881 7.58459473 C-51.24399879 7.58912659 -51.24399879 7.58912659 -49.37890625 7.59375 C-48.12746323 7.58291382 -46.8760202 7.57207764 -45.58665466 7.56091309 C-41.5785434 7.52656057 -37.57072461 7.51042498 -33.5625 7.5 C-28.29270304 7.48628068 -23.02355158 7.45184473 -17.75390625 7.40625 C-16.53715714 7.40927124 -15.32040802 7.41229248 -14.06678772 7.41540527 C-12.93559006 7.40529419 -11.8043924 7.39518311 -10.63891602 7.38476562 C-9.6442482 7.38271118 -8.64958038 7.38065674 -7.62477112 7.37854004 C-4.53600066 6.9330828 -3.18814607 6.20847122 -1 4 C-0.67 2.68 -0.34 1.36 0 0 Z " fill="#C8C8C8" transform="translate(115,348)"/>
<path d="M0 0 C1.49517511 0.35487025 2.991271 0.70593203 4.48901367 1.04980469 C5.88363375 1.41768462 7.27662006 1.7918097 8.66796875 2.171875 C9.43192459 2.37677551 10.19588043 2.58167603 10.98298645 2.79278564 C12.58261173 3.22357751 14.18146481 3.65724671 15.77954102 4.09375 C18.16381288 4.74354446 20.55132553 5.38016813 22.93945312 6.015625 C30.8125755 8.13432094 38.59294962 10.43199856 46.29296875 13.1171875 C46.97981247 13.35467712 47.66665619 13.59216675 48.37431335 13.83685303 C62.76350967 18.99042688 70.73019255 27.56738803 77.28613281 40.92333984 C84.47082811 56.20954607 84 69.64908155 84 87 C23.61 87 -36.78 87 -99 87 C-97.30002567 83.60005135 -96.16646592 81.90020812 -93.61331177 79.27859497 C-92.91270126 78.5550029 -92.21209076 77.83141083 -91.49024963 77.08589172 C-90.72147995 76.30231796 -89.95271027 75.5187442 -89.16064453 74.71142578 C-87.94553947 73.4621505 -87.94553947 73.4621505 -86.70588684 72.18763733 C-79.243094 64.53008209 -71.73354297 56.91748271 -64.20961189 49.31997871 C-58.65257002 43.7077781 -53.12001241 38.07363162 -47.61802018 32.4074384 C-43.74171485 28.41943842 -39.83882747 24.45870823 -35.91552246 20.51694286 C-33.57516796 18.16409212 -31.25199119 15.79772534 -28.9492836 13.40793228 C-26.37575554 10.7421715 -23.76160756 8.12381853 -21.13330078 5.51220703 C-20.01050972 4.31862831 -20.01050972 4.31862831 -18.86503601 3.10093689 C-12.58570488 -2.98767632 -8.10888867 -2.37776947 0 0 Z " fill="#5DB01E" transform="translate(411,253)"/>
<path d="M0 0 C21.45 0 42.9 0 65 0 C65 6.6 65 13.2 65 20 C43.55 20 22.1 20 0 20 C0 13.4 0 6.8 0 0 Z " fill="#FDFDFD" transform="translate(121,110)"/>
<path d="M0 0 C3.63 0 7.26 0 11 0 C15.875 9.625 15.875 9.625 17 13 C18.84233309 14.08301522 18.84233309 14.08301522 21 15 C23.0189207 16.26576864 25.009611 17.56882599 27 18.87890625 C33.29936275 22.40999436 41.96213678 21.93746195 48.79296875 20.3515625 C57.14505615 17.32150288 62.9890314 12.50579076 67 4.5625 C67.66 3.056875 68.32 1.55125 69 0 C72.63 0 76.26 0 80 0 C75.5904135 12.91378903 69.62697691 22.36613347 57.37109375 28.9921875 C47.26593657 33.2872955 34.89870775 33.97649443 24.5625 30 C13.83378711 24.73852162 5.17369251 17.03719615 1.12890625 5.51953125 C0.5625 3.3125 0.5625 3.3125 0 0 Z " fill="#F3D759" transform="translate(18,401)"/>
<path d="M0 0 C3.63 0 7.26 0 11 0 C11.639375 1.485 12.27875 2.97 12.9375 4.5 C16.40339822 11.40242442 21.65270151 16.77395523 28.75 20 C37.24294649 22.61060631 47.0429985 21.88488897 55 18 C62.51840845 13.84509006 66.44625056 7.66861722 70 0 C73.3 0 76.6 0 80 0 C78.51357077 8.90276231 73.77806079 17.0584331 67 23 C55.88137732 30.66958054 45.42299281 33.3490445 32 32 C20.63615435 29.56093069 11.64687264 22.38215285 5 13 C0 3.04842615 0 3.04842615 0 0 Z " fill="#F4D759" transform="translate(150,401)"/>
<path d="M0 0 C3.3 0 6.6 0 10 0 C10.35191406 0.72445313 10.70382812 1.44890625 11.06640625 2.1953125 C15.51032502 10.8975033 20.23359715 16.58562266 29.421875 20.3046875 C38.56871396 22.77156225 47.66812199 21.26624251 56 17 C62.66944669 13.00347221 65.68114477 6.83222212 69 0 C72.3 0 75.6 0 79 0 C77.90283367 8.68802638 73.48645286 16.50127076 67.05078125 22.4375 C56.2711021 30.65058888 44.40166851 33.63370843 31 32 C20.0049199 29.07884417 10.48945094 22.34809515 4 13 C1.86248695 8.75650065 0 4.79295828 0 0 Z " fill="#F4D859" transform="translate(414,401)"/>
<path d="M0 0 C3.3 0 6.6 0 10 0 C10.35191406 0.72445313 10.70382812 1.44890625 11.06640625 2.1953125 C14.23179869 8.39386166 17.09340418 13.1967882 23 17 C23.63292969 17.41121094 24.26585937 17.82242187 24.91796875 18.24609375 C31.83477346 21.9964813 39.33852971 22.03256441 47 21 C55.68579382 18.193973 61.80797766 13.71151168 66.2421875 5.77734375 C67.21389768 3.87748281 68.11440459 1.94149763 69 0 C72.3 0 75.6 0 79 0 C77.17502521 11.49734117 71.32562684 19.1402841 62 26 C52.1776665 31.89047679 42.35923807 33.2721908 31 32 C19.67736723 29.0115463 9.87642456 22.02351005 3.77734375 11.98828125 C1.6773986 8.03677156 0.450359 4.50359004 0 0 Z " fill="#F5D859" transform="translate(282,401)"/>
<path d="M0 0 C7.26 0 14.52 0 22 0 C17.57406404 4.42593596 16.58190236 5.16761913 10.6875 5.375 C9.74261719 5.42398437 8.79773437 5.47296875 7.82421875 5.5234375 C5 5 5 5 0 0 Z " fill="#E3AD29" transform="translate(47,401)"/>
<path d="M0 0 C6.93 0 13.86 0 21 0 C21 0.66 21 1.32 21 2 C17.02541217 5.56342357 12.7842159 5.42300396 7.71875 5.59375 C5 5 5 5 0 0 Z " fill="#E4AD29" transform="translate(311,401)"/>
<path d="M0 0 C6.93 0 13.86 0 21 0 C16.7132151 4.2867849 15.84032514 5.1483 10.1875 5.25 C6.00637703 5.21369502 3.26959926 4.83365269 0 2 C0 1.34 0 0.68 0 0 Z " fill="#E5AE29" transform="translate(180,401)"/>
<path d="M0 0 C6.93 0 13.86 0 21 0 C18 4 18 4 15 5 C12.6953125 5.2734375 12.6953125 5.2734375 10.125 5.375 C8.86042969 5.44847656 8.86042969 5.44847656 7.5703125 5.5234375 C5 5 5 5 0 0 Z " fill="#E6AF29" transform="translate(443,401)"/>
</svg>
