<?xml version="1.0" encoding="UTF-8"?>
<svg version="1.1" xmlns="http://www.w3.org/2000/svg" width="512" height="512">
<path d="M0 0 C4.56040587 3.10495719 7.75603968 7.70699379 11.08447266 12.03222656 C12.44008519 13.77098043 13.82994119 15.47693837 15.23046875 17.1796875 C56.84488229 67.94288756 82.95769398 129.54605506 95.375 193.6875 C95.67567383 193.1706665 95.97634766 192.65383301 96.28613281 192.12133789 C103.43608684 179.88454015 110.94290183 168.08120106 119.375 156.6875 C119.81054199 156.09888184 120.24608398 155.51026367 120.69482422 154.90380859 C136.55131988 133.62159931 154.82278941 112.55818417 175.375 95.6875 C175.90077637 95.24792969 176.42655273 94.80835937 176.96826172 94.35546875 C193.10726304 80.86927493 209.96763019 68.8519033 228.04101562 58.08544922 C230.1002079 56.85208782 232.13715628 55.58948623 234.171875 54.31640625 C241.23872009 50.11518375 247.12953554 48.13760067 255.375 49.6875 C261.11623768 52.35307464 264.08157552 56.53053501 266.42626953 62.25341797 C267.57056476 65.42324727 268.64265406 68.6084886 269.6875 71.8125 C270.07776367 73.00391602 270.46802734 74.19533203 270.87011719 75.42285156 C278.26569042 98.45477964 283.13103979 121.75323982 286.375 145.6875 C286.50777344 146.64237305 286.64054687 147.59724609 286.77734375 148.58105469 C300.15543254 249.78103535 262.18689995 357.72345425 196.375 460.6875 C195.95814941 461.24856445 195.54129883 461.80962891 195.11181641 462.38769531 C176.12741532 487.81129234 176.12741532 487.81129234 168.375 491.6875 C168.95276278 491.69081015 169.53052557 491.69412029 170.12579632 491.69753075 C184.18929983 491.77877976 198.25269737 491.87087843 212.31605053 491.97502708 C219.1170089 492.02513162 225.91795534 492.07157473 232.71899414 492.109375 C239.28075632 492.14585567 245.84239395 492.19257068 252.40404701 492.24556351 C254.90907827 492.2641147 257.41413746 492.27921996 259.91921043 492.29084396 C263.42438512 492.30769368 266.92926093 492.33672643 270.43432617 492.36865234 C271.47298325 492.37081253 272.51164032 492.37297272 273.58177185 492.37519836 C274.53944458 492.38636185 275.49711731 492.39752533 276.48381042 492.4090271 C277.72684826 492.41732324 277.72684826 492.41732324 278.99499798 492.42578697 C282.43531054 492.80409531 285.26002298 493.9954453 288.1875 495.8125 C289.76683767 498.30619107 289.78573594 500.65252199 289.87109375 503.5546875 C289.12506877 506.76200751 287.68612111 508.36228824 285.375 510.6875 C282.30517292 511.31424582 282.30517292 511.31424582 278.61579895 511.3167057 C277.93365574 511.32397291 277.25151253 511.33124011 276.54869831 511.33872753 C274.25171804 511.35704656 271.95639325 511.33959241 269.65942383 511.32241821 C268.00064392 511.32817674 266.34187037 511.33611605 264.68311024 511.34605443 C260.11626475 511.36698816 255.54993955 511.35658314 250.98309183 511.34112334 C246.06139449 511.32984034 241.1397885 511.34725734 236.21810913 511.36102295 C226.57314975 511.38329257 216.92838456 511.3784376 207.28341746 511.36395974 C199.44695484 511.35268213 191.61054677 511.35113019 183.77407837 511.35657883 C182.10308082 511.35772807 182.10308082 511.35772807 180.39832574 511.35890054 C178.13548079 511.36049912 175.87263585 511.36212018 173.60979092 511.3637635 C152.37547232 511.37803191 131.14126153 511.36161113 109.90696061 511.33476166 C91.67457338 511.31242192 73.4423453 511.31630174 55.20996094 511.33935547 C34.05325415 511.36609418 12.89664193 511.37665851 -8.26007938 511.36129415 C-10.5147457 511.35970135 -12.76941203 511.3581295 -15.02407837 511.35657883 C-16.68822266 511.35542176 -16.68822266 511.35542176 -18.38598603 511.35424132 C-26.21587366 511.34991853 -34.04570147 511.35722333 -41.87557983 511.36897659 C-51.41356417 511.38297871 -60.95134269 511.3792499 -70.48930335 511.35257287 C-75.35868268 511.33940383 -80.22771846 511.33433471 -85.09709549 511.35081863 C-89.55073765 511.36566754 -94.00371636 511.35761431 -98.45729792 511.33093087 C-100.07230617 511.3253243 -101.68736994 511.32823483 -103.30234277 511.34030981 C-105.49096852 511.35542448 -107.67729516 511.3400209 -109.86579895 511.3167057 C-111.69203907 511.31548806 -111.69203907 511.31548806 -113.55517292 511.31424582 C-116.625 510.6875 -116.625 510.6875 -119.01424694 508.27927816 C-121.48438405 504.30471026 -121.21205886 502.31058854 -120.625 497.6875 C-118.29754432 494.44568672 -116.47186579 493.35650275 -112.625 492.6875 C-110.00602981 492.60433822 -107.41498247 492.57115548 -104.796875 492.58984375 C-104.04786926 492.5912587 -103.29886353 492.59267365 -102.52716064 492.59413147 C-100.14306588 492.59971341 -97.75906622 492.61226255 -95.375 492.625 C-93.75520969 492.63001734 -92.13541791 492.63457984 -90.515625 492.63867188 C-86.55204688 492.64967692 -82.58853955 492.66692909 -78.625 492.6875 C-79.2540625 491.59695313 -79.883125 490.50640625 -80.53125 489.3828125 C-115.81536679 427.54374045 -121.06135249 354.23420542 -120.94067383 284.3659668 C-120.93602323 281.44979506 -120.94307263 278.53403869 -120.96118164 275.61791992 C-121.1213322 249.50639774 -119.51127894 223.81625391 -114.875 198.0625 C-114.74838989 197.34389801 -114.62177979 196.62529602 -114.49133301 195.88491821 C-102.41611053 127.65099137 -73.39083185 63.71185601 -28.625 10.6875 C-27.44164062 9.28177734 -27.44164062 9.28177734 -26.234375 7.84765625 C-25.45578125 6.94917969 -24.6771875 6.05070313 -23.875 5.125 C-22.83085937 3.91650391 -22.83085937 3.91650391 -21.765625 2.68359375 C-15.82616493 -2.85484438 -7.28583461 -2.6379746 0 0 Z " fill="#000101" transform="translate(171.625,1.3125)"/>
<path d="M0 0 C0.66 0 1.32 0 2 0 C4.92586431 9.08157884 7.39324516 18.19506665 9.5 27.5 C9.64963196 28.15942596 9.79926392 28.81885193 9.95343018 29.4982605 C15.99968102 56.3680307 18.23234693 83.20166394 18.25 110.6875 C18.25100708 111.77615356 18.25201416 112.86480713 18.25305176 113.9864502 C18.24271956 130.5124971 17.73111424 146.66528078 15 163 C14.85014648 163.91942383 14.70029297 164.83884766 14.54589844 165.78613281 C13.66332624 171.06844921 12.65136354 176.31105692 11.52392578 181.54638672 C11.02073238 183.90290756 10.55430693 186.26450308 10.08984375 188.62890625 C-4.48867003 258.98039954 -40.99310435 339.39469593 -90 392 C-91.04414063 393.12535156 -91.04414063 393.12535156 -92.109375 394.2734375 C-96.36129944 398.69605964 -100.86722659 402.65581876 -105.6875 406.4375 C-106.22213867 406.86289062 -106.75677734 407.28828125 -107.30761719 407.7265625 C-113.70914561 412.61975306 -119.34803453 413.29286351 -127.1171875 413.1953125 C-127.97434357 413.1924826 -128.83149963 413.18965271 -129.71463013 413.18673706 C-132.43489932 413.17559999 -135.15483141 413.1505076 -137.875 413.125 C-139.72655772 413.11496182 -141.57812064 413.10583744 -143.4296875 413.09765625 C-147.9532536 413.07568188 -152.47656977 413.041197 -157 413 C-155.15057182 407.35658371 -153.21662504 401.75874454 -151.12890625 396.19921875 C-150.71816109 395.10050697 -150.71816109 395.10050697 -150.29911804 393.979599 C-149.38901038 391.54810696 -148.47599168 389.11772258 -147.5625 386.6875 C-147.24075806 385.83009216 -146.91901611 384.97268433 -146.58752441 384.08929443 C-140.05231065 366.68151487 -133.37678184 349.32836877 -126.68774414 331.97924805 C-120.91486329 317.00254998 -115.19023376 302.00828016 -109.5 287 C-102.63263686 268.88933433 -95.70418529 250.8030349 -88.73974609 232.72949219 C-82.61644341 216.83597215 -76.53913536 200.92568338 -70.5 185 C-64.0466038 167.98187762 -57.54425575 150.98338846 -51 134 C-43.62549398 114.86116256 -36.31082782 95.70045371 -29.03686523 76.52319336 C-22.65882296 59.71151264 -16.23348733 42.91819855 -9.78466797 26.13354492 C-4.78189924 13.10798602 -4.78189924 13.10798602 0 0 Z " fill="#3E50B4" transform="translate(424,82)"/>
<path d="M0 0 C1.46484455 4.39453364 -0.57140095 7.44037673 -2.30078125 11.51171875 C-3.05383312 13.33810876 -3.80452889 15.16547149 -4.55322266 16.99365234 C-4.95414124 17.97009705 -5.35505981 18.94654175 -5.76812744 19.95257568 C-7.8784557 25.17313654 -9.86584972 30.4395305 -11.85546875 35.70703125 C-12.27934372 36.82682877 -12.70321869 37.94662628 -13.13993835 39.10035706 C-14.02848286 41.44924211 -14.91632004 43.79839483 -15.80349731 46.14779663 C-17.97260997 51.8913942 -20.14714272 57.63293776 -22.32159996 63.37451363 C-22.82146241 64.69444943 -23.32126004 66.01440978 -23.82099342 67.33439445 C-29.04325146 81.12828155 -34.29765058 94.90981334 -39.5625 108.6875 C-39.99200958 109.81172363 -40.42151917 110.93594727 -40.86404419 112.09423828 C-43.4714623 118.91898053 -46.07969733 125.74341031 -48.68817139 132.56774902 C-52.66860294 142.98209732 -56.6471618 153.39716092 -60.625 163.8125 C-61.06044128 164.95254486 -61.49588257 166.09258972 -61.94451904 167.2671814 C-68.20959607 183.67152691 -74.45498394 200.08325881 -80.6875 216.5 C-86.72587643 232.4051246 -92.78579502 248.30176374 -98.875 264.1875 C-99.4228717 265.61683365 -99.4228717 265.61683365 -99.98181152 267.07504272 C-100.34842896 268.03149689 -100.71504639 268.98795105 -101.09277344 269.97338867 C-106.88418097 285.0826752 -112.66507533 300.1959505 -118.4375 315.3125 C-119.0942421 317.03228058 -119.0942421 317.03228058 -119.76425171 318.7868042 C-125.847322 334.7185415 -131.91352424 350.65662631 -137.96737671 366.5994873 C-141.30949334 375.40045294 -144.65376915 384.20059785 -148 393 C-148.30073425 393.79092041 -148.60146851 394.58184082 -148.91131592 395.39672852 C-150.64457724 399.95376806 -152.38285525 404.5088492 -154.125 409.0625 C-154.52098389 410.10317627 -154.91696777 411.14385254 -155.32495117 412.21606445 C-155.67404541 413.12573975 -156.02313965 414.03541504 -156.3828125 414.97265625 C-156.67559082 415.73843994 -156.96836914 416.50422363 -157.27001953 417.29321289 C-158 419 -158 419 -159 420 C-160.4887186 420.08669432 -161.981445 420.10703494 -163.47265625 420.09765625 C-164.37177734 420.09443359 -165.27089844 420.09121094 -166.19726562 420.08789062 C-167.14279297 420.07951172 -168.08832031 420.07113281 -169.0625 420.0625 C-170.01189453 420.05798828 -170.96128906 420.05347656 -171.93945312 420.04882812 C-174.29303065 420.0370011 -176.64648477 420.02052025 -179 420 C-178.52691406 419.20980469 -178.05382812 418.41960937 -177.56640625 417.60546875 C-175.31684169 413.76849216 -173.13637398 409.90093066 -171 406 C-170.47092041 405.03586182 -170.47092041 405.03586182 -169.93115234 404.05224609 C-157.1310046 380.19334517 -149.194243 352.62637407 -145 326 C-144.82033691 324.90445801 -144.64067383 323.80891602 -144.45556641 322.68017578 C-143.21952547 315.13161244 -142.05244747 307.5763743 -141 300 C-140.835 298.84556396 -140.67 297.69112793 -140.5 296.50170898 C-138.87135377 284.43682824 -138.08083472 272.33724881 -137.375 260.1875 C-137.3092981 259.07281342 -137.24359619 257.95812683 -137.17590332 256.80966187 C-136.16772364 239.30719735 -135.72302801 221.84315626 -135.75 204.3125 C-135.75086609 203.25598236 -135.75173218 202.19946472 -135.75262451 201.1109314 C-135.78160508 187.51997679 -135.88257225 173.8917979 -137.40991211 160.37133789 C-138.71069036 148.43275216 -131.84864154 138.87442572 -126 129 C-125.53561523 128.19949219 -125.07123047 127.39898437 -124.59277344 126.57421875 C-102.97958485 89.38015597 -73.89732459 54.57081351 -40 28 C-39.04351562 27.236875 -38.08703125 26.47375 -37.1015625 25.6875 C-25.27289363 16.39141766 -12.81892131 7.87119052 0 0 Z " fill="#0276BA" transform="translate(408,75)"/>
<path d="M0 0 C3.61563781 0.44140641 6.04143427 1.41434273 9.01171875 3.484375 C9.75993896 4.00056396 10.50815918 4.51675293 11.27905273 5.04858398 C12.07384033 5.61005127 12.86862793 6.17151855 13.6875 6.75 C14.52547119 7.33273682 15.36344238 7.91547363 16.22680664 8.51586914 C22.5890609 12.95780339 28.88493887 17.49184106 35.16137695 22.05395508 C43.16694215 27.86931027 51.28024109 33.52761594 59.39746094 39.18554688 C63.93453311 42.3487289 68.46744277 45.51785353 73 48.6875 C73.84288574 49.27587646 74.68577148 49.86425293 75.55419922 50.47045898 C76.34068848 51.02032471 77.12717773 51.57019043 77.9375 52.13671875 C78.62714844 52.61842529 79.31679687 53.10013184 80.02734375 53.59643555 C82.04419535 55.03144543 84.02610048 56.50660371 86 58 C83.48209427 83.94537639 71.77353756 126.99490144 51.90698242 144.88476562 C45.97182968 149.56402327 41.23503093 151.24783883 33.59863281 151.2746582 C32.87108795 151.27976913 32.14354309 151.28488007 31.39395142 151.29014587 C28.99692474 151.3040059 26.60018691 151.30308725 24.203125 151.30078125 C22.52789199 151.30467134 20.85265996 151.30900666 19.1774292 151.31376648 C15.66708174 151.32122185 12.15683486 151.32094324 8.64648438 151.31567383 C4.16670501 151.30989281 -0.31265906 151.3267802 -4.79236984 151.3500185 C-8.25325901 151.36481602 -11.7140497 151.36561917 -15.1749649 151.36250877 C-16.82544016 151.36301939 -18.47592131 151.3682079 -20.12636566 151.37832069 C-41.47225364 151.49302595 -41.47225364 151.49302595 -49.1953125 144.21484375 C-65.15716328 124.62529961 -74.64519667 95.40376867 -80 71 C-80.27972656 69.73027344 -80.55945313 68.46054687 -80.84765625 67.15234375 C-81.02167969 66.02957031 -81.19570312 64.90679687 -81.375 63.75 C-81.52710937 62.79609375 -81.67921875 61.8421875 -81.8359375 60.859375 C-80.39793928 55.94061472 -76.08617039 53.80581123 -72 51 C-71.2270459 50.44747559 -70.4540918 49.89495117 -69.65771484 49.32568359 C-67.28546276 47.63422131 -64.89545627 45.97091108 -62.5 44.3125 C-60.73287058 43.08232185 -58.96594686 41.85184817 -57.19921875 40.62109375 C-56.32442871 40.01249512 -55.44963867 39.40389648 -54.54833984 38.77685547 C-50.79238333 36.15797719 -47.05127037 33.51833168 -43.3125 30.875 C-42.62349609 30.38813721 -41.93449219 29.90127441 -41.22460938 29.3996582 C-39.84187009 28.42248998 -38.45921982 27.44519578 -37.07666016 26.46777344 C-34.26121879 24.47783299 -31.44450787 22.48969399 -28.62768555 20.50170898 C-27.22147251 19.50921141 -25.81538304 18.51653874 -24.40942383 17.52368164 C-20.67094009 14.8838046 -16.93049112 12.24676435 -13.1875 9.61328125 C-12.40310547 9.06091797 -11.61871094 8.50855469 -10.81054688 7.93945312 C-9.29678592 6.87355044 -7.78248266 5.80841739 -6.26757812 4.74414062 C-2.99153112 2.546919 -2.99153112 2.546919 0 0 Z " fill="#FEDFB1" transform="translate(160,344)"/>
<path d="M0 0 C2.39252181 0.88407725 4.17714938 2.0291662 6.25512695 3.50952148 C7.05716553 4.07622559 7.8592041 4.64292969 8.68554688 5.22680664 C9.53995361 5.83959473 10.39436035 6.45238281 11.2746582 7.08374023 C12.16451416 7.7145752 13.05437012 8.34541016 13.97119141 8.99536133 C15.80194535 10.2937013 17.63096226 11.59449402 19.45825195 12.89770508 C22.53174701 15.08808408 25.61586207 17.26304329 28.70166016 19.43603516 C30.78346944 20.90244681 32.86335302 22.37154874 34.94262695 23.84155273 C39.15597043 26.82024231 43.37139567 29.79597572 47.5871582 32.77124023 C51.80292074 35.74650475 56.01834598 38.72223816 60.23168945 41.70092773 C60.88057632 42.15768387 61.5294632 42.61444 62.19801331 43.08503723 C63.58557421 44.06896713 64.96696596 45.06171193 66.33930969 46.0667572 C70.19771713 48.86472405 74.05673254 51.34695196 78.2644043 53.59033203 C91.55961778 61.04753308 91.55961778 61.04753308 94.14620972 67.35290527 C95.61318275 74.44539553 94.96042798 81.54407527 94.3996582 88.70874023 C94.30762525 90.81056517 94.22489011 92.91281853 94.15161133 95.01538086 C93.94891385 100.22027054 93.63197096 105.41089247 93.28448486 110.60784912 C92.94724064 116.01429234 92.7284886 121.42549902 92.50512695 126.83764648 C92.44147697 128.33786598 92.44147697 128.33786598 92.37654114 129.86839294 C92.27893185 132.16929631 92.18245354 134.47024009 92.0871582 136.77124023 C87.68934056 135.11723288 84.24271321 132.85071927 80.5246582 130.02124023 C74.49431997 125.51549365 68.38863443 121.1369742 62.2121582 116.83374023 C60.93912842 115.945979 60.93912842 115.945979 59.64038086 115.0402832 C57.93997882 113.85456596 56.23945931 112.66901714 54.53881836 111.48364258 C50.81675596 108.8839069 47.10741288 106.26632354 43.3996582 103.64624023 C42.71234619 103.16123047 42.02503418 102.6762207 41.31689453 102.17651367 C37.78633206 99.68396068 34.26140027 97.18385068 30.7434082 94.67358398 C27.21057179 92.15499307 23.66177076 89.66056226 20.10083008 87.18188477 C18.77591319 86.25373615 17.45668954 85.31739784 16.14379883 84.37231445 C7.20518958 77.62451393 7.20518958 77.62451393 -3.51831055 76.04077148 C-8.64392688 77.60437712 -12.63580427 80.62055846 -16.9128418 83.77124023 C-18.25559724 84.74006806 -19.59942141 85.70741573 -20.9440918 86.67358398 C-23.21178082 88.30645134 -25.47666201 89.94274338 -27.73510742 91.58837891 C-33.22673806 95.58636311 -38.79105134 99.45890765 -44.4128418 103.27124023 C-50.62893937 107.49113968 -56.7734791 111.79060447 -62.8503418 116.20874023 C-69.51952477 121.05695537 -76.22727438 125.84581238 -82.9753418 130.58374023 C-83.8511792 131.20112061 -84.7270166 131.81850098 -85.62939453 132.45458984 C-86.83897827 133.30162476 -86.83897827 133.30162476 -88.07299805 134.16577148 C-89.15013062 134.92144409 -89.15013062 134.92144409 -90.24902344 135.69238281 C-91.9128418 136.77124023 -91.9128418 136.77124023 -92.9128418 136.77124023 C-93.56013762 128.2729003 -94.10217106 119.77523603 -94.5241394 111.26300049 C-94.73500323 107.02474821 -94.97303607 102.79134108 -95.26538086 98.55786133 C-95.562462 94.19007563 -95.7713951 89.8250163 -95.92651367 85.44998169 C-96.00012063 83.76152118 -96.10221446 82.07403763 -96.23413086 80.38912964 C-97.21587257 67.47244779 -97.21587257 67.47244779 -93.42025757 63.02059937 C-89.58368137 59.68209102 -85.29917412 57.20165266 -80.82702637 54.81335449 C-78.49296871 53.54265427 -76.36732499 52.06916061 -74.22924805 50.49389648 C-73.60171631 50.04997559 -72.97418457 49.60605469 -72.32763672 49.14868164 C-71.41075073 48.49778564 -71.41075073 48.49778564 -70.4753418 47.83374023 C-69.04566345 46.82200855 -67.61597568 45.81029018 -66.1862793 44.79858398 C-65.47826172 44.29697754 -64.77024414 43.79537109 -64.04077148 43.27856445 C-60.56269639 40.81486142 -57.0818933 38.35502745 -53.6003418 35.89624023 C-52.90690674 35.40647705 -52.21347168 34.91671387 -51.49902344 34.41210938 C-45.14053387 29.92491755 -38.76410631 25.46351634 -32.38574219 21.00463867 C-26.06449503 16.58363619 -19.7589519 12.1408391 -13.4675293 7.67749023 C-12.20278937 6.78205436 -10.9350608 5.89081876 -9.66381836 5.00463867 C-8.51181649 4.19316161 -7.37247671 3.36335175 -6.24780273 2.5144043 C-2.41367734 -0.28865548 -2.41367734 -0.28865548 0 0 Z " fill="#FDDEB0" transform="translate(162.912841796875,199.228759765625)"/>
<path d="M0 0 C4.18951632 1.57722967 6.63740625 4.66565353 9.4375 8 C10.21867187 8.92389526 10.21867187 8.92389526 11.015625 9.86645508 C26.63491876 28.62405264 39.58054763 49.4718498 51 71 C51.34482422 71.6496875 51.68964844 72.299375 52.04492188 72.96875 C64.60382749 96.86249635 74.28975848 122.06428944 81.5 148.0625 C81.86496582 149.37263062 81.86496582 149.37263062 82.23730469 150.70922852 C83.6827419 156.14016868 84.50381616 161.40101639 85 167 C76.13745588 161.56379583 67.68557644 155.6101239 59.22167969 149.58056641 C55.6551677 147.04324788 52.07722546 144.52217978 48.5 142 C44.20159699 138.96700078 39.90413686 135.93268466 35.609375 132.89453125 C31.40988482 129.92451401 27.20687229 126.95955166 23 124 C22.3591748 123.54898926 21.71834961 123.09797852 21.05810547 122.63330078 C19.2701825 121.37723716 17.47945477 120.12530273 15.6875 118.875 C14.17736328 117.81925781 14.17736328 117.81925781 12.63671875 116.7421875 C7.02146913 113.03196331 2.74426806 111.80250922 -4 113 C-8.02019569 114.84049584 -11.43836658 117.39811452 -15 120 C-16.29102177 120.90772337 -17.58412229 121.81249492 -18.87890625 122.71484375 C-22.52632438 125.26322095 -26.15439124 127.83779899 -29.77832031 130.41943359 C-33.34483212 132.956752 -36.92275222 135.47785213 -40.5 138 C-44.76414179 141.00830811 -49.02704938 144.01831032 -53.28515625 147.03515625 C-62.8010301 153.77263324 -72.37505775 160.41928578 -82 167 C-86.38613874 158.22772251 -75.7726257 135.53916798 -72.8125 126.5625 C-59.44185372 87.01254479 -39.81524215 49.85576273 -14 17 C-13.30261719 16.11054687 -12.60523438 15.22109375 -11.88671875 14.3046875 C-8.03152039 9.44031292 -4.07261864 4.68351143 0 0 Z " fill="#FDDEB1" transform="translate(161,18)"/>
<path d="M0 0 C4.54364329 1.51454776 8.04379441 4.07052447 11.8125 6.9375 C17.09418589 10.88410393 22.42617226 14.72490432 27.875 18.4375 C35.59440039 23.70543105 43.23334615 29.08123204 50.85888672 34.48388672 C54.40297289 36.99343918 57.95168268 39.49643548 61.5 42 C65.91504174 45.11580362 70.32942211 48.23253559 74.7421875 51.3515625 C75.51755859 51.89941406 76.29292969 52.44726562 77.09179688 53.01171875 C78.58030598 54.06347968 80.06859784 55.11554816 81.55664062 56.16796875 C82.22630859 56.64105469 82.89597656 57.11414063 83.5859375 57.6015625 C84.1742334 58.01744629 84.7625293 58.43333008 85.36865234 58.86181641 C86.8980166 59.92884666 88.44838602 60.96559068 90 62 C90.60009766 63.96435547 90.60009766 63.96435547 90.9140625 66.3671875 C91.03483154 67.24802002 91.15560059 68.12885254 91.2800293 69.03637695 C91.39386963 69.97312256 91.50770996 70.90986816 91.625 71.875 C91.74979736 72.82141357 91.87459473 73.76782715 92.00317383 74.74291992 C92.87142454 81.47978491 93.59281228 88.21821826 94 95 C88.95533613 93.38096893 85.1374349 90.36962467 80.9375 87.25 C79.32387924 86.06769557 77.70925923 84.88675395 76.09375 83.70703125 C74.83884766 82.78978271 74.83884766 82.78978271 73.55859375 81.85400391 C69.3869495 78.83115406 65.16380964 75.88320913 60.9375 72.9375 C59.25256476 71.76177522 57.56766864 70.58599438 55.8828125 69.41015625 C54.65546387 68.55381592 54.65546387 68.55381592 53.40332031 67.68017578 C47.62682744 63.64179464 41.87571597 59.56729612 36.12060547 55.49853516 C33.88459648 53.9184496 31.64751444 52.33989322 29.41015625 50.76171875 C28.65114014 50.22627441 27.89212402 49.69083008 27.11010742 49.13916016 C25.67155177 48.1243931 24.23291865 47.10973584 22.79418945 46.09521484 C22.13765381 45.63195801 21.48111816 45.16870117 20.8046875 44.69140625 C20.17014648 44.2442627 19.53560547 43.79711914 18.88183594 43.33642578 C17.61407184 42.43609616 16.3517699 41.52803134 15.09472656 40.61279297 C8.80491166 36.04005406 4.79965018 33.90161612 -3 35 C-9.28354679 37.71581868 -14.84378514 41.8773273 -20.3125 45.9375 C-21.8896687 47.09245286 -23.46783096 48.24604991 -25.046875 49.3984375 C-25.85833984 49.99108398 -26.66980469 50.58373047 -27.50585938 51.19433594 C-31.65699282 54.19960052 -35.85863826 57.13166154 -40.0625 60.0625 C-41.74741935 61.23824755 -43.43231537 62.41402853 -45.1171875 63.58984375 C-45.93541992 64.1607373 -46.75365234 64.73163086 -47.59667969 65.31982422 C-51.3017464 67.91005879 -54.99533649 70.5164202 -58.6875 73.125 C-59.36997803 73.60654541 -60.05245605 74.08809082 -60.75561523 74.58422852 C-64.37350038 77.13830713 -67.98496972 79.7010237 -71.58984375 82.2734375 C-72.34885986 82.81339355 -73.10787598 83.35334961 -73.88989258 83.90966797 C-75.33044432 84.93465476 -76.76922534 85.96213701 -78.20581055 86.99267578 C-82.34710251 89.93513258 -86.54908773 92.54910805 -91 95 C-91.28151632 66.40654398 -91.28151632 66.40654398 -86.56152344 60.06835938 C-82.90494253 56.71183745 -78.62917768 54.47408731 -74.23925781 52.21582031 C-70.51588485 50.19418955 -67.16693997 47.68138992 -63.75 45.1875 C-62.32979627 44.17863276 -60.9078857 43.17216446 -59.484375 42.16796875 C-58.75798828 41.65411621 -58.03160156 41.14026367 -57.28320312 40.61083984 C-53.19742386 37.72825092 -49.09817946 34.86491829 -45 32 C-36.69916781 26.19521669 -28.41762432 20.36379138 -20.14697266 14.51611328 C-17.83281011 12.88193664 -15.51622536 11.25123517 -13.19921875 9.62109375 C-12.41313232 9.06760254 -11.6270459 8.51411133 -10.81713867 7.94384766 C-9.30090325 6.87636424 -7.78415882 5.80960337 -6.2668457 4.74365234 C-2.99118738 2.54664649 -2.99118738 2.54664649 0 0 Z " fill="#00BAD1" transform="translate(161,147)"/>
<path d="M0 0 C3.11942616 1.98820569 6.10907448 4.09726765 9.05078125 6.3359375 C15.08111949 10.84168408 21.18680503 15.22020354 27.36328125 19.5234375 C28.21196777 20.11527832 29.0606543 20.70711914 29.93505859 21.31689453 C31.63546064 22.50261178 33.33598015 23.68816059 35.03662109 24.87353516 C38.75868179 27.47326964 42.46820669 30.09060162 46.17578125 32.7109375 C47.21001221 33.44171509 47.21001221 33.44171509 48.26513672 34.18725586 C49.64737856 35.16411153 51.02954044 36.14108036 52.41162109 37.11816406 C55.22673525 39.10787325 58.04271974 41.09633736 60.86083984 43.08178711 C62.2695405 44.07777113 63.6748778 45.07853079 65.07666016 46.08422852 C68.76340783 48.71976766 72.48425544 51.23174522 76.3359375 53.62109375 C87.71827068 60.81756839 87.71827068 60.81756839 89.62109375 65.1875 C89.6845151 68.18642407 89.16537276 70.66032283 88.48828125 73.5859375 C88.20002324 75.85876105 87.96843772 78.13421485 87.7355957 80.41333008 C87.37939688 83.81251473 86.93320964 87.19733111 86.48828125 90.5859375 C83.50243447 89.98566044 81.47853079 89.09443214 79.01171875 87.3203125 C78.02002686 86.61370483 78.02002686 86.61370483 77.00830078 85.89282227 C76.30044434 85.37905029 75.59258789 84.86527832 74.86328125 84.3359375 C74.11546387 83.800896 73.36764648 83.26585449 72.59716797 82.71459961 C68.73164506 79.94413367 64.8843251 77.14858795 61.03515625 74.35546875 C59.56126602 73.28636443 58.08730746 72.21735432 56.61328125 71.1484375 C55.87279541 70.6107373 55.13230957 70.07303711 54.36938477 69.51904297 C48.12865241 65.00561419 41.78165047 60.66019668 35.4074707 56.33813477 C30.29183436 52.85687349 25.2698691 49.27298434 20.30078125 45.5859375 C9.64584959 37.11344563 9.64584959 37.11344563 -3.2421875 34.203125 C-12.40703145 35.74900229 -21.24032574 44.65253579 -28.60546875 50.02734375 C-33.49157688 53.58540769 -38.43019903 57.06436163 -43.38671875 60.5234375 C-44.21429688 61.10125977 -45.041875 61.67908203 -45.89453125 62.27441406 C-47.58044309 63.45076818 -49.26664233 64.6267105 -50.953125 65.80224609 C-55.26701815 68.80962237 -59.57746195 71.82192252 -63.88671875 74.8359375 C-64.71252441 75.41351807 -65.53833008 75.99109863 -66.38916016 76.58618164 C-73.4631915 81.53998313 -80.49843339 86.54659008 -87.51171875 91.5859375 C-89.51203328 88.5854657 -89.82373854 87.55927317 -90.14453125 84.12890625 C-90.22832031 83.26330078 -90.31210938 82.39769531 -90.3984375 81.50585938 C-90.47707031 80.60416016 -90.55570312 79.70246094 -90.63671875 78.7734375 C-90.72308594 77.88333984 -90.80945313 76.99324219 -90.8984375 76.07617188 C-91.05992894 74.34718814 -91.20234812 72.61629489 -91.32373047 70.8840332 C-91.48953111 68.414705 -91.48953111 68.414705 -92.08984375 65.328125 C-91.24920388 61.34076563 -88.98950875 60.26834809 -85.67211914 58.09790039 C-84.83543701 57.57832764 -83.99875488 57.05875488 -83.13671875 56.5234375 C-81.37608996 55.37732272 -79.61701012 54.22882548 -77.859375 53.078125 C-76.96234863 52.49772461 -76.06532227 51.91732422 -75.14111328 51.31933594 C-71.19492558 48.71785658 -67.38516022 45.94270091 -63.57421875 43.1484375 C-57.24451992 38.54045581 -50.86899278 34.00509689 -44.44921875 29.5234375 C-43.61245605 28.93916992 -42.77569336 28.35490234 -41.91357422 27.75292969 C-40.2504196 26.59198761 -38.58717214 25.43117852 -36.92382812 24.27050781 C-33.17708425 21.6538547 -29.43658189 19.0284656 -25.69921875 16.3984375 C-24.66994263 15.67877808 -24.66994263 15.67877808 -23.61987305 14.94458008 C-20.11435802 12.48048905 -16.67547449 9.96020003 -13.296875 7.32421875 C-12.61794189 6.80174561 -11.93900879 6.27927246 -11.23950195 5.7409668 C-9.9537141 4.74627077 -8.67927592 3.73666593 -7.41870117 2.71020508 C-3.20926321 -0.52905428 -3.20926321 -0.52905428 0 0 Z " fill="#00BAD1" transform="translate(163.51171875,292.4140625)"/>
<path d="M0 0 C4.18951632 1.57722967 6.63740625 4.66565353 9.4375 8 C9.95828125 8.61593018 10.4790625 9.23186035 11.015625 9.86645508 C26.63491876 28.62405264 39.58054763 49.4718498 51 71 C51.51723633 71.97453125 51.51723633 71.97453125 52.04492188 72.96875 C64.60382749 96.86249635 74.28975848 122.06428944 81.5 148.0625 C81.74331055 148.93592041 81.98662109 149.80934082 82.23730469 150.70922852 C83.6827419 156.14016868 84.50381616 161.40101639 85 167 C82.35900297 165.34812163 79.72862823 163.68232283 77.109375 161.99609375 C75.11373175 160.71497101 73.10419684 159.455093 71.078125 158.22265625 C70.18609375 157.65417969 69.2940625 157.08570313 68.375 156.5 C67.55773437 155.9946875 66.74046875 155.489375 65.8984375 154.96875 C63.70163453 152.69058395 63.55613987 151.26833143 63.28808594 148.18652344 C62.64309084 143.29111995 60.90128971 138.57620234 59.4375 133.875 C58.89851074 132.1434668 58.89851074 132.1434668 58.34863281 130.37695312 C45.76707855 90.53353324 26.7901355 52.82175435 2.25 19 C1.66573242 18.18660156 1.08146484 17.37320313 0.47949219 16.53515625 C-0.06545898 15.80167969 -0.61041016 15.06820312 -1.171875 14.3125 C-1.6472168 13.66925781 -2.12255859 13.02601562 -2.61230469 12.36328125 C-4.03245856 10.64959808 -4.03245856 10.64959808 -7 11 C-7.99 11.495 -7.99 11.495 -9 12 C-7.55575365 8.76138697 -5.74227753 6.38030837 -3.375 3.75 C-2.74335938 3.04359375 -2.11171875 2.3371875 -1.4609375 1.609375 C-0.97882813 1.07828125 -0.49671875 0.5471875 0 0 Z " fill="#DCC19A" transform="translate(161,18)"/>
<path d="M0 0 C1.75129657 1.10210905 3.50098464 2.20677432 5.25 3.3125 C6.71179688 4.23482422 6.71179688 4.23482422 8.203125 5.17578125 C10.54733713 6.70475759 12.78784032 8.28820977 15 10 C12.48209427 35.94537639 0.77353756 78.99490144 -19.09301758 96.88476562 C-25.02189232 101.55907372 -29.96181183 103.30576173 -37.54418945 103.22705078 C-38.28619095 103.22734283 -39.02819244 103.22763489 -39.79267883 103.22793579 C-42.23300067 103.22654803 -44.67301308 103.21101313 -47.11328125 103.1953125 C-48.81007216 103.1915804 -50.50686522 103.18873436 -52.20365906 103.18673706 C-56.66051222 103.17911613 -61.11723417 103.1594809 -65.57403564 103.1373291 C-70.12551092 103.11683747 -74.67700748 103.10772825 -79.22851562 103.09765625 C-88.15240127 103.07623352 -97.0761897 103.04211619 -106 103 C-106 102.67 -106 102.34 -106 102 C-105.15919388 102.00079559 -104.31838776 102.00159119 -103.45210266 102.00241089 C-95.52134737 102.0046203 -87.59131303 101.97818826 -79.66076374 101.9197216 C-75.58366472 101.8906704 -71.50714054 101.87262854 -67.42993164 101.87988281 C-63.49375178 101.88647883 -59.55870753 101.86397788 -55.62276268 101.82144547 C-54.1225406 101.81031872 -52.62220328 101.8096104 -51.12197304 101.81957626 C-43.24158534 102.18146135 -43.24158534 102.18146135 -36.02470398 99.74520874 C-34.45795263 98.03403134 -34.45795263 98.03403134 -33 95 C-32.32747192 94.00202393 -32.32747192 94.00202393 -31.64135742 92.98388672 C-30.47625681 90.95464008 -29.31950533 88.92296013 -28.1875 86.875 C-27.75880615 86.10236816 -27.3301123 85.32973633 -26.88842773 84.53369141 C-22.10883958 75.68627448 -18.51096429 66.406325 -15 57 C-14.72824951 56.28932373 -14.45649902 55.57864746 -14.17651367 54.84643555 C-10.135798 44.2481869 -7.52695412 33.26065516 -4.875 22.25 C-4.62129639 21.1969165 -4.36759277 20.14383301 -4.10620117 19.05883789 C-2.60024844 12.73005538 -1.22354965 6.38945088 0 0 Z " fill="#DDC39B" transform="translate(231,392)"/>
<path d="M0 0 C2.70813303 1.69931675 5.40621994 3.41039942 8.08874512 5.1499939 C9.78050994 6.22505444 11.49684831 7.26612664 13.26379395 8.21255493 C15.95025151 9.74974941 17.75877311 11.11472726 18.58959961 14.16375732 C18.83126342 16.93855187 18.8130556 19.61472381 18.71875 22.3984375 C18.71121704 23.42442047 18.70368408 24.45040344 18.69592285 25.50747681 C18.66343405 28.79802619 18.58209628 32.08535363 18.5 35.375 C18.47342882 37.51819261 18.44996248 39.66142608 18.4296875 41.8046875 C18.26248417 55.88111795 17.69165454 69.94063638 17 84 C13.85583785 82.82536178 11.16131851 81.59423218 8.44921875 79.6171875 C7.83369141 79.17246094 7.21816406 78.72773438 6.58398438 78.26953125 C5.95814453 77.80933594 5.33230469 77.34914063 4.6875 76.875 C3.71973633 76.17310547 3.71973633 76.17310547 2.73242188 75.45703125 C1.15151106 74.3094071 -0.42472301 73.15534523 -2 72 C-1.51104248 70.47729492 -1.51104248 70.47729492 -1.01220703 68.92382812 C0.59468264 62.45092013 0.24666638 55.84285436 0.1953125 49.21875 C0.19157606 47.79529012 0.18873207 46.37182764 0.18673706 44.94836426 C0.17915025 41.22640716 0.15954519 37.50460953 0.1373291 33.78271484 C0.11676314 29.97495683 0.1077125 26.16717271 0.09765625 22.359375 C0.07629389 14.9061778 0.04221885 7.45311136 0 0 Z " fill="#DDC29A" transform="translate(238,252)"/>
<path d="M0 0 C7.0049573 2.59689482 14.38236423 5.89829296 19 12 C21.61886852 18.64383161 21.66795406 25.94751159 22 33 C22.11278822 34.34328923 22.23404532 35.68591902 22.3671875 37.02734375 C22.62633051 39.68513971 22.83997922 42.3348264 23 45 C21.32492126 44.35476094 19.66066892 43.68146971 18 43 C16.87464844 42.55011719 15.74929687 42.10023438 14.58984375 41.63671875 C10.20771912 39.46283427 6.68507356 37.17393226 4 33 C0.68214733 22.57940368 0 10.88000985 0 0 Z " fill="#00818D" transform="translate(232,197)"/>
<path d="M0 0 C0.78955078 -0.00773437 1.57910156 -0.01546875 2.39257812 -0.0234375 C7.55213237 -0.00613807 11.48066569 0.39527825 15.72265625 3.59765625 C17.28847553 5.72737187 17.37056997 7.06048979 17.375 9.6875 C17.39433594 10.44933594 17.41367187 11.21117187 17.43359375 11.99609375 C16.74034551 15.14573338 15.42852106 16.2356125 12.9375 18.25 C10.16015625 18.76757812 10.16015625 18.76757812 7 18.78125 C5.28683594 18.78898438 5.28683594 18.78898438 3.5390625 18.796875 C2.35054688 18.78140625 1.16203125 18.7659375 -0.0625 18.75 C-1.25101562 18.76546875 -2.43953125 18.7809375 -3.6640625 18.796875 C-4.80617188 18.79171875 -5.94828125 18.7865625 -7.125 18.78125 C-8.16785156 18.77673828 -9.21070313 18.77222656 -10.28515625 18.76757812 C-13.74767338 18.12231298 -14.91089193 16.98682555 -17.0625 14.25 C-18.27080867 10.54452008 -18.21560273 8.71831425 -17 5 C-13.00040026 -0.67685124 -6.34639382 -0.06247475 0 0 Z " fill="#000000" transform="translate(495.0625,493.75)"/>
<path d="M0 0 C0.78181641 -0.020625 1.56363281 -0.04125 2.36914062 -0.0625 C7.73206743 -0.09834245 11.446739 0.69256489 16.1875 3.25 C18.08690876 6.17825517 18.20446022 7.83447455 18.0625 11.3125 C17.02752211 14.78706861 16.00486596 16.00038317 13.1875 18.25 C10.41015625 18.76757812 10.41015625 18.76757812 7.25 18.78125 C5.53683594 18.78898438 5.53683594 18.78898438 3.7890625 18.796875 C2.60054687 18.78140625 1.41203125 18.7659375 0.1875 18.75 C-1.00101563 18.76546875 -2.18953125 18.7809375 -3.4140625 18.796875 C-4.55617188 18.79171875 -5.69828125 18.7865625 -6.875 18.78125 C-7.91785156 18.77673828 -8.96070313 18.77222656 -10.03515625 18.76757812 C-13.48258158 18.12512544 -14.66633409 16.96864494 -16.8125 14.25 C-17.54627162 11.18542441 -17.38084762 8.34181106 -16.8125 5.25 C-12.67944302 -0.65436711 -6.55819187 0.04262026 0 0 Z " fill="#000000" transform="translate(16.8125,493.75)"/>
<path d="M0 0 C6.1539619 2.46158476 11.37092621 5.18069031 16 10 C17.25170915 13.80519583 16.61562315 17.09333883 16 21 C15.83034755 22.49402514 15.66809781 23.98890228 15.51171875 25.484375 C15.06516586 29.66478706 14.54731188 33.83163364 14 38 C9.74018303 37.42007442 6.64675405 34.87428329 3.25 32.4375 C1.1875 30.973125 -0.875 29.50875 -3 28 C-2.01 18.76 -1.02 9.52 0 0 Z " fill="#00818C" transform="translate(236,345)"/>
</svg>
