<?xml version="1.0" encoding="UTF-8"?>
<svg version="1.1" xmlns="http://www.w3.org/2000/svg" width="512" height="512">
<path d="M0 0 C0.82741699 -0.02223633 1.65483398 -0.04447266 2.50732422 -0.06738281 C6.16507572 -0.05353061 8.28633665 0.08246218 11.234375 2.33984375 C14.1462618 6.36995512 13.56552504 9.03374372 12.90557861 13.76167297 C12.69655258 15.35681664 12.48861674 16.95210343 12.28159332 18.54750824 C12.16887494 19.40650821 12.05615656 20.26550817 11.94002247 21.15053844 C8.39387881 48.59180117 6.33092225 76.11860677 5 103.75 C4.9405508 104.95115322 4.88110161 106.15230644 4.81985092 107.38985825 C1.79220371 170.56969957 6.61193794 221.05213985 50.39957523 269.2680819 C62.6569838 282.56837634 75.76379806 294.89888601 89.25 306.9375 C90.13873621 307.73248288 91.02747242 308.52746575 91.94314003 309.34653902 C107.88093816 323.56920959 124.08638112 337.47224395 140.94708252 350.5933075 C141.72051852 351.19519844 142.49395453 351.79708939 143.29082799 352.41721946 C146.89993162 355.21600137 150.52470858 357.9901397 154.18082047 360.72723866 C154.82588004 361.21735158 155.47093961 361.70746451 156.13554645 362.21242934 C157.32376606 363.11470869 158.52002214 364.00654908 159.72579503 364.8852331 C162.22825124 366.79745219 163.6233067 368.06533166 164.65067291 371.08327484 C164.83019161 375.33818106 163.3387585 377.73753156 160.640625 380.9453125 C153.9797322 387.54708495 147.01957692 393.49205219 139.51318359 399.11425781 C137.83730314 400.37198034 136.17850494 401.6498063 134.51953125 402.9296875 C101.67202488 427.79463006 57.88755795 443.27983626 16.59765625 443.67578125 C15.74820435 443.68552979 14.89875244 443.69527832 14.02355957 443.70532227 C-5.0950393 443.87951569 -23.49636207 443.59851684 -42.25 439.4375 C-43.09385254 439.25558105 -43.93770508 439.07366211 -44.80712891 438.88623047 C-63.81299825 434.66898522 -82.15961656 427.72024913 -99.25 418.4375 C-100.24290039 417.90987061 -100.24290039 417.90987061 -101.25585938 417.37158203 C-143.92634924 394.65822319 -176.91376129 358.03821135 -197.25 314.4375 C-197.77078125 313.33664062 -198.2915625 312.23578125 -198.828125 311.1015625 C-222.86887891 257.83231304 -222.51921239 196.26189427 -202.61206055 141.85668945 C-196.64288085 126.20664553 -188.96392242 111.10120927 -179.25 97.4375 C-178.79512207 96.79619141 -178.34024414 96.15488281 -177.87158203 95.49414062 C-171.95453086 87.23043402 -165.72298981 79.45582109 -158.72265625 72.0859375 C-156.95091345 70.18824142 -155.28862514 68.30069061 -153.6484375 66.296875 C-151.77200812 64.0598289 -150.02677762 62.18415267 -147.8125 60.3125 C-145.26391064 58.15308071 -142.7349421 55.98253141 -140.25390625 53.74609375 C-102.16715151 19.75074472 -50.90204327 0.7708158 0 0 Z " fill="#89C8FD" transform="translate(233.25,60.5625)"/>
<path d="M0 0 C12.28161798 4.11379764 23.93568461 8.94485776 35.31298828 15.12451172 C35.97492188 15.47626465 36.63685547 15.82801758 37.31884766 16.19042969 C79.98933752 38.90378853 112.97674957 75.52380037 133.31298828 119.12451172 C134.09416016 120.77580078 134.09416016 120.77580078 134.89111328 122.46044922 C142.31151043 138.90248711 147.20890478 156.38455166 150.31298828 174.12451172 C150.63396484 175.94208984 150.63396484 175.94208984 150.96142578 177.79638672 C152.18007923 185.7441266 152.69264294 193.72540924 153.12548828 201.74951172 C153.22349731 203.31608521 153.22349731 203.31608521 153.32348633 204.91430664 C153.74125709 214.26278363 153.74125709 214.26278363 150.31298828 218.12451172 C146.42451859 220.71682484 143.18200057 220.40856771 138.67178345 220.39193726 C137.33178333 220.39873393 137.33178333 220.39873393 135.9647125 220.4056679 C132.95917042 220.41836914 129.95380821 220.41668785 126.94824219 220.41503906 C124.79830185 220.42102074 122.64836368 220.42782544 120.49842834 220.43539429 C114.64927183 220.45309814 108.80017378 220.45775151 102.95099306 220.45902586 C98.07260815 220.4609223 93.19423694 220.46827688 88.31585729 220.47537005 C76.80870903 220.49166824 65.30159207 220.49653769 53.79443359 220.49511719 C41.91389595 220.49391534 30.03353985 220.51502252 18.15304816 220.54660451 C7.96190236 220.57273292 -2.22918402 220.58348593 -12.42036307 220.58220637 C-18.5110236 220.58169573 -24.60152286 220.58743521 -30.69215012 220.60856247 C-36.41968089 220.62788697 -42.1468956 220.62810892 -47.87443733 220.61352921 C-49.97834419 220.61143282 -52.08227053 220.6161911 -54.18614388 220.62825012 C-57.05508381 220.64363112 -59.92292423 220.63444172 -62.7918396 220.61898804 C-63.62734671 220.62927516 -64.46285382 220.63956229 -65.32367933 220.65016115 C-69.31226734 220.60257763 -71.2315156 220.41452249 -74.68045998 218.21860695 C-78.38705333 214.3502993 -77.83271512 210.73609552 -77.82745361 205.64152527 C-77.83042474 204.75312983 -77.83339586 203.8647344 -77.83645701 202.94941789 C-77.84517028 199.95463184 -77.84665447 196.95988564 -77.84814453 193.96508789 C-77.85277085 191.82514866 -77.85779525 189.68521026 -77.8631897 187.54527283 C-77.87633367 181.71879539 -77.88276254 175.89232948 -77.88720036 170.06583953 C-77.89012786 166.42848221 -77.89423205 162.79112808 -77.89870453 159.15377235 C-77.91238472 147.78146669 -77.92204882 136.40916825 -77.92590642 125.03685492 C-77.93038861 111.89411177 -77.94794184 98.75147255 -77.97690701 85.60876101 C-77.99849979 75.46010441 -78.00860941 65.31147709 -78.00994754 55.16279775 C-78.01099729 49.09673881 -78.01694124 43.03077749 -78.03476715 36.96474266 C-78.05120626 31.25943571 -78.05342357 25.55430019 -78.04462814 19.84897804 C-78.04385554 17.75313484 -78.04822979 15.65728257 -78.0580864 13.5614624 C-78.07074026 10.7035853 -78.0649648 7.84632142 -78.05450439 4.9884491 C-78.0625608 4.15615081 -78.0706172 3.32385253 -78.07891774 2.46633309 C-78.0394691 -2.13173995 -77.66814237 -5.13797638 -74.68701172 -8.87548828 C-55.93667476 -18.25065676 -18.96433498 -6.17900284 0 0 Z " fill="#FFE076" transform="translate(342.68701171875,17.87548828125)"/>
<path d="M0 0 C0.88193718 -0.00311998 1.76387436 -0.00623996 2.67253691 -0.00945449 C5.6335299 -0.01744418 8.59431852 -0.011107 11.55531311 -0.00482178 C13.67584351 -0.00753122 15.79637297 -0.0110919 17.91690063 -0.01544189 C23.68130185 -0.02457419 29.44563163 -0.02101801 35.21003413 -0.01468372 C41.23752841 -0.00962744 47.26501648 -0.0143142 53.29251099 -0.01745605 C63.41658122 -0.02109706 73.5406223 -0.01629336 83.66468811 -0.0067749 C95.37421537 0.00410695 107.08367296 0.00058654 118.79319853 -0.01042771 C128.83998936 -0.01950025 138.8867592 -0.02078593 148.9335528 -0.01555037 C154.93695471 -0.01243012 160.94032387 -0.01202282 166.94372368 -0.01862335 C172.58830085 -0.02439557 178.23278813 -0.0204021 183.87735558 -0.00883484 C185.9506185 -0.00618748 188.02388897 -0.00695464 190.0971489 -0.01136017 C192.92416212 -0.01681404 195.75088613 -0.00998325 198.57788086 0 C199.40103301 -0.00446144 200.22418515 -0.00892289 201.0722813 -0.01351953 C206.47481602 0.02356012 210.44831015 0.34984519 214.35243225 4.25396729 C221.98497112 48.43289814 200.19362116 101.16506146 175.38783264 136.70001221 C169.60109195 144.819836 163.23100806 152.3714803 156.53993225 159.75396729 C156.08360413 160.25895752 155.627276 160.76394775 155.15711975 161.28424072 C149.03969801 167.9294931 149.03969801 167.9294931 144.10243225 168.87896729 C134.21199699 167.23056141 124.91852541 153.99932337 117.96595764 147.07623291 C116.51830741 145.63813476 115.0704879 144.20020698 113.62251282 142.76243591 C108.89448271 138.06559857 104.17183501 133.36337044 99.4500885 128.66021729 C98.64542798 127.85885408 97.84076746 127.05749088 97.01172328 126.23184395 C89.42082933 118.6716923 81.83195887 111.10951503 74.24793339 103.54247284 C64.5601175 93.87661196 54.86235424 84.22097401 45.15089232 74.57886934 C38.31313184 67.78829121 31.4868474 60.98631162 24.66900247 54.17573881 C20.59922618 50.11092184 16.52452904 46.05133763 12.43744087 42.00392151 C8.59856651 38.20183018 4.77406945 34.38585283 0.96020508 30.55867958 C-0.44188927 29.1566393 -1.84913825 27.75973224 -3.26184273 26.36838341 C-5.1888793 24.46893477 -7.09653166 22.55190622 -9.00045776 20.6293335 C-9.56405736 20.08252882 -10.12765696 19.53572415 -10.70833534 18.97234964 C-14.35100506 15.2397932 -15.5318068 12.46267195 -15.64756775 7.25396729 C-14.48070205 4.490338 -13.5201038 2.87577121 -11.07475948 1.13312149 C-7.43467148 -0.18535642 -3.82244327 -0.02066146 0 0 Z " fill="#FD636E" transform="translate(280.64756774902344,255.74603271484375)"/>
<path d="M0 0 C0.82741699 -0.02223633 1.65483398 -0.04447266 2.50732422 -0.06738281 C6.16507572 -0.05353061 8.28633665 0.08246218 11.234375 2.33984375 C14.1462618 6.36995512 13.56552504 9.03374372 12.90557861 13.76167297 C12.69655258 15.35681664 12.48861674 16.95210343 12.28159332 18.54750824 C12.16887494 19.40650821 12.05615656 20.26550817 11.94002247 21.15053844 C8.39387881 48.59180117 6.33092225 76.11860677 5 103.75 C4.9405508 104.95115322 4.88110161 106.15230644 4.81985092 107.38985825 C1.79220371 170.56969957 6.61193794 221.05213985 50.39957523 269.2680819 C62.6569838 282.56837634 75.76379806 294.89888601 89.25 306.9375 C90.13873621 307.73248288 91.02747242 308.52746575 91.94314003 309.34653902 C107.88093816 323.56920959 124.08638112 337.47224395 140.94708252 350.5933075 C141.72051852 351.19519844 142.49395453 351.79708939 143.29082799 352.41721946 C146.89993162 355.21600137 150.52470858 357.9901397 154.18082047 360.72723866 C154.82588004 361.21735158 155.47093961 361.70746451 156.13554645 362.21242934 C157.32376606 363.11470869 158.52002214 364.00654908 159.72579503 364.8852331 C162.22825124 366.79745219 163.6233067 368.06533166 164.65067291 371.08327484 C164.83019161 375.33818106 163.3387585 377.73753156 160.640625 380.9453125 C153.9797322 387.54708495 147.01957692 393.49205219 139.51318359 399.11425781 C137.83730314 400.37198034 136.17850494 401.6498063 134.51953125 402.9296875 C101.67202488 427.79463006 57.88755795 443.27983626 16.59765625 443.67578125 C15.74820435 443.68552979 14.89875244 443.69527832 14.02355957 443.70532227 C-5.0950393 443.87951569 -23.49636207 443.59851684 -42.25 439.4375 C-43.09385254 439.25558105 -43.93770508 439.07366211 -44.80712891 438.88623047 C-63.81299825 434.66898522 -82.15961656 427.72024913 -99.25 418.4375 C-100.24290039 417.90987061 -100.24290039 417.90987061 -101.25585938 417.37158203 C-143.92634924 394.65822319 -176.91376129 358.03821135 -197.25 314.4375 C-197.77078125 313.33664062 -198.2915625 312.23578125 -198.828125 311.1015625 C-222.86887891 257.83231304 -222.51921239 196.26189427 -202.61206055 141.85668945 C-196.64288085 126.20664553 -188.96392242 111.10120927 -179.25 97.4375 C-178.79512207 96.79619141 -178.34024414 96.15488281 -177.87158203 95.49414062 C-171.95453086 87.23043402 -165.72298981 79.45582109 -158.72265625 72.0859375 C-156.95091345 70.18824142 -155.28862514 68.30069061 -153.6484375 66.296875 C-151.77200812 64.0598289 -150.02677762 62.18415267 -147.8125 60.3125 C-145.26391064 58.15308071 -142.7349421 55.98253141 -140.25390625 53.74609375 C-102.16715151 19.75074472 -50.90204327 0.7708158 0 0 Z M-29 19.125 C-30.39677979 19.39618652 -30.39677979 19.39618652 -31.82177734 19.67285156 C-80.56888581 29.39742341 -125.48545402 54.86862672 -156.25 94.4375 C-156.67539063 94.98116211 -157.10078125 95.52482422 -157.5390625 96.08496094 C-178.81119646 123.46816847 -192.70224348 155.21373772 -198.25 189.4375 C-198.47429687 190.695625 -198.69859375 191.95375 -198.9296875 193.25 C-206.77622796 243.98379583 -192.88832781 298.85634785 -163.25 340.4375 C-162.83395508 341.02176758 -162.41791016 341.60603516 -161.98925781 342.20800781 C-156.13436093 350.31943118 -149.59148888 357.7294363 -142.67871094 364.94580078 C-141.36334782 366.31915496 -140.0599915 367.7039824 -138.7578125 369.08984375 C-112.74668884 396.0817147 -77.41731492 413.97047976 -41.25 422.4375 C-40.14785156 422.7159375 -39.04570312 422.994375 -37.91015625 423.28125 C12.92312452 435.84819209 68.78846671 424.07222495 113.12890625 397.3671875 C124.17839227 390.49740029 134.33261021 382.40213067 143.75 373.4375 C142.12401612 369.33162256 139.16832565 366.58558417 136.08738708 363.54110718 C135.50243581 362.95515262 134.91748454 362.36919807 134.31480747 361.76548731 C132.35187599 359.80160257 130.38188303 357.84495792 128.41186523 355.88818359 C127.00390721 354.48242655 125.59639643 353.07622144 124.18930054 351.66960144 C121.15780153 348.64103706 118.12317102 345.61565806 115.08608818 342.59269333 C110.28771346 337.81655681 105.49641134 333.03336779 100.70606995 328.24917603 C93.13209385 320.68658444 85.55345953 313.12868077 77.97279269 305.57279646 C64.38789678 292.03223124 50.80858878 278.48606757 37.23446041 264.93470824 C32.46715287 260.17582844 27.69705116 255.41977196 22.92471492 250.66593528 C19.96228033 247.7141138 17.001851 244.76028734 14.04192734 241.80594826 C12.66449475 240.43199775 11.28619074 239.05892025 9.90697289 237.68676186 C8.03090665 235.82009053 6.15789646 233.9504061 4.28562927 232.07992554 C3.73350075 231.53207409 3.18137222 230.98422265 2.61251253 230.41976964 C-2.15519807 225.64481836 -2.40018254 222.90775688 -2.40821838 216.33847046 C-2.41315636 215.49146627 -2.41809434 214.64446208 -2.42318195 213.7717911 C-2.43861011 210.91736149 -2.44693192 208.06295445 -2.45532227 205.20849609 C-2.46489661 203.16881612 -2.47490643 201.12913814 -2.48532104 199.08946228 C-2.51242421 193.53811764 -2.53340442 187.98676444 -2.55332303 182.43539 C-2.57514928 176.63909047 -2.60255437 170.84281746 -2.62937927 165.04653931 C-2.67935172 154.06412894 -2.72427363 143.08170389 -2.76740164 132.09926474 C-2.81673517 119.59883409 -2.87166767 107.09843003 -2.92708123 94.59802508 C-3.04097114 68.87787485 -3.14779487 43.15769913 -3.25 17.4375 C-5.63317614 17.41850449 -8.01619826 17.40469296 -10.39941406 17.39379883 C-11.40205795 17.3850108 -11.40205795 17.3850108 -12.42495728 17.37604523 C-18.11348701 17.35658481 -23.43925368 18.00125487 -29 19.125 Z " fill="#000101" transform="translate(233.25,60.5625)"/>
<path d="M0 0 C0 6.6 0 13.2 0 20 C-2.165625 20.2475 -4.33125 20.495 -6.5625 20.75 C-57.1297406 27.00463698 -103.86896594 48.56973717 -136.0793457 89.20874023 C-154.99287079 113.73302902 -167.02009048 141.09531593 -173.1875 171.375 C-173.35459473 172.19508545 -173.52168945 173.0151709 -173.69384766 173.86010742 C-182.47435595 218.55388932 -171.31179374 266.85413478 -147 305 C-141.2731663 313.47014718 -134.93077854 321.42987061 -127.9375 328.88671875 C-126 331 -126 331 -123.96875 333.5703125 C-121.03186864 337.19479703 -117.55343969 339.99684587 -114 343 C-112.71802734 344.13115234 -112.71802734 344.13115234 -111.41015625 345.28515625 C-89.93696225 363.87169317 -63.57001466 377.26358402 -36 384 C-34.88753906 384.27457031 -33.77507812 384.54914063 -32.62890625 384.83203125 C14.52462402 395.69714662 64.74865043 386.78734464 105.91430664 361.53149414 C113.7165773 356.54191588 122.24984055 350.88892815 128.73828125 344.2109375 C130 343 130 343 132 343 C132.33 342.01 132.66 341.02 133 340 C137.62 344.62 142.24 349.24 147 354 C135.5397615 376.920477 96.52941435 392.3413994 73.94042969 400.05517578 C35.34144702 412.45787114 -7.95851097 414.57994886 -47 403 C-48.14807129 402.66838867 -48.14807129 402.66838867 -49.31933594 402.33007812 C-69.7443105 396.33181659 -89.6515733 387.42092854 -107 375 C-108.00546875 374.28457031 -109.0109375 373.56914062 -110.046875 372.83203125 C-127.91696744 359.75353095 -143.89310475 344.89367163 -157 327 C-157.77988281 325.94167969 -158.55976563 324.88335937 -159.36328125 323.79296875 C-165.2464052 315.55253089 -170.26996453 306.94226601 -175 298 C-175.58394531 296.91203125 -176.16789062 295.8240625 -176.76953125 294.703125 C-200.693675 246.96689438 -203.48250384 189.75492296 -187.12109375 139.2890625 C-169.82623824 88.22806053 -132.1473094 45.05479643 -84.0625 20.75 C-58.19029173 8.11678048 -29.04185464 -1.18538182 0 0 Z " fill="#5FB5FD" transform="translate(230,78)"/>
<path d="M0 0 C12.28161798 4.11379764 23.93568461 8.94485776 35.31298828 15.12451172 C35.97492188 15.47626465 36.63685547 15.82801758 37.31884766 16.19042969 C79.98933752 38.90378853 112.97674957 75.52380037 133.31298828 119.12451172 C134.09416016 120.77580078 134.09416016 120.77580078 134.89111328 122.46044922 C142.31151043 138.90248711 147.20890478 156.38455166 150.31298828 174.12451172 C150.63396484 175.94208984 150.63396484 175.94208984 150.96142578 177.79638672 C152.18007923 185.7441266 152.69264294 193.72540924 153.12548828 201.74951172 C153.22349731 203.31608521 153.22349731 203.31608521 153.32348633 204.91430664 C153.74125709 214.26278363 153.74125709 214.26278363 150.31298828 218.12451172 C146.42451859 220.71682484 143.18200057 220.40856771 138.67178345 220.39193726 C137.33178333 220.39873393 137.33178333 220.39873393 135.9647125 220.4056679 C132.95917042 220.41836914 129.95380821 220.41668785 126.94824219 220.41503906 C124.79830185 220.42102074 122.64836368 220.42782544 120.49842834 220.43539429 C114.64927183 220.45309814 108.80017378 220.45775151 102.95099306 220.45902586 C98.07260815 220.4609223 93.19423694 220.46827688 88.31585729 220.47537005 C76.80870903 220.49166824 65.30159207 220.49653769 53.79443359 220.49511719 C41.91389595 220.49391534 30.03353985 220.51502252 18.15304816 220.54660451 C7.96190236 220.57273292 -2.22918402 220.58348593 -12.42036307 220.58220637 C-18.5110236 220.58169573 -24.60152286 220.58743521 -30.69215012 220.60856247 C-36.41968089 220.62788697 -42.1468956 220.62810892 -47.87443733 220.61352921 C-49.97834419 220.61143282 -52.08227053 220.6161911 -54.18614388 220.62825012 C-57.05508381 220.64363112 -59.92292423 220.63444172 -62.7918396 220.61898804 C-63.62734671 220.62927516 -64.46285382 220.63956229 -65.32367933 220.65016115 C-69.31226734 220.60257763 -71.2315156 220.41452249 -74.68045998 218.21860695 C-78.38705333 214.3502993 -77.83271512 210.73609552 -77.82745361 205.64152527 C-77.83042474 204.75312983 -77.83339586 203.8647344 -77.83645701 202.94941789 C-77.84517028 199.95463184 -77.84665447 196.95988564 -77.84814453 193.96508789 C-77.85277085 191.82514866 -77.85779525 189.68521026 -77.8631897 187.54527283 C-77.87633367 181.71879539 -77.88276254 175.89232948 -77.88720036 170.06583953 C-77.89012786 166.42848221 -77.89423205 162.79112808 -77.89870453 159.15377235 C-77.91238472 147.78146669 -77.92204882 136.40916825 -77.92590642 125.03685492 C-77.93038861 111.89411177 -77.94794184 98.75147255 -77.97690701 85.60876101 C-77.99849979 75.46010441 -78.00860941 65.31147709 -78.00994754 55.16279775 C-78.01099729 49.09673881 -78.01694124 43.03077749 -78.03476715 36.96474266 C-78.05120626 31.25943571 -78.05342357 25.55430019 -78.04462814 19.84897804 C-78.04385554 17.75313484 -78.04822979 15.65728257 -78.0580864 13.5614624 C-78.07074026 10.7035853 -78.0649648 7.84632142 -78.05450439 4.9884491 C-78.0625608 4.15615081 -78.0706172 3.32385253 -78.07891774 2.46633309 C-78.0394691 -2.13173995 -77.66814237 -5.13797638 -74.68701172 -8.87548828 C-55.93667476 -18.25065676 -18.96433498 -6.17900284 0 0 Z M-60.68701172 6.12451172 C-60.68701172 71.13451172 -60.68701172 136.14451172 -60.68701172 203.12451172 C4.32298828 203.12451172 69.33298828 203.12451172 136.31298828 203.12451172 C136.31298828 151.66099999 112.27142152 103.76953604 77.31298828 67.12451172 C76.11416016 65.84640625 76.11416016 65.84640625 74.89111328 64.54248047 C68.25477959 57.65674208 60.97494281 51.81193312 53.31298828 46.12451172 C52.77270996 45.72345215 52.23243164 45.32239258 51.67578125 44.90917969 C42.98170826 38.52852803 33.83292077 33.16010541 24.31298828 28.12451172 C23.22501953 27.54056641 22.13705078 26.95662109 21.01611328 26.35498047 C-4.73664269 13.44837624 -32.11800494 7.80504153 -60.68701172 6.12451172 Z " fill="#020201" transform="translate(342.68701171875,17.87548828125)"/>
<path d="M0 0 C0.88193718 -0.00311998 1.76387436 -0.00623996 2.67253691 -0.00945449 C5.6335299 -0.01744418 8.59431852 -0.011107 11.55531311 -0.00482178 C13.67584351 -0.00753122 15.79637297 -0.0110919 17.91690063 -0.01544189 C23.68130185 -0.02457419 29.44563163 -0.02101801 35.21003413 -0.01468372 C41.23752841 -0.00962744 47.26501648 -0.0143142 53.29251099 -0.01745605 C63.41658122 -0.02109706 73.5406223 -0.01629336 83.66468811 -0.0067749 C95.37421537 0.00410695 107.08367296 0.00058654 118.79319853 -0.01042771 C128.83998936 -0.01950025 138.8867592 -0.02078593 148.9335528 -0.01555037 C154.93695471 -0.01243012 160.94032387 -0.01202282 166.94372368 -0.01862335 C172.58830085 -0.02439557 178.23278813 -0.0204021 183.87735558 -0.00883484 C185.9506185 -0.00618748 188.02388897 -0.00695464 190.0971489 -0.01136017 C192.92416212 -0.01681404 195.75088613 -0.00998325 198.57788086 0 C199.40103301 -0.00446144 200.22418515 -0.00892289 201.0722813 -0.01351953 C206.47481602 0.02356012 210.44831015 0.34984519 214.35243225 4.25396729 C221.98497112 48.43289814 200.19362116 101.16506146 175.38783264 136.70001221 C169.60109195 144.819836 163.23100806 152.3714803 156.53993225 159.75396729 C156.08360413 160.25895752 155.627276 160.76394775 155.15711975 161.28424072 C149.03969801 167.9294931 149.03969801 167.9294931 144.10243225 168.87896729 C134.21199699 167.23056141 124.91852541 153.99932337 117.96595764 147.07623291 C116.51830741 145.63813476 115.0704879 144.20020698 113.62251282 142.76243591 C108.89448271 138.06559857 104.17183501 133.36337044 99.4500885 128.66021729 C98.64542798 127.85885408 97.84076746 127.05749088 97.01172328 126.23184395 C89.42082933 118.6716923 81.83195887 111.10951503 74.24793339 103.54247284 C64.5601175 93.87661196 54.86235424 84.22097401 45.15089232 74.57886934 C38.31313184 67.78829121 31.4868474 60.98631162 24.66900247 54.17573881 C20.59922618 50.11092184 16.52452904 46.05133763 12.43744087 42.00392151 C8.59856651 38.20183018 4.77406945 34.38585283 0.96020508 30.55867958 C-0.44188927 29.1566393 -1.84913825 27.75973224 -3.26184273 26.36838341 C-5.1888793 24.46893477 -7.09653166 22.55190622 -9.00045776 20.6293335 C-9.56405736 20.08252882 -10.12765696 19.53572415 -10.70833534 18.97234964 C-14.35100506 15.2397932 -15.5318068 12.46267195 -15.64756775 7.25396729 C-14.48070205 4.490338 -13.5201038 2.87577121 -11.07475948 1.13312149 C-7.43467148 -0.18535642 -3.82244327 -0.02066146 0 0 Z M13.35243225 17.25396729 C17.11419046 21.64268519 20.72234323 25.74824955 24.78147888 29.80326843 C25.29296592 30.3156099 25.80445297 30.82795137 26.33143961 31.35581833 C28.02406649 33.05007555 29.72021123 34.74076395 31.41639709 36.43145752 C32.63915641 37.6539344 33.86169486 38.87663223 35.08403015 40.09953308 C38.38711974 43.40290848 41.69327391 46.70320098 45.00000334 50.00293231 C48.46112416 53.45778348 51.91939566 56.91548444 55.37797546 60.37287903 C61.92064151 66.91244239 68.46585154 73.44945338 75.01198828 79.98554236 C82.46741244 87.42977233 89.91998257 94.87685674 97.37231898 102.32417762 C112.69585864 117.63727696 128.02296377 132.94680327 143.35243225 148.25396729 C144.46060557 147.3310957 145.56490495 146.40357142 146.6676178 145.47418213 C147.28299911 144.95818451 147.89838043 144.44218689 148.53240967 143.91055298 C151.49575071 141.21331811 153.81108182 138.10692239 156.16493225 134.87896729 C156.93305237 133.83676025 156.93305237 133.83676025 157.71669006 132.77349854 C166.14746285 121.18444864 173.38795797 109.08255048 179.47938538 96.11090088 C180.2703803 94.4284883 181.08359258 92.75656569 181.89930725 91.08599854 C192.44864366 68.25746141 198.35243225 42.35366644 198.35243225 17.25396729 C137.30243225 17.25396729 76.25243225 17.25396729 13.35243225 17.25396729 Z " fill="#020000" transform="translate(280.64756774902344,255.74603271484375)"/>
<path d="M0 0 C51.91282246 1.83762203 98.65849251 23.3771393 136 59 C136.85207031 59.79921875 137.70414063 60.5984375 138.58203125 61.421875 C145.46776964 68.05820869 151.3125786 75.33804547 157 83 C157.40105957 83.54027832 157.80211914 84.08055664 158.21533203 84.63720703 C164.59280635 93.32695068 169.99455827 102.46797649 175 112 C175.34417969 112.65419922 175.68835938 113.30839844 176.04296875 113.98242188 C189.2200313 139.45302745 197 168.30519704 197 197 C190.4 197 183.8 197 177 197 C176.09056169 194.27168508 175.73395222 192.10481084 175.45703125 189.265625 C170.19548404 139.41761734 147.42307764 93.65888074 108.16796875 61.859375 C76.47458625 36.84371633 40.06702783 24.01874867 0 21 C0 14.07 0 7.14 0 0 Z " fill="#FDCE63" transform="translate(282,24)"/>
<path d="M0 0 C6.93 0 13.86 0 21 0 C21 48.16442035 -0.16588224 96.18194764 -33 131 C-38.29012124 126.59156563 -43.18808428 121.92440206 -48 117 C-47.44276245 116.36384766 -47.44276245 116.36384766 -46.87426758 115.71484375 C-27.31883123 93.17826363 -14.08752931 67.66701269 -6 39 C-5.78472656 38.25008789 -5.56945312 37.50017578 -5.34765625 36.72753906 C-1.93896803 24.60218898 -0.9470701 12.54867879 0 0 Z " fill="#FB4654" transform="translate(458,273)"/>
</svg>
