<?xml version="1.0" encoding="UTF-8"?>
<svg version="1.1" xmlns="http://www.w3.org/2000/svg" width="512" height="512">
<path d="M0 0 C1.0904811 0.00092179 2.1809622 0.00184359 3.30448818 0.00279331 C4.55115765 0.00141865 5.79782711 0.00004398 7.08227444 -0.00137234 C8.47653127 0.00216727 9.87078785 0.00580209 11.26504421 0.00952244 C12.72330123 0.0098043 14.18155839 0.00964659 15.63981533 0.00907993 C19.61071618 0.00879193 23.58158708 0.01468906 27.55248094 0.02165389 C31.69783233 0.02788702 35.84318434 0.02849119 39.9885397 0.0296793 C47.84377459 0.03279274 55.69899564 0.04100629 63.55422443 0.05102879 C72.49482531 0.06218954 81.43542684 0.06770028 90.37603295 0.07272422 C108.77255694 0.0831889 127.16906802 0.10078858 145.56558132 0.12304783 C146.82814307 3.1487778 147.88707054 6.06715139 148.60333157 9.26600742 C148.78277813 10.05803059 148.96222469 10.85005375 149.14710903 11.66607761 C149.43087147 12.94814091 149.43087147 12.94814091 149.72036648 14.25610447 C149.92548351 15.16724506 150.13060055 16.07838566 150.34193325 17.01713657 C151.01706705 20.02156179 151.68605463 23.02731624 152.35464382 26.03320408 C152.82236587 28.12403336 153.2903361 30.21480714 153.75854397 32.30552769 C154.73797933 36.68362893 155.71436775 41.06239571 156.6886282 45.44165134 C157.93826473 51.05753197 159.19550341 56.67167825 160.45502567 62.28534889 C161.42233554 66.60058231 162.38559852 70.91671127 163.34763622 75.23312283 C163.80968229 77.30387903 164.27299758 79.37435245 164.73759747 81.44453716 C165.38571239 84.33525422 166.02836928 87.22713168 166.66958523 90.11938572 C166.86280865 90.97611881 167.05603207 91.83285191 167.25511074 92.71554661 C167.42891766 93.50474995 167.60272457 94.29395329 167.78179836 95.10707188 C168.01019374 96.13158247 168.01019374 96.13158247 168.24320316 97.17679024 C168.56558132 99.12304783 168.56558132 99.12304783 168.56558132 103.12304783 C169.59296413 103.22875095 170.62034695 103.33445408 171.67886257 103.44336033 C184.32697905 105.65519175 195.36873486 115.2846443 202.95230007 125.26367283 C210.68986416 137.10600751 213.72212177 149.49284804 213.70602322 163.53932285 C213.7104799 164.7707938 213.7104799 164.7707938 213.71502662 166.02714294 C213.72366312 168.76428124 213.72521758 171.50137553 213.72671413 174.23852634 C213.73134595 176.20696702 213.7363711 178.17540681 213.7417593 180.14384556 C213.75485181 185.48304342 213.76132231 190.82222873 213.76576996 196.16144013 C213.76870627 199.50189999 213.77281217 202.84235646 213.77727413 206.1828146 C213.79094188 216.64796449 213.8006116 227.11310658 213.80447602 237.57826477 C213.80895263 249.63304203 213.82648516 261.68770567 213.85547662 273.74244839 C213.87714156 283.07691603 213.8871829 292.41135181 213.88851714 301.7458443 C213.88956188 307.31300986 213.89539887 312.88006851 213.91333675 318.44720745 C213.9299004 323.68969555 213.93193291 328.93199732 213.92319775 334.17450237 C213.92243175 336.08918859 213.92671178 338.00388517 213.936656 339.91854572 C214.03929606 360.92795078 210.91043955 378.45078549 196.38589382 394.53711033 C189.54082375 401.24389616 178.46156513 409.12304783 168.56558132 409.12304783 C168.442355 410.24667225 168.31912868 411.37029667 168.19216824 412.52797031 C167.59252306 417.30354581 166.5973939 421.95189953 165.5401907 426.64428806 C165.33682598 427.56068562 165.13346127 428.47708317 164.92393398 429.42125034 C164.25614645 432.42556279 163.58293388 435.42862803 162.90933132 438.43164158 C162.44211024 440.52526603 161.97511324 442.6189405 161.50833035 444.7126627 C160.53228874 449.08657814 159.55355622 453.45988033 158.57290554 457.83276463 C157.31348129 463.44976206 156.06079385 469.06823693 154.81008053 474.68717957 C153.84853487 479.00358186 152.88348152 483.31919393 151.91734219 487.63457012 C151.45374502 489.70727466 150.99125062 491.78022617 150.5298605 493.85342312 C149.88713221 496.73895188 149.23970641 499.62338586 148.59097195 502.50756931 C148.39977276 503.3703751 148.20857357 504.23318089 148.01158047 505.1221323 C146.67985191 511.00877724 146.67985191 511.00877724 145.56558132 512.12304783 C143.65463193 512.21963687 141.74006266 512.24491975 139.82667446 512.24330235 C138.580005 512.24467701 137.33333553 512.24605167 136.04888821 512.24746799 C134.65463138 512.24392838 133.26037479 512.24029357 131.86611843 512.23657322 C130.40786141 512.23629135 128.94960425 512.23644907 127.49134731 512.23701572 C123.52044647 512.23730373 119.54957557 512.2314066 115.57868171 512.22444177 C111.43333031 512.21820864 107.2879783 512.21760446 103.14262295 512.21641636 C95.28738805 512.21330292 87.432167 512.20508936 79.57693821 512.19506687 C70.63633733 512.18390612 61.6957358 512.17839538 52.75512969 512.17337143 C34.35860571 512.16290676 15.96209463 512.14530708 -2.43441868 512.12304783 C-3.69698042 509.09731786 -4.7559079 506.17894426 -5.47216892 502.98008823 C-5.65161549 502.18806507 -5.83106205 501.39604191 -6.01594639 500.58001804 C-6.20512135 499.72530918 -6.3942963 498.87060032 -6.58920383 497.98999119 C-6.79432087 497.07885059 -6.9994379 496.16771 -7.21077061 495.22895908 C-7.88590441 492.22453387 -8.55489199 489.21877942 -9.22348118 486.21289158 C-9.69120323 484.1220623 -10.15917346 482.03128852 -10.62738132 479.94056797 C-11.60681669 475.56246673 -12.58320511 471.18369994 -13.55746555 466.80444431 C-14.80710209 461.18856369 -16.06434077 455.57441741 -17.32386303 449.96074677 C-18.2911729 445.64551334 -19.25443588 441.32938439 -20.21647358 437.01297283 C-20.67851964 434.94221663 -21.14183493 432.87174321 -21.60643482 430.80155849 C-22.25454974 427.91084144 -22.89720663 425.01896397 -23.53842258 422.12670994 C-23.731646 421.26997684 -23.92486942 420.41324375 -24.1239481 419.53054905 C-24.29775501 418.74134571 -24.47156193 417.95214237 -24.65063572 417.13902378 C-24.8028993 416.45601672 -24.95516289 415.77300966 -25.11204052 415.06930542 C-25.43441868 413.12304783 -25.43441868 413.12304783 -25.43441868 409.12304783 C-26.46180149 409.0173447 -27.4891843 408.91164158 -28.54769993 408.80273533 C-41.19581641 406.5909039 -52.23757221 396.96145136 -59.82113743 386.98242283 C-67.55870152 375.14008814 -70.59095913 362.75324762 -70.57486057 348.7067728 C-70.5778317 347.88579217 -70.58080282 347.06481155 -70.58386397 346.21895272 C-70.59250048 343.48181442 -70.59405494 340.74472013 -70.59555149 338.00756931 C-70.60018331 336.03912864 -70.60520846 334.07068885 -70.61059666 332.1022501 C-70.62368916 326.76305223 -70.63015967 321.42386693 -70.63460732 316.08465552 C-70.63754363 312.74419567 -70.64164953 309.4037392 -70.64611149 306.06328106 C-70.65977923 295.59813117 -70.66944896 285.13298908 -70.67331338 274.66783088 C-70.67778998 262.61305363 -70.69532252 250.55838999 -70.72431397 238.50364727 C-70.74597892 229.16917963 -70.75602026 219.83474385 -70.7573545 210.50025135 C-70.75839924 204.9330858 -70.76423623 199.36602715 -70.78217411 193.79888821 C-70.79873776 188.55640011 -70.80077026 183.31409834 -70.7920351 178.07159328 C-70.7912691 176.15690707 -70.79554913 174.24221048 -70.80549335 172.32754993 C-70.90813342 151.31814487 -67.77927691 133.79531017 -53.25473118 117.70898533 C-46.4096611 111.0021995 -35.33040248 103.12304783 -25.43441868 103.12304783 C-25.31119236 101.99942341 -25.18796604 100.87579899 -25.06100559 99.71812534 C-24.46136042 94.94254985 -23.46623126 90.29419612 -22.40902805 85.60180759 C-22.20566334 84.68541004 -22.00229862 83.76901249 -21.79277134 82.82484531 C-21.12498381 79.82053286 -20.45177124 76.81746763 -19.77816868 73.81445408 C-19.3109476 71.72082962 -18.8439506 69.62715515 -18.3771677 67.53343296 C-17.40112609 63.15951752 -16.42239358 58.78621533 -15.4417429 54.41333103 C-14.18231865 48.7963336 -12.92963121 43.17785872 -11.67891788 37.55891609 C-10.71737223 33.24251379 -9.75231887 28.92690173 -8.78617954 24.61152554 C-8.32258237 22.53882099 -7.86008798 20.46586949 -7.39869785 18.39267254 C-6.75596957 15.50714378 -6.10854377 12.6227098 -5.4598093 9.73852634 C-5.26861012 8.87572056 -5.07741093 8.01291477 -4.88041782 7.12396336 C-3.30658215 0.16713138 -3.30658215 0.16713138 0 0 Z " fill="#17517C" transform="translate(184.4344186782837,-0.1230478286743164)"/>
<path d="M0 0 C12.08335423 -0.04644568 24.16668704 -0.08193125 36.25011253 -0.10362434 C41.8615981 -0.11403862 47.47302236 -0.12815468 53.08447266 -0.15087891 C58.5050275 -0.17269142 63.92552356 -0.18458633 69.34611893 -0.18975449 C71.40884958 -0.19343518 73.47157721 -0.20062249 75.53428268 -0.21146011 C78.43487117 -0.22608685 81.33522012 -0.22797329 84.23583984 -0.22705078 C85.07885651 -0.23424133 85.92187317 -0.24143188 86.79043579 -0.24884033 C102.50738949 -0.19514045 115.20606914 5.95617049 126.26953125 16.984375 C137.84919895 29.30265518 142.15942757 44.85070098 142.14044189 61.41627502 C142.14341302 62.23725565 142.14638414 63.05823628 142.1494453 63.90409511 C142.1580818 66.64123341 142.15963626 69.3783277 142.16113281 72.11547852 C142.16576463 74.08391919 142.17078978 76.05235898 142.17617798 78.02079773 C142.18927049 83.3599956 142.19574099 88.6991809 142.20018864 94.03839231 C142.20312495 97.37885216 142.20723085 100.71930863 142.21169281 104.05976677 C142.22536055 114.52491666 142.23503028 124.99005875 142.2388947 135.45521694 C142.24337131 147.5099942 142.26090384 159.56465784 142.2898953 171.61940056 C142.31156024 180.9538682 142.32160158 190.28830398 142.32293582 199.62279648 C142.32398056 205.18996203 142.32981755 210.75702068 142.34775543 216.32415962 C142.36431908 221.56664772 142.36635158 226.80894949 142.35761642 232.05145454 C142.35685043 233.96614076 142.36113046 235.88083735 142.37107468 237.79549789 C142.47371474 258.80490295 139.34485823 276.32773766 124.8203125 292.4140625 C113.73225139 303.27812238 100.8867729 308.17687151 85.59814453 308.11352539 C84.65576368 308.11364593 83.71338284 308.11376646 82.74244499 308.11389065 C79.70587643 308.113147 76.66937001 308.10554377 73.6328125 308.09765625 C71.75252309 308.09618513 69.87223326 308.09516547 67.99194336 308.09460449 C61.03628931 308.08937127 54.08064404 308.07541002 47.125 308.0625 C31.57375 308.041875 16.0225 308.02125 0 308 C0 270.05 0 232.1 0 193 C3.15830994 196.15830994 4.87858496 199.31605184 6.84375 203.24609375 C7.20977325 203.96552155 7.57579651 204.68494934 7.95291138 205.42617798 C8.73543884 206.96503631 9.51548565 208.50515815 10.29327393 210.04641724 C12.30594208 214.03444422 14.33558861 218.01377806 16.3671875 221.9921875 C16.76610199 222.77390823 17.16501648 223.55562897 17.57601929 224.36103821 C21.22757035 231.49252561 25.0463021 238.52005964 29.00195312 245.48803711 C32 250.80574505 32 250.80574505 32 253 C32.66 253 33.32 253 34 253 C34.25201172 252.16621826 34.50402344 251.33243652 34.76367188 250.47338867 C36.13737248 246.61406037 37.89169997 243.04897883 39.78125 239.42578125 C40.15133179 238.70790939 40.52141357 237.99003754 40.90270996 237.25041199 C42.0975362 234.93553765 43.2985633 232.62394933 44.5 230.3125 C45.32059619 228.72670927 46.14090807 227.14077138 46.9609375 225.5546875 C49.30076657 221.03305513 51.6491577 216.51591401 54 212 C54.59167969 210.86224121 55.18335938 209.72448242 55.79296875 208.55224609 C57.19168202 205.86624099 58.59393013 203.18216002 60 200.5 C60.38994141 199.75532471 60.77988281 199.01064941 61.18164062 198.2434082 C62.68315739 195.39786923 64.2133736 192.6799396 66 190 C68.24658203 189.65942383 68.24658203 189.65942383 71.0078125 189.70703125 C71.8961377 189.71452393 72.78446289 189.7220166 73.69970703 189.72973633 C74.83005371 189.75704834 75.96040039 189.78436035 77.125 189.8125 C82.508125 189.9053125 82.508125 189.9053125 88 190 C88 180.1 88 170.2 88 160 C74.8 160.33 61.6 160.66 48 161 C43.47625788 169.83742845 43.47625788 169.83742845 38.96533203 178.68139648 C38.40185059 179.77524658 37.83836914 180.86909668 37.2578125 181.99609375 C36.39373779 183.68496704 36.39373779 183.68496704 35.51220703 185.40795898 C34 188 34 188 32 189 C31.60844727 188.23671387 31.21689453 187.47342773 30.81347656 186.68701172 C23.67420523 172.78564596 16.51651137 158.90542125 8.94628906 145.23193359 C8.07965124 143.66321336 7.22071781 142.09019424 6.3720808 140.51166344 C5.50435986 138.92325629 4.60808202 137.34983753 3.67367268 135.79972267 C-0.26860859 128.84671327 -0.68977185 123.00304836 -0.56762695 115.11474609 C-0.56835709 113.8648288 -0.56908722 112.6149115 -0.56983948 111.32711792 C-0.56697152 107.93051354 -0.54205903 104.535466 -0.50696969 101.13913679 C-0.47551737 97.57845197 -0.47276071 94.01774201 -0.46684265 90.4569397 C-0.45135916 83.72804203 -0.41040629 76.99955502 -0.3600952 70.27083743 C-0.30402939 62.60454602 -0.27667214 54.93823405 -0.25161803 47.27178836 C-0.1994846 31.51428852 -0.11165082 15.75719741 0 0 Z " fill="#242E5E" transform="translate(256,102)"/>
<path d="M0 0 C1.0904811 0.00092179 2.1809622 0.00184359 3.30448818 0.00279331 C4.55115765 0.00141865 5.79782711 0.00004398 7.08227444 -0.00137234 C8.47653127 0.00216727 9.87078785 0.00580209 11.26504421 0.00952244 C12.72330123 0.0098043 14.18155839 0.00964659 15.63981533 0.00907993 C19.61071618 0.00879193 23.58158708 0.01468906 27.55248094 0.02165389 C31.69783233 0.02788702 35.84318434 0.02849119 39.9885397 0.0296793 C47.84377459 0.03279274 55.69899564 0.04100629 63.55422443 0.05102879 C72.49482531 0.06218954 81.43542684 0.06770028 90.37603295 0.07272422 C108.77255694 0.0831889 127.16906802 0.10078858 145.56558132 0.12304783 C146.82814307 3.1487778 147.88707054 6.06715139 148.60333157 9.26600742 C148.78277813 10.05803059 148.96222469 10.85005375 149.14710903 11.66607761 C149.43087147 12.94814091 149.43087147 12.94814091 149.72036648 14.25610447 C149.92548351 15.16724506 150.13060055 16.07838566 150.34193325 17.01713657 C151.01706705 20.02156179 151.68605463 23.02731624 152.35464382 26.03320408 C152.82236587 28.12403336 153.2903361 30.21480714 153.75854397 32.30552769 C154.73797933 36.68362893 155.71436775 41.06239571 156.6886282 45.44165134 C157.93826473 51.05753197 159.19550341 56.67167825 160.45502567 62.28534889 C161.42233554 66.60058231 162.38559852 70.91671127 163.34763622 75.23312283 C163.80968229 77.30387903 164.27299758 79.37435245 164.73759747 81.44453716 C165.38571239 84.33525422 166.02836928 87.22713168 166.66958523 90.11938572 C166.86280865 90.97611881 167.05603207 91.83285191 167.25511074 92.71554661 C167.42891766 93.50474995 167.60272457 94.29395329 167.78179836 95.10707188 C168.01019374 96.13158247 168.01019374 96.13158247 168.24320316 97.17679024 C168.56558132 99.12304783 168.56558132 99.12304783 168.56558132 103.12304783 C167.73121516 102.96066687 166.896849 102.7982859 166.03719902 102.63098431 C162.33906169 102.08990547 158.74598053 101.98387624 155.01969814 101.99606419 C153.91073229 101.9937242 153.91073229 101.9937242 152.7793631 101.99133694 C150.31298105 101.9873624 147.84666104 101.99050283 145.38027859 101.9936533 C143.60752228 101.99229767 141.83476626 101.99051683 140.06201077 101.98834324 C135.25419112 101.98378777 130.44639295 101.98555082 125.63857293 101.98872232 C120.6036573 101.99125605 115.56874349 101.98890552 110.53382778 101.98733616 C102.07785621 101.98551726 93.62189337 101.98791328 85.16592312 101.99267673 C75.39568969 101.99811706 65.62547714 101.99635724 55.85524422 101.99085033 C47.46187555 101.98630916 39.06851316 101.98567363 30.67514366 101.988289 C25.66434636 101.98984646 20.65355885 101.99006009 15.64276218 101.98675251 C10.9305769 101.98385929 6.21841847 101.98587619 1.50623608 101.99164677 C-0.22110226 101.99296665 -1.94844287 101.99259336 -3.6757803 101.9903841 C-6.03773444 101.9876422 -8.39960312 101.99109082 -10.76155186 101.99606419 C-11.78122041 101.9927181 -11.78122041 101.9927181 -12.82148832 101.98930442 C-17.13111082 102.00684438 -21.19345783 102.43214912 -25.43441868 103.12304783 C-24.78216614 97.17556116 -23.72345464 91.43588018 -22.40902805 85.60180759 C-22.20566334 84.68541004 -22.00229862 83.76901249 -21.79277134 82.82484531 C-21.12498381 79.82053286 -20.45177124 76.81746763 -19.77816868 73.81445408 C-19.3109476 71.72082962 -18.8439506 69.62715515 -18.3771677 67.53343296 C-17.40112609 63.15951752 -16.42239358 58.78621533 -15.4417429 54.41333103 C-14.18231865 48.7963336 -12.92963121 43.17785872 -11.67891788 37.55891609 C-10.71737223 33.24251379 -9.75231887 28.92690173 -8.78617954 24.61152554 C-8.32258237 22.53882099 -7.86008798 20.46586949 -7.39869785 18.39267254 C-6.75596957 15.50714378 -6.10854377 12.6227098 -5.4598093 9.73852634 C-5.26861012 8.87572056 -5.07741093 8.01291477 -4.88041782 7.12396336 C-3.30658215 0.16713138 -3.30658215 0.16713138 0 0 Z " fill="#E1E9F6" transform="translate(184.4344186782837,-0.1230478286743164)"/>
<path d="M0 0 C0.99766891 0.16238096 1.99533783 0.32476192 3.02323914 0.49206352 C6.90412522 1.04333937 10.70543682 1.12585624 14.62817383 1.12698364 C15.36425527 1.12854363 16.1003367 1.13010362 16.85872364 1.13171089 C19.3081803 1.13567749 21.75757421 1.13254815 24.20703125 1.12939453 C25.97008297 1.1307505 27.7331344 1.13253153 29.4961853 1.13470459 C34.27295504 1.13925566 39.04970313 1.13749892 43.82647324 1.1343255 C48.83068652 1.1317899 53.83489797 1.13414279 58.83911133 1.13571167 C67.24202812 1.13752985 75.64493611 1.13513625 84.04785156 1.13037109 C93.75618984 1.12492915 103.46450712 1.12669206 113.17284489 1.1321975 C121.51527873 1.13673862 129.85770627 1.13737428 138.20014095 1.13475883 C143.17962424 1.13320156 148.15909767 1.13298723 153.13858032 1.13629532 C157.82041022 1.13918852 162.50221309 1.13717168 167.18404007 1.13140106 C168.90009135 1.13008124 170.61614492 1.13045435 172.33219528 1.13266373 C174.67876939 1.13540585 177.0252575 1.13195677 179.37182617 1.12698364 C181.3395826 1.1264181 181.3395826 1.1264181 183.34709167 1.12584114 C186.99582198 1.00014393 190.40253463 0.5855248 194 0 C193.34774746 5.94748667 192.28903596 11.68716765 190.97460938 17.52124023 C190.77124466 18.43763779 190.56787994 19.35403534 190.35835266 20.29820251 C189.69056513 23.30251496 189.01735256 26.3055802 188.34375 29.30859375 C187.87652892 31.4022182 187.40953192 33.49589268 186.94274902 35.58961487 C185.96670741 39.96353031 184.9879749 44.3368325 184.00732422 48.7097168 C182.74789997 54.32671423 181.49521253 59.9451891 180.24449921 65.56413174 C179.28295355 69.88053404 178.31790019 74.1961461 177.35176086 78.51152229 C176.88816369 80.58422683 176.4256693 82.65717834 175.96427917 84.73037529 C175.32155089 87.61590405 174.67412509 90.50033803 174.02539062 93.38452148 C173.83419144 94.24732727 173.64299225 95.11013306 173.44599915 95.99908447 C172.11427059 101.88572941 172.11427059 101.88572941 171 103 C169.08905061 103.09658904 167.17448134 103.12187192 165.26109314 103.12025452 C164.01442368 103.12162918 162.76775421 103.12300385 161.48330688 103.12442017 C160.08905006 103.12088056 158.69479347 103.11724574 157.30053711 103.11352539 C155.84228009 103.11324353 154.38402293 103.11340124 152.92576599 103.1139679 C148.95486515 103.1142559 144.98399425 103.10835877 141.01310039 103.10139394 C136.86774899 103.09516081 132.72239698 103.09455663 128.57704163 103.09336853 C120.72180673 103.09025509 112.86658568 103.08204154 105.01135689 103.07201904 C96.07075601 103.06085829 87.13015448 103.05534755 78.18954837 103.05032361 C59.79302439 103.03985893 41.3965133 103.02225925 23 103 C21.73743825 99.97427003 20.67851078 97.05589643 19.96224976 93.85704041 C19.78280319 93.06501724 19.60335663 92.27299408 19.41847229 91.45697021 C19.22929733 90.60226135 19.04012238 89.74755249 18.84521484 88.86694336 C18.64009781 87.95580276 18.43498077 87.04466217 18.22364807 86.10591125 C17.54851427 83.10148604 16.87952669 80.09573159 16.2109375 77.08984375 C15.74321545 74.99901447 15.27524522 72.90824069 14.80703735 70.81752014 C13.82760199 66.4394189 12.85121357 62.06065211 11.87695312 57.68139648 C10.62731659 52.06551586 9.37007791 46.45136958 8.11055565 40.83769894 C7.14324578 36.52246552 6.1799828 32.20633656 5.2179451 27.889925 C4.75589903 25.8191688 4.29258374 23.74869538 3.82798386 21.67851067 C3.17986894 18.78779361 2.53721204 15.89591615 1.89599609 13.00366211 C1.70277267 12.14692902 1.50954926 11.29019592 1.31047058 10.40750122 C1.13666367 9.61829788 0.96285675 8.82909454 0.78378296 8.01597595 C0.63151937 7.33296889 0.47925579 6.64996183 0.32237816 5.94625759 C0 4 0 4 0 0 Z " fill="#CFD4F3" transform="translate(159,409)"/>
<path d="M0 0 C2.93307136 2.55166766 4.40650345 5.41539746 6.15234375 8.86328125 C6.44809296 9.44229691 6.74384216 10.02131256 7.04855347 10.61787415 C7.68430299 11.86335725 8.31758539 13.11010218 8.94863892 14.35797119 C10.63269347 17.68658144 12.33595181 21.00532862 14.0390625 24.32421875 C14.5505056 25.32201355 14.5505056 25.32201355 15.07228088 26.33996582 C17.89009662 31.82211013 20.82387341 37.23409292 23.8125 42.625 C30.03692888 53.87664385 35.86335172 65.33068833 41.68286133 76.79541016 C45.53625464 84.36444246 49.46089103 91.81033249 54 99 C54.41886475 98.18732666 54.83772949 97.37465332 55.26928711 96.53735352 C56.82018111 93.53054459 58.37276414 90.52462078 59.92651367 87.51928711 C60.59939732 86.21690545 61.27160028 84.91417188 61.94311523 83.61108398 C62.90691419 81.74110062 63.87313197 79.87238509 64.83984375 78.00390625 C65.42113037 76.87799072 66.00241699 75.7520752 66.60131836 74.59204102 C68 72 68 72 69 71 C71.95705321 70.91131701 74.89065056 70.88479704 77.84765625 70.90234375 C79.17729652 70.90446617 79.17729652 70.90446617 80.53379822 70.90663147 C83.37673254 70.91224785 86.21958931 70.92480309 89.0625 70.9375 C90.98502491 70.94251289 92.90755104 70.94707616 94.83007812 70.95117188 C99.55343964 70.96137352 104.27663258 70.98094563 109 71 C109 80.9 109 90.8 109 101 C101.74 101.33 94.48 101.66 87 102 C85.55625 104.908125 84.1125 107.81625 82.625 110.8125 C78.41726393 119.25008902 74.08472712 127.61358424 69.671875 135.9453125 C66.54684592 141.84576696 63.46110186 147.76661791 60.375 153.6875 C59.84148926 154.71077393 59.30797852 155.73404785 58.75830078 156.78833008 C57.50523539 159.1920647 56.25245528 161.59594744 55 164 C54.34 164 53.68 164 53 164 C50.28954397 158.89695807 47.58142418 153.79268139 44.875 148.6875 C44.26359161 147.5342926 44.26359161 147.5342926 43.63983154 146.35778809 C38.24738973 136.18256077 32.902074 125.98553505 27.625 115.75 C22.9613195 106.71019927 18.18238061 97.74453405 13.28271484 88.83056641 C8.40386322 79.94863937 3.68878854 70.98338689 -1 62 C-1.66 62 -2.32 62 -3 62 C-4.68401151 64.29644616 -4.68401151 64.29644616 -6.4140625 67.265625 C-7.09339844 68.38453125 -7.77273437 69.5034375 -8.47265625 70.65625 C-9.19053413 71.85390905 -9.90798046 73.05182688 -10.625 74.25 C-12.00927557 76.54915176 -13.39777682 78.84570901 -14.7890625 81.140625 C-15.13253723 81.70777222 -15.47601196 82.27491943 -15.82989502 82.85925293 C-25.1403158 98.1403158 -25.1403158 98.1403158 -28 101 C-30.8843382 101.08865208 -33.74462158 101.11521296 -36.62890625 101.09765625 C-37.92525246 101.09553383 -37.92525246 101.09553383 -39.24778748 101.09336853 C-42.01939292 101.08775239 -44.7909188 101.07519719 -47.5625 101.0625 C-49.4368478 101.05748708 -51.31119685 101.05292381 -53.18554688 101.04882812 C-57.79042021 101.03862681 -62.3951206 101.01905467 -67 101 C-67 91.1 -67 81.2 -67 71 C-63.4525 71.2475 -59.905 71.495 -56.25 71.75 C-51.03237527 71.76021347 -46.06347065 71.71441627 -41.91015625 68.26367188 C-38.18667274 63.53966048 -35.74798582 58.1216499 -33.27539062 52.66845703 C-31.36900849 48.67979762 -28.9722348 45.09254491 -26.5 41.4375 C-25.59382531 40.05634337 -24.69019598 38.67351353 -23.7890625 37.2890625 C-23.33563477 36.59458008 -22.88220703 35.90009766 -22.41503906 35.18457031 C-19.86624015 31.2496751 -17.37232297 27.2801872 -14.875 23.3125 C-9.96269096 15.51162606 -5.00228998 7.74344383 0 0 Z " fill="#A7B4F3" transform="translate(235,191)"/>
<path d="M0 0 C24.42 0 48.84 0 74 0 C75.29826171 3.24565428 76.29709827 5.83517242 77.03775024 9.14295959 C77.30692009 10.33099434 77.30692009 10.33099434 77.58152771 11.54302979 C77.77070267 12.39773865 77.95987762 13.25244751 78.15478516 14.13305664 C78.46246071 15.49976753 78.46246071 15.49976753 78.77635193 16.89408875 C79.45148573 19.89851396 80.12047331 22.90426841 80.7890625 25.91015625 C81.25678455 28.00098553 81.72475478 30.09175931 82.19296265 32.18247986 C83.17239801 36.5605811 84.14878643 40.93934789 85.12304688 45.31860352 C86.37268341 50.93448414 87.62992209 56.54863042 88.88944435 62.16230106 C89.85675422 66.47753448 90.8200172 70.79366344 91.7820549 75.110075 C92.24410097 77.1808312 92.70741626 79.25130462 93.17201614 81.32148933 C93.82013106 84.21220639 94.46278796 87.10408385 95.10400391 89.99633789 C95.29722733 90.85307098 95.49045074 91.70980408 95.68952942 92.59249878 C95.86333633 93.38170212 96.03714325 94.17090546 96.21621704 94.98402405 C96.44461242 96.00853464 96.44461242 96.00853464 96.67762184 97.05374241 C97 99 97 99 97 103 C95.79451004 102.75885216 95.79451004 102.75885216 94.56466675 102.51283264 C90.33680269 101.90458877 86.23043801 101.82429597 81.96533203 101.79467773 C81.06259993 101.78464501 80.15986782 101.77461229 79.2297802 101.76427555 C76.32248329 101.73302156 73.41517268 101.70817365 70.5078125 101.68359375 C68.70694548 101.66517821 66.90608273 101.64634089 65.10522461 101.6270752 C58.44520017 101.55877523 51.78509413 101.49862799 45.125 101.4375 C30.23375 101.293125 15.3425 101.14875 0 101 C0 67.67 0 34.34 0 0 Z " fill="#CFD4F3" transform="translate(256,0)"/>
<path d="M0 0 C0.96821182 0.16076523 1.93642365 0.32153046 2.93397522 0.48716736 C7.31140545 1.10885963 11.64082282 1.17417307 16.05639648 1.20532227 C16.94933694 1.21535499 17.84227739 1.22538771 18.76227665 1.23572445 C21.6318566 1.26692434 24.50145047 1.2918037 27.37109375 1.31640625 C29.15108674 1.33482679 30.93107547 1.35366437 32.71105957 1.3729248 C39.28648927 1.44116426 45.86200055 1.50135011 52.4375 1.5625 C67.143125 1.706875 81.84875 1.85125 97 2 C97 35.33 97 68.66 97 103 C72.58 103 48.16 103 23 103 C21.70173829 99.75434572 20.70290173 97.16482758 19.96224976 93.85704041 C19.78280319 93.06501724 19.60335663 92.27299408 19.41847229 91.45697021 C19.22929733 90.60226135 19.04012238 89.74755249 18.84521484 88.86694336 C18.64009781 87.95580276 18.43498077 87.04466217 18.22364807 86.10591125 C17.54851427 83.10148604 16.87952669 80.09573159 16.2109375 77.08984375 C15.74321545 74.99901447 15.27524522 72.90824069 14.80703735 70.81752014 C13.82760199 66.4394189 12.85121357 62.06065211 11.87695312 57.68139648 C10.62731659 52.06551586 9.37007791 46.45136958 8.11055565 40.83769894 C7.14324578 36.52246552 6.1799828 32.20633656 5.2179451 27.889925 C4.75589903 25.8191688 4.29258374 23.74869538 3.82798386 21.67851067 C3.17986894 18.78779361 2.53721204 15.89591615 1.89599609 13.00366211 C1.70277267 12.14692902 1.50954926 11.29019592 1.31047058 10.40750122 C1.13666367 9.61829788 0.96285675 8.82909454 0.78378296 8.01597595 C0.63151937 7.33296889 0.47925579 6.64996183 0.32237816 5.94625759 C0 4 0 4 0 0 Z " fill="#E2EAF7" transform="translate(159,409)"/>
<path d="M0 0 C3.11444063 2.66054765 4.62788293 5.84066554 6.46875 9.4609375 C6.79033081 10.08851959 7.11191162 10.71610168 7.4432373 11.36270142 C8.46761644 13.36406926 9.48414238 15.36929534 10.5 17.375 C11.51724007 19.37282283 12.53613002 21.36978351 13.5567627 23.36587524 C14.48433842 25.18160793 15.4073315 26.99967952 16.33007812 28.81787109 C17.87603586 31.91849309 17.87603586 31.91849309 19.58308411 34.29621887 C21.30391541 37.57993615 21.36244197 39.74730643 21.34057617 43.44262695 C21.34034958 44.72357742 21.34012299 46.00452789 21.33988953 47.32429504 C21.32457193 48.71229404 21.30892398 50.10028943 21.29296875 51.48828125 C21.28736926 52.91602634 21.28310083 54.34377722 21.28010559 55.77153015 C21.26868449 59.51828088 21.2392414 63.26467936 21.20599365 67.0112915 C21.17523342 70.83885941 21.16158758 74.66648458 21.14648438 78.49414062 C21.11436861 85.99625384 21.06320597 93.49807745 21 101 C17.92883591 98.11448108 16.21449173 94.86971815 14.34765625 91.13671875 C14.00625107 90.46711624 13.66484589 89.79751373 13.31309509 89.10762024 C12.22404648 86.97033027 11.14266753 84.82929039 10.0625 82.6875 C8.98520096 80.55679899 7.90615549 78.42704986 6.82261658 76.29951477 C6.14983653 74.97802953 5.48063527 73.65471379 4.81568909 72.32926941 C2.78670237 68.33789407 0.54338546 64.67229225 -2 61 C-2.36649658 61.57741943 -2.73299316 62.15483887 -3.1105957 62.74975586 C-9.48426129 72.78795605 -15.86224237 82.82327888 -22.3125 92.8125 C-22.77374268 93.52849365 -23.23498535 94.2444873 -23.71020508 94.98217773 C-26.87986981 99.87986981 -26.87986981 99.87986981 -28 101 C-30.8843382 101.08865208 -33.74462158 101.11521296 -36.62890625 101.09765625 C-37.92525246 101.09553383 -37.92525246 101.09553383 -39.24778748 101.09336853 C-42.01939292 101.08775239 -44.7909188 101.07519719 -47.5625 101.0625 C-49.4368478 101.05748708 -51.31119685 101.05292381 -53.18554688 101.04882812 C-57.79042021 101.03862681 -62.3951206 101.01905467 -67 101 C-67 91.1 -67 81.2 -67 71 C-63.4525 71.2475 -59.905 71.495 -56.25 71.75 C-51.03237527 71.76021347 -46.06347065 71.71441627 -41.91015625 68.26367188 C-38.18667274 63.53966048 -35.74798582 58.1216499 -33.27539062 52.66845703 C-31.36900849 48.67979762 -28.9722348 45.09254491 -26.5 41.4375 C-25.59382531 40.05634337 -24.69019598 38.67351353 -23.7890625 37.2890625 C-23.33563477 36.59458008 -22.88220703 35.90009766 -22.41503906 35.18457031 C-19.86624015 31.2496751 -17.37232297 27.2801872 -14.875 23.3125 C-9.96269096 15.51162606 -5.00228998 7.74344383 0 0 Z " fill="#CED4F3" transform="translate(235,191)"/>
<path d="M0 0 C3.18086518 1.50946511 5.29869906 3.07941825 7.75 5.625 C8.67039062 6.57246094 8.67039062 6.57246094 9.609375 7.5390625 C10.06828125 8.02117187 10.5271875 8.50328125 11 9 C14.21524305 7.59155282 16.32183868 5.89655214 18.75 3.375 C19.36359375 2.74335938 19.9771875 2.11171875 20.609375 1.4609375 C21.06828125 0.97882813 21.5271875 0.49671875 22 0 C27.06623768 4.23816537 31.80038069 8.67408963 36.4375 13.375 C37.07365234 14.01566406 37.70980469 14.65632812 38.36523438 15.31640625 C39.91250332 16.87530879 41.45736492 18.43651416 43 20 C41.35333941 24.27238166 38.13947497 27.09544742 34.93359375 30.2265625 C34.33950211 30.81545258 33.74541046 31.40434265 33.13331604 32.01107788 C31.23940726 33.88720808 29.33893569 35.75650105 27.4375 37.625 C25.53338558 39.50150464 23.63074561 41.37944576 21.73097229 43.26034546 C20.54957451 44.42947724 19.36551399 45.59592558 18.17857361 46.75942993 C15.22063127 49.5974205 15.22063127 49.5974205 13 53 C10.14220983 51.70280076 8.08991464 50.3363174 5.88378906 48.11083984 C5.30348938 47.5303891 4.7231897 46.94993835 4.12530518 46.35189819 C3.51161072 45.72788116 2.89791626 45.10386414 2.265625 44.4609375 C1.62759949 43.82008209 0.98957397 43.17922668 0.33221436 42.51895142 C-1.69994069 40.47562179 -3.72502218 38.42544018 -5.75 36.375 C-7.1284453 34.9865214 -8.50734636 33.5984951 -9.88671875 32.2109375 C-13.26311894 28.81251303 -16.63319288 25.40792746 -20 22 C-18.51346494 18.53370165 -16.54277649 16.30977964 -13.8671875 13.671875 C-12.65869141 12.47304687 -12.65869141 12.47304687 -11.42578125 11.25 C-10.58402344 10.425 -9.74226563 9.6 -8.875 8.75 C-8.02550781 7.90953125 -7.17601562 7.0690625 -6.30078125 6.203125 C-4.20495077 4.13084317 -2.10459287 2.06337607 0 0 Z " fill="#FC3276" transform="translate(305,161)"/>
</svg>
