<?xml version="1.0" encoding="UTF-8"?>
<svg version="1.1" xmlns="http://www.w3.org/2000/svg" width="512" height="512">
<path d="M0 0 C4.51144443 1.17289503 6.87658601 3.32348878 10.01280212 6.58595276 C10.89215675 7.46399315 10.89215675 7.46399315 11.78927612 8.35977173 C13.71372768 10.28838658 15.61607963 12.23733672 17.51890564 14.18727112 C18.85280045 15.5323624 20.18803064 16.87613063 21.52453613 18.21862793 C25.03136563 21.74831954 28.51980053 25.29565764 32.00468445 28.84700012 C35.56683041 32.47062362 39.14611311 36.07723176 42.72398376 39.68531799 C49.73628526 46.76188608 56.7292681 53.85721864 63.71031189 60.96461487 C64.47996277 60.64226868 65.24961365 60.31992249 66.04258728 59.98780823 C70.5418328 58.26214355 74.97112984 58.27666909 79.71031189 58.96461487 C82.95046587 60.57188493 84.90501132 62.90308229 87.08531189 65.77711487 C88.81837975 71.84285238 87.66909417 76.08826804 85.71031189 81.96461487 C90.99031189 87.24461487 96.27031189 92.52461487 101.71031189 97.96461487 C103.69031189 97.30461487 105.67031189 96.64461487 107.71031189 95.96461487 C112.96516653 95.49543142 116.25923973 96.09614614 120.71031189 98.96461487 C123.51440752 101.32595856 124.58811717 102.93665182 125.02281189 106.59352112 C125.12266947 111.28058635 125.1314605 114.84866223 122.71031189 118.96461487 C123.22851501 119.20824768 123.74671814 119.45188049 124.28062439 119.70289612 C128.08689137 121.67946241 131.7048487 123.97995948 135.34312439 126.24781799 C146.6091191 133.1233883 158.59312887 138.32086171 170.80195618 143.24345398 C174.17863802 144.60508894 177.5500531 145.97957191 180.92202759 147.35281372 C182.72345134 148.08623758 184.5251419 148.81900641 186.3270874 149.55114746 C198.81349926 154.62575587 211.26782977 159.77850742 223.71885681 164.93922424 C225.64046685 165.73549844 227.56209758 166.53172272 229.48374939 167.32789612 C230.89485741 167.91270248 230.89485741 167.91270248 232.33447266 168.50932312 C237.79200443 170.76777686 243.25813845 173.00327709 248.73458862 175.2154541 C252.05719893 176.55895676 255.37554054 177.91280335 258.69337463 179.26805115 C260.21992261 179.88836188 261.74849318 180.50372338 263.2792511 181.11357117 C271.60839968 184.4334999 279.00304762 187.8358005 285.71031189 193.96461487 C286.37160095 194.56330383 287.03289001 195.1619928 287.71421814 195.77882385 C296.84202856 204.26467557 301.71506093 215.33864446 302.24156189 227.80445862 C302.25202462 230.17034383 302.24142251 232.53641107 302.21031189 234.90211487 C302.22578064 236.07451721 302.24124939 237.24691956 302.25718689 238.45484924 C302.19058459 253.53194381 297.25992394 266.12618373 287.02281189 277.21461487 C275.74219326 287.86124524 262.1561712 292.12143515 246.99237061 292.10505676 C246.1267696 292.10802788 245.2611686 292.11099901 244.36933726 292.11406016 C241.47492896 292.12271674 238.58056217 292.12425288 235.68614197 292.12574768 C233.60773633 292.13037828 231.52933154 292.13540327 229.45092773 292.14079285 C223.80555955 292.15390205 218.16020327 292.16035981 212.51482224 292.1648035 C208.98119018 292.16773875 205.44756133 292.17184458 201.91393089 292.17630768 C190.8395463 292.18998341 179.7651691 292.19964771 168.69077665 292.20350957 C155.9432758 292.20798004 143.19588272 292.22548058 130.44841462 292.25451016 C120.57461546 292.27620764 110.70084641 292.28621826 100.82702368 292.28755069 C94.94054656 292.28859365 89.05417073 292.29439146 83.16771889 292.3123703 C77.61826151 292.32898919 72.06898002 292.33094022 66.51950645 292.32223129 C64.49726766 292.32146805 62.47501887 292.32570788 60.45280457 292.33568954 C35.99458967 292.44920311 15.21178828 288.8001761 -6.1466217 276.44703674 C-7.00078674 275.96943909 -7.85495178 275.49184143 -8.73500061 274.99977112 C-9.49313049 274.56028137 -10.25126038 274.12079163 -11.03236389 273.66798401 C-14.11755363 272.70665677 -15.46537067 273.51520835 -18.28968811 274.96461487 C-19.47163145 275.58992775 -20.64079961 276.24019244 -21.79359436 276.91773987 C-29.45998956 281.28614583 -37.00985994 284.8595501 -45.47718811 287.40211487 C-46.24683899 287.63640198 -47.01648987 287.87068909 -47.8094635 288.11207581 C-62.57548187 292.29169091 -77.3375284 292.27649446 -92.54750061 292.26539612 C-94.78560972 292.26929175 -97.02371811 292.27362818 -99.26182556 292.27838135 C-103.92982899 292.28580258 -108.59775671 292.2855811 -113.26576233 292.2802887 C-119.22130734 292.27448348 -125.17654242 292.29147071 -131.13203621 292.31463337 C-135.74595422 292.32942097 -140.3597983 292.33023584 -144.97373581 292.32712364 C-147.16878246 292.32763379 -149.36383359 292.33281341 -151.55885696 292.34293556 C-169.3075279 292.41478697 -184.67436142 291.61915634 -198.37171936 279.04273987 C-207.92101406 268.69604989 -211.40877519 256.93343201 -210.95326233 243.15992737 C-209.85704673 229.14037782 -204.69648026 215.20891362 -200.70246887 201.78010559 C-194.94983163 182.42716795 -191.14165046 165.17555482 -191.32711792 144.8041687 C-191.09556524 127.23778739 -185.05711547 108.42306176 -176.25843811 93.33961487 C-175.03425448 90.33839048 -175.22918459 89.00759119 -176.28968811 85.96461487 C-177.79800767 83.5173823 -177.79800767 83.5173823 -179.66468811 81.15211487 C-186.0263452 72.37876401 -187.4496189 63.77306508 -187.42250061 53.13648987 C-187.4239357 51.89116486 -187.4239357 51.89116486 -187.42539978 50.62068176 C-187.42607726 48.87595035 -187.42425326 47.13121637 -187.4200592 45.38648987 C-187.41467753 42.70934964 -187.42003273 40.03237511 -187.42640686 37.35523987 C-187.42574653 35.65732283 -187.42446632 33.9594059 -187.42250061 32.26148987 C-187.42452484 31.45943115 -187.42654907 30.65737244 -187.42863464 29.83100891 C-187.40466642 24.19457149 -187.40466642 24.19457149 -186.28968811 21.96461487 C-184.53968811 21.15211487 -184.53968811 21.15211487 -182.28968811 20.96461487 C-177.3760627 23.29988913 -174.10215098 27.0874945 -170.41468811 30.96461487 C-143.66410372 58.2976637 -105.87457126 73.41852036 -67.74427795 74.00367737 C-53.6821462 73.96089469 -40.05285817 71.68398899 -26.28968811 68.96461487 C-26.31325378 67.69569397 -26.31325378 67.69569397 -26.33729553 66.40113831 C-26.38902756 63.20292003 -26.42632717 60.00491796 -26.45448303 56.80641174 C-26.46938734 55.43329261 -26.48971808 54.06021948 -26.51600647 52.68727112 C-26.86643944 33.88757273 -22.03092063 19.0132978 -9.28968811 4.96461487 C-8.49884827 4.09063049 -8.49884827 4.09063049 -7.69203186 3.19898987 C-5.08339764 0.66687559 -3.66039306 -0.03937257 0 0 Z " fill="#C6C0C7" transform="translate(210.28968811035156,110.03538513183594)"/>
<path d="M0 0 C3.4886345 1.15019651 6.8936727 2.31727156 10.24609375 3.8203125 C11.06150635 4.18181396 11.87691895 4.54331543 12.71704102 4.91577148 C13.61479248 5.31481689 14.51254395 5.7138623 15.4375 6.125 C25.91346321 10.72743927 36.47115082 15.10905406 47.0625 19.4375 C48.28022598 19.93530975 48.28022598 19.93530975 49.52255249 20.44317627 C52.93812406 21.83937536 56.35373644 23.23547438 59.76951599 24.63116455 C69.60905873 28.65373865 79.43576847 32.70733191 89.26071167 36.76541138 C92.15800077 37.96200393 95.05567781 39.15765337 97.95336914 40.35327148 C102.43096084 42.20154489 106.90568046 44.05665066 111.37927246 45.9145813 C114.04902864 47.02030604 116.72214384 48.11763051 119.39550781 49.21459961 C121.10753679 49.92273656 122.81945563 50.63113987 124.53125 51.33984375 C125.30978333 51.65691284 126.08831665 51.97398193 126.89044189 52.30065918 C132.68859582 54.71389542 137.44709488 57.62681482 142 62 C142.6290625 62.56460938 143.258125 63.12921875 143.90625 63.7109375 C153.05817332 72.28117078 158.00031236 83.26898344 158.53125 95.83984375 C158.54171273 98.20572896 158.53111063 100.57179621 158.5 102.9375 C158.51546875 104.10990234 158.5309375 105.28230469 158.546875 106.49023438 C158.4802727 121.56732894 153.54961205 134.16156886 143.3125 145.25 C132.03188137 155.89663037 118.44585931 160.15682028 103.28205872 160.14044189 C101.98365721 160.14489858 101.98365721 160.14489858 100.65902537 160.1494453 C97.76461707 160.15810187 94.87025029 160.15963801 91.97583008 160.16113281 C89.89742444 160.16576342 87.81901965 160.1707884 85.74061584 160.17617798 C80.09524767 160.18928718 74.44989138 160.19574494 68.80451035 160.20018864 C65.27087829 160.20312388 61.73724944 160.20722971 58.203619 160.21169281 C47.12923441 160.22536854 36.05485721 160.23503284 24.98046476 160.2388947 C12.23296391 160.24336517 -0.51442916 160.26086571 -13.26189727 160.2898953 C-23.13569643 160.31159278 -33.00946548 160.32160339 -42.8832882 160.32293582 C-48.76976533 160.32397878 -54.65614116 160.32977659 -60.542593 160.34775543 C-66.09205038 160.36437432 -71.64133187 160.36632535 -77.19080544 160.35761642 C-79.21304423 160.35685318 -81.23529302 160.36109302 -83.25750732 160.37107468 C-113.3405262 160.51069364 -138.45135832 153.70248633 -163.52197266 136.61791992 C-169.17719857 132.9255867 -175.13135358 129.70303001 -181.00878906 126.38085938 C-182.72147149 125.41119998 -184.43108458 124.43612568 -186.140625 123.4609375 C-187.14641602 122.89165527 -188.15220703 122.32237305 -189.18847656 121.73583984 C-191.98789869 120.00747137 -194.45123502 118.07419714 -197 116 C-196.4078532 115.99902319 -195.8157064 115.99804638 -195.20561576 115.99703997 C-160.08282428 115.93872353 -124.96009859 115.86489319 -89.83738373 115.77101372 C-85.61684987 115.75974603 -81.39631567 115.7486075 -77.17578125 115.73754883 C-76.33557561 115.73534514 -75.49536997 115.73314146 -74.62970355 115.730871 C-61.0387148 115.69553244 -47.44772611 115.6706489 -33.8567085 115.64965298 C-19.90322076 115.62786348 -5.94979245 115.59478322 8.0036447 115.55129844 C16.60841383 115.52483591 25.21310894 115.50710082 33.81791672 115.50065396 C39.72461365 115.49538352 45.63121757 115.47911119 51.5378646 115.45433434 C54.94188505 115.44037568 58.34559809 115.43276247 61.74966812 115.43499184 C65.45035022 115.43664988 69.15052317 115.41989889 72.85113525 115.39872742 C73.91342858 115.40357499 74.9757219 115.40842257 76.07020593 115.41341704 C91.7416752 115.2661338 106.08392156 110.22193949 118 100 C119.3752548 98.36775314 120.72175453 96.70928174 122 95 C120.75863281 95.03609375 119.51726562 95.0721875 118.23828125 95.109375 C110.47425771 95.10394846 102.77222151 94.24966402 95.05010986 93.51980591 C78.18518246 91.93025746 61.31180148 90.53634047 44.41729736 89.30310059 C4.53618833 86.38859526 -35.32927197 83.07892153 -75 78 C-75 75 -75 75 -73.8286972 73.45955372 C-73.27562141 72.90924331 -72.72254562 72.3589329 -72.15270996 71.79194641 C-71.52164841 71.15676086 -70.89058685 70.52157532 -70.24040222 69.86714172 C-69.53909683 69.17662216 -68.83779144 68.4861026 -68.11523438 67.7746582 C-67.01795769 66.6767244 -67.01795769 66.6767244 -65.89851379 65.55661011 C-63.47063345 63.13082544 -61.03228772 60.71584846 -58.59375 58.30078125 C-56.91157969 56.62420409 -55.23006902 54.94696485 -53.54919434 53.26908875 C-49.11699504 48.84836016 -44.67586126 44.43671303 -40.23284912 40.02685547 C-35.70322011 35.52787922 -31.18204044 31.02042995 -26.66015625 26.51367188 C-17.78171844 17.6674375 -8.89410877 8.83047701 0 0 Z " fill="#665E66" transform="translate(354,242)"/>
<path d="M0 0 C6.41069287 5.27101414 12.18590512 11.09128152 18 17 C18.9178125 16.67644531 19.835625 16.35289062 20.78125 16.01953125 C25.66069687 14.4739783 29.37404824 14.39425327 34.1875 16.1875 C37.46883541 18.30213838 39.12726587 19.54264469 41 23 C41.6413748 28.39556549 41.81079204 33.22165353 39 38 C39.50273437 38.23589844 40.00546875 38.47179687 40.5234375 38.71484375 C43.98437482 40.51081911 47.29176806 42.54148868 50.625 44.5625 C55.24141479 47.40825846 55.24141479 47.40825846 60 50 C58.67999647 52.92234878 57.25818718 54.9888894 54.98812866 57.24565125 C54.0626548 58.17308136 54.0626548 58.17308136 53.1184845 59.11924744 C52.44307114 59.7858992 51.76765778 60.45255096 51.07177734 61.1394043 C50.35947464 61.85039276 49.64717194 62.56138123 48.9132843 63.29391479 C46.55873059 65.64197903 44.19728901 67.98299264 41.8359375 70.32421875 C40.20161133 71.95227584 38.56779837 73.58084827 36.93447876 75.20991516 C32.63475559 79.49633282 28.32950048 83.77714746 24.02264404 88.05639648 C17.12002246 94.91589558 10.22413338 101.7821472 3.33140945 108.65159035 C0.91619349 111.05653825 -1.50238167 113.45807054 -3.92129517 115.85929871 C-5.39116532 117.32234531 -6.86092837 118.78549953 -8.33056641 120.2487793 C-9.01002823 120.92150375 -9.68949005 121.59422821 -10.38954163 122.28733826 C-11.94541582 123.8393551 -13.47584401 125.41682304 -15 127 C-15 127.33 -15 127.66 -15 128 C13.19567412 131.72958652 41.47621833 134.26336789 69.8125 136.625 C71.13007986 136.73498259 71.13007986 136.73498259 72.4742775 136.84718704 C88.76970871 138.20647242 105.06743055 139.53671929 121.36914062 140.81860352 C122.64046483 140.91861223 122.64046483 140.91861223 123.93747234 141.02064133 C127.93341227 141.33463312 131.92945854 141.6471444 135.92573547 141.95681763 C151.29741371 143.15336447 166.64952659 144.5588658 182 146 C177.56143927 155.29286427 167.0362566 160.35797857 157.8828125 164.10546875 C149.68729265 166.64852301 141.74896007 167.30703386 133.20413208 167.34817505 C131.48135617 167.3676719 131.48135617 167.3676719 129.7237767 167.38756263 C125.89546825 167.42814745 122.06720127 167.4547226 118.23876953 167.48095703 C116.18702729 167.4993283 114.13530309 167.51918113 112.08357646 167.53921391 C102.35012365 167.6339603 92.61654472 167.69968741 82.8828125 167.7578125 C82.11264476 167.76242766 81.34247703 167.76704282 80.54897088 167.77179784 C65.21353364 167.86279903 49.87803605 167.93963913 34.54242134 167.99325752 C31.1768804 168.0052328 27.81134025 168.01740449 24.44580078 168.02978516 C23.60946589 168.03285112 22.77313101 168.03591708 21.91145264 168.03907596 C8.40239657 168.09036139 -5.10540152 168.2040094 -18.61381267 168.34271576 C-32.53147604 168.48442493 -46.44849362 168.56424021 -60.36686623 168.58675659 C-68.16207064 168.6009733 -75.95509161 168.64150398 -83.74956894 168.75281143 C-90.39677107 168.84767662 -97.0414607 168.88587585 -103.68931411 168.85504843 C-107.07020863 168.8410368 -110.44150083 168.85984262 -113.82221222 168.9342041 C-135.55585589 169.38665314 -149.48756442 162.95432662 -167 151 C-167 148 -167 148 -165.19119263 145.81697083 C-163.92116898 144.54789131 -163.92116898 144.54789131 -162.62548828 143.25317383 C-162.16052948 142.78456436 -161.69557068 142.3159549 -161.21652222 141.83314514 C-159.67510145 140.28360729 -158.12306807 138.74520434 -156.5703125 137.20703125 C-155.4984209 136.13565808 -154.42704679 135.06376695 -153.35617065 133.99137878 C-151.10948478 131.74478268 -148.85771309 129.50345163 -146.60205078 127.26586914 C-143.70590267 124.39242195 -140.82097168 121.50801936 -137.93953133 118.61983204 C-135.7283619 116.40532706 -133.51224591 114.19582869 -131.29449081 111.98792076 C-130.2285901 110.92587846 -129.16404567 109.86247319 -128.10086441 108.79770851 C-126.61654564 107.31302037 -125.12592101 105.83497833 -123.63330078 104.35864258 C-122.36089035 103.09314323 -122.36089035 103.09314323 -121.06277466 101.80207825 C-119 100 -119 100 -117 100 C-116.73446886 99.40942936 -116.46893772 98.81885872 -116.19536018 98.210392 C-114.96532771 95.93588597 -113.69987274 94.45333851 -111.87423706 92.63372803 C-111.23201202 91.98875366 -110.58978699 91.3437793 -109.92810059 90.67926025 C-109.22463501 89.98298523 -108.52116943 89.28671021 -107.79638672 88.56933594 C-107.0548233 87.82748047 -106.31325989 87.085625 -105.54922485 86.32128906 C-103.09742329 83.87088061 -100.63861395 81.427632 -98.1796875 78.984375 C-96.47817175 77.28658943 -94.77709708 75.58836171 -93.07644653 73.88970947 C-88.59935194 69.42025084 -84.11628362 64.95683086 -79.63195801 60.49462891 C-75.05701531 55.94014532 -70.48772952 51.37999433 -65.91796875 46.8203125 C-56.95085005 37.87464308 -47.97760292 28.9351471 -39 20 C-37.90816406 20.48597656 -36.81632813 20.97195312 -35.69140625 21.47265625 C-31.94688967 23.02197475 -29.97306407 23.59173295 -26 23 C-19.98538961 19.64552464 -15.52130212 14.71078032 -10.75 9.8125 C-9.14283782 8.17100762 -7.53356878 6.53157452 -5.921875 4.89453125 C-5.21643555 4.17112549 -4.51099609 3.44771973 -3.78417969 2.70239258 C-2 1 -2 1 0 0 Z " fill="#C6C0C7" transform="translate(294,191)"/>
<path d="M0 0 C17.0622475 9.26536843 34.00649026 18.73281621 50.703125 28.64257812 C55.31083295 31.36567083 59.93804622 34.05548001 64.5625 36.75 C70.73228409 40.34496535 76.9015893 43.94062325 83.0625 47.55078125 C97.98124589 56.28680912 112.9951657 64.84302005 128.08203125 73.28515625 C135.94377322 77.68671405 143.77388199 82.1422827 151.58529663 86.63262939 C153.25690503 87.59305772 154.92982219 88.55120707 156.6027832 89.50927734 C163.52185918 93.49518065 170.30161541 97.65343334 177 102 C168.83101286 110.5283333 156.94078636 115.0736835 145.8125 118.4375 C145.04292969 118.67194824 144.27335938 118.90639648 143.48046875 119.14794922 C128.71284414 123.32449523 113.95323885 123.31188038 98.7421875 123.30078125 C96.50407839 123.30467688 94.26597 123.30901331 92.02786255 123.31376648 C87.35985912 123.32118771 82.6919314 123.32096623 78.02392578 123.31567383 C72.06838077 123.30986861 66.11314569 123.32685584 60.1576519 123.3500185 C55.54373389 123.3648061 50.92988981 123.36562098 46.3159523 123.36250877 C44.12090565 123.36301892 41.92585452 123.36819855 39.73083115 123.37832069 C21.98216021 123.4501721 6.61532669 122.65454147 -7.08203125 110.078125 C-16.59363153 99.77227704 -20.11684506 88.0380616 -19.66357422 74.31396484 C-18.64686374 61.1738455 -14.29350167 48.25393439 -10.71417236 35.62634277 C-9.83535462 32.50599243 -8.97866751 29.37975932 -8.12285709 26.25303364 C-6.35951483 19.81138106 -4.58281191 13.37328809 -2.76586914 6.9465332 C-2.28954796 5.25497856 -2.28954796 5.25497856 -1.80360413 3.5292511 C-1 1 -1 1 0 0 Z " fill="#4073C8" transform="translate(19,279)"/>
<path d="M0 0 C4.11934121 2.26853861 6.9423103 5.56514935 10.1484375 8.96484375 C37.15958708 36.69839896 74.68932994 51.73002186 113.27050781 52.58251953 C140.53995096 52.70449487 166.28597131 45.56900197 190.0871582 32.55200195 C199.47091187 27.44458958 207.96788238 25.36040442 218.7734375 26.52734375 C219.7634375 27.18734375 220.7534375 27.84734375 221.7734375 28.52734375 C184.8134375 65.48734375 147.8534375 102.44734375 109.7734375 140.52734375 C81.81885848 129.34551214 55.25893514 108.26676769 32.7734375 88.52734375 C32.04125 87.89441406 31.3090625 87.26148438 30.5546875 86.609375 C28.61577737 84.92821682 26.69189597 83.23179091 24.7734375 81.52734375 C23.55527344 80.44839844 23.55527344 80.44839844 22.3125 79.34765625 C17.79386974 75.31752656 13.39926682 71.24812574 9.24609375 66.83984375 C7.69188353 65.28064345 7.69188353 65.28064345 4.7734375 64.52734375 C-3.72347684 54.62071408 -6.39198697 44.49057448 -6.359375 31.69921875 C-6.36033173 30.86900208 -6.36128845 30.0387854 -6.36227417 29.18341064 C-6.36295165 27.43867924 -6.36112765 25.69394525 -6.35693359 23.94921875 C-6.35155192 21.27207852 -6.35690712 18.59510399 -6.36328125 15.91796875 C-6.36262092 14.22005171 -6.36134071 12.52213478 -6.359375 10.82421875 C-6.36139923 10.02216003 -6.36342346 9.22010132 -6.36550903 8.39373779 C-6.34154081 2.75730037 -6.34154081 2.75730037 -5.2265625 0.52734375 C-2.2265625 -0.47265625 -2.2265625 -0.47265625 0 0 Z " fill="#DC636E" transform="translate(29.2265625,131.47265625)"/>
<path d="M0 0 C3.4886345 1.15019651 6.8936727 2.31727156 10.24609375 3.8203125 C11.46921265 4.3625647 11.46921265 4.3625647 12.71704102 4.91577148 C13.61479248 5.31481689 14.51254395 5.7138623 15.4375 6.125 C25.91346321 10.72743927 36.47115082 15.10905406 47.0625 19.4375 C48.28022598 19.93530975 48.28022598 19.93530975 49.52255249 20.44317627 C52.93812406 21.83937536 56.35373644 23.23547438 59.76951599 24.63116455 C69.60905873 28.65373865 79.43576847 32.70733191 89.26071167 36.76541138 C92.15800077 37.96200393 95.05567781 39.15765337 97.95336914 40.35327148 C102.43096084 42.20154489 106.90568046 44.05665066 111.37927246 45.9145813 C114.04902864 47.02030604 116.72214384 48.11763051 119.39550781 49.21459961 C121.10753679 49.92273656 122.81945563 50.63113987 124.53125 51.33984375 C125.30978333 51.65691284 126.08831665 51.97398193 126.89044189 52.30065918 C132.68859582 54.71389542 137.44709488 57.62681482 142 62 C142.6290625 62.56460938 143.258125 63.12921875 143.90625 63.7109375 C149.30003066 68.76189311 153.81811187 74.85927523 156 82 C156 83.32 156 84.64 156 86 C154.25976562 86.00386719 154.25976562 86.00386719 152.484375 86.0078125 C141.7795998 86.20753702 132.61793692 87.29404966 124.1424408 94.60157776 C121.53654342 96.30250917 120.39778008 96.26083152 117.33813477 95.94506836 C116.40622818 95.85748764 115.47432159 95.76990692 114.51417542 95.67967224 C113.50016159 95.56752884 112.48614777 95.45538544 111.44140625 95.33984375 C110.37119736 95.23555557 109.30098846 95.1312674 108.198349 95.02381897 C105.8740369 94.79586201 103.55044391 94.56047988 101.22753906 94.31860352 C94.95840802 93.66671745 88.68397764 93.06960147 82.41015625 92.46484375 C80.47548996 92.27612198 80.47548996 92.27612198 78.5017395 92.08358765 C66.92487622 90.9642689 55.33792585 90.06572622 43.73742676 89.23269653 C4.08128299 86.38233176 -35.55708124 83.04975581 -75 78 C-75 75 -75 75 -73.8286972 73.45955372 C-73.27562141 72.90924331 -72.72254562 72.3589329 -72.15270996 71.79194641 C-71.52164841 71.15676086 -70.89058685 70.52157532 -70.24040222 69.86714172 C-69.53909683 69.17662216 -68.83779144 68.4861026 -68.11523438 67.7746582 C-67.01795769 66.6767244 -67.01795769 66.6767244 -65.89851379 65.55661011 C-63.47063345 63.13082544 -61.03228772 60.71584846 -58.59375 58.30078125 C-56.91157969 56.62420409 -55.23006902 54.94696485 -53.54919434 53.26908875 C-49.11699504 48.84836016 -44.67586126 44.43671303 -40.23284912 40.02685547 C-35.70322011 35.52787922 -31.18204044 31.02042995 -26.66015625 26.51367188 C-17.78171844 17.6674375 -8.89410877 8.83047701 0 0 Z " fill="#DD636E" transform="translate(354,242)"/>
<path d="M0 0 C4.09772657 1.60982115 6.76485294 4.57605826 9.75 7.6875 C14.29112748 12.3908106 19.02567291 16.75652912 24 21 C24.64001953 21.54648193 25.28003906 22.09296387 25.93945312 22.65600586 C47.41329052 40.84730504 70.64838997 56.93514972 95.15234375 70.78125 C96.07144531 71.3071875 96.99054688 71.833125 97.9375 72.375 C99.12666016 73.03628906 99.12666016 73.03628906 100.33984375 73.7109375 C100.88769531 74.13632812 101.43554688 74.56171875 102 75 C102 78 102 78 100.25366211 80.10710144 C99.43647705 80.91762466 98.61929199 81.72814789 97.77734375 82.56323242 C96.85638916 83.48396042 95.93543457 84.40468842 94.98657227 85.35331726 C93.97037325 86.35419528 92.95401196 87.35490856 91.9375 88.35546875 C90.90551679 89.38185744 89.87419345 90.40891 88.84350586 91.43659973 C86.12761904 94.14102652 83.40284399 96.83632431 80.67614746 99.52984619 C77.89588266 102.27943514 75.12408024 105.03752533 72.3515625 107.79492188 C66.90930852 113.20499126 61.45764089 118.60544854 56 124 C52.37861799 122.58207839 49.03436012 120.99845838 45.640625 119.09375 C44.61638428 118.52011719 43.59214355 117.94648438 42.53686523 117.35546875 C41.45219971 116.74316406 40.36753418 116.13085938 39.25 115.5 C38.124729 114.86707031 36.99945801 114.23414063 35.84008789 113.58203125 C28.34398553 109.35398296 20.89528937 105.05511971 13.49609375 100.66015625 C9.89575742 98.52274457 6.27995262 96.4128778 2.66015625 94.30859375 C1.55937744 93.66857422 0.45859863 93.02855469 -0.67553711 92.36914062 C-2.86453747 91.09724734 -5.05413833 89.82638692 -7.24438477 88.55664062 C-8.23623779 87.97978516 -9.22809082 87.40292969 -10.25 86.80859375 C-11.14203125 86.29095459 -12.0340625 85.77331543 -12.953125 85.23999023 C-15 84 -15 84 -16 83 C-17.83141026 56.78585956 -14.22778628 30.46755191 -1.06640625 7.375 C0.12412383 4.72356303 0.21042358 2.87407815 0 0 Z " fill="#F0F0F3" transform="translate(35,196)"/>
<path d="M0 0 C20.30700747 2.41803271 40.65865855 4.16541962 61.03804398 5.83910942 C64.55507955 6.12896651 68.07174732 6.42314575 71.58840752 6.7175169 C91.13884787 8.35390933 110.69297965 9.94020851 130.25328445 11.45435905 C145.61768666 12.6488968 160.96234478 14.05394143 176.305439 15.49438286 C171.78881472 24.95068612 161.0411015 30.01538181 151.69997025 33.69750786 C146.45333774 35.44353238 141.45291266 35.63517325 135.95953751 35.61463737 C134.7035623 35.61591901 134.7035623 35.61591901 133.42221385 35.61722654 C130.61853727 35.61887272 127.81492061 35.61337407 125.01124954 35.60790825 C123.00068539 35.60762617 120.99012113 35.60778453 118.97955704 35.60835075 C113.5213405 35.6086379 108.06314589 35.60275446 102.60493445 35.5957768 C96.90075908 35.58952956 91.19658321 35.58893837 85.49240494 35.58775139 C74.69069657 35.58464212 63.88899831 35.57643417 53.0872944 35.5664019 C40.78995307 35.55522822 28.49261127 35.54972714 16.19526613 35.54470646 C-9.10134852 35.53425124 -34.3979542 35.5166596 -59.694561 35.49438286 C-58.73342851 34.36826422 -57.77161845 33.24272384 -56.80952072 32.11742973 C-56.27398512 31.49058281 -55.73844952 30.86373589 -55.18668556 30.2178936 C-53.62439894 28.41334065 -52.01321466 26.68399547 -50.3273735 24.99438286 C-49.75591599 24.42099174 -49.18445847 23.84760063 -48.59568405 23.25683403 C-48.00956345 22.67522514 -47.42344284 22.09361626 -46.819561 21.49438286 C-46.20314743 20.87990288 -45.58673386 20.2654229 -44.95164108 19.63232231 C-41.27124218 15.98680412 -37.53474628 12.46815362 -33.5461235 9.15844536 C-31.56962728 7.44214076 -31.56962728 7.44214076 -29.5304985 5.08032036 C-28.78026413 4.24758598 -28.03002975 3.41485161 -27.257061 2.55688286 C-26.59835007 1.78473442 -25.93963913 1.01258598 -25.26096725 0.21703911 C-18.69607887 -4.18952981 -7.52427861 -0.90093409 0 0 Z " fill="#DEDCE1" transform="translate(299.6945610046387,321.50561714172363)"/>
<path d="M0 0 C6.78376359 5.55035203 12.85522968 11.76442027 19 18 C17.56687052 21.26099934 15.81014712 23.45223233 13.31391907 25.98042297 C12.16381599 27.15199196 12.16381599 27.15199196 10.99047852 28.347229 C10.14839844 29.19468689 9.30631836 30.04214478 8.4387207 30.9152832 C7.55234421 31.81480209 6.66596771 32.71432098 5.75273132 33.64109802 C2.8176248 36.6181664 -0.12805133 39.58466558 -3.07421875 42.55078125 C-4.08885704 43.57351737 -5.10342701 44.59632126 -6.11792946 45.61919212 C-10.88241907 50.421749 -15.65168866 55.21949528 -20.42690247 60.01138908 C-25.93786716 65.54192368 -31.43185831 71.08863261 -36.91211003 76.64959842 C-41.15126091 80.94902745 -45.40560959 85.23302912 -49.67168933 89.50573796 C-52.21877379 92.05752619 -54.75880504 94.61551199 -57.28299522 97.1899662 C-60.09743087 100.0595374 -62.94264781 102.89653269 -65.79174805 105.73168945 C-66.62370697 106.58926849 -67.45566589 107.44684753 -68.31283569 108.33041382 C-74.07109536 113.9862592 -74.07109536 113.9862592 -78.92597961 114.05807495 C-79.94040634 113.70891022 -80.95483307 113.35974548 -82 113 C-82.78955078 112.78190674 -83.57910156 112.56381348 -84.39257812 112.33911133 C-85.09833984 112.0892749 -85.80410156 111.83943848 -86.53125 111.58203125 C-87.7373291 111.15869507 -87.7373291 111.15869507 -88.96777344 110.72680664 C-89.8034082 110.42508545 -90.63904297 110.12336426 -91.5 109.8125 C-92.36915039 109.50368896 -93.23830078 109.19487793 -94.13378906 108.87670898 C-101.83692587 106.11479406 -109.4384406 103.12773594 -117 100 C-115.65972043 97.01906991 -114.18468111 94.93654685 -111.87423706 92.63372803 C-111.23201202 91.98875366 -110.58978699 91.3437793 -109.92810059 90.67926025 C-109.22463501 89.98298523 -108.52116943 89.28671021 -107.79638672 88.56933594 C-107.0548233 87.82748047 -106.31325989 87.085625 -105.54922485 86.32128906 C-103.09742329 83.87088061 -100.63861395 81.427632 -98.1796875 78.984375 C-96.47817175 77.28658943 -94.77709708 75.58836171 -93.07644653 73.88970947 C-88.59935194 69.42025084 -84.11628362 64.95683086 -79.63195801 60.49462891 C-75.05701531 55.94014532 -70.48772952 51.37999433 -65.91796875 46.8203125 C-56.95085005 37.87464308 -47.97760292 28.9351471 -39 20 C-37.90816406 20.48597656 -36.81632812 20.97195312 -35.69140625 21.47265625 C-31.94688967 23.02197475 -29.97306407 23.59173295 -26 23 C-19.98538961 19.64552464 -15.52130212 14.71078032 -10.75 9.8125 C-9.14283782 8.17100762 -7.53356878 6.53157452 -5.921875 4.89453125 C-5.21643555 4.17112549 -4.51099609 3.44771973 -3.78417969 2.70239258 C-2 1 -2 1 0 0 Z " fill="#DC646F" transform="translate(294,191)"/>
<path d="M0 0 C2.55244343 0.62182218 4.91208095 1.23123398 7.3344574 2.22459412 C8.38947449 2.6479303 8.38947449 2.6479303 9.46580505 3.07981873 C10.19847595 3.38153992 10.93114685 3.68326111 11.6860199 3.99412537 C18.05840612 6.54961358 24.45411135 8.97980256 30.9360199 11.24412537 C31.67642517 11.5028241 32.41683044 11.76152283 33.17967224 12.02806091 C34.88929129 12.62330546 36.60002183 13.21535641 38.3110199 13.80662537 C32.14577105 21.35878432 25.11690421 28.06463838 18.19065857 34.90647888 C12.00107306 41.02732137 5.92356157 47.14260603 0.3110199 53.80662537 C-1.54480841 55.99259936 -3.43782048 58.13144861 -5.3764801 60.24412537 C-5.81669495 60.77199646 -6.25690979 61.29986755 -6.71046448 61.84373474 C-10.61431302 66.00392355 -14.67705394 67.05196272 -20.31129456 67.27513123 C-27.13998939 66.32794905 -32.69835 62.45962585 -38.4389801 58.86912537 C-39.7316026 58.09098997 -41.02586678 57.31557492 -42.3217926 56.54295349 C-45.46372617 54.66181462 -48.58188142 52.74489651 -51.6889801 50.80662537 C-51.6889801 46.72166359 -50.22373084 45.93328927 -47.39381409 43.04393005 C-46.93688675 42.57371429 -46.47995941 42.10349854 -46.00918579 41.61903381 C-44.49274847 40.06383629 -42.96493759 38.52048556 -41.43507385 36.97850037 C-40.37558999 35.90430086 -39.31618863 34.83001997 -38.25686646 33.75566101 C-36.0321452 31.50392628 -33.80076619 29.25901573 -31.56568909 27.01756287 C-28.70411677 24.14512317 -25.86883704 21.24815167 -23.03916836 18.34432602 C-20.85900553 16.11577231 -18.66106956 13.9054159 -16.45785713 11.69966888 C-15.40469113 10.63927139 -14.35814799 9.57225308 -13.3184948 8.49860382 C-11.86057497 6.99671254 -10.37940406 5.52223223 -8.88990784 4.05174255 C-7.63415199 2.78291229 -7.63415199 2.78291229 -6.35302734 1.4884491 C-3.6889801 -0.19337463 -3.6889801 -0.19337463 0 0 Z " fill="#F0F0F3" transform="translate(178.68898010253906,291.19337463378906)"/>
<path d="M0 0 C4.27523708 1.08185754 6.47019417 2.91037341 9.42759705 6.00074768 C10.21916954 6.79100594 10.21916954 6.79100594 11.0267334 7.597229 C12.75643352 9.33108805 14.46394064 11.0851703 16.17198181 12.84034729 C17.37135379 14.05091735 18.57206302 15.26016387 19.77404785 16.46813965 C22.92580089 19.64274228 26.05911607 22.83494916 29.18888855 26.03120422 C32.38907643 29.29289709 35.6064326 32.53755707 38.82237244 35.78370667 C45.12376617 42.14934477 51.40580649 48.53371906 57.67588806 54.93019104 C54.11350649 54.93019104 52.05332759 53.92425108 48.80088806 52.49269104 C38.04230409 47.76053192 27.03418056 47.37091714 15.94541931 51.46925354 C11.31690213 53.53743206 6.91496349 55.9743257 2.47715759 58.41993713 C-3.08938305 61.42743432 -8.75913415 63.82099478 -14.69911194 65.99269104 C-15.51388 66.29151184 -16.32864807 66.59033264 -17.16810608 66.89820862 C-22.89857578 68.93019104 -22.89857578 68.93019104 -26.32411194 68.93019104 C-26.39937537 64.87754486 -26.45322735 60.82518024 -26.48890686 56.77198792 C-26.50381116 55.39886878 -26.52414191 54.02579565 -26.5504303 52.65284729 C-26.90086327 33.8531489 -22.06534445 18.97887397 -9.32411194 4.93019104 C-8.53327209 4.05620667 -8.53327209 4.05620667 -7.72645569 3.16456604 C-5.09302132 0.60837908 -3.6971974 -0.07764405 0 0 Z " fill="#4072C7" transform="translate(210.32411193847656,110.06980895996094)"/>
<path d="M0 0 C7.06492418 1.97160675 13.81316777 4.38364142 20.5625 7.25 C21.88411133 7.78560547 21.88411133 7.78560547 23.23242188 8.33203125 C36.50091402 13.95277995 47.10312251 23.73987574 53.3125 36.75 C54 39 54 39 54 43 C52.25976562 43.00386719 52.25976562 43.00386719 50.484375 43.0078125 C39.85673366 43.20609789 30.53276894 44.21492879 22.18806458 51.60455322 C19.37353416 53.39953105 17.90519114 53.21937618 14.6081543 52.89746094 C13.52990891 52.80035828 12.45166351 52.70325562 11.34074402 52.60321045 C10.18029068 52.48149475 9.01983734 52.35977905 7.82421875 52.234375 C6.62569778 52.12152161 5.42717682 52.00866821 4.19233704 51.89239502 C0.35570321 51.52718406 -3.4781813 51.13869292 -7.3125 50.75 C-9.88462261 50.50241601 -12.45688745 50.25630474 -15.02929688 50.01171875 C-34.82292308 48.1078406 -34.82292308 48.1078406 -42 47 C-40.32459527 45.88306351 -38.62823438 44.79194768 -36.87109375 43.80859375 C-32.08706255 41.11325675 -28.01333008 38.25972313 -24 34.5 C-15.72116032 26.78089319 -7.30321167 22.11586474 4.046875 21.34375 C6.23055297 21.1520045 6.23055297 21.1520045 8 19 C8.81045639 14.03595459 7.83635631 11.30380833 5.125 7.25 C4.09401195 5.82554308 3.05330017 4.40803858 2 3 C1.34 2.01 0.68 1.02 0 0 Z " fill="#D94A54" transform="translate(456,285)"/>
<path d="M0 0 C24.42 0 48.84 0 74 0 C68.32238658 6.62388232 62.16891851 12.83108149 56 19 C154.01 19.495 154.01 19.495 254 20 C254 20.33 254 20.66 254 21 C160.61 21 67.22 21 -29 21 C-29 20.67 -29 20.34 -29 20 C-27.96770264 20.03855103 -27.96770264 20.03855103 -26.91455078 20.07788086 C-21.09929559 19.97455401 -17.5784208 19.26496864 -13.2421875 15.25390625 C-11.75997082 13.71518663 -10.30431318 12.15048243 -8.875 10.5625 C-8.1221875 9.77294922 -7.369375 8.98339844 -6.59375 8.16992188 C-2.87345357 4.39188649 -2.87345357 4.39188649 0 0 Z " fill="#B0AAB4" transform="translate(185,337)"/>
<path d="M0 0 C14.59102497 1.74124312 29.19816214 3.16776762 43.84137535 4.38820839 C45.18679216 4.50052488 45.18679216 4.50052488 46.55938911 4.6151104 C52.024194 5.06985406 57.4895571 5.51756971 62.95514488 5.96279335 C70.3779636 6.56829093 77.80010815 7.18195961 85.22213364 7.79709244 C87.77834087 8.00800736 90.33477397 8.2159826 92.89125633 8.42353249 C94.45186598 8.55189294 96.01246917 8.68033199 97.5730648 8.80886269 C98.26745155 8.8644384 98.9618383 8.92001411 99.67726707 8.97727394 C103.95610913 9.33272737 108.17307195 9.85773299 112.4155941 10.50148964 C106.70336538 16.21371837 95.81509673 15.84799104 88.2283535 15.87475014 C86.99044563 15.86396431 85.75253777 15.85317848 84.47711754 15.84206581 C83.12561118 15.84121723 81.77410345 15.84169918 80.42259789 15.84339333 C76.79313426 15.84424571 73.1639748 15.82674457 69.53458118 15.80567145 C65.72697029 15.78677662 61.9193506 15.78514421 58.11170006 15.78159523 C50.91905029 15.77231205 43.72653913 15.74774941 36.53395009 15.71754676 C28.33795863 15.68388589 20.14196016 15.66748752 11.94591665 15.65246046 C-4.89760502 15.621196 -21.74098771 15.56850899 -38.5844059 15.50148964 C-37.9774765 14.79348465 -37.9774765 14.79348465 -37.3582859 14.07117653 C-36.82358177 13.44739616 -36.28887764 12.8236158 -35.73797035 12.180933 C-34.94541595 11.25636551 -34.94541595 11.25636551 -34.13685036 10.31311989 C-32.79972377 8.75275555 -31.46346573 7.19164699 -30.12737465 5.63039589 C-29.35006996 4.78348183 -28.57276527 3.93656776 -27.7719059 3.06398964 C-27.00233559 2.1990287 -26.23276527 1.33406776 -25.43987465 0.44289589 C-18.68836581 -4.14739124 -7.76634372 -0.93230756 0 0 Z " fill="#F0EFF2" transform="translate(299.58440589904785,321.4985103607178)"/>
<path d="M0 0 C4.00162756 0.59021189 6.85292779 1.84556671 10.33203125 3.88671875 C11.36706787 4.4890332 12.40210449 5.09134766 13.46850586 5.71191406 C14.57202393 6.36385742 15.67554199 7.01580078 16.8125 7.6875 C18.5499284 8.70363199 20.28735939 9.71975959 22.02497864 10.73556519 C23.81973401 11.78615144 25.61256479 12.8399688 27.40527344 13.89404297 C30.90754808 15.95017962 34.42489192 17.9789876 37.9453125 20.00390625 C40.1094059 21.25255062 42.27346962 22.50124641 44.4375 23.75 C45.45497314 24.33354248 46.47244629 24.91708496 47.52075195 25.51831055 C48.46136475 26.06398682 49.40197754 26.60966309 50.37109375 27.171875 C51.19536865 27.6472168 52.01964355 28.12255859 52.86889648 28.61230469 C54.91400638 29.94400416 56.48106766 31.09131185 58 33 C58.3125 36.5625 58.3125 36.5625 58 40 C54.90593878 43.09406122 51.21662303 42.4285864 47.0625 42.4375 C29.11820405 42.38420491 8.03303039 36.75032411 -6 25 C-5.37571782 22.33316351 -4.75059174 19.66652933 -4.125 17 C-3.95097656 16.25621094 -3.77695313 15.51242187 -3.59765625 14.74609375 C-2.44097218 9.81947641 -1.23786742 4.90686184 0 0 Z " fill="#D8EFF3" transform="translate(11,306)"/>
<path d="M0 0 C4.62994259 1.72488057 7.62722164 3.61948611 10 8 C10.61379032 13.23256246 10.97532967 17.5370055 8 22 C7.34 22 6.68 22 6 22 C5.74114014 22.58265625 5.48228027 23.1653125 5.21557617 23.765625 C3.01774146 27.80550917 -0.45056797 30.77766189 -3.6875 34 C-4.38294922 34.7115625 -5.07839844 35.423125 -5.79492188 36.15625 C-10.34110346 40.70667639 -14.78083924 44.99155384 -21.22265625 46.53125 C-26.30267382 46.4449652 -29.21067063 45.34870967 -33 42 C-35.9555841 37.90031882 -36.56093502 34.4880506 -35.93432617 29.59692383 C-33.85525379 23.81822173 -28.58934983 19.79676724 -24.1875 15.6875 C-23.16418048 14.70438058 -22.14267744 13.71936673 -21.12304688 12.73242188 C-19.2452894 10.91962351 -17.35675881 9.12169246 -15.45776367 7.33081055 C-13.87922571 5.83381026 -12.32467282 4.31087073 -10.80200195 2.75708008 C-7.39806548 -0.5620001 -4.65047898 -0.31003193 0 0 Z " fill="#F0F0F3" transform="translate(325,206)"/>
<path d="M0 0 C4.86572213 0.89894573 7.08353226 3.40876128 10.0390625 7.3046875 C11.44394668 12.22178212 11.3788879 16.03275232 9.1640625 20.5546875 C6.69004568 23.46165727 4.13761844 25.78292282 1.21875 28.22265625 C-2.85679926 31.84328947 -6.6238308 35.77488576 -10.41162109 39.69335938 C-11.27907959 40.57797852 -11.27907959 40.57797852 -12.1640625 41.48046875 C-12.6787207 42.01196533 -13.19337891 42.54346191 -13.72363281 43.09106445 C-16.14005537 45.19098103 -18.30947384 46.42057376 -21.51953125 46.64453125 C-25.73524264 46.24268701 -27.85917279 45.86751291 -31.2734375 43.1796875 C-34.4881757 38.99078621 -36.03399697 36.11268895 -35.8125 30.60546875 C-34.81796017 26.19525524 -31.47594291 23.5596196 -28.3359375 20.4921875 C-27.12472636 19.27239595 -25.91524374 18.0508868 -24.70703125 16.828125 C-21.49854701 13.59121565 -18.2768424 10.36876241 -15.02075195 7.1796875 C-13.53586744 5.69243613 -12.11924823 4.1376914 -10.71484375 2.57421875 C-7.16304388 -0.53433516 -4.5386917 -0.2079724 0 0 Z " fill="#F0F0F3" transform="translate(287.3359375,168.5078125)"/>
<path d="M0 0 C0.99 0.33 1.98 0.66 3 1 C4.67150987 1.11513832 6.3469963 1.17636784 8.0222168 1.20532227 C9.55346443 1.2352401 9.55346443 1.2352401 11.11564636 1.26576233 C12.21572525 1.28247482 13.31580414 1.29918732 14.44921875 1.31640625 C16.14084892 1.3475779 16.14084892 1.3475779 17.86665344 1.37937927 C21.4735396 1.44482847 25.08049929 1.50373844 28.6875 1.5625 C31.13086702 1.60568961 33.57422656 1.64930404 36.01757812 1.69335938 C42.01164074 1.80050516 48.00577671 1.90228029 54 2 C51.65752261 6.86333343 48.33453838 10.30181035 44.625 14.1875 C43.97144531 14.92419922 43.31789062 15.66089844 42.64453125 16.41992188 C38.00321866 21.24315972 34.06528262 23.40893126 27.29638672 23.54760742 C20.52335607 22.42244761 14.97782816 18.64499345 9.25 15.0625 C7.9573775 14.28436461 6.66311332 13.50894956 5.3671875 12.73632812 C2.22525393 10.85518926 -0.89290131 8.93827114 -4 7 C-4 4 -4 4 -2 1.8125 C-1.34 1.214375 -0.68 0.61625 0 0 Z " fill="#DEDBE1" transform="translate(131,335)"/>
<path d="M0 0 C6.35583327 0.86670454 12.67551301 1.93034128 19 3 C17.63016497 6.16115776 17.0109362 6.9927092 14 9 C7.07 5.04 7.07 5.04 0 1 C0 0.67 0 0.34 0 0 Z " fill="#B0A7B3" transform="translate(111,332)"/>
</svg>
