<?xml version="1.0" encoding="UTF-8"?>
<svg version="1.1" xmlns="http://www.w3.org/2000/svg" width="512" height="512">
<path d="M0 0 C0.8353125 0.53625 1.670625 1.0725 2.53125 1.625 C4.5 3 4.5 3 5.5 4 C9.34421786 4.36646296 13.20318966 4.37193468 17.0625 4.4375 C18.13564453 4.48326172 19.20878906 4.52902344 20.31445312 4.57617188 C27.11091053 4.67189663 30.32652859 3.87191607 35.42163086 -0.54418945 C43.5567731 -6.24251592 56.10063214 -4.03033863 65.5 -3.375 C66.23855225 -3.32710327 66.97710449 -3.27920654 67.73803711 -3.2298584 C115.56533366 -0.10243245 185.10374077 10.31048191 219.5 48 C228.02027784 58.56658975 233.66419984 71.34859746 234.5 85 C235.45519531 85.10957031 236.41039062 85.21914062 237.39453125 85.33203125 C261.71567 88.31458366 261.71567 88.31458366 270.5 99 C272.9985582 103.98645494 273.87937808 107.61694599 273.90405273 113.27709961 C273.91434761 114.312743 273.91434761 114.312743 273.92485046 115.36930847 C273.94301267 117.63053498 273.93929646 119.89106062 273.93359375 122.15234375 C273.93816068 123.73743411 273.94346777 125.32252249 273.94947815 126.90760803 C273.95838848 130.2219347 273.95601002 133.53602013 273.94604492 136.8503418 C273.93455811 141.08145316 273.95477224 145.31172955 273.98396206 149.54273129 C274.00237614 152.81402304 274.0020213 156.0851166 273.99632454 159.35644722 C273.99617196 160.9156467 274.0021637 162.47486017 274.01461601 164.03400993 C274.08072163 173.66709427 273.81674606 180.69168455 267.52734375 188.42578125 C258.2335024 196.81629596 247.56975352 197.50229336 235.5 199 C235.4484375 199.53625 235.396875 200.0725 235.34375 200.625 C233.41185146 213.97266266 226.11752111 225.80415773 216.5 235 C215.78714844 235.72058594 215.07429688 236.44117188 214.33984375 237.18359375 C202.34449206 248.72629066 187.55120639 257.12441609 172.5 264 C171.36433594 264.53109375 170.22867187 265.0621875 169.05859375 265.609375 C145.20949817 276.33179572 113.12921393 285.59650266 87.5 276 C67.38093712 267.83877538 54.65208825 250.07861052 42.5 233 C33.85561361 220.46796949 33.85561361 220.46796949 21.5 212 C15.75274263 211.32948664 12.29620006 211.95344773 7.55078125 215.2890625 C-0.03974521 221.62173029 -5.46247548 229.63118535 -11.05761719 237.67749023 C-20.53392027 251.28197938 -31.34079008 265.49544063 -46.5 273 C-47.26054687 273.38671875 -48.02109375 273.7734375 -48.8046875 274.171875 C-56.90735565 278.04096913 -64.93868237 279.37422849 -73.875 279.3125 C-74.73714111 279.30758545 -75.59928223 279.3026709 -76.48754883 279.29760742 C-114.24956822 278.62690938 -152.7895414 261.18785133 -180.5 236 C-181.25925781 235.34644531 -182.01851562 234.69289063 -182.80078125 234.01953125 C-192.28259887 225.38463326 -197.63039112 213.30911179 -200.5 201 C-200.5 200.34 -200.5 199.68 -200.5 199 C-201.76714844 198.82984375 -203.03429687 198.6596875 -204.33984375 198.484375 C-225.55089223 195.49512442 -225.55089223 195.49512442 -233.9921875 187.07421875 C-237.79405798 181.84418449 -238.87619008 177.114355 -238.90405273 170.72290039 C-238.91091599 170.03247147 -238.91777924 169.34204254 -238.92485046 168.63069153 C-238.94301267 166.36946502 -238.93929646 164.10893938 -238.93359375 161.84765625 C-238.93816068 160.26256589 -238.94346777 158.67747751 -238.94947815 157.09239197 C-238.95838848 153.7780653 -238.95601002 150.46397987 -238.94604492 147.1496582 C-238.93455811 142.91854684 -238.95477224 138.68827045 -238.98396206 134.45726871 C-239.00237614 131.18597696 -239.0020213 127.9148834 -238.99632454 124.64355278 C-238.99617196 123.0843533 -239.0021637 121.52513983 -239.01461601 119.96599007 C-239.08079293 110.32251537 -238.77856393 103.35683105 -232.5625 95.57421875 C-223.19848317 87.00827154 -211.67228327 86.53053858 -199.5 85 C-199.41363281 84.28457031 -199.32726562 83.56914062 -199.23828125 82.83203125 C-196.74239182 65.13182457 -188.59546925 49.27576686 -174.25634766 38.23242188 C-151.78949217 22.46752244 -151.78949217 22.46752244 -141.5 24 C-140.654375 24.763125 -139.80875 25.52625 -138.9375 26.3125 C-135.62641582 28.40573906 -135.62641582 28.40573906 -132.3359375 27.15234375 C-130.01284527 26.22774274 -127.70799797 25.25571305 -125.42578125 24.234375 C-122.5 23 -122.5 23 -119.5 23 C-119.5825 22.113125 -119.665 21.22625 -119.75 20.3125 C-119.43224868 16.10229507 -118.48893267 14.95629222 -115.5 12 C-112.83056428 10.64463626 -110.06755758 9.85636945 -107.1875 9.0625 C-106.32576172 8.81653076 -105.46402344 8.57056152 -104.57617188 8.31713867 C-78.39186106 1.15097796 -51.38136173 -2.36938399 -24.3125 -3.75 C-23.44616943 -3.79487549 -22.57983887 -3.83975098 -21.68725586 -3.88598633 C-13.92201731 -4.19402759 -6.69223149 -4.40501313 0 0 Z " fill="#09476B" transform="translate(238.5,114)"/>
<path d="M0 0 C7.28904904 2.76111931 14.3614856 2.62946775 22.05761719 2.65039062 C24.18856273 2.66000247 26.31850294 2.69101685 28.44921875 2.72265625 C39.49553324 2.80845302 49.35162412 1.10304762 59.72265625 -2.77734375 C66.23849754 -4.98596008 71.90016021 -5.04143463 78.72265625 -4.58984375 C79.48803711 -4.54585449 80.25341797 -4.50186523 81.04199219 -4.45654297 C116.39020298 -2.32357953 151.56287995 7.5194602 182.72265625 24.41015625 C183.63015625 24.87808594 184.53765625 25.34601563 185.47265625 25.828125 C191.13897818 29.81225761 191.68399201 35.95681224 192.84765625 42.34765625 C193.01652344 43.22873047 193.18539063 44.10980469 193.359375 45.01757812 C193.827806 47.47960722 194.28425533 49.94260652 194.72265625 52.41015625 C194.89326569 53.33410187 195.06387512 54.25804749 195.23965454 55.20999146 C195.69255149 58.21069485 195.86195161 61.01968929 195.88378906 64.05053711 C195.89339661 65.13705063 195.90300415 66.22356415 195.91290283 67.34300232 C195.91927765 69.09134117 195.91927765 69.09134117 195.92578125 70.875 C195.93148132 72.09933243 195.9371814 73.32366486 195.9430542 74.58509827 C195.95249509 77.18326966 195.95903456 79.78145298 195.96289062 82.37963867 C195.97247695 86.27480415 196.00345907 90.16941408 196.03515625 94.06445312 C196.0889357 105.84600802 195.93302245 117.56856431 194.64453125 129.2890625 C194.56132629 130.20316391 194.47812134 131.11726532 194.39239502 132.05906677 C193.35820732 139.98446886 189.31176383 144.30688387 183.4140625 149.40625 C180.87724801 151.12383632 178.32359101 152.79057682 175.72265625 154.41015625 C175.1699707 154.75691406 174.61728516 155.10367188 174.04785156 155.4609375 C159.98575358 164.1642152 143.42334607 172.25431755 126.72265625 173.41015625 C125.624375 173.52488281 124.52609375 173.63960937 123.39453125 173.7578125 C118.17296995 174.08565025 113.88831597 174.26292058 109.66015625 170.91015625 C103.68553694 164.69604799 98.76968301 157.3781432 93.72265625 150.41015625 C88.09484858 142.69245226 82.27162089 135.37146311 75.72265625 128.41015625 C75.1503125 127.77335938 74.57796875 127.1365625 73.98828125 126.48046875 C61.79928318 113.42082796 43.98169328 106.69435629 26.3918457 106.00561523 C5.45886023 105.68755637 -10.90112809 115.3342466 -25.65234375 129.41015625 C-32.28488615 136.17329724 -37.73287904 143.75175436 -43.27734375 151.41015625 C-45.37057332 154.29334461 -47.47684343 157.16643814 -49.58984375 160.03515625 C-50.05704834 160.68572998 -50.52425293 161.33630371 -51.00561523 162.0065918 C-55.05320992 167.50113202 -58.99483993 172.75786382 -65.93359375 174.13671875 C-91.27759261 173.46706024 -118.84485167 162.06925705 -137.27734375 144.41015625 C-140.65800415 140.77995677 -141.85004893 138.25992777 -142.46484375 133.34765625 C-142.60277344 132.32542969 -142.74070312 131.30320312 -142.8828125 130.25 C-143.85987777 120.74054299 -144.45106469 111.32289373 -144.515625 101.76171875 C-144.52369675 100.58789642 -144.53176849 99.4140741 -144.54008484 98.2046814 C-144.55382727 95.73233472 -144.56459275 93.25996985 -144.57250977 90.78759766 C-144.58398332 88.30381553 -144.60436078 85.82005716 -144.6340332 83.33642578 C-145.16028589 39.11355998 -145.16028589 39.11355998 -135.484375 27.203125 C-113.19569845 9.09604086 -78.20388745 2.1618792 -50.60888672 -2.21533203 C-48.56842731 -2.5430875 -46.53358262 -2.90541583 -44.5 -3.2734375 C-28.85856641 -5.91988776 -14.84950653 -5.74374218 0 0 Z " fill="#175FEE" transform="translate(230.27734375,167.58984375)"/>
<path d="M0 0 C0.8353125 0.53625 1.670625 1.0725 2.53125 1.625 C4.5 3 4.5 3 5.5 4 C9.34421786 4.36646296 13.20318966 4.37193468 17.0625 4.4375 C18.13564453 4.48326172 19.20878906 4.52902344 20.31445312 4.57617188 C27.11091053 4.67189663 30.32652859 3.87191607 35.42163086 -0.54418945 C43.5567731 -6.24251592 56.10063214 -4.03033863 65.5 -3.375 C66.23855225 -3.32710327 66.97710449 -3.27920654 67.73803711 -3.2298584 C115.56533366 -0.10243245 185.10374077 10.31048191 219.5 48 C228.02027784 58.56658975 233.66419984 71.34859746 234.5 85 C235.45519531 85.10957031 236.41039062 85.21914062 237.39453125 85.33203125 C261.71567 88.31458366 261.71567 88.31458366 270.5 99 C272.9985582 103.98645494 273.87937808 107.61694599 273.90405273 113.27709961 C273.91434761 114.312743 273.91434761 114.312743 273.92485046 115.36930847 C273.94301267 117.63053498 273.93929646 119.89106062 273.93359375 122.15234375 C273.93816068 123.73743411 273.94346777 125.32252249 273.94947815 126.90760803 C273.95838848 130.2219347 273.95601002 133.53602013 273.94604492 136.8503418 C273.93455811 141.08145316 273.95477224 145.31172955 273.98396206 149.54273129 C274.00237614 152.81402304 274.0020213 156.0851166 273.99632454 159.35644722 C273.99617196 160.9156467 274.0021637 162.47486017 274.01461601 164.03400993 C274.08072163 173.66709427 273.81674606 180.69168455 267.52734375 188.42578125 C258.2335024 196.81629596 247.56975352 197.50229336 235.5 199 C235.4484375 199.53625 235.396875 200.0725 235.34375 200.625 C233.41185146 213.97266266 226.11752111 225.80415773 216.5 235 C215.78714844 235.72058594 215.07429688 236.44117188 214.33984375 237.18359375 C202.34449206 248.72629066 187.55120639 257.12441609 172.5 264 C171.36433594 264.53109375 170.22867187 265.0621875 169.05859375 265.609375 C145.20949817 276.33179572 113.12921393 285.59650266 87.5 276 C67.38093712 267.83877538 54.65208825 250.07861052 42.5 233 C33.85561361 220.46796949 33.85561361 220.46796949 21.5 212 C15.75274263 211.32948664 12.29620006 211.95344773 7.55078125 215.2890625 C-0.03974521 221.62173029 -5.46247548 229.63118535 -11.05761719 237.67749023 C-20.53392027 251.28197938 -31.34079008 265.49544063 -46.5 273 C-47.26054687 273.38671875 -48.02109375 273.7734375 -48.8046875 274.171875 C-56.90735565 278.04096913 -64.93868237 279.37422849 -73.875 279.3125 C-74.73714111 279.30758545 -75.59928223 279.3026709 -76.48754883 279.29760742 C-114.24956822 278.62690938 -152.7895414 261.18785133 -180.5 236 C-181.25925781 235.34644531 -182.01851562 234.69289063 -182.80078125 234.01953125 C-192.28259887 225.38463326 -197.63039112 213.30911179 -200.5 201 C-200.5 200.34 -200.5 199.68 -200.5 199 C-201.76714844 198.82984375 -203.03429687 198.6596875 -204.33984375 198.484375 C-225.55089223 195.49512442 -225.55089223 195.49512442 -233.9921875 187.07421875 C-237.79405798 181.84418449 -238.87619008 177.114355 -238.90405273 170.72290039 C-238.91091599 170.03247147 -238.91777924 169.34204254 -238.92485046 168.63069153 C-238.94301267 166.36946502 -238.93929646 164.10893938 -238.93359375 161.84765625 C-238.93816068 160.26256589 -238.94346777 158.67747751 -238.94947815 157.09239197 C-238.95838848 153.7780653 -238.95601002 150.46397987 -238.94604492 147.1496582 C-238.93455811 142.91854684 -238.95477224 138.68827045 -238.98396206 134.45726871 C-239.00237614 131.18597696 -239.0020213 127.9148834 -238.99632454 124.64355278 C-238.99617196 123.0843533 -239.0021637 121.52513983 -239.01461601 119.96599007 C-239.08079293 110.32251537 -238.77856393 103.35683105 -232.5625 95.57421875 C-223.19848317 87.00827154 -211.67228327 86.53053858 -199.5 85 C-199.41363281 84.28457031 -199.32726562 83.56914062 -199.23828125 82.83203125 C-196.74239182 65.13182457 -188.59546925 49.27576686 -174.25634766 38.23242188 C-151.75047599 22.44014496 -151.75047599 22.44014496 -141.5 24 C-138.625 25.4375 -138.625 25.4375 -136.5 28 C-135.71269161 31.17291202 -135.47477151 33.88225386 -136.5 37 C-140.97011028 41.51268276 -146.16395525 44.0273419 -151.8125 46.8125 C-165.11819002 53.66445628 -174.40186789 61.75423858 -179.28173828 76.3359375 C-188.75153999 108.8111466 -188.43296824 145.05121091 -185.25 178.5 C-185.14091309 179.66644043 -185.03182617 180.83288086 -184.91943359 182.03466797 C-182.7870426 201.33238726 -176.97961835 215.33910471 -162.0625 227.9375 C-137.07617526 247.08336803 -106.78954046 260.001657 -75.125 260.3125 C-73.65933594 260.35600586 -73.65933594 260.35600586 -72.1640625 260.40039062 C-60.81085669 260.49852339 -52.86991145 256.40358064 -44.5 249 C-43.80519531 248.39929688 -43.11039063 247.79859375 -42.39453125 247.1796875 C-35.13916721 240.43973183 -29.75751019 232.24545016 -24.06933594 224.20214844 C-4.04975176 196.10995035 -4.04975176 196.10995035 11.5 193 C21.93939621 191.85916778 30.29104161 193.97018393 38.640625 200.4296875 C47.17102713 207.78297678 53.71833786 216.49551676 60.22998047 225.61181641 C65.61868934 233.14861225 70.93092593 240.43092593 77.5 247 C78.15226562 247.65226563 78.80453125 248.30453125 79.4765625 248.9765625 C91.28959659 260.03657449 103.22990726 260.51997695 118.62548828 260.12744141 C150.32513358 258.72203841 185.90920711 240.94892341 207.5 218 C216.51402544 207.53860056 218.26061906 193.59966793 219.75 180.3125 C219.8340509 179.58711029 219.91810181 178.86172058 220.00469971 178.11434937 C222.7677961 153.80444644 222.38996454 129.28602346 219.5 105 C219.355625 103.70835937 219.21125 102.41671875 219.0625 101.0859375 C216.94119385 84.30489066 213.78852362 66.75803552 200.5 55 C180.8772691 40.63489685 155.82023575 32.01323522 132.5 26 C131.38359131 25.70464355 131.38359131 25.70464355 130.24462891 25.40332031 C86.26086765 12.98506906 86.26086765 12.98506906 42.4609375 16.3125 C40.28787851 17.7474088 38.44379524 19.28012235 36.5 21 C33.02156576 22.15947808 29.85624243 22.19918887 26.234375 22.23828125 C25.16694061 22.25038887 25.16694061 22.25038887 24.07794189 22.26274109 C22.57167989 22.27656048 21.06538685 22.28729222 19.55908203 22.29516602 C18.02676141 22.30666895 16.49448032 22.32709435 14.96240234 22.35668945 C12.7402849 22.39959765 10.51935655 22.41556701 8.296875 22.42578125 C7.28243317 22.45204338 7.28243317 22.45204338 6.24749756 22.47883606 C0.18723991 22.45157944 -3.93577908 20.3607963 -8.37109375 16.27734375 C-11.86618584 14.18028849 -15.60289685 14.51617615 -19.5625 14.5625 C-20.98816284 14.57603516 -20.98816284 14.57603516 -22.44262695 14.58984375 C-50.09751088 15.21466579 -79.19300458 19.23100153 -105.5 28 C-110.32624241 28.6326535 -113.48210842 28.70629212 -117.5625 25.875 C-119.85974648 22.46618264 -120.25471928 21.02516948 -119.5 17 C-116.33399582 11.76956526 -112.79187236 10.6073094 -107.1875 9.0625 C-106.32576172 8.81653076 -105.46402344 8.57056152 -104.57617188 8.31713867 C-78.39186106 1.15097796 -51.38136173 -2.36938399 -24.3125 -3.75 C-23.44616943 -3.79487549 -22.57983887 -3.83975098 -21.68725586 -3.88598633 C-13.92201731 -4.19402759 -6.69223149 -4.40501313 0 0 Z " fill="#151616" transform="translate(238.5,114)"/>
<path d="M0 0 C7.33934031 3.07723792 14.89169389 2.73350914 22.73828125 2.78515625 C23.41391113 2.79005066 24.08954102 2.79494507 24.78564453 2.79998779 C35.27682201 2.83153128 43.79645724 1.79495059 53.36328125 -2.58984375 C58.12335436 -4.49646704 62.41131917 -4.90471791 67.48828125 -4.83984375 C68.66463135 -4.82969238 68.66463135 -4.82969238 69.86474609 -4.81933594 C109.68479423 -4.14161495 166.72454455 4.74605418 197.36328125 32.41015625 C205.80399934 41.40255526 207.44184905 54.84933925 208.89306641 66.63500977 C209.1980126 69.08328751 209.52345292 71.52913332 209.87304688 73.97143555 C211.27767795 84.10700616 211.76201506 94.05812566 211.73828125 104.28515625 C211.7384021 105.09310638 211.73852295 105.90105652 211.73864746 106.73348999 C211.7128956 118.97774943 211.02017051 131.0602958 209.61328125 143.22265625 C209.53487 143.93153992 209.45645874 144.64042358 209.37567139 145.37078857 C207.58396058 161.12135869 202.92272314 170.29722835 190.55078125 180.28515625 C170.04336995 195.8506618 143.31267666 207.48599923 117.36328125 207.66015625 C116.21085938 207.69109375 116.21085938 207.69109375 115.03515625 207.72265625 C105.63472479 207.78660476 99.93482093 203.86729775 93.36328125 197.41015625 C87.38622826 191.44563377 82.66805434 184.69418263 77.86303711 177.78955078 C65.80105086 160.51244529 53.16347723 146.01864585 31.95703125 140.8203125 C17.93545104 138.60304455 6.08967147 141.71576267 -5.63671875 149.41015625 C-16.21391584 157.70039181 -24.43242225 167.88955091 -32.09375 178.8125 C-50.72036297 205.31436173 -50.72036297 205.31436173 -61.63671875 207.41015625 C-94.03799963 209.28431265 -125.16277261 196.31079122 -149.63671875 175.41015625 C-158.87432212 166.94235316 -160.83744103 158.24447931 -162.26171875 146.09765625 C-162.38289063 145.14181641 -162.5040625 144.18597656 -162.62890625 143.20117188 C-164.16372591 130.79749343 -164.84451601 118.5252557 -164.82421875 106.03515625 C-164.82328217 105.28793304 -164.82234558 104.54070984 -164.82138062 103.77084351 C-164.77586669 86.94930077 -163.72455329 70.68475975 -160.38671875 54.16015625 C-160.20665283 53.23114502 -160.02658691 52.30213379 -159.84106445 51.3449707 C-157.88312957 42.45834051 -153.98450149 34.12470473 -146.234375 28.953125 C-145.37714844 28.44394531 -144.51992187 27.93476563 -143.63671875 27.41015625 C-142.52167969 26.74628906 -141.40664062 26.08242187 -140.2578125 25.3984375 C-119.88970186 13.7805167 -97.33556094 6.82156023 -74.63671875 1.41015625 C-73.89921387 1.23403809 -73.16170898 1.05791992 -72.40185547 0.87646484 C-68.16910645 -0.10698645 -63.92434276 -0.88775084 -59.63671875 -1.58984375 C-58.85506348 -1.72374512 -58.0734082 -1.85764648 -57.26806641 -1.99560547 C-38.06484861 -5.22581561 -18.33438751 -7.84614681 0 0 Z M-80.63671875 20.41015625 C-81.91047363 20.75554443 -81.91047363 20.75554443 -83.20996094 21.10791016 C-114.46307927 28.95632497 -114.46307927 28.95632497 -140.30078125 46.48828125 C-142.20280235 50.64825722 -142.94542708 54.86458238 -143.76171875 59.34765625 C-143.93058594 60.22873047 -144.09945312 61.10980469 -144.2734375 62.01757812 C-144.7418685 64.47960722 -145.19831783 66.94260652 -145.63671875 69.41015625 C-145.80765549 70.33625198 -145.97859222 71.26234772 -146.15470886 72.21650696 C-146.60256082 75.18383634 -146.76966339 77.94968972 -146.78198242 80.94628906 C-146.78836227 82.00889954 -146.79474213 83.07151001 -146.80131531 84.1663208 C-146.80242813 85.30381775 -146.80354095 86.4413147 -146.8046875 87.61328125 C-146.8080159 88.80507996 -146.8113443 89.99687866 -146.81477356 91.22479248 C-146.81983164 93.74979264 -146.82218223 96.27479947 -146.82202148 98.79980469 C-146.82418732 102.60493505 -146.84229779 106.40976543 -146.86132812 110.21484375 C-146.89176407 123.42599362 -146.55152671 136.33108922 -144.63671875 149.41015625 C-144.4763916 150.67762695 -144.31606445 151.94509766 -144.15087891 153.25097656 C-143.06895701 159.89868281 -137.4131367 164.03409802 -132.19921875 167.84765625 C-112.96939438 180.60926697 -88.4319924 194.08112521 -64.63671875 190.41015625 C-60.95296715 188.83314523 -59.05757624 186.55679351 -56.63671875 183.41015625 C-56.19408691 182.84635254 -55.75145508 182.28254883 -55.29541016 181.70166016 C-51.63288087 177.01646876 -48.12479304 172.22583433 -44.63671875 167.41015625 C-39.00886166 159.69238449 -33.18534181 152.37186499 -26.63671875 145.41015625 C-26.07597656 144.78496094 -25.51523438 144.15976562 -24.9375 143.515625 C-14.43757003 132.25298825 1.57242248 124.05487198 17.078125 123.20703125 C36.7157431 122.83409132 54.63770877 127.92976085 69.36328125 141.41015625 C70.20890625 142.17585937 71.05453125 142.9415625 71.92578125 143.73046875 C79.77585085 151.20141567 86.02425217 159.65424657 92.36328125 168.41015625 C94.45651082 171.29334461 96.56278093 174.16643814 98.67578125 177.03515625 C99.14298584 177.68572998 99.61019043 178.33630371 100.09155273 179.0065918 C105.92161804 186.92796411 105.92161804 186.92796411 114.46875 191.06640625 C115.48582031 191.01484375 116.50289063 190.96328125 117.55078125 190.91015625 C119.05705078 190.86375 119.05705078 190.86375 120.59375 190.81640625 C130.58554863 189.73956992 139.36696004 187.68099934 148.67578125 183.84765625 C149.7644751 183.40437988 150.85316895 182.96110352 151.97485352 182.50439453 C165.54963254 176.83975006 182.03272068 169.05497729 190.36328125 156.41015625 C191.30068415 153.11963865 191.69869847 149.80842493 192.0859375 146.4140625 C192.20735611 145.4102504 192.32877472 144.40643829 192.45387268 143.37220764 C193.74214405 131.63798763 193.85010212 119.89675248 193.80932617 108.10327148 C193.8007811 104.34759204 193.82977725 100.59342276 193.86132812 96.83789062 C194.58592296 69.22125561 194.58592296 69.22125561 184.61328125 44.20703125 C181.73363822 41.90731633 178.66130324 40.26213409 175.36328125 38.66015625 C174.66759033 38.31871582 173.97189941 37.97727539 173.25512695 37.62548828 C153.25967121 27.99894409 132.40870533 20.99978452 110.62133789 16.84912109 C109.06546549 16.54666044 107.51262578 16.22831167 105.96264648 15.89697266 C96.18815017 13.82612924 86.31312942 13.13540824 76.36328125 12.41015625 C75.10128906 12.31089844 73.83929688 12.21164063 72.5390625 12.109375 C65.30295586 11.79785749 59.71571159 13.33126728 53.04296875 16.12109375 C43.77571108 19.36758529 34.43193386 19.78306257 24.68554688 19.78076172 C22.62935621 19.78512216 20.57534314 19.82154099 18.51953125 19.859375 C7.32733633 19.95472311 -2.59761163 17.92535879 -13.0234375 13.6875 C-17.33355366 12.16381569 -20.91657348 11.91476687 -25.44921875 11.97265625 C-26.7182605 11.98184082 -26.7182605 11.98184082 -28.01293945 11.99121094 C-45.67132435 12.40249644 -63.62911832 15.69662127 -80.63671875 20.41015625 Z " fill="#151718" transform="translate(232.63671875,150.58984375)"/>
<path d="M0 0 C3.25474071 2.16982714 3.87641512 3.41578058 4.6875 7.25 C2.25731211 20.50557028 -19.25810901 35.71966451 -28.53345299 45.08189392 C-32.34703617 48.93138134 -36.15116942 52.78928154 -39.93457031 56.66845703 C-43.61216799 60.43881605 -47.31133756 64.18668269 -51.02684402 67.91967773 C-52.43401747 69.34093144 -53.83341159 70.76993249 -55.22465134 72.20678711 C-57.17006563 74.21290249 -59.14197394 76.18884063 -61.12255859 78.16015625 C-61.6870018 78.75538589 -62.25144501 79.35061554 -62.83299255 79.96388245 C-66.04945154 83.09941606 -68.20812363 84.37218801 -72.76968384 84.49780273 C-76.16484839 84.36975371 -76.82194968 84.14765148 -79.5625 81.875 C-81.33033071 78.33933859 -81.84034017 76.89612263 -81 73 C-75.04980132 64.51810681 -66.47946893 57.33461822 -59.16796875 50.03515625 C-57.72530259 48.59181566 -56.28278483 47.14832671 -54.84040833 45.70469666 C-51.83215699 42.69497775 -48.822121 39.68705843 -45.81079102 36.68041992 C-41.94586896 32.8212255 -38.08549516 28.95751733 -34.2264204 25.09247684 C-31.2557744 22.11822602 -28.28276167 19.14635019 -25.30901527 16.17519951 C-23.88367571 14.75052784 -22.45908086 13.32511072 -21.03523827 11.89894295 C-19.05348424 9.9146604 -17.06857244 7.93359267 -15.08276367 5.95336914 C-14.49315353 5.36173477 -13.9035434 4.7701004 -13.29606628 4.16053772 C-8.4715026 -0.63881173 -6.79673066 -1.52340515 0 0 Z " fill="#161618" transform="translate(192,197)"/>
<path d="M0 0 C2.0423511 0.03333214 4.08412407 0.10303422 6.125 0.1875 C7.26195312 0.22230469 8.39890625 0.25710937 9.5703125 0.29296875 C12.90772353 0.98097717 15.16326539 1.77748214 17.73599243 4.0436554 C20.71547076 8.65508851 19.80441612 14.78619656 19.7265625 20.09375 C19.72552428 21.48710121 19.72656363 22.88045538 19.72958374 24.27380371 C19.72940464 27.18933035 19.70862417 30.10374682 19.67236328 33.01904297 C19.62698561 36.74845673 19.62590281 40.47625008 19.63939857 44.20586395 C19.64609486 47.0816681 19.63278748 49.9571055 19.61314011 52.83283997 C19.6054643 54.20748473 19.60312798 55.58217038 19.6063118 56.95683289 C19.6070569 58.88082079 19.5787789 60.80475317 19.54931641 62.72851562 C19.54010162 63.82151978 19.53088684 64.91452393 19.52139282 66.04064941 C18.87856049 69.68927317 17.56611278 71.37314973 15 74 C12.59765625 74.92578125 12.59765625 74.92578125 10.0625 75.3125 C9.22847656 75.45300781 8.39445312 75.59351563 7.53515625 75.73828125 C5.00261621 75.99972991 2.54385518 76.01777065 0 76 C0.0707373 74.97076416 0.14147461 73.94152832 0.21435547 72.88110352 C0.89212678 62.55500874 1.16079052 52.28398949 1.125 41.9375 C1.12411377 41.18995453 1.12322754 40.44240906 1.12231445 39.67221069 C1.10401527 26.43151771 0.73659935 13.22156655 0 0 Z " fill="#07344B" transform="translate(476,218)"/>
<path d="M0 0 C-0.0721875 0.93070313 -0.144375 1.86140625 -0.21875 2.8203125 C-1.87580985 27.0216421 -1.87596681 51.8134279 0 76 C-5.44151034 76.06209192 -9.8478334 76.08068267 -15 74 C-18.65423077 70.30992983 -19.50593693 67.87393777 -19.54931641 62.72851562 C-19.56838043 61.48372437 -19.58744446 60.23893311 -19.60708618 58.9564209 C-19.60656334 57.60636278 -19.60468932 56.2563046 -19.6015625 54.90625 C-19.60934279 53.51289359 -19.61801345 52.1195419 -19.62753296 50.72619629 C-19.64242759 47.81095984 -19.64189661 44.89620795 -19.63134766 41.98095703 C-19.61974796 38.25124629 -19.65365039 34.52351879 -19.700037 30.79413605 C-19.72954665 27.91836017 -19.73125112 25.0430605 -19.72501755 22.16716003 C-19.72604188 20.79245569 -19.73647876 19.41772397 -19.75664139 18.04316711 C-19.89411695 7.36257749 -19.89411695 7.36257749 -17.71868896 4.04736328 C-12.45484179 -0.5401827 -6.57793024 -0.02329845 0 0 Z " fill="#07344B" transform="translate(36,218)"/>
<path d="M0 0 C2.5 1.5 2.5 1.5 4 4 C4.62163831 8.45848588 3.83163284 11.86935062 1.16259766 15.49804688 C-1.28422663 18.10731381 -3.81778821 20.5645609 -6.4375 23 C-7.76491211 24.28583984 -7.76491211 24.28583984 -9.11914062 25.59765625 C-16.66317345 32.84866115 -16.66317345 32.84866115 -21.3125 33.375 C-25 33 -25 33 -27.9375 30.875 C-30 28 -30 28 -30.75 25.1875 C-29.57695864 20.20207422 -26.55462095 17.57701226 -23 14 C-21.82938606 12.80342555 -20.65881683 11.60680736 -19.48828125 10.41015625 C-17.00523707 7.89054955 -14.51824528 5.37516854 -12.01171875 2.87890625 C-11.48022217 2.3485376 -10.94872559 1.81816895 -10.40112305 1.27172852 C-7.01654154 -1.80028491 -4.27171953 -0.95745438 0 0 Z " fill="#161719" transform="translate(141,197)"/>
</svg>
