<?xml version="1.0" encoding="UTF-8"?>
<svg version="1.1" xmlns="http://www.w3.org/2000/svg" width="1536" height="1024">
<path d="M0 0 C0.99 0.99 0.99 0.99 2 2 C1.72940959 6.93827501 1.1681974 11.80238392 0.48046875 16.69921875 C-4.3423764 52.67972534 1.36375303 90.8089563 12.99609375 125.09375 C14 129 14 129 13 135 C6.34738659 141.84544278 -0.50562319 146.66048141 -9 151 C-10.98 151 -12.96 151 -15 151 C-19.10000001 145.60363085 -21.78065791 139.47696603 -24.6875 133.375 C-35.01716562 112.5317578 -50.71266437 91.85387306 -73 83 C-75.31 83 -77.62 83 -80 83 C-82.93800318 91.81400954 -80.35858323 100.67435543 -77 109 C-69.44414096 123.44008617 -56.60488772 134.00302009 -44 144 C-41.72270268 145.95081275 -39.45228248 147.90967209 -37.1875 149.875 C-31.40539845 154.85543463 -25.4738412 159.59136809 -19.44921875 164.2734375 C-14.87627413 167.88829067 -10.44977178 171.66181844 -6.01953125 175.44921875 C-3.37042621 177.6870785 -0.65847186 179.8500963 2.0625 182 C23.80851064 199.61702128 23.80851064 199.61702128 27 206 C27.72442871 213.00281084 26.15783382 216.39965241 22 222 C8.59007823 237.74208208 -4.28831637 246.63477687 -25 249 C-48.91443949 250.52645358 -73.76055758 242.43596009 -92.3125 227.296875 C-95.30811846 224.61579648 -98.1723626 221.85687441 -101 219 C-103.10375 216.89625 -103.10375 216.89625 -105.25 214.75 C-113.00114747 204.93187987 -118.86202714 194.7580017 -118 182 C-113.69924749 172.81202872 -103.6873131 164.87016037 -95 160 C-93.68 160.33 -92.36 160.66 -91 161 C-89.76171875 164.140625 -89.76171875 164.140625 -88.6875 168.25 C-82.98726372 187.63423724 -71.49355724 201.77207351 -54 212 C-38.01731959 220.57066977 -23.0070132 223.62320623 -5 225 C-9.424356 213.93910999 -21.89259506 206.29303911 -31 199 C-33.60464505 196.87558638 -36.20877488 194.75054099 -38.8125 192.625 C-43.85346138 188.52565216 -48.92950425 184.48329761 -54.0625 180.5 C-107.22160777 138.89196115 -107.22160777 138.89196115 -112 115 C-112.94940373 99.42977875 -106.40698564 88.3969971 -96.5625 76.75 C-86.866791 66.6558372 -75.30308348 54.89668274 -60.8125 53.5 C-49.66297792 54.45909867 -41.07308828 59.91148024 -32 66 C-32.32307129 64.99767334 -32.64614258 63.99534668 -32.97900391 62.96264648 C-34.67302317 56.38789117 -34.36891618 49.81857997 -34.375 43.0625 C-34.39949219 41.63486328 -34.42398437 40.20722656 -34.44921875 38.73632812 C-34.47989904 27.73744468 -33.05526346 22.09443351 -25.125 14.0625 C-8.90406977 0 -8.90406977 0 0 0 Z " fill="#000000" transform="translate(1314,309)"/>
<path d="M0 0 C2.64449803 3.96674704 2.39409529 6.7358047 2.59765625 11.49609375 C2.67669189 13.23987305 2.75572754 14.98365234 2.8371582 16.78027344 C2.94870239 19.58060059 2.94870239 19.58060059 3.0625 22.4375 C3.14266357 24.32887695 3.22282715 26.22025391 3.30541992 28.16894531 C3.46581608 31.98796328 3.62249998 35.80713904 3.77539062 39.62646484 C3.97296829 44.35329581 4.20328514 49.07648638 4.453125 53.80078125 C4.57335105 56.28383317 4.69317737 58.7669045 4.8125 61.25 C4.92207031 63.40015625 5.03164063 65.5503125 5.14453125 67.765625 C4.90501798 76.43988952 0.73197064 80.76536794 -5.3046875 86.58203125 C-8.99943074 89.89659076 -12.63656076 92.62577571 -17 95 C-18.98 94.67 -20.96 94.34 -23 94 C-25.60486821 88.79026359 -25.72364914 84.31691109 -26.25390625 78.5078125 C-26.35968491 77.37028534 -26.46546356 76.23275818 -26.57444763 75.0607605 C-26.91132488 71.41615293 -27.23687713 67.77062846 -27.5625 64.125 C-27.78510223 61.70826829 -28.00840194 59.29160071 -28.23242188 56.875 C-28.8427771 50.25180909 -29.42559319 43.62641255 -30 37 C-30.13881592 35.44796875 -30.27763184 33.8959375 -30.4206543 32.296875 C-31.15800738 23.39125638 -31.15800738 23.39125638 -29.6875 19.75 C-28.800625 18.8425 -27.91375 17.935 -27 17 C-24.710625 14.5559375 -24.710625 14.5559375 -22.375 12.0625 C-8.38620105 -1.67724021 -8.38620105 -1.67724021 0 0 Z " fill="#000000" transform="translate(501,316)"/>
<path d="M0 0 C2.375 3.4375 2.375 3.4375 5 8 C17.40142176 26.72371521 33.43406934 38.5952335 52.02954102 50.72314453 C58.83234494 55.23488736 64.40508622 60.04846162 70 66 C70.4846875 64.97261719 70.969375 63.94523437 71.46875 62.88671875 C79.25206543 46.79621089 87.91335593 33.79403209 104 25 C110.76345175 22.74551608 117.53777843 23.56481501 124.25 25.5625 C139.32040746 33.29599857 145.18906657 47.03659905 150.53125 62.37109375 C162.2953445 99.44676392 160.27835382 144.92316244 143.94921875 180.2734375 C136.13109056 195.22031985 125.94217753 206.62312899 110 213 C99.0985671 213.65408597 92.51108649 212.48583956 83.875 205.8125 C64.65002203 186.89760232 62.15897388 161.68583845 61.4375 135.9375 C61.39431641 134.49955078 61.35113281 133.06160156 61.30664062 131.58007812 C61.20119419 128.0534806 61.10015549 124.52675176 61 121 C59.05480469 122.2065625 57.10960937 123.413125 55.10546875 124.65625 C49.57219681 128.06041676 43.99077501 131.34161184 38.3125 134.5 C36.78238281 135.3559375 35.25226563 136.211875 33.67578125 137.09375 C30 139 30 139 28 139 C28.37137085 141.58050171 28.37137085 141.58050171 28.75024414 144.21313477 C29.66763307 150.60596358 30.57218437 157.00055453 31.47290039 163.39575195 C31.86426369 166.16154801 32.25909057 168.9268563 32.6574707 171.69165039 C33.2300234 175.6694978 33.79003114 179.64894229 34.34765625 183.62890625 C34.52780777 184.86145645 34.70795929 186.09400665 34.89356995 187.36390686 C36.83362277 201.41625882 36.83362277 201.41625882 32.25 207.875 C25.34266238 214.57918063 18.62805623 220.39532396 9 222 C4.94217794 217.94217794 5.28664443 215.23518055 4.71875 209.55859375 C4.51789795 207.62322754 4.3170459 205.68786133 4.11010742 203.69384766 C3.90877197 201.62925293 3.70743652 199.5646582 3.5 197.4375 C3.06961873 193.24603124 2.63863224 189.05462459 2.20703125 184.86328125 C2.00158691 182.82865723 1.79614258 180.7940332 1.58447266 178.69775391 C0.84606618 171.49937033 0.03436678 164.31131442 -0.8125 157.125 C-1.04582031 155.12695312 -1.27914062 153.12890625 -1.51953125 151.0703125 C-1.67808594 149.72710937 -1.83664062 148.38390625 -2 147 C-4.4440625 147.0309375 -4.4440625 147.0309375 -6.9375 147.0625 C-12 147 -12 147 -13 146 C-13 140 -13 140 -10.6875 137.25 C-8 135 -8 135 -5 133 C-5.57360231 122.95430913 -6.53500618 113.10081451 -7.99609375 103.1484375 C-8.18969986 101.8053653 -8.38330597 100.46229309 -8.58277893 99.07852173 C-8.98927133 96.2698708 -9.39863756 93.46163438 -9.81079102 90.65380859 C-10.4407971 86.35248932 -11.05784161 82.04944061 -11.67382812 77.74609375 C-12.07214464 75.00509603 -12.47120638 72.26420648 -12.87109375 69.5234375 C-13.05449814 68.24012543 -13.23790253 66.95681335 -13.42686462 65.63461304 C-14.66569502 57.27923776 -15.95359978 51.75620293 -21.8125 45.625 C-31.66381936 34.96105371 -31.66381936 34.96105371 -32.75 28.625 C-31.08402671 18.35149803 -21.17522521 9.92407186 -13.15625 3.84375 C-5.77665441 -1.15533088 -5.77665441 -1.15533088 0 0 Z M102 52 C85.74928761 79.27798151 87.67440335 126.00708683 94.625 155.5625 C98.03815188 167.42004247 103.08996014 179.23713544 113 187 C117.24399636 186.37893374 117.24399636 186.37893374 119.5 182.75 C134.54222027 154.16978148 131.8486133 113.45867003 123.8125 83.1875 C120.18890534 71.6529344 114.90334018 60.38968594 106 52 C104.68 52 103.36 52 102 52 Z M19 72 C20.58807604 89.38525344 22.78739425 106.68582294 25 124 C34.30827302 122.82519636 42.49884397 119.30664736 49.375 112.8125 C52.18548261 106.21867541 52.1225484 99.92838714 49.5625 93.25 C41.96492176 83.61404711 30.69970556 75.89990185 19 72 Z " fill="#000000" transform="translate(871,326)"/>
<path d="M0 0 C0.495 0.495 0.495 0.495 1 1 C0.45903532 14.04679523 -0.92063478 27.00994933 -2.36425781 39.984375 C-2.62288866 42.34151691 -2.87279433 44.69963142 -3.11425781 47.05859375 C-3.46796742 50.5098843 -3.85081336 53.95814945 -4.234375 57.40625 C-4.45319336 59.44103516 -4.67201172 61.47582031 -4.89746094 63.57226562 C-7.36115052 75.70086321 -15.69059422 81.68911507 -25.125 88.9375 C-29.51368025 91.69449144 -31.88438357 93.10657534 -37 93 C-39 91 -39 91 -39.06225586 87.93188477 C-38.16984215 75.23697476 -36.91835466 62.59082586 -35.5625 49.9375 C-35.34529297 47.83955078 -35.12808594 45.74160156 -34.90429688 43.58007812 C-34.68966797 41.56205078 -34.47503906 39.54402344 -34.25390625 37.46484375 C-34.06127197 35.645896 -33.8686377 33.82694824 -33.67016602 31.95288086 C-32.37262101 22.36333788 -30.73342053 16.69097709 -22.94921875 10.62109375 C-19.63871808 8.4048424 -16.32649501 6.19218837 -13 4 C-11.515 2.96875 -10.03 1.9375 -8.5 0.875 C-5 -1 -5 -1 0 0 Z " fill="#000000" transform="translate(1369,337)"/>
<path d="M0 0 C1.98 0.99 1.98 0.99 4 2 C3.53613738 9.23203993 0.54025163 15.54147656 -2.25 22.125 C-2.78431641 23.39891602 -3.31863281 24.67283203 -3.86914062 25.98535156 C-14.67248149 51.58511912 -26.04019093 77.0121886 -39.046875 101.57421875 C-39.92520996 103.24419922 -40.80354492 104.91417969 -41.70849609 106.63476562 C-43.46437863 109.96197172 -45.23774623 113.28001815 -47.02978516 116.58789062 C-47.83206543 118.10962891 -48.6343457 119.63136719 -49.4609375 121.19921875 C-50.19103027 122.55877686 -50.92112305 123.91833496 -51.67333984 125.3190918 C-53.57639987 130.59926037 -51.51482659 133.83910472 -49.3269043 138.77270508 C-48.66601807 140.17415771 -48.00513184 141.57561035 -47.32421875 143.01953125 C-46.58494141 144.58743408 -45.84566406 146.15533691 -45.08398438 147.77075195 C-44.29314453 149.43452881 -43.50230469 151.09830566 -42.6875 152.8125 C-41.87732422 154.51817139 -41.06714844 156.22384277 -40.23242188 157.98120117 C-31.50118723 176.26934157 -22.65900918 194.43607672 -11.6328125 211.4765625 C-9.7039046 215.6389427 -9.749711 217.62924181 -11 222 C-16.71799415 229.01753827 -25.82136126 236.99534409 -34.90625 238.7578125 C-36.43765625 238.87769531 -36.43765625 238.87769531 -38 239 C-42.42940088 232.19710884 -46.17448306 225.09015873 -49.875 217.875 C-50.51832275 216.62630127 -51.16164551 215.37760254 -51.82446289 214.09106445 C-59.00156219 200.12028207 -66.01165379 186.06590534 -73 172 C-73.87398437 173.67449219 -73.87398437 173.67449219 -74.765625 175.3828125 C-108.41855969 239.61970356 -108.41855969 239.61970356 -133 251 C-133.99 250.01 -134.98 249.02 -136 248 C-134.14481584 242.43444752 -131.70841219 238.3340668 -128.609375 233.4140625 C-122.58266897 223.21918553 -117.36871435 212.55172371 -112 202 C-111.26652344 200.56269531 -110.53304687 199.12539063 -109.77734375 197.64453125 C-105.51912711 189.20946516 -101.41897329 180.69716204 -97.3125 172.1875 C-96.7652124 171.05376953 -96.2179248 169.92003906 -95.65405273 168.75195312 C-94.59899245 166.55796756 -93.54959553 164.36124804 -92.50634766 162.16162109 C-91.0437052 159.09173133 -89.54386891 156.03964895 -88.04296875 152.98828125 C-85.50172072 148.09452153 -85.50172072 148.09452153 -87 143 C-87.94065062 140.82097149 -88.94579722 138.66933389 -89.9921875 136.5390625 C-90.60940674 135.27408936 -91.22662598 134.00911621 -91.86254883 132.70581055 C-92.52665771 131.35914307 -93.1907666 130.01247559 -93.875 128.625 C-95.25192829 125.8115043 -96.6282256 122.99769971 -98.00390625 120.18359375 C-98.68469238 118.79382324 -99.36547852 117.40405273 -100.06689453 115.97216797 C-101.76500848 112.48286335 -103.43750589 108.98380538 -105.08984375 105.47265625 C-112.37634334 89.99015139 -119.87715417 74.84144225 -130 61 C-133 56 -133 56 -132 50 C-125.00194806 40.61624854 -114.51677547 31.25838773 -104 26 C-102.35 26.33 -100.7 26.66 -99 27 C-95.46922282 33.14676209 -92.85862417 39.60665267 -90.25 46.1875 C-85.00526333 59.17022676 -79.38325787 71.98283134 -73.76464844 84.80737305 C-73.04954102 86.439729 -72.33443359 88.07208496 -71.59765625 89.75390625 C-70.95320557 91.22158447 -70.30875488 92.6892627 -69.64477539 94.20141602 C-68.38337877 97.1145925 -67.1789954 100.0525115 -66 103 C-60.79134317 92.85612415 -56.16092082 82.60111365 -51.8125 72.0625 C-51.16611572 70.50958252 -50.51973145 68.95666504 -49.85375977 67.35668945 C-46.65016341 59.61286043 -43.53131504 51.84779873 -40.5703125 44.0078125 C-40.03946045 42.60394287 -39.5086084 41.20007324 -38.96166992 39.75366211 C-37.9711906 37.11127334 -36.99401328 34.46384653 -36.0324707 31.81079102 C-30.12322003 15.98897289 -19.28817363 9.35338413 -4.8125 1.75 C-3.224375 1.1725 -1.63625 0.595 0 0 Z " fill="#000000" transform="translate(649,313)"/>
<path d="M0 0 C15.49222922 12.55139663 27.44863989 28.40936299 32 48 C32.23622753 54.06317317 31.56918637 56.23334081 27.9375 61.125 C11.80645161 77 11.80645161 77 3 77 C1 75 1 75 -0.625 68.375 C-5.29408831 50.25407734 -15.65088432 33.09646694 -31.875 23.1875 C-42.14774042 17.84148203 -51.4527709 15.65392301 -63 17 C-68.40869659 19.55945692 -68.40869659 19.55945692 -70 25 C-70 34.81429285 -65.53369662 41.08624889 -59.25 48.3125 C-44.26216273 62.52596568 -25.51509676 72.71618965 -7.8984375 83.24609375 C36.645518 109.936554 36.645518 109.936554 43.375 130.125 C45.05253434 140.52571288 43.04721972 148.24676385 38 157.5 C25.37989759 174.85264082 4.27114568 188.62890325 -17 192 C-40.8536891 193.30914758 -62.78318372 190.04165188 -82 175 C-91.37351073 166.60036051 -99.30133079 156.49334607 -101.8125 143.9375 C-102.06221998 138.69338046 -100.7653627 135.08426382 -97.75 130.8125 C-83.80392157 116.63398693 -83.80392157 116.63398693 -74 115 C-73.195625 116.85625 -73.195625 116.85625 -72.375 118.75 C-63.79257512 137.72167604 -53.47511899 150.44994776 -34 159 C-19.76905821 164.0326867 -5.52332108 166.6479582 9 161 C13.81375192 157.72171131 13.81375192 157.72171131 15 155 C15.13506963 146.49061359 11.60607172 141.05925716 6 135 C-3.43794682 126.45744813 -14.23468972 119.72375735 -25 113 C-26.66546875 111.95714844 -28.3309375 110.91429687 -30.046875 109.83984375 C-38.85144254 104.35984956 -47.70476403 98.97702006 -56.625 93.6875 C-74.67338327 82.87549682 -94.32576425 69.88389895 -101 49 C-102.03346414 38.6653586 -99.32348741 30.20344313 -93 22 C-69.53907613 -5.31271734 -33.33323458 -23.16448834 0 0 Z " fill="#000000" transform="translate(818,350)"/>
<path d="M0 0 C3.3671875 3.03515625 3.3671875 3.03515625 6.875 7.0625 C8.10863281 8.43664062 9.34226562 9.81078125 10.61328125 11.2265625 C11.73089844 12.47179687 12.84851562 13.71703125 14 15 C24.65162195 25.32387973 37.7846476 31.57455798 51 38 C52.41667969 38.75796875 53.83335938 39.5159375 55.29296875 40.296875 C58.83388668 42.43504173 58.83388668 42.43504173 62 41 C63.87635619 38.62104841 65.75040552 36.24021883 67.609375 33.84765625 C72.52304492 27.99460826 78.13799748 22.43100126 85 19 C90.89158767 19.36198314 96.325036 20.8143849 102 22.375 C129.05074904 29.22203479 160.10121813 31.96626062 187 23 C188.32 23 189.64 23 191 23 C191 30.68437214 189.11039939 32.36353008 184 38 C172.06769896 48.42381412 158.69124213 53.9129875 143 56 C140.40256404 89.4710243 141.74164184 122.73618149 146 156 C146.25620117 158.02398926 146.25620117 158.02398926 146.51757812 160.08886719 C147.92880494 170.97191632 149.49993557 181.67284975 152.5 192.25 C154 199 154 199 152.45703125 202.5703125 C147.08925661 210.06300905 139.04756821 217.4933618 131 222 C129.02 221.67 127.04 221.34 125 221 C123.234375 218.15625 123.234375 218.15625 121.75 214.5 C116.34686513 202.83064745 106.16696862 196.39206552 96 189 C94.62457031 187.98679687 93.24914063 186.97359375 91.83203125 185.9296875 C75.71985029 174.1484385 59.02859507 163.72847803 41.75 153.7734375 C37 151 37 151 36 150 C36.45918566 157.19854688 36.99793243 164.342231 37.89453125 171.5 C38.11979492 173.35431641 38.11979492 173.35431641 38.34960938 175.24609375 C38.66229714 177.78189921 38.9908334 180.31579323 39.33398438 182.84765625 C40.41137551 192.03688464 40.41137551 192.03688464 38.51171875 196.484375 C35.44335997 199.55750572 32.32144393 202.44929093 29 205.25 C27.1746875 206.80460937 27.1746875 206.80460937 25.3125 208.390625 C22 211 22 211 18 213 C13 212 13 212 12 211 C11.60111833 208.08175495 11.26342921 205.15513426 10.94921875 202.2265625 C10.64600708 199.4575354 10.64600708 199.4575354 10.33666992 196.63256836 C10.12244385 194.6500708 9.90821777 192.66757324 9.6875 190.625 C7.9909109 175.24387601 6.10281851 159.93847816 3.69921875 144.65234375 C3 140 3 140 3 137 C2.01 137.33 1.02 137.66 0 138 C-9.46745562 138.35502959 -9.46745562 138.35502959 -13 136 C-11.7309509 128.38570539 -8.90329888 126.69029226 -3 122 C-2.34 122 -1.68 122 -1 122 C-3.37836673 105.02546387 -5.85043917 88.08881457 -8.8515625 71.2109375 C-10.54110068 61.31055955 -11.29833071 52.0438005 -11 42 C-12.32 41.34 -13.64 40.68 -15 40 C-21.05163736 34.49851149 -26.4403449 29.16632132 -27.5625 20.8125 C-26.79121076 15.5848729 -24.15097086 12.95307354 -20.16015625 9.6484375 C-19.13792969 8.89820313 -18.11570312 8.14796875 -17.0625 7.375 C-16.04285156 6.61960937 -15.02320313 5.86421875 -13.97265625 5.0859375 C-8.77744211 1.44041273 -6.52090715 0 0 0 Z M75 51 C75.9075 52.010625 76.815 53.02125 77.75 54.0625 C83.96478292 61.59194854 85.85696279 66.03780757 85 76 C80.85302543 91.63090416 73.38687088 99.44360645 59.8359375 107.46484375 C48.90541825 113.69819392 48.90541825 113.69819392 45 115 C45 115.66 45 116.32 45 117 C47.95547636 119.11605905 50.97987021 121.13591228 54.02734375 123.1171875 C55.93580078 124.365 57.84425781 125.6128125 59.81054688 126.8984375 C61.85256534 128.22441928 63.89488483 129.5499376 65.9375 130.875 C82.2747416 141.50337173 98.4352373 152.2604482 114 164 C114.66 163.67 115.32 163.34 116 163 C115.91435791 161.93378418 115.82871582 160.86756836 115.74047852 159.76904297 C112.99517532 125.39806941 110.98850016 91.48285446 113 57 C107.2298626 55.99595604 101.45878064 54.99744983 95.6875 54 C94.04330078 53.71382813 92.39910156 53.42765625 90.70507812 53.1328125 C89.13564453 52.86210937 87.56621094 52.59140625 85.94921875 52.3125 C84.49862061 52.06113281 83.04802246 51.80976563 81.5534668 51.55078125 C78.10521644 50.92341535 78.10521644 50.92341535 75 51 Z M23 60 C23.69472187 69.91557579 25.02506112 79.67269296 26.5 89.5 C26.72558594 91.03398437 26.95117188 92.56796875 27.18359375 94.1484375 C28.33342129 102.12431292 28.33342129 102.12431292 30 110 C40.95387547 106.8198426 48.99057754 102.09733553 56 93 C57.28742817 89.1377155 57.24248399 86.06160687 57 82 C52.01736736 72.03473472 45.23714883 68.21089205 35.125 64.0625 C33.27132813 63.29035156 31.41765625 62.51820313 29.5078125 61.72265625 C25.49292083 59.88100957 25.49292083 59.88100957 23 60 Z " fill="#000000" transform="translate(1040,339)"/>
<path d="M0 0 C4 1 4 1 6 4 C6.56142821 6.64842038 7.02663535 9.31748348 7.4453125 11.9921875 C7.71311523 13.6947168 7.98091797 15.39724609 8.25683594 17.15136719 C8.68657715 19.98456543 8.68657715 19.98456543 9.125 22.875 C9.58567871 25.88608887 9.58567871 25.88608887 10.05566406 28.95800781 C15.24867364 63.43309362 19.54770407 98.03260712 23.77734375 132.63671875 C24.13806473 135.58138565 24.13806473 135.58138565 24.506073 138.58554077 C25.69884213 148.32706114 26.884324 158.06935579 28.05566406 167.81347656 C30.3014498 186.34010866 32.75868444 204.77111612 35.99536133 223.15258789 C36.49265747 226.04705688 36.49265747 226.04705688 37 229 C37.40931763 231.22254517 37.40931763 231.22254517 37.8269043 233.48999023 C38 237 38 237 35 242 C19.89442258 257.39421903 19.89442258 257.39421903 10 258 C4.91517871 250.92546604 0.24854048 243.66289716 -4.33984375 236.2578125 C-6.95144501 232.0777165 -9.62113909 227.94160393 -12.3125 223.8125 C-25.30944359 203.76636666 -37.49106127 183.46506634 -48 162 C-48.33 161.34 -48.66 160.68 -49 160 C-45.07966065 193.315891 -45.07966065 193.315891 -38.09741211 226.08642578 C-36.62075788 231.73669914 -36.02099101 235.12594604 -37 241 C-42.13264149 248.62563879 -51.42525588 256.47030557 -60.40234375 258.93359375 C-64.8723879 259.01610271 -68.35158134 257.99757221 -72.625 256.6875 C-93.71433527 250.83206971 -114.79495657 249.77005755 -135.0625 258.8125 C-138 260 -138 260 -142 259 C-145.56587835 253.65118248 -145.21733812 246.74172741 -145.875 240.44921875 C-146.04499512 238.88855179 -146.21499023 237.32788483 -146.39013672 235.71992493 C-146.93450665 230.70991888 -147.46771567 225.69880324 -148 220.6875 C-148.53428463 215.71571147 -149.07092056 210.74418916 -149.60986328 205.77290344 C-149.94473213 202.67785626 -150.2766041 199.58248286 -150.60498047 196.48674011 C-151.55606475 187.6252456 -152.68908753 178.81566884 -154 170 C-160.6 170 -167.2 170 -174 170 C-168.7818326 189.60338563 -162.21699308 208.70428185 -153.7734375 227.1640625 C-153.25676514 228.29553711 -152.74009277 229.42701172 -152.20776367 230.59277344 C-150.77064012 233.69550172 -149.29846696 236.7819259 -147.82421875 239.8671875 C-146 245 -146 245 -146.19140625 248.63671875 C-148.82732479 253.53850247 -152.31697042 257.01460709 -156.25 260.9375 C-157.74015625 262.45214844 -159.2303125 263.96679688 -160.765625 265.52734375 C-165 269 -165 269 -171 269 C-174.34765625 267.4609375 -174.34765625 267.4609375 -178.0625 265.375 C-209.59316787 248.98486481 -247.82661555 248.51859157 -281.3828125 258.41796875 C-292.62152611 262.26879702 -303.49397566 267.08804123 -314 272.625 C-319 275 -319 275 -324 274 C-324 267.54229745 -321.20840227 265.24568938 -317.3046875 260.36328125 C-293.57363029 229.03043148 -274.48585933 193.5973881 -256 159 C-255.15050781 157.44796875 -254.30101562 155.8959375 -253.42578125 154.296875 C-243.05525026 135.12558743 -234.33978512 115.1952402 -226.8125 94.75 C-226.12619507 92.88637817 -226.12619507 92.88637817 -225.42602539 90.98510742 C-223.17110482 84.71523399 -221.25729408 78.54635802 -220 72 C-222.09021484 72.74443359 -222.09021484 72.74443359 -224.22265625 73.50390625 C-262.5085389 87 -262.5085389 87 -271 87 C-269.93458984 89.55041016 -269.93458984 89.55041016 -268.84765625 92.15234375 C-267.91866984 94.41381571 -266.99031788 96.67554837 -266.0625 98.9375 C-265.59392578 100.05447266 -265.12535156 101.17144531 -264.64257812 102.32226562 C-262.09663436 108.56807011 -260.01348454 114.21053297 -260 121 C-265.14916548 128.32325758 -272.970141 135.9850705 -281 140 C-286 139 -286 139 -288.453125 135.6953125 C-291.44143274 130.18619302 -294.11870031 124.55966892 -296.75 118.875 C-302.1834489 107.35685844 -308.10463969 96.9300654 -316 86.9375 C-319 83 -319 83 -320 78 C-314.37768211 67.37699642 -301.50820015 59.25410008 -291 54 C-285.81214393 54.36534198 -280.84923168 55.03051264 -275.75 56.0625 C-244.64944482 61.13324269 -219.60738127 42.7228903 -195.0390625 25.99609375 C-188.86563844 21.94131265 -188.86563844 21.94131265 -184.3125 22.25 C-183.219375 22.4975 -182.12625 22.745 -181 23 C-175.76892915 33.4621417 -183.24676354 50.95604312 -186.5 61.3125 C-199.73018313 99.73986607 -219.34049691 136.14320806 -240 171 C-241.62511115 173.79160197 -243.25012157 176.58326257 -244.875 179.375 C-254.20616191 195.20409973 -263.73614681 210.95513464 -274.08203125 226.14453125 C-275.80457011 228.7090443 -277.41056053 231.35093422 -279 234 C-278.02804687 233.68546875 -277.05609375 233.3709375 -276.0546875 233.046875 C-257.20892976 227.19940624 -238.06359824 223.8844268 -218.3125 223.8125 C-215.67701172 223.79123047 -215.67701172 223.79123047 -212.98828125 223.76953125 C-205.58380636 224.05450452 -198.33454172 224.98123348 -191 226 C-191.33733154 225.03924561 -191.67466309 224.07849121 -192.0222168 223.08862305 C-208 177.44054748 -208 177.44054748 -208 166 C-202.9835201 156.56901779 -193.08212286 148.426281 -184 143 C-179 144 -179 144 -178 145 C-177.60116271 147.68123462 -177.25545562 150.37047576 -176.9375 153.0625 C-176.67259766 155.27646484 -176.67259766 155.27646484 -176.40234375 157.53515625 C-176.26957031 158.67855469 -176.13679687 159.82195312 -176 161 C-172.19107482 157.74654307 -168.41389122 154.47335153 -164.6875 151.125 C-161 148 -161 148 -159 148 C-159.30164063 146.96488281 -159.60328125 145.92976562 -159.9140625 144.86328125 C-161.2945538 138.68086517 -161.81220955 132.48364156 -162.375 126.1875 C-164.10467056 103.19619506 -164.10467056 103.19619506 -172 82 C-177.05942525 80.28696974 -177.05942525 80.28696974 -182 80 C-182.33 79.67 -182.66 79.34 -183 79 C-183 69.63872489 -173.31112959 63.34702227 -167 57 C-166.10410156 56.03449219 -165.20820313 55.06898438 -164.28515625 54.07421875 C-162.125 51.875 -162.125 51.875 -158 49 C-148.85946172 49.33650954 -140.11758164 51.68419567 -131.2421875 53.74609375 C-116.42678063 56.72215483 -102.15790628 57.23469095 -87.0625 57.0625 C-83.28258828 57.02828692 -79.50263719 56.99809714 -75.72265625 56.97265625 C-73.24390991 56.94570679 -73.24390991 56.94570679 -70.71508789 56.91821289 C-67 57 -67 57 -66 58 C-66 64.11310027 -68.01178502 65.99058047 -72.109375 70.30078125 C-85.14749656 82.47556774 -96.92906525 87.57101451 -114.8046875 87.20703125 C-122.21163437 86.9118672 -129.60646702 86.53631845 -137 86 C-136.57074219 87.87558594 -136.14148438 89.75117188 -135.69921875 91.68359375 C-133.61673336 101.40798027 -132.22716655 111.22270821 -130.8125 121.0625 C-130.40354492 123.83817383 -130.40354492 123.83817383 -129.98632812 126.66992188 C-128 140.34521852 -128 140.34521852 -128 146 C-114.98055699 146.14964877 -102.0053576 145.57166407 -89 145 C-88.67 146.32 -88.34 147.64 -88 149 C-94.46006275 157.46986005 -102.76390062 166.43287446 -113 170 C-119.5 170.25 -119.5 170.25 -125 170 C-124.70351563 171.69640625 -124.40703125 173.3928125 -124.1015625 175.140625 C-123.00072652 181.99547601 -122.11815342 188.84935749 -121.375 195.75 C-121.24311279 196.96977539 -121.11122559 198.18955078 -120.9753418 199.44628906 C-120.05983632 208.36344257 -119.73142848 217.04761613 -120 226 C-119.34 225.67 -118.68 225.34 -118 225 C-114.46108892 224.7661894 -110.91847733 224.58692374 -107.375 224.4375 C-105.44398438 224.35371094 -103.51296875 224.26992188 -101.5234375 224.18359375 C-100.03070313 224.12300781 -98.53796875 224.06242188 -97 224 C-98.010625 222.576875 -99.02125 221.15375 -100.0625 219.6875 C-111 203.88888889 -111 203.88888889 -111 196 C-106.34792709 189.52755074 -100.78141973 185.13930815 -94 181 C-85.00360689 183.24909828 -78.84444405 196.56031806 -74 204 C-75.56908513 184.27646702 -78.37414003 164.71986293 -81.0625 145.125 C-81.52707202 141.7148954 -81.99126758 138.3047395 -82.45507812 134.89453125 C-84.43288192 120.13530124 -84.43288192 120.13530124 -86.53904724 105.39425659 C-88.24402735 92.83952106 -88.24402735 92.83952106 -84.984375 88.01953125 C-81.54778914 84.54246205 -77.941429 81.96095267 -73.875 79.25 C-72.46992188 78.30640625 -71.06484375 77.3628125 -69.6171875 76.390625 C-67.82667969 75.20726562 -67.82667969 75.20726562 -66 74 C-64.515 73.01 -64.515 73.01 -63 72 C-61.35 72 -59.7 72 -58 72 C-53.27187409 78.09867606 -49.92451227 84.81050499 -46.515625 91.7109375 C-44.98808594 94.78728516 -44.98808594 94.78728516 -43.4296875 97.92578125 C-42.36942544 100.07534023 -41.30953118 102.22508067 -40.25 104.375 C-33.01196253 119.01526908 -25.69109543 133.59171894 -18 148 C-17.30600098 149.30404785 -16.61200195 150.6080957 -15.89697266 151.95166016 C-13.99892222 155.51220234 -12.09452419 159.06925754 -10.1875 162.625 C-9.55908203 163.79933594 -8.93066406 164.97367188 -8.28320312 166.18359375 C-4.90625783 172.4848676 -1.49180777 178.76130345 2 185 C-4.36018047 139.64187083 -11.91308971 94.46581434 -20.59619141 49.49633789 C-20.82431519 48.30350693 -21.05243896 47.11067596 -21.28747559 45.88169861 C-21.90274254 42.66768801 -22.52555448 39.45512434 -23.14892578 36.24267578 C-24.29744393 29.16772492 -24.75411893 25.25686488 -21 19 C-18.80368757 16.61606289 -16.54696924 14.287111 -14.25 12 C-13.05890625 10.80375 -11.8678125 9.6075 -10.640625 8.375 C-7.22322579 5.20693893 -3.98505521 2.41747425 0 0 Z " fill="#000000" transform="translate(443,290)"/>
<path d="M0 0 C2.42785165 4.8557033 1.78889148 11.76337116 2.1875 17.1875 C4.11218885 41.82679228 7.16004589 66.40172596 10.890625 90.83251953 C11.17421875 92.69376465 11.4578125 94.55500977 11.75 96.47265625 C12.14445313 98.96904663 12.14445313 98.96904663 12.546875 101.51586914 C13.14554257 107.44029118 13.30204794 111.34796157 9.55859375 116.09765625 C-5.7310253 130.62183755 -5.7310253 130.62183755 -14 132 C-19.84922895 126.15077105 -18.97486073 108.93830502 -19.875 100.796875 C-20.04499512 99.27966858 -20.21499023 97.76246216 -20.39013672 96.19927979 C-20.92927317 91.38313033 -21.46477021 86.56658503 -22 81.75 C-22.53599812 76.94778577 -23.07275616 72.14565721 -23.60986328 67.34356689 C-23.94238147 64.36835648 -24.27414233 61.39306128 -24.60498047 58.41766357 C-24.83531982 56.35031952 -24.83531982 56.35031952 -25.0703125 54.24121094 C-25.22016602 52.89281128 -25.37001953 51.54441162 -25.52441406 50.15515137 C-25.85637216 47.2548635 -26.20326328 44.35626291 -26.56152344 41.45910645 C-26.83657715 39.22912903 -26.83657715 39.22912903 -27.1171875 36.95410156 C-27.28589355 35.62010315 -27.45459961 34.28610474 -27.62841797 32.91168213 C-28.63937714 22.26921133 -28.63937714 22.26921133 -26.4296875 17.8828125 C-23.57696549 14.49807159 -20.51325839 11.72405168 -17.125 8.875 C-15.93132812 7.86179687 -14.73765625 6.84859375 -13.5078125 5.8046875 C-4.7596817 -1.18992042 -4.7596817 -1.18992042 0 0 Z " fill="#000000" transform="translate(510,415)"/>
<path d="M0 0 C0.495 1.98 0.495 1.98 1 4 C-1.1328125 7.0234375 -1.1328125 7.0234375 -4.125 10.375 C-5.09695313 11.47585938 -6.06890625 12.57671875 -7.0703125 13.7109375 C-8.03710938 14.79632813 -9.00390625 15.88171875 -10 17 C-11.23363281 18.59714844 -11.23363281 18.59714844 -12.4921875 20.2265625 C-16.66502903 24.84138725 -20.56658958 25.95498085 -26.62451172 26.58422852 C-29.99307373 26.73009399 -29.99307373 26.73009399 -33.4296875 26.87890625 C-35.26262863 26.96530617 -35.26262863 26.96530617 -37.13259888 27.05345154 C-41.04627754 27.23585308 -44.9604449 27.40009736 -48.875 27.5625 C-53.9768651 27.7865488 -59.07830948 28.01905695 -64.1796875 28.25390625 C-65.4244989 28.30890289 -66.6693103 28.36389954 -67.95184326 28.42056274 C-78.20954177 28.89758118 -88.39616419 29.77278726 -98.61376953 30.80834961 C-100.06122559 30.87159424 -101.50868164 30.93483887 -103 31 C-103.66 30.34 -104.32 29.68 -105 29 C-103.87319136 22.23914817 -102.28224201 20.44260094 -97.8125 15.4375 C-96.68457031 14.15746094 -95.55664062 12.87742187 -94.39453125 11.55859375 C-74.72660514 -9.05991107 -27.01097714 -0.195318 0 0 Z " fill="#000000" transform="translate(722,432)"/>
</svg>
